<?xml version="1.0" encoding="utf-8" standalone="no"?>
<!DOCTYPE svg PUBLIC "-//W3C//DTD SVG 1.1//EN"
  "http://www.w3.org/Graphics/SVG/1.1/DTD/svg11.dtd">
<svg xmlns:xlink="http://www.w3.org/1999/xlink" width="460.8pt" height="345.6pt" viewBox="0 0 460.8 345.6" xmlns="http://www.w3.org/2000/svg" version="1.1">
 <metadata>
  <rdf:RDF xmlns:dc="http://purl.org/dc/elements/1.1/" xmlns:cc="http://creativecommons.org/ns#" xmlns:rdf="http://www.w3.org/1999/02/22-rdf-syntax-ns#">
   <cc:Work>
    <dc:type rdf:resource="http://purl.org/dc/dcmitype/StillImage"/>
    <dc:date>2024-03-10T15:58:44.135909</dc:date>
    <dc:format>image/svg+xml</dc:format>
    <dc:creator>
     <cc:Agent>
      <dc:title>Matplotlib v3.8.3, https://matplotlib.org/</dc:title>
     </cc:Agent>
    </dc:creator>
   </cc:Work>
  </rdf:RDF>
 </metadata>
 <defs>
  <style type="text/css">*{stroke-linejoin: round; stroke-linecap: butt}</style>
 </defs>
 <g id="figure_1">
  <g id="patch_1">
   <path d="M 0 345.6 
L 460.8 345.6 
L 460.8 0 
L 0 0 
z
" style="fill: #ffffff"/>
  </g>
  <g id="axes_1">
   <g id="patch_2">
    <path d="M 57.6 307.584 
L 414.72 307.584 
L 414.72 41.472 
L 57.6 41.472 
z
" style="fill: #ffffff"/>
   </g>
   <g id="matplotlib.axis_1">
    <g id="xtick_1">
     <g id="line2d_1">
      <defs>
       <path id="mc7621f3ec0" d="M 0 0 
L 0 3.5 
" style="stroke: #000000; stroke-width: 0.8"/>
      </defs>
      <g>
       <use xlink:href="#mc7621f3ec0" x="73.832727" y="307.584" style="stroke: #000000; stroke-width: 0.8"/>
      </g>
     </g>
     <g id="text_1">
      <!-- 0 -->
      <g transform="translate(70.651477 322.182437) scale(0.1 -0.1)">
       <defs>
        <path id="DejaVuSans-30" d="M 2034 4250 
Q 1547 4250 1301 3770 
Q 1056 3291 1056 2328 
Q 1056 1369 1301 889 
Q 1547 409 2034 409 
Q 2525 409 2770 889 
Q 3016 1369 3016 2328 
Q 3016 3291 2770 3770 
Q 2525 4250 2034 4250 
z
M 2034 4750 
Q 2819 4750 3233 4129 
Q 3647 3509 3647 2328 
Q 3647 1150 3233 529 
Q 2819 -91 2034 -91 
Q 1250 -91 836 529 
Q 422 1150 422 2328 
Q 422 3509 836 4129 
Q 1250 4750 2034 4750 
z
" transform="scale(0.015625)"/>
       </defs>
       <use xlink:href="#DejaVuSans-30"/>
      </g>
     </g>
    </g>
    <g id="xtick_2">
     <g id="line2d_2">
      <g>
       <use xlink:href="#mc7621f3ec0" x="138.763636" y="307.584" style="stroke: #000000; stroke-width: 0.8"/>
      </g>
     </g>
     <g id="text_2">
      <!-- 200 -->
      <g transform="translate(129.219886 322.182437) scale(0.1 -0.1)">
       <defs>
        <path id="DejaVuSans-32" d="M 1228 531 
L 3431 531 
L 3431 0 
L 469 0 
L 469 531 
Q 828 903 1448 1529 
Q 2069 2156 2228 2338 
Q 2531 2678 2651 2914 
Q 2772 3150 2772 3378 
Q 2772 3750 2511 3984 
Q 2250 4219 1831 4219 
Q 1534 4219 1204 4116 
Q 875 4013 500 3803 
L 500 4441 
Q 881 4594 1212 4672 
Q 1544 4750 1819 4750 
Q 2544 4750 2975 4387 
Q 3406 4025 3406 3419 
Q 3406 3131 3298 2873 
Q 3191 2616 2906 2266 
Q 2828 2175 2409 1742 
Q 1991 1309 1228 531 
z
" transform="scale(0.015625)"/>
       </defs>
       <use xlink:href="#DejaVuSans-32"/>
       <use xlink:href="#DejaVuSans-30" x="63.623047"/>
       <use xlink:href="#DejaVuSans-30" x="127.246094"/>
      </g>
     </g>
    </g>
    <g id="xtick_3">
     <g id="line2d_3">
      <g>
       <use xlink:href="#mc7621f3ec0" x="203.694545" y="307.584" style="stroke: #000000; stroke-width: 0.8"/>
      </g>
     </g>
     <g id="text_3">
      <!-- 400 -->
      <g transform="translate(194.150795 322.182437) scale(0.1 -0.1)">
       <defs>
        <path id="DejaVuSans-34" d="M 2419 4116 
L 825 1625 
L 2419 1625 
L 2419 4116 
z
M 2253 4666 
L 3047 4666 
L 3047 1625 
L 3713 1625 
L 3713 1100 
L 3047 1100 
L 3047 0 
L 2419 0 
L 2419 1100 
L 313 1100 
L 313 1709 
L 2253 4666 
z
" transform="scale(0.015625)"/>
       </defs>
       <use xlink:href="#DejaVuSans-34"/>
       <use xlink:href="#DejaVuSans-30" x="63.623047"/>
       <use xlink:href="#DejaVuSans-30" x="127.246094"/>
      </g>
     </g>
    </g>
    <g id="xtick_4">
     <g id="line2d_4">
      <g>
       <use xlink:href="#mc7621f3ec0" x="268.625455" y="307.584" style="stroke: #000000; stroke-width: 0.8"/>
      </g>
     </g>
     <g id="text_4">
      <!-- 600 -->
      <g transform="translate(259.081705 322.182437) scale(0.1 -0.1)">
       <defs>
        <path id="DejaVuSans-36" d="M 2113 2584 
Q 1688 2584 1439 2293 
Q 1191 2003 1191 1497 
Q 1191 994 1439 701 
Q 1688 409 2113 409 
Q 2538 409 2786 701 
Q 3034 994 3034 1497 
Q 3034 2003 2786 2293 
Q 2538 2584 2113 2584 
z
M 3366 4563 
L 3366 3988 
Q 3128 4100 2886 4159 
Q 2644 4219 2406 4219 
Q 1781 4219 1451 3797 
Q 1122 3375 1075 2522 
Q 1259 2794 1537 2939 
Q 1816 3084 2150 3084 
Q 2853 3084 3261 2657 
Q 3669 2231 3669 1497 
Q 3669 778 3244 343 
Q 2819 -91 2113 -91 
Q 1303 -91 875 529 
Q 447 1150 447 2328 
Q 447 3434 972 4092 
Q 1497 4750 2381 4750 
Q 2619 4750 2861 4703 
Q 3103 4656 3366 4563 
z
" transform="scale(0.015625)"/>
       </defs>
       <use xlink:href="#DejaVuSans-36"/>
       <use xlink:href="#DejaVuSans-30" x="63.623047"/>
       <use xlink:href="#DejaVuSans-30" x="127.246094"/>
      </g>
     </g>
    </g>
    <g id="xtick_5">
     <g id="line2d_5">
      <g>
       <use xlink:href="#mc7621f3ec0" x="333.556364" y="307.584" style="stroke: #000000; stroke-width: 0.8"/>
      </g>
     </g>
     <g id="text_5">
      <!-- 800 -->
      <g transform="translate(324.012614 322.182437) scale(0.1 -0.1)">
       <defs>
        <path id="DejaVuSans-38" d="M 2034 2216 
Q 1584 2216 1326 1975 
Q 1069 1734 1069 1313 
Q 1069 891 1326 650 
Q 1584 409 2034 409 
Q 2484 409 2743 651 
Q 3003 894 3003 1313 
Q 3003 1734 2745 1975 
Q 2488 2216 2034 2216 
z
M 1403 2484 
Q 997 2584 770 2862 
Q 544 3141 544 3541 
Q 544 4100 942 4425 
Q 1341 4750 2034 4750 
Q 2731 4750 3128 4425 
Q 3525 4100 3525 3541 
Q 3525 3141 3298 2862 
Q 3072 2584 2669 2484 
Q 3125 2378 3379 2068 
Q 3634 1759 3634 1313 
Q 3634 634 3220 271 
Q 2806 -91 2034 -91 
Q 1263 -91 848 271 
Q 434 634 434 1313 
Q 434 1759 690 2068 
Q 947 2378 1403 2484 
z
M 1172 3481 
Q 1172 3119 1398 2916 
Q 1625 2713 2034 2713 
Q 2441 2713 2670 2916 
Q 2900 3119 2900 3481 
Q 2900 3844 2670 4047 
Q 2441 4250 2034 4250 
Q 1625 4250 1398 4047 
Q 1172 3844 1172 3481 
z
" transform="scale(0.015625)"/>
       </defs>
       <use xlink:href="#DejaVuSans-38"/>
       <use xlink:href="#DejaVuSans-30" x="63.623047"/>
       <use xlink:href="#DejaVuSans-30" x="127.246094"/>
      </g>
     </g>
    </g>
    <g id="xtick_6">
     <g id="line2d_6">
      <g>
       <use xlink:href="#mc7621f3ec0" x="398.487273" y="307.584" style="stroke: #000000; stroke-width: 0.8"/>
      </g>
     </g>
     <g id="text_6">
      <!-- 1000 -->
      <g transform="translate(385.762273 322.182437) scale(0.1 -0.1)">
       <defs>
        <path id="DejaVuSans-31" d="M 794 531 
L 1825 531 
L 1825 4091 
L 703 3866 
L 703 4441 
L 1819 4666 
L 2450 4666 
L 2450 531 
L 3481 531 
L 3481 0 
L 794 0 
L 794 531 
z
" transform="scale(0.015625)"/>
       </defs>
       <use xlink:href="#DejaVuSans-31"/>
       <use xlink:href="#DejaVuSans-30" x="63.623047"/>
       <use xlink:href="#DejaVuSans-30" x="127.246094"/>
       <use xlink:href="#DejaVuSans-30" x="190.869141"/>
      </g>
     </g>
    </g>
    <g id="text_7">
     <!-- MCS -->
     <g transform="translate(225.180312 335.860562) scale(0.1 -0.1)">
      <defs>
       <path id="DejaVuSans-4d" d="M 628 4666 
L 1569 4666 
L 2759 1491 
L 3956 4666 
L 4897 4666 
L 4897 0 
L 4281 0 
L 4281 4097 
L 3078 897 
L 2444 897 
L 1241 4097 
L 1241 0 
L 628 0 
L 628 4666 
z
" transform="scale(0.015625)"/>
       <path id="DejaVuSans-43" d="M 4122 4306 
L 4122 3641 
Q 3803 3938 3442 4084 
Q 3081 4231 2675 4231 
Q 1875 4231 1450 3742 
Q 1025 3253 1025 2328 
Q 1025 1406 1450 917 
Q 1875 428 2675 428 
Q 3081 428 3442 575 
Q 3803 722 4122 1019 
L 4122 359 
Q 3791 134 3420 21 
Q 3050 -91 2638 -91 
Q 1578 -91 968 557 
Q 359 1206 359 2328 
Q 359 3453 968 4101 
Q 1578 4750 2638 4750 
Q 3056 4750 3426 4639 
Q 3797 4528 4122 4306 
z
" transform="scale(0.015625)"/>
       <path id="DejaVuSans-53" d="M 3425 4513 
L 3425 3897 
Q 3066 4069 2747 4153 
Q 2428 4238 2131 4238 
Q 1616 4238 1336 4038 
Q 1056 3838 1056 3469 
Q 1056 3159 1242 3001 
Q 1428 2844 1947 2747 
L 2328 2669 
Q 3034 2534 3370 2195 
Q 3706 1856 3706 1288 
Q 3706 609 3251 259 
Q 2797 -91 1919 -91 
Q 1588 -91 1214 -16 
Q 841 59 441 206 
L 441 856 
Q 825 641 1194 531 
Q 1563 422 1919 422 
Q 2459 422 2753 634 
Q 3047 847 3047 1241 
Q 3047 1584 2836 1778 
Q 2625 1972 2144 2069 
L 1759 2144 
Q 1053 2284 737 2584 
Q 422 2884 422 3419 
Q 422 4038 858 4394 
Q 1294 4750 2059 4750 
Q 2388 4750 2728 4690 
Q 3069 4631 3425 4513 
z
" transform="scale(0.015625)"/>
      </defs>
      <use xlink:href="#DejaVuSans-4d"/>
      <use xlink:href="#DejaVuSans-43" x="86.279297"/>
      <use xlink:href="#DejaVuSans-53" x="156.103516"/>
     </g>
    </g>
   </g>
   <g id="matplotlib.axis_2">
    <g id="ytick_1">
     <g id="line2d_7">
      <defs>
       <path id="m175f5cb175" d="M 0 0 
L -3.5 0 
" style="stroke: #000000; stroke-width: 0.8"/>
      </defs>
      <g>
       <use xlink:href="#m175f5cb175" x="57.6" y="280.863619" style="stroke: #000000; stroke-width: 0.8"/>
      </g>
     </g>
     <g id="text_8">
      <!-- −90 -->
      <g transform="translate(29.495313 284.662838) scale(0.1 -0.1)">
       <defs>
        <path id="DejaVuSans-2212" d="M 678 2272 
L 4684 2272 
L 4684 1741 
L 678 1741 
L 678 2272 
z
" transform="scale(0.015625)"/>
        <path id="DejaVuSans-39" d="M 703 97 
L 703 672 
Q 941 559 1184 500 
Q 1428 441 1663 441 
Q 2288 441 2617 861 
Q 2947 1281 2994 2138 
Q 2813 1869 2534 1725 
Q 2256 1581 1919 1581 
Q 1219 1581 811 2004 
Q 403 2428 403 3163 
Q 403 3881 828 4315 
Q 1253 4750 1959 4750 
Q 2769 4750 3195 4129 
Q 3622 3509 3622 2328 
Q 3622 1225 3098 567 
Q 2575 -91 1691 -91 
Q 1453 -91 1209 -44 
Q 966 3 703 97 
z
M 1959 2075 
Q 2384 2075 2632 2365 
Q 2881 2656 2881 3163 
Q 2881 3666 2632 3958 
Q 2384 4250 1959 4250 
Q 1534 4250 1286 3958 
Q 1038 3666 1038 3163 
Q 1038 2656 1286 2365 
Q 1534 2075 1959 2075 
z
" transform="scale(0.015625)"/>
       </defs>
       <use xlink:href="#DejaVuSans-2212"/>
       <use xlink:href="#DejaVuSans-39" x="83.789062"/>
       <use xlink:href="#DejaVuSans-30" x="147.412109"/>
      </g>
     </g>
    </g>
    <g id="ytick_2">
     <g id="line2d_8">
      <g>
       <use xlink:href="#m175f5cb175" x="57.6" y="242.316528" style="stroke: #000000; stroke-width: 0.8"/>
      </g>
     </g>
     <g id="text_9">
      <!-- −80 -->
      <g transform="translate(29.495313 246.115747) scale(0.1 -0.1)">
       <use xlink:href="#DejaVuSans-2212"/>
       <use xlink:href="#DejaVuSans-38" x="83.789062"/>
       <use xlink:href="#DejaVuSans-30" x="147.412109"/>
      </g>
     </g>
    </g>
    <g id="ytick_3">
     <g id="line2d_9">
      <g>
       <use xlink:href="#m175f5cb175" x="57.6" y="203.769438" style="stroke: #000000; stroke-width: 0.8"/>
      </g>
     </g>
     <g id="text_10">
      <!-- −70 -->
      <g transform="translate(29.495313 207.568656) scale(0.1 -0.1)">
       <defs>
        <path id="DejaVuSans-37" d="M 525 4666 
L 3525 4666 
L 3525 4397 
L 1831 0 
L 1172 0 
L 2766 4134 
L 525 4134 
L 525 4666 
z
" transform="scale(0.015625)"/>
       </defs>
       <use xlink:href="#DejaVuSans-2212"/>
       <use xlink:href="#DejaVuSans-37" x="83.789062"/>
       <use xlink:href="#DejaVuSans-30" x="147.412109"/>
      </g>
     </g>
    </g>
    <g id="ytick_4">
     <g id="line2d_10">
      <g>
       <use xlink:href="#m175f5cb175" x="57.6" y="165.222347" style="stroke: #000000; stroke-width: 0.8"/>
      </g>
     </g>
     <g id="text_11">
      <!-- −60 -->
      <g transform="translate(29.495313 169.021566) scale(0.1 -0.1)">
       <use xlink:href="#DejaVuSans-2212"/>
       <use xlink:href="#DejaVuSans-36" x="83.789062"/>
       <use xlink:href="#DejaVuSans-30" x="147.412109"/>
      </g>
     </g>
    </g>
    <g id="ytick_5">
     <g id="line2d_11">
      <g>
       <use xlink:href="#m175f5cb175" x="57.6" y="126.675256" style="stroke: #000000; stroke-width: 0.8"/>
      </g>
     </g>
     <g id="text_12">
      <!-- −50 -->
      <g transform="translate(29.495313 130.474475) scale(0.1 -0.1)">
       <defs>
        <path id="DejaVuSans-35" d="M 691 4666 
L 3169 4666 
L 3169 4134 
L 1269 4134 
L 1269 2991 
Q 1406 3038 1543 3061 
Q 1681 3084 1819 3084 
Q 2600 3084 3056 2656 
Q 3513 2228 3513 1497 
Q 3513 744 3044 326 
Q 2575 -91 1722 -91 
Q 1428 -91 1123 -41 
Q 819 9 494 109 
L 494 744 
Q 775 591 1075 516 
Q 1375 441 1709 441 
Q 2250 441 2565 725 
Q 2881 1009 2881 1497 
Q 2881 1984 2565 2268 
Q 2250 2553 1709 2553 
Q 1456 2553 1204 2497 
Q 953 2441 691 2322 
L 691 4666 
z
" transform="scale(0.015625)"/>
       </defs>
       <use xlink:href="#DejaVuSans-2212"/>
       <use xlink:href="#DejaVuSans-35" x="83.789062"/>
       <use xlink:href="#DejaVuSans-30" x="147.412109"/>
      </g>
     </g>
    </g>
    <g id="ytick_6">
     <g id="line2d_12">
      <g>
       <use xlink:href="#m175f5cb175" x="57.6" y="88.128165" style="stroke: #000000; stroke-width: 0.8"/>
      </g>
     </g>
     <g id="text_13">
      <!-- −40 -->
      <g transform="translate(29.495313 91.927384) scale(0.1 -0.1)">
       <use xlink:href="#DejaVuSans-2212"/>
       <use xlink:href="#DejaVuSans-34" x="83.789062"/>
       <use xlink:href="#DejaVuSans-30" x="147.412109"/>
      </g>
     </g>
    </g>
    <g id="ytick_7">
     <g id="line2d_13">
      <g>
       <use xlink:href="#m175f5cb175" x="57.6" y="49.581074" style="stroke: #000000; stroke-width: 0.8"/>
      </g>
     </g>
     <g id="text_14">
      <!-- −30 -->
      <g transform="translate(29.495313 53.380293) scale(0.1 -0.1)">
       <defs>
        <path id="DejaVuSans-33" d="M 2597 2516 
Q 3050 2419 3304 2112 
Q 3559 1806 3559 1356 
Q 3559 666 3084 287 
Q 2609 -91 1734 -91 
Q 1441 -91 1130 -33 
Q 819 25 488 141 
L 488 750 
Q 750 597 1062 519 
Q 1375 441 1716 441 
Q 2309 441 2620 675 
Q 2931 909 2931 1356 
Q 2931 1769 2642 2001 
Q 2353 2234 1838 2234 
L 1294 2234 
L 1294 2753 
L 1863 2753 
Q 2328 2753 2575 2939 
Q 2822 3125 2822 3475 
Q 2822 3834 2567 4026 
Q 2313 4219 1838 4219 
Q 1578 4219 1281 4162 
Q 984 4106 628 3988 
L 628 4550 
Q 988 4650 1302 4700 
Q 1616 4750 1894 4750 
Q 2613 4750 3031 4423 
Q 3450 4097 3450 3541 
Q 3450 3153 3228 2886 
Q 3006 2619 2597 2516 
z
" transform="scale(0.015625)"/>
       </defs>
       <use xlink:href="#DejaVuSans-2212"/>
       <use xlink:href="#DejaVuSans-33" x="83.789062"/>
       <use xlink:href="#DejaVuSans-30" x="147.412109"/>
      </g>
     </g>
    </g>
    <g id="text_15">
     <!-- Reduced Energy U/($\epsilon$) -->
     <g transform="translate(23.395312 229.178) rotate(-90) scale(0.1 -0.1)">
      <defs>
       <path id="DejaVuSans-52" d="M 2841 2188 
Q 3044 2119 3236 1894 
Q 3428 1669 3622 1275 
L 4263 0 
L 3584 0 
L 2988 1197 
Q 2756 1666 2539 1819 
Q 2322 1972 1947 1972 
L 1259 1972 
L 1259 0 
L 628 0 
L 628 4666 
L 2053 4666 
Q 2853 4666 3247 4331 
Q 3641 3997 3641 3322 
Q 3641 2881 3436 2590 
Q 3231 2300 2841 2188 
z
M 1259 4147 
L 1259 2491 
L 2053 2491 
Q 2509 2491 2742 2702 
Q 2975 2913 2975 3322 
Q 2975 3731 2742 3939 
Q 2509 4147 2053 4147 
L 1259 4147 
z
" transform="scale(0.015625)"/>
       <path id="DejaVuSans-65" d="M 3597 1894 
L 3597 1613 
L 953 1613 
Q 991 1019 1311 708 
Q 1631 397 2203 397 
Q 2534 397 2845 478 
Q 3156 559 3463 722 
L 3463 178 
Q 3153 47 2828 -22 
Q 2503 -91 2169 -91 
Q 1331 -91 842 396 
Q 353 884 353 1716 
Q 353 2575 817 3079 
Q 1281 3584 2069 3584 
Q 2775 3584 3186 3129 
Q 3597 2675 3597 1894 
z
M 3022 2063 
Q 3016 2534 2758 2815 
Q 2500 3097 2075 3097 
Q 1594 3097 1305 2825 
Q 1016 2553 972 2059 
L 3022 2063 
z
" transform="scale(0.015625)"/>
       <path id="DejaVuSans-64" d="M 2906 2969 
L 2906 4863 
L 3481 4863 
L 3481 0 
L 2906 0 
L 2906 525 
Q 2725 213 2448 61 
Q 2172 -91 1784 -91 
Q 1150 -91 751 415 
Q 353 922 353 1747 
Q 353 2572 751 3078 
Q 1150 3584 1784 3584 
Q 2172 3584 2448 3432 
Q 2725 3281 2906 2969 
z
M 947 1747 
Q 947 1113 1208 752 
Q 1469 391 1925 391 
Q 2381 391 2643 752 
Q 2906 1113 2906 1747 
Q 2906 2381 2643 2742 
Q 2381 3103 1925 3103 
Q 1469 3103 1208 2742 
Q 947 2381 947 1747 
z
" transform="scale(0.015625)"/>
       <path id="DejaVuSans-75" d="M 544 1381 
L 544 3500 
L 1119 3500 
L 1119 1403 
Q 1119 906 1312 657 
Q 1506 409 1894 409 
Q 2359 409 2629 706 
Q 2900 1003 2900 1516 
L 2900 3500 
L 3475 3500 
L 3475 0 
L 2900 0 
L 2900 538 
Q 2691 219 2414 64 
Q 2138 -91 1772 -91 
Q 1169 -91 856 284 
Q 544 659 544 1381 
z
M 1991 3584 
L 1991 3584 
z
" transform="scale(0.015625)"/>
       <path id="DejaVuSans-63" d="M 3122 3366 
L 3122 2828 
Q 2878 2963 2633 3030 
Q 2388 3097 2138 3097 
Q 1578 3097 1268 2742 
Q 959 2388 959 1747 
Q 959 1106 1268 751 
Q 1578 397 2138 397 
Q 2388 397 2633 464 
Q 2878 531 3122 666 
L 3122 134 
Q 2881 22 2623 -34 
Q 2366 -91 2075 -91 
Q 1284 -91 818 406 
Q 353 903 353 1747 
Q 353 2603 823 3093 
Q 1294 3584 2113 3584 
Q 2378 3584 2631 3529 
Q 2884 3475 3122 3366 
z
" transform="scale(0.015625)"/>
       <path id="DejaVuSans-20" transform="scale(0.015625)"/>
       <path id="DejaVuSans-45" d="M 628 4666 
L 3578 4666 
L 3578 4134 
L 1259 4134 
L 1259 2753 
L 3481 2753 
L 3481 2222 
L 1259 2222 
L 1259 531 
L 3634 531 
L 3634 0 
L 628 0 
L 628 4666 
z
" transform="scale(0.015625)"/>
       <path id="DejaVuSans-6e" d="M 3513 2113 
L 3513 0 
L 2938 0 
L 2938 2094 
Q 2938 2591 2744 2837 
Q 2550 3084 2163 3084 
Q 1697 3084 1428 2787 
Q 1159 2491 1159 1978 
L 1159 0 
L 581 0 
L 581 3500 
L 1159 3500 
L 1159 2956 
Q 1366 3272 1645 3428 
Q 1925 3584 2291 3584 
Q 2894 3584 3203 3211 
Q 3513 2838 3513 2113 
z
" transform="scale(0.015625)"/>
       <path id="DejaVuSans-72" d="M 2631 2963 
Q 2534 3019 2420 3045 
Q 2306 3072 2169 3072 
Q 1681 3072 1420 2755 
Q 1159 2438 1159 1844 
L 1159 0 
L 581 0 
L 581 3500 
L 1159 3500 
L 1159 2956 
Q 1341 3275 1631 3429 
Q 1922 3584 2338 3584 
Q 2397 3584 2469 3576 
Q 2541 3569 2628 3553 
L 2631 2963 
z
" transform="scale(0.015625)"/>
       <path id="DejaVuSans-67" d="M 2906 1791 
Q 2906 2416 2648 2759 
Q 2391 3103 1925 3103 
Q 1463 3103 1205 2759 
Q 947 2416 947 1791 
Q 947 1169 1205 825 
Q 1463 481 1925 481 
Q 2391 481 2648 825 
Q 2906 1169 2906 1791 
z
M 3481 434 
Q 3481 -459 3084 -895 
Q 2688 -1331 1869 -1331 
Q 1566 -1331 1297 -1286 
Q 1028 -1241 775 -1147 
L 775 -588 
Q 1028 -725 1275 -790 
Q 1522 -856 1778 -856 
Q 2344 -856 2625 -561 
Q 2906 -266 2906 331 
L 2906 616 
Q 2728 306 2450 153 
Q 2172 0 1784 0 
Q 1141 0 747 490 
Q 353 981 353 1791 
Q 353 2603 747 3093 
Q 1141 3584 1784 3584 
Q 2172 3584 2450 3431 
Q 2728 3278 2906 2969 
L 2906 3500 
L 3481 3500 
L 3481 434 
z
" transform="scale(0.015625)"/>
       <path id="DejaVuSans-79" d="M 2059 -325 
Q 1816 -950 1584 -1140 
Q 1353 -1331 966 -1331 
L 506 -1331 
L 506 -850 
L 844 -850 
Q 1081 -850 1212 -737 
Q 1344 -625 1503 -206 
L 1606 56 
L 191 3500 
L 800 3500 
L 1894 763 
L 2988 3500 
L 3597 3500 
L 2059 -325 
z
" transform="scale(0.015625)"/>
       <path id="DejaVuSans-55" d="M 556 4666 
L 1191 4666 
L 1191 1831 
Q 1191 1081 1462 751 
Q 1734 422 2344 422 
Q 2950 422 3222 751 
Q 3494 1081 3494 1831 
L 3494 4666 
L 4128 4666 
L 4128 1753 
Q 4128 841 3676 375 
Q 3225 -91 2344 -91 
Q 1459 -91 1007 375 
Q 556 841 556 1753 
L 556 4666 
z
" transform="scale(0.015625)"/>
       <path id="DejaVuSans-2f" d="M 1625 4666 
L 2156 4666 
L 531 -594 
L 0 -594 
L 1625 4666 
z
" transform="scale(0.015625)"/>
       <path id="DejaVuSans-28" d="M 1984 4856 
Q 1566 4138 1362 3434 
Q 1159 2731 1159 2009 
Q 1159 1288 1364 580 
Q 1569 -128 1984 -844 
L 1484 -844 
Q 1016 -109 783 600 
Q 550 1309 550 2009 
Q 550 2706 781 3412 
Q 1013 4119 1484 4856 
L 1984 4856 
z
" transform="scale(0.015625)"/>
       <path id="DejaVuSans-Oblique-3b5" d="M 1263 1888 
Q 925 1963 778 2166 
Q 669 2309 669 2503 
Q 669 3034 1175 3344 
Q 1575 3588 2188 3588 
Q 2425 3588 2684 3550 
Q 2944 3513 3234 3438 
L 3134 2916 
Q 2847 3006 2606 3047 
Q 2359 3088 2138 3088 
Q 1766 3088 1522 2944 
Q 1228 2772 1228 2522 
Q 1228 2356 1381 2241 
Q 1563 2103 1925 2103 
L 2409 2103 
L 2319 1628 
L 1856 1628 
Q 1425 1628 1172 1469 
Q 828 1253 828 916 
Q 828 703 1013 563 
Q 1244 388 1716 388 
Q 2006 388 2284 444 
Q 2563 503 2806 619 
L 2700 84 
Q 2403 -3 2131 -47 
Q 1859 -91 1609 -91 
Q 866 -91 516 194 
Q 250 413 250 781 
Q 250 1278 600 1584 
Q 859 1813 1263 1888 
z
" transform="scale(0.015625)"/>
       <path id="DejaVuSans-29" d="M 513 4856 
L 1013 4856 
Q 1481 4119 1714 3412 
Q 1947 2706 1947 2009 
Q 1947 1309 1714 600 
Q 1481 -109 1013 -844 
L 513 -844 
Q 928 -128 1133 580 
Q 1338 1288 1338 2009 
Q 1338 2731 1133 3434 
Q 928 4138 513 4856 
z
" transform="scale(0.015625)"/>
      </defs>
      <use xlink:href="#DejaVuSans-52" transform="translate(0 0.015625)"/>
      <use xlink:href="#DejaVuSans-65" transform="translate(69.482422 0.015625)"/>
      <use xlink:href="#DejaVuSans-64" transform="translate(131.005859 0.015625)"/>
      <use xlink:href="#DejaVuSans-75" transform="translate(194.482422 0.015625)"/>
      <use xlink:href="#DejaVuSans-63" transform="translate(257.861328 0.015625)"/>
      <use xlink:href="#DejaVuSans-65" transform="translate(312.841797 0.015625)"/>
      <use xlink:href="#DejaVuSans-64" transform="translate(374.365234 0.015625)"/>
      <use xlink:href="#DejaVuSans-20" transform="translate(437.841797 0.015625)"/>
      <use xlink:href="#DejaVuSans-45" transform="translate(469.628906 0.015625)"/>
      <use xlink:href="#DejaVuSans-6e" transform="translate(532.8125 0.015625)"/>
      <use xlink:href="#DejaVuSans-65" transform="translate(596.191406 0.015625)"/>
      <use xlink:href="#DejaVuSans-72" transform="translate(657.714844 0.015625)"/>
      <use xlink:href="#DejaVuSans-67" transform="translate(698.828125 0.015625)"/>
      <use xlink:href="#DejaVuSans-79" transform="translate(762.304688 0.015625)"/>
      <use xlink:href="#DejaVuSans-20" transform="translate(821.484375 0.015625)"/>
      <use xlink:href="#DejaVuSans-55" transform="translate(853.271484 0.015625)"/>
      <use xlink:href="#DejaVuSans-2f" transform="translate(926.464844 0.015625)"/>
      <use xlink:href="#DejaVuSans-28" transform="translate(960.15625 0.015625)"/>
      <use xlink:href="#DejaVuSans-Oblique-3b5" transform="translate(999.169922 0.015625)"/>
      <use xlink:href="#DejaVuSans-29" transform="translate(1053.222656 0.015625)"/>
     </g>
    </g>
   </g>
   <g id="line2d_14">
    <path d="M 73.832727 53.568 
L 74.157382 80.182839 
L 74.806691 160.896207 
L 75.131345 153.965054 
L 75.456 154.623439 
L 75.780655 181.015475 
L 76.105309 170.908043 
L 76.429964 173.700394 
L 76.754618 172.161594 
L 77.079273 168.517352 
L 77.403927 191.837571 
L 77.728582 183.620873 
L 78.053236 156.884997 
L 78.377891 161.802449 
L 79.0272 206.29273 
L 79.351855 203.555887 
L 80.001164 226.129834 
L 80.325818 220.453775 
L 80.650473 262.207598 
L 80.975127 256.01655 
L 81.299782 245.122371 
L 81.949091 253.569581 
L 82.5984 267.723301 
L 82.923055 267.559862 
L 83.247709 220.492322 
L 83.572364 246.161215 
L 83.897018 258.286974 
L 84.546327 247.272142 
L 84.870982 253.63434 
L 85.195636 221.38276 
L 86.1696 253.228439 
L 86.494255 256.100583 
L 86.818909 241.088033 
L 87.143564 240.027602 
L 87.468218 261.176849 
L 87.792873 265.117904 
L 88.117527 235.496777 
L 88.442182 229.038983 
L 88.766836 239.071634 
L 89.091491 269.863436 
L 89.416145 264.33771 
L 90.065455 274.484076 
L 90.390109 263.794196 
L 90.714764 273.572437 
L 91.039418 276.055255 
L 91.364073 287.057366 
L 91.688727 263.89095 
L 92.338036 270.898425 
L 92.662691 275.712186 
L 92.987345 248.247384 
L 93.312 256.5485 
L 93.636655 268.74557 
L 93.961309 271.144356 
L 94.285964 275.676723 
L 94.935273 238.410166 
L 95.259927 236.600766 
L 95.584582 213.631325 
L 95.909236 210.865186 
L 96.558545 240.300901 
L 96.8832 221.077081 
L 97.207855 215.781868 
L 97.532509 243.036588 
L 97.857164 230.252831 
L 98.181818 250.488512 
L 98.506473 252.682998 
L 98.831127 261.70957 
L 99.155782 263.009763 
L 99.480436 266.840959 
L 99.805091 257.550724 
L 100.129745 268.283776 
L 100.4544 273.098308 
L 100.779055 283.890337 
L 101.428364 262.059577 
L 101.753018 266.086977 
L 102.077673 242.540487 
L 102.402327 253.218031 
L 102.726982 241.502414 
L 103.051636 256.482584 
L 103.376291 258.041429 
L 103.700945 246.678132 
L 104.0256 255.339663 
L 104.350255 253.440062 
L 104.674909 249.063811 
L 104.999564 248.425857 
L 105.324218 237.989232 
L 105.648873 233.264515 
L 105.973527 241.658144 
L 106.298182 236.744546 
L 106.622836 236.178675 
L 106.947491 250.533226 
L 107.272145 245.089606 
L 107.5968 226.890368 
L 107.921455 235.09396 
L 108.246109 219.673582 
L 108.570764 246.11573 
L 108.895418 251.61717 
L 109.220073 274.273223 
L 109.544727 271.238796 
L 109.869382 250.403708 
L 110.194036 260.554699 
L 110.518691 251.012367 
L 110.843345 257.084304 
L 111.168 253.728395 
L 111.492655 256.230486 
L 111.817309 276.781482 
L 112.141964 269.722354 
L 112.466618 271.591887 
L 113.115927 251.299157 
L 113.440582 259.049435 
L 113.765236 254.165519 
L 114.414545 233.847347 
L 114.7392 202.045997 
L 115.388509 247.387013 
L 115.713164 247.40513 
L 116.037818 216.575167 
L 116.362473 222.285147 
L 116.687127 196.802822 
L 117.011782 206.3413 
L 117.336436 222.340655 
L 117.661091 180.557536 
L 117.985745 215.47272 
L 118.3104 209.628981 
L 118.635055 226.598181 
L 118.959709 227.803934 
L 119.284364 217.785545 
L 119.609018 224.31735 
L 119.933673 244.203794 
L 120.258327 238.609455 
L 120.582982 260.545833 
L 120.907636 234.653752 
L 121.232291 236.659357 
L 121.556945 228.604557 
L 121.8816 232.11427 
L 122.206255 214.055729 
L 122.530909 212.819909 
L 122.855564 220.523931 
L 123.180218 219.54098 
L 123.504873 229.494995 
L 123.829527 210.219522 
L 124.154182 226.124437 
L 124.478836 252.866096 
L 124.803491 247.635641 
L 125.4528 246.729399 
L 125.777455 240.302443 
L 126.102109 249.890646 
L 126.426764 246.677746 
L 126.751418 258.978508 
L 127.076073 253.427727 
L 127.400727 240.76655 
L 128.050036 255.708559 
L 128.699345 231.007197 
L 129.024 230.307182 
L 129.348655 232.520942 
L 129.673309 220.11032 
L 129.997964 266.141329 
L 130.322618 271.002888 
L 130.647273 273.659939 
L 130.971927 256.792117 
L 131.296582 250.855865 
L 131.621236 225.720464 
L 131.945891 230.26825 
L 132.270545 227.568026 
L 132.5952 212.920517 
L 132.919855 219.3733 
L 133.244509 210.490123 
L 133.569164 231.159458 
L 133.893818 226.315246 
L 134.218473 219.606895 
L 134.867782 244.968568 
L 135.192436 243.322222 
L 135.517091 267.104235 
L 135.841745 267.106163 
L 136.1664 269.530389 
L 136.491055 260.865774 
L 136.815709 261.514907 
L 137.140364 260.384706 
L 137.789673 249.900283 
L 138.114327 233.023596 
L 138.438982 233.84966 
L 138.763636 264.70545 
L 139.088291 259.956834 
L 139.412945 284.488588 
L 139.7376 281.058282 
L 140.062255 281.348927 
L 140.386909 258.682081 
L 140.711564 263.133114 
L 141.036218 259.755232 
L 141.360873 266.018364 
L 141.685527 262.184855 
L 142.010182 244.559198 
L 142.334836 220.846184 
L 142.659491 241.245305 
L 142.984145 243.68071 
L 143.3088 268.88858 
L 143.958109 217.993314 
L 144.282764 234.052032 
L 144.607418 237.290373 
L 144.932073 236.198334 
L 145.256727 239.226979 
L 145.581382 257.401932 
L 145.906036 230.621727 
L 146.555345 263.453055 
L 146.88 263.482351 
L 147.204655 275.080785 
L 147.853964 284.496297 
L 148.503273 250.660432 
L 148.827927 245.310866 
L 149.152582 288.201443 
L 149.477236 283.409269 
L 149.801891 273.015046 
L 150.126545 275.039539 
L 150.4512 262.231497 
L 150.775855 268.989959 
L 151.100509 267.673576 
L 151.425164 263.6296 
L 151.749818 267.32087 
L 152.074473 244.309028 
L 152.399127 264.069423 
L 153.048436 249.297792 
L 153.373091 234.691914 
L 153.697745 261.893439 
L 154.347055 269.284459 
L 155.321018 236.971974 
L 155.645673 234.976391 
L 155.970327 226.213096 
L 156.294982 230.943209 
L 156.944291 236.398779 
L 157.268945 267.445377 
L 157.5936 267.53365 
L 157.918255 276.489681 
L 158.242909 261.857591 
L 158.567564 257.827878 
L 158.892218 257.864112 
L 159.216873 274.177626 
L 159.541527 243.751251 
L 159.866182 253.865237 
L 160.190836 253.866393 
L 160.515491 255.770234 
L 160.840145 271.050686 
L 161.489455 245.815448 
L 161.814109 246.826924 
L 162.138764 249.177911 
L 162.463418 257.086617 
L 162.788073 248.923114 
L 163.112727 222.273583 
L 163.437382 216.785248 
L 163.762036 223.496297 
L 164.086691 241.552911 
L 164.411345 265.910432 
L 164.736 261.225804 
L 165.060655 251.930173 
L 165.385309 262.319385 
L 165.709964 248.059274 
L 166.034618 248.087413 
L 166.359273 226.558863 
L 166.683927 259.388264 
L 167.008582 259.116507 
L 167.333236 280.99121 
L 167.657891 249.184464 
L 167.982545 241.099597 
L 168.3072 220.911329 
L 168.631855 236.022945 
L 168.956509 231.314418 
L 169.281164 231.05461 
L 169.605818 245.357508 
L 169.930473 248.7643 
L 170.255127 230.678005 
L 170.579782 234.151484 
L 170.904436 224.666201 
L 171.229091 241.093815 
L 171.553745 249.147073 
L 171.8784 251.435228 
L 172.203055 238.429825 
L 172.527709 256.732755 
L 172.852364 255.141531 
L 173.177018 244.84329 
L 173.501673 256.861502 
L 173.826327 241.424163 
L 174.150982 249.014856 
L 174.475636 235.790891 
L 174.800291 233.689304 
L 175.124945 285.352042 
L 175.4496 290.664603 
L 175.774255 276.712868 
L 176.098909 251.339631 
L 176.748218 271.508626 
L 177.072873 274.333742 
L 177.397527 245.703276 
L 177.722182 236.74763 
L 178.046836 253.439291 
L 178.371491 257.220761 
L 178.696145 258.564898 
L 179.0208 281.742107 
L 179.345455 270.694126 
L 179.670109 253.702568 
L 179.994764 261.102453 
L 180.319418 264.771751 
L 180.644073 261.330652 
L 180.968727 234.434034 
L 181.293382 253.193361 
L 181.618036 240.21841 
L 181.942691 241.239523 
L 182.916655 268.833843 
L 183.241309 245.44925 
L 183.565964 242.0228 
L 183.890618 229.341963 
L 184.215273 243.945143 
L 184.539927 231.482098 
L 184.864582 235.15949 
L 185.189236 245.295448 
L 185.513891 248.867606 
L 185.838545 242.364327 
L 186.1632 239.343777 
L 186.487855 243.728123 
L 186.812509 226.234297 
L 187.137164 236.937282 
L 187.461818 233.598333 
L 187.786473 226.180331 
L 188.111127 233.46072 
L 188.435782 264.104501 
L 188.760436 242.022414 
L 189.085091 262.695219 
L 189.409745 242.74787 
L 189.7344 250.429535 
L 190.383709 225.930546 
L 190.708364 237.671219 
L 191.033018 235.938141 
L 191.357673 260.642586 
L 191.682327 213.349546 
L 192.006982 226.740034 
L 192.331636 224.999633 
L 192.980945 246.648065 
L 193.3056 236.994332 
L 193.630255 258.041043 
L 193.954909 266.076955 
L 194.279564 265.311024 
L 194.604218 265.744294 
L 194.928873 269.66646 
L 195.253527 267.407601 
L 195.902836 275.589221 
L 196.227491 249.637777 
L 197.201455 268.955266 
L 197.526109 251.865028 
L 197.850764 248.434723 
L 198.175418 249.974293 
L 198.500073 250.170884 
L 199.149382 275.255403 
L 199.474036 279.195687 
L 199.798691 272.756781 
L 200.123345 281.473049 
L 200.448 278.276338 
L 200.772655 281.48654 
L 201.097309 275.305129 
L 201.421964 276.917554 
L 201.746618 272.359746 
L 202.071273 272.451488 
L 202.395927 263.192862 
L 202.720582 247.813729 
L 203.045236 217.679926 
L 203.369891 227.746885 
L 203.694545 228.159724 
L 204.0192 221.935525 
L 204.343855 208.179996 
L 204.668509 217.275953 
L 204.993164 237.828876 
L 205.317818 233.713974 
L 205.642473 258.470843 
L 205.967127 257.361458 
L 206.291782 247.144166 
L 206.616436 254.01904 
L 206.941091 271.917996 
L 207.265745 260.398583 
L 207.5904 256.854949 
L 207.915055 242.240205 
L 208.239709 246.379777 
L 208.564364 238.72471 
L 208.889018 236.517504 
L 209.538327 245.894084 
L 209.862982 226.874178 
L 210.187636 240.719522 
L 210.512291 239.008032 
L 210.836945 228.176299 
L 211.1616 234.162662 
L 211.486255 232.636583 
L 211.810909 251.38743 
L 212.135564 259.47885 
L 212.460218 256.426306 
L 212.784873 241.190182 
L 213.109527 235.94084 
L 213.434182 236.125095 
L 213.758836 253.359884 
L 214.083491 254.813881 
L 214.408145 256.789419 
L 214.7328 261.31716 
L 215.057455 251.900492 
L 215.382109 235.915399 
L 215.706764 234.427095 
L 216.356073 244.167945 
L 217.005382 240.501346 
L 217.330036 243.175358 
L 217.654691 238.712761 
L 217.979345 241.56486 
L 218.304 207.500796 
L 218.628655 210.882918 
L 218.953309 218.189133 
L 219.277964 208.958262 
L 219.602618 234.51691 
L 219.927273 229.943683 
L 220.251927 227.620065 
L 220.901236 220.509283 
L 221.225891 237.399462 
L 221.550545 229.753261 
L 221.8752 278.317198 
L 222.199855 276.433402 
L 222.524509 253.948113 
L 222.849164 261.646353 
L 223.498473 255.149626 
L 223.823127 279.404612 
L 224.147782 267.14471 
L 224.472436 260.876953 
L 224.797091 251.147667 
L 225.4464 258.665506 
L 226.095709 283.697987 
L 226.420364 272.858545 
L 226.745018 279.736502 
L 227.069673 279.021839 
L 227.394327 295.488 
L 228.043636 267.449617 
L 228.368291 235.891499 
L 228.692945 227.772711 
L 229.0176 233.69393 
L 229.342255 244.399613 
L 229.666909 243.040443 
L 229.991564 245.551015 
L 230.316218 279.912277 
L 230.640873 271.693652 
L 230.965527 258.411866 
L 231.614836 271.722948 
L 231.939491 264.319208 
L 232.264145 261.62361 
L 232.5888 248.739245 
L 233.238109 268.979166 
L 233.562764 273.913193 
L 233.887418 265.399683 
L 234.212073 265.130239 
L 234.536727 252.969402 
L 234.861382 256.354608 
L 235.186036 248.593537 
L 235.510691 253.635496 
L 235.835345 244.172571 
L 236.484655 273.705039 
L 236.809309 269.22394 
L 237.133964 255.367802 
L 237.458618 248.105916 
L 237.783273 245.128539 
L 238.107927 258.974654 
L 238.432582 254.849344 
L 238.757236 272.285735 
L 239.081891 234.987185 
L 239.406545 223.094251 
L 239.7312 221.562389 
L 240.055855 252.038105 
L 240.380509 239.812895 
L 240.705164 236.44041 
L 241.029818 240.663244 
L 241.354473 254.369818 
L 241.679127 276.105752 
L 242.003782 268.372434 
L 242.328436 263.794967 
L 242.653091 233.72708 
L 242.977745 255.107995 
L 243.3024 227.015261 
L 243.627055 215.034825 
L 243.951709 214.24461 
L 244.276364 203.07559 
L 244.925673 233.711661 
L 245.250327 249.165576 
L 245.574982 254.165519 
L 245.899636 261.775485 
L 246.224291 262.235738 
L 246.548945 256.257084 
L 246.8736 258.886766 
L 247.198255 236.633916 
L 247.522909 240.732243 
L 247.847564 276.017479 
L 248.172218 272.769116 
L 248.496873 273.0879 
L 248.821527 263.132343 
L 249.146182 262.377205 
L 249.470836 267.726 
L 249.795491 270.296705 
L 250.120145 271.79079 
L 250.4448 267.927601 
L 250.769455 282.890811 
L 251.094109 258.719086 
L 251.743418 262.31553 
L 252.068073 263.771068 
L 252.392727 243.733519 
L 252.717382 243.57856 
L 253.042036 257.990546 
L 253.366691 254.766082 
L 253.691345 256.062806 
L 254.016 244.357982 
L 254.340655 238.367764 
L 254.665309 238.848832 
L 254.989964 250.422596 
L 255.314618 226.27824 
L 255.639273 219.372529 
L 256.288582 230.909673 
L 256.613236 241.841628 
L 256.937891 277.8847 
L 257.262545 281.466881 
L 257.5872 278.912365 
L 257.911855 280.503204 
L 258.561164 257.394994 
L 258.885818 223.760344 
L 259.210473 206.725999 
L 259.535127 211.692792 
L 259.859782 212.388182 
L 260.184436 207.447216 
L 260.509091 170.92616 
L 260.833745 191.451715 
L 261.1584 221.254013 
L 261.483055 223.894874 
L 261.807709 223.260389 
L 262.132364 237.42683 
L 262.781673 210.694422 
L 263.106327 257.817856 
L 263.430982 263.761046 
L 263.755636 262.406887 
L 264.080291 274.598946 
L 264.404945 261.782809 
L 264.7296 265.322589 
L 265.054255 264.297621 
L 265.378909 254.986572 
L 265.703564 251.836889 
L 266.028218 255.49231 
L 266.352873 248.580045 
L 266.677527 249.507488 
L 267.326836 258.740673 
L 267.651491 265.580469 
L 267.976145 250.244509 
L 268.3008 242.789887 
L 268.625455 256.768989 
L 268.950109 257.816699 
L 269.274764 258.003267 
L 269.924073 206.401048 
L 270.248727 210.774215 
L 270.573382 200.981327 
L 270.898036 207.924814 
L 271.222691 224.238714 
L 271.547345 234.350772 
L 271.872 253.388024 
L 272.521309 248.307517 
L 272.845964 250.430691 
L 273.170618 257.058092 
L 273.495273 246.160059 
L 273.819927 248.096279 
L 274.144582 262.246531 
L 274.469236 251.158075 
L 274.793891 250.18399 
L 275.118545 258.819309 
L 275.4432 262.712565 
L 275.767855 279.618163 
L 276.417164 273.378545 
L 276.741818 262.372965 
L 277.391127 227.66131 
L 277.715782 238.306475 
L 278.040436 236.817786 
L 278.365091 234.174226 
L 278.689745 259.043653 
L 279.0144 255.029744 
L 279.339055 258.256907 
L 279.663709 236.421907 
L 279.988364 229.995722 
L 280.313018 229.434862 
L 280.637673 218.367606 
L 280.962327 232.131616 
L 281.286982 229.979917 
L 281.611636 246.224047 
L 281.936291 238.544696 
L 282.260945 254.707105 
L 282.5856 259.73326 
L 282.910255 259.185892 
L 283.234909 273.057062 
L 283.559564 259.128842 
L 283.884218 260.631022 
L 284.208873 269.477194 
L 284.533527 270.097031 
L 284.858182 275.889888 
L 285.507491 238.159225 
L 285.832145 218.549934 
L 286.1568 229.07329 
L 286.481455 235.671395 
L 286.806109 246.308465 
L 287.130764 264.097562 
L 287.455418 242.026654 
L 287.780073 238.387038 
L 288.104727 224.180893 
L 288.429382 195.543103 
L 288.754036 211.719004 
L 289.078691 218.548007 
L 289.403345 215.152008 
L 289.728 210.390671 
L 290.377309 250.94992 
L 290.701964 238.480322 
L 291.026618 250.766051 
L 291.351273 243.84839 
L 291.675927 260.427879 
L 292.000582 265.488341 
L 292.325236 262.702543 
L 292.649891 266.830936 
L 292.974545 280.293893 
L 293.623855 260.902394 
L 293.948509 247.323796 
L 294.273164 251.277956 
L 294.597818 266.578067 
L 294.922473 268.893977 
L 295.247127 276.062965 
L 295.571782 271.050301 
L 295.896436 261.94702 
L 296.221091 265.85955 
L 296.545745 277.340801 
L 296.8704 262.265804 
L 297.195055 257.618567 
L 297.519709 254.742569 
L 297.844364 266.47399 
L 298.169018 261.358791 
L 298.493673 270.043451 
L 299.142982 243.830273 
L 299.467636 267.350166 
L 299.792291 244.341022 
L 300.116945 232.142409 
L 300.4416 245.630036 
L 300.766255 243.30449 
L 301.090909 236.17829 
L 301.415564 238.454495 
L 301.740218 232.698258 
L 302.064873 241.73678 
L 302.389527 243.211977 
L 302.714182 240.027217 
L 303.038836 183.807056 
L 303.363491 181.877388 
L 303.688145 207.101834 
L 304.0128 205.44161 
L 304.337455 221.445206 
L 304.662109 217.370008 
L 304.986764 227.406899 
L 305.311418 248.355701 
L 305.636073 244.226922 
L 305.960727 189.019779 
L 306.285382 197.549094 
L 306.610036 193.184792 
L 306.934691 176.57061 
L 307.584 233.163522 
L 307.908655 220.722063 
L 308.557964 235.588519 
L 308.882618 238.4252 
L 309.207273 226.900776 
L 309.531927 233.151572 
L 309.856582 246.088361 
L 310.181236 245.43229 
L 310.505891 233.734404 
L 310.830545 237.102649 
L 311.1552 258.908738 
L 311.479855 255.397484 
L 311.804509 249.884093 
L 312.129164 260.111022 
L 312.453818 263.677784 
L 312.778473 255.843474 
L 313.103127 256.055868 
L 313.427782 228.506648 
L 313.752436 230.739681 
L 314.077091 236.948846 
L 314.401745 249.246524 
L 314.7264 250.620728 
L 315.051055 249.168274 
L 315.375709 238.594421 
L 315.700364 245.53868 
L 316.025018 244.828642 
L 316.349673 221.338816 
L 316.674327 236.262708 
L 316.998982 224.221368 
L 317.323636 237.332004 
L 317.648291 242.633386 
L 318.2976 229.271422 
L 318.622255 251.851151 
L 318.946909 246.195522 
L 319.271564 229.570547 
L 319.596218 243.634453 
L 319.920873 234.846873 
L 320.245527 254.861679 
L 320.570182 248.260104 
L 320.894836 255.374355 
L 321.219491 252.239706 
L 321.544145 255.171983 
L 321.8688 246.296516 
L 322.193455 255.588292 
L 322.518109 238.057075 
L 322.842764 239.309084 
L 323.167418 210.083451 
L 323.492073 237.514717 
L 323.816727 247.202372 
L 324.141382 216.604848 
L 324.466036 217.137954 
L 324.790691 231.792016 
L 325.115345 228.113082 
L 325.44 228.739472 
L 325.764655 240.763852 
L 326.089309 222.568083 
L 326.413964 216.066345 
L 326.738618 212.863467 
L 327.063273 201.551438 
L 327.387927 208.486831 
L 327.712582 209.188773 
L 328.037236 220.618371 
L 328.361891 244.158694 
L 328.686545 219.237229 
L 329.0112 238.30262 
L 329.335855 245.303928 
L 329.660509 248.302892 
L 329.985164 255.257943 
L 330.309818 253.403057 
L 330.634473 241.341287 
L 330.959127 247.873862 
L 331.283782 251.533523 
L 331.608436 263.071439 
L 331.933091 249.234189 
L 332.257745 246.761393 
L 332.5824 249.646643 
L 332.907055 244.830184 
L 333.556364 240.808952 
L 333.881018 211.219048 
L 334.205673 208.035059 
L 334.530327 225.953288 
L 335.179636 240.90185 
L 335.504291 252.338001 
L 335.828945 252.729254 
L 336.1536 215.398324 
L 336.478255 242.245216 
L 336.802909 249.01794 
L 337.127564 244.72842 
L 337.452218 253.314013 
L 337.776873 257.185298 
L 338.101527 248.014559 
L 338.426182 262.57765 
L 338.750836 257.843297 
L 339.075491 246.276086 
L 339.400145 272.557492 
L 339.7248 261.609733 
L 340.049455 239.24818 
L 340.698764 283.537631 
L 341.023418 270.674467 
L 341.348073 263.709393 
L 341.672727 237.975741 
L 341.997382 274.530718 
L 342.322036 268.223643 
L 342.646691 271.421124 
L 342.971345 268.837312 
L 343.296 264.941743 
L 343.620655 265.801729 
L 343.945309 268.875474 
L 344.269964 262.114314 
L 344.594618 260.060911 
L 344.919273 244.661733 
L 345.243927 256.147996 
L 345.568582 239.684148 
L 345.893236 245.041808 
L 346.217891 206.844725 
L 346.8672 231.607761 
L 347.191855 270.421598 
L 347.516509 266.362589 
L 347.841164 264.303404 
L 348.165818 263.796895 
L 348.490473 272.232155 
L 348.815127 270.138277 
L 349.139782 274.923513 
L 349.464436 252.058149 
L 349.789091 263.28576 
L 350.113745 256.681487 
L 350.4384 236.968505 
L 350.763055 244.664432 
L 351.087709 225.819915 
L 351.412364 243.965958 
L 351.737018 245.621556 
L 352.061673 262.087717 
L 352.386327 262.297413 
L 352.710982 258.451955 
L 353.035636 250.055242 
L 353.360291 258.402229 
L 353.684945 258.76727 
L 354.0096 254.63348 
L 354.334255 255.637632 
L 354.658909 258.530206 
L 354.983564 276.476189 
L 355.308218 278.665664 
L 355.632873 276.651579 
L 355.957527 281.156577 
L 356.282182 281.846185 
L 356.606836 254.966913 
L 356.931491 248.220401 
L 357.256145 244.861407 
L 357.5808 248.157569 
L 357.905455 263.54711 
L 358.230109 255.935987 
L 358.554764 259.219428 
L 358.879418 255.382065 
L 359.204073 257.963949 
L 359.528727 259.646915 
L 359.853382 252.671433 
L 360.178036 253.781975 
L 360.827345 215.850096 
L 361.152 248.353774 
L 361.476655 268.796838 
L 361.801309 265.574301 
L 362.125964 265.878052 
L 362.450618 264.416347 
L 362.775273 265.661032 
L 363.099927 258.060317 
L 363.424582 258.135098 
L 363.749236 234.433648 
L 364.073891 249.75843 
L 364.398545 230.160318 
L 364.7232 218.737658 
L 365.047855 213.26243 
L 365.372509 226.913111 
L 365.697164 249.293166 
L 366.346473 260.023135 
L 366.671127 256.763207 
L 366.995782 244.234632 
L 367.320436 237.539773 
L 367.645091 248.957807 
L 367.969745 230.281356 
L 368.2944 226.997144 
L 368.619055 209.221924 
L 368.943709 205.810121 
L 369.268364 177.740515 
L 369.593018 188.585739 
L 369.917673 177.950596 
L 370.242327 210.484726 
L 370.566982 205.321729 
L 371.216291 213.153341 
L 371.540945 220.129594 
L 371.8656 236.649721 
L 372.190255 264.835739 
L 372.514909 274.627471 
L 372.839564 272.01128 
L 373.164218 271.910286 
L 373.488873 268.0417 
L 373.813527 236.903746 
L 374.138182 223.739529 
L 374.462836 231.211882 
L 374.787491 200.309451 
L 375.112145 190.4572 
L 375.4368 199.432504 
L 376.086109 168.964884 
L 376.410764 161.969358 
L 376.735418 198.996151 
L 377.384727 201.744173 
L 377.709382 223.973124 
L 378.034036 235.654049 
L 378.358691 268.204369 
L 379.332655 239.422798 
L 379.657309 261.025359 
L 379.981964 259.505062 
L 380.306618 242.359701 
L 380.631273 251.545858 
L 380.955927 232.686309 
L 381.280582 258.630814 
L 381.605236 246.646909 
L 382.254545 259.10687 
L 382.5792 272.591799 
L 382.903855 275.079243 
L 383.553164 267.55832 
L 383.877818 266.354109 
L 384.202473 264.289527 
L 384.527127 270.177595 
L 384.851782 263.364011 
L 385.176436 280.166302 
L 385.501091 256.232028 
L 385.825745 275.718354 
L 386.475055 244.508701 
L 386.799709 270.497921 
L 387.124364 266.59233 
L 387.449018 255.269122 
L 387.773673 261.186871 
L 388.098327 261.405048 
L 388.422982 280.596102 
L 388.747636 269.254777 
L 389.072291 250.251062 
L 389.396945 249.522907 
L 389.7216 244.845218 
L 390.046255 261.654833 
L 390.370909 267.975014 
L 390.695564 271.710613 
L 391.020218 263.963418 
L 391.344873 259.251422 
L 391.669527 265.113278 
L 391.994182 266.027615 
L 392.318836 258.157455 
L 392.643491 254.086497 
L 392.968145 256.022717 
L 393.2928 240.199522 
L 393.617455 245.507457 
L 393.942109 266.520247 
L 394.266764 268.864681 
L 394.591418 260.652223 
L 394.916073 267.76686 
L 395.240727 260.860377 
L 395.565382 265.330684 
L 395.890036 276.509725 
L 396.214691 275.50673 
L 396.539345 269.082086 
L 397.188655 292.635901 
L 397.513309 295.082485 
L 397.837964 282.306437 
L 398.162618 277.466079 
L 398.487273 260.833394 
L 398.487273 260.833394 
" clip-path="url(#pc7443e76ca)" style="fill: none; stroke: #1f77b4; stroke-width: 1.5; stroke-linecap: square"/>
   </g>
   <g id="patch_3">
    <path d="M 57.6 307.584 
L 57.6 41.472 
" style="fill: none; stroke: #000000; stroke-width: 0.8; stroke-linejoin: miter; stroke-linecap: square"/>
   </g>
   <g id="patch_4">
    <path d="M 414.72 307.584 
L 414.72 41.472 
" style="fill: none; stroke: #000000; stroke-width: 0.8; stroke-linejoin: miter; stroke-linecap: square"/>
   </g>
   <g id="patch_5">
    <path d="M 57.6 307.584 
L 414.72 307.584 
" style="fill: none; stroke: #000000; stroke-width: 0.8; stroke-linejoin: miter; stroke-linecap: square"/>
   </g>
   <g id="patch_6">
    <path d="M 57.6 41.472 
L 414.72 41.472 
" style="fill: none; stroke: #000000; stroke-width: 0.8; stroke-linejoin: miter; stroke-linecap: square"/>
   </g>
   <g id="text_16">
    <!-- Reduced Temperature,T$^*$=0.65 -->
    <g transform="translate(140.88 35.472) scale(0.12 -0.12)">
     <defs>
      <path id="DejaVuSans-54" d="M -19 4666 
L 3928 4666 
L 3928 4134 
L 2272 4134 
L 2272 0 
L 1638 0 
L 1638 4134 
L -19 4134 
L -19 4666 
z
" transform="scale(0.015625)"/>
      <path id="DejaVuSans-6d" d="M 3328 2828 
Q 3544 3216 3844 3400 
Q 4144 3584 4550 3584 
Q 5097 3584 5394 3201 
Q 5691 2819 5691 2113 
L 5691 0 
L 5113 0 
L 5113 2094 
Q 5113 2597 4934 2840 
Q 4756 3084 4391 3084 
Q 3944 3084 3684 2787 
Q 3425 2491 3425 1978 
L 3425 0 
L 2847 0 
L 2847 2094 
Q 2847 2600 2669 2842 
Q 2491 3084 2119 3084 
Q 1678 3084 1418 2786 
Q 1159 2488 1159 1978 
L 1159 0 
L 581 0 
L 581 3500 
L 1159 3500 
L 1159 2956 
Q 1356 3278 1631 3431 
Q 1906 3584 2284 3584 
Q 2666 3584 2933 3390 
Q 3200 3197 3328 2828 
z
" transform="scale(0.015625)"/>
      <path id="DejaVuSans-70" d="M 1159 525 
L 1159 -1331 
L 581 -1331 
L 581 3500 
L 1159 3500 
L 1159 2969 
Q 1341 3281 1617 3432 
Q 1894 3584 2278 3584 
Q 2916 3584 3314 3078 
Q 3713 2572 3713 1747 
Q 3713 922 3314 415 
Q 2916 -91 2278 -91 
Q 1894 -91 1617 61 
Q 1341 213 1159 525 
z
M 3116 1747 
Q 3116 2381 2855 2742 
Q 2594 3103 2138 3103 
Q 1681 3103 1420 2742 
Q 1159 2381 1159 1747 
Q 1159 1113 1420 752 
Q 1681 391 2138 391 
Q 2594 391 2855 752 
Q 3116 1113 3116 1747 
z
" transform="scale(0.015625)"/>
      <path id="DejaVuSans-61" d="M 2194 1759 
Q 1497 1759 1228 1600 
Q 959 1441 959 1056 
Q 959 750 1161 570 
Q 1363 391 1709 391 
Q 2188 391 2477 730 
Q 2766 1069 2766 1631 
L 2766 1759 
L 2194 1759 
z
M 3341 1997 
L 3341 0 
L 2766 0 
L 2766 531 
Q 2569 213 2275 61 
Q 1981 -91 1556 -91 
Q 1019 -91 701 211 
Q 384 513 384 1019 
Q 384 1609 779 1909 
Q 1175 2209 1959 2209 
L 2766 2209 
L 2766 2266 
Q 2766 2663 2505 2880 
Q 2244 3097 1772 3097 
Q 1472 3097 1187 3025 
Q 903 2953 641 2809 
L 641 3341 
Q 956 3463 1253 3523 
Q 1550 3584 1831 3584 
Q 2591 3584 2966 3190 
Q 3341 2797 3341 1997 
z
" transform="scale(0.015625)"/>
      <path id="DejaVuSans-74" d="M 1172 4494 
L 1172 3500 
L 2356 3500 
L 2356 3053 
L 1172 3053 
L 1172 1153 
Q 1172 725 1289 603 
Q 1406 481 1766 481 
L 2356 481 
L 2356 0 
L 1766 0 
Q 1100 0 847 248 
Q 594 497 594 1153 
L 594 3053 
L 172 3053 
L 172 3500 
L 594 3500 
L 594 4494 
L 1172 4494 
z
" transform="scale(0.015625)"/>
      <path id="DejaVuSans-2c" d="M 750 794 
L 1409 794 
L 1409 256 
L 897 -744 
L 494 -744 
L 750 256 
L 750 794 
z
" transform="scale(0.015625)"/>
      <path id="DejaVuSans-2a" d="M 3009 3897 
L 1888 3291 
L 3009 2681 
L 2828 2375 
L 1778 3009 
L 1778 1831 
L 1422 1831 
L 1422 3009 
L 372 2375 
L 191 2681 
L 1313 3291 
L 191 3897 
L 372 4206 
L 1422 3572 
L 1422 4750 
L 1778 4750 
L 1778 3572 
L 2828 4206 
L 3009 3897 
z
" transform="scale(0.015625)"/>
      <path id="DejaVuSans-3d" d="M 678 2906 
L 4684 2906 
L 4684 2381 
L 678 2381 
L 678 2906 
z
M 678 1631 
L 4684 1631 
L 4684 1100 
L 678 1100 
L 678 1631 
z
" transform="scale(0.015625)"/>
      <path id="DejaVuSans-2e" d="M 684 794 
L 1344 794 
L 1344 0 
L 684 0 
L 684 794 
z
" transform="scale(0.015625)"/>
     </defs>
     <use xlink:href="#DejaVuSans-52" transform="translate(0 0.765625)"/>
     <use xlink:href="#DejaVuSans-65" transform="translate(69.482422 0.765625)"/>
     <use xlink:href="#DejaVuSans-64" transform="translate(131.005859 0.765625)"/>
     <use xlink:href="#DejaVuSans-75" transform="translate(194.482422 0.765625)"/>
     <use xlink:href="#DejaVuSans-63" transform="translate(257.861328 0.765625)"/>
     <use xlink:href="#DejaVuSans-65" transform="translate(312.841797 0.765625)"/>
     <use xlink:href="#DejaVuSans-64" transform="translate(374.365234 0.765625)"/>
     <use xlink:href="#DejaVuSans-20" transform="translate(437.841797 0.765625)"/>
     <use xlink:href="#DejaVuSans-54" transform="translate(469.628906 0.765625)"/>
     <use xlink:href="#DejaVuSans-65" transform="translate(530.712891 0.765625)"/>
     <use xlink:href="#DejaVuSans-6d" transform="translate(592.236328 0.765625)"/>
     <use xlink:href="#DejaVuSans-70" transform="translate(689.648438 0.765625)"/>
     <use xlink:href="#DejaVuSans-65" transform="translate(753.125 0.765625)"/>
     <use xlink:href="#DejaVuSans-72" transform="translate(814.648438 0.765625)"/>
     <use xlink:href="#DejaVuSans-61" transform="translate(855.761719 0.765625)"/>
     <use xlink:href="#DejaVuSans-74" transform="translate(917.041016 0.765625)"/>
     <use xlink:href="#DejaVuSans-75" transform="translate(956.25 0.765625)"/>
     <use xlink:href="#DejaVuSans-72" transform="translate(1019.628906 0.765625)"/>
     <use xlink:href="#DejaVuSans-65" transform="translate(1060.742188 0.765625)"/>
     <use xlink:href="#DejaVuSans-2c" transform="translate(1122.265625 0.765625)"/>
     <use xlink:href="#DejaVuSans-54" transform="translate(1154.052734 0.765625)"/>
     <use xlink:href="#DejaVuSans-2a" transform="translate(1229.731445 39.046875) scale(0.7)"/>
     <use xlink:href="#DejaVuSans-3d" transform="translate(1281.103516 0.765625)"/>
     <use xlink:href="#DejaVuSans-30" transform="translate(1364.892578 0.765625)"/>
     <use xlink:href="#DejaVuSans-2e" transform="translate(1428.515625 0.765625)"/>
     <use xlink:href="#DejaVuSans-36" transform="translate(1460.302734 0.765625)"/>
     <use xlink:href="#DejaVuSans-35" transform="translate(1523.925781 0.765625)"/>
    </g>
   </g>
  </g>
 </g>
 <defs>
  <clipPath id="pc7443e76ca">
   <rect x="57.6" y="41.472" width="357.12" height="266.112"/>
  </clipPath>
 </defs>
</svg>
