<?xml version="1.0" encoding="utf-8" standalone="no"?>
<!DOCTYPE svg PUBLIC "-//W3C//DTD SVG 1.1//EN"
  "http://www.w3.org/Graphics/SVG/1.1/DTD/svg11.dtd">
<svg xmlns:xlink="http://www.w3.org/1999/xlink" width="460.8pt" height="345.6pt" viewBox="0 0 460.8 345.6" xmlns="http://www.w3.org/2000/svg" version="1.1">
 <metadata>
  <rdf:RDF xmlns:dc="http://purl.org/dc/elements/1.1/" xmlns:cc="http://creativecommons.org/ns#" xmlns:rdf="http://www.w3.org/1999/02/22-rdf-syntax-ns#">
   <cc:Work>
    <dc:type rdf:resource="http://purl.org/dc/dcmitype/StillImage"/>
    <dc:date>2024-03-10T15:58:51.766783</dc:date>
    <dc:format>image/svg+xml</dc:format>
    <dc:creator>
     <cc:Agent>
      <dc:title>Matplotlib v3.8.3, https://matplotlib.org/</dc:title>
     </cc:Agent>
    </dc:creator>
   </cc:Work>
  </rdf:RDF>
 </metadata>
 <defs>
  <style type="text/css">*{stroke-linejoin: round; stroke-linecap: butt}</style>
 </defs>
 <g id="figure_1">
  <g id="patch_1">
   <path d="M 0 345.6 
L 460.8 345.6 
L 460.8 0 
L 0 0 
z
" style="fill: #ffffff"/>
  </g>
  <g id="axes_1">
   <g id="patch_2">
    <path d="M 57.6 307.584 
L 414.72 307.584 
L 414.72 41.472 
L 57.6 41.472 
z
" style="fill: #ffffff"/>
   </g>
   <g id="matplotlib.axis_1">
    <g id="xtick_1">
     <g id="line2d_1">
      <defs>
       <path id="mffe64c2613" d="M 0 0 
L 0 3.5 
" style="stroke: #000000; stroke-width: 0.8"/>
      </defs>
      <g>
       <use xlink:href="#mffe64c2613" x="73.832727" y="307.584" style="stroke: #000000; stroke-width: 0.8"/>
      </g>
     </g>
     <g id="text_1">
      <!-- 0 -->
      <g transform="translate(70.651477 322.182437) scale(0.1 -0.1)">
       <defs>
        <path id="DejaVuSans-30" d="M 2034 4250 
Q 1547 4250 1301 3770 
Q 1056 3291 1056 2328 
Q 1056 1369 1301 889 
Q 1547 409 2034 409 
Q 2525 409 2770 889 
Q 3016 1369 3016 2328 
Q 3016 3291 2770 3770 
Q 2525 4250 2034 4250 
z
M 2034 4750 
Q 2819 4750 3233 4129 
Q 3647 3509 3647 2328 
Q 3647 1150 3233 529 
Q 2819 -91 2034 -91 
Q 1250 -91 836 529 
Q 422 1150 422 2328 
Q 422 3509 836 4129 
Q 1250 4750 2034 4750 
z
" transform="scale(0.015625)"/>
       </defs>
       <use xlink:href="#DejaVuSans-30"/>
      </g>
     </g>
    </g>
    <g id="xtick_2">
     <g id="line2d_2">
      <g>
       <use xlink:href="#mffe64c2613" x="138.763636" y="307.584" style="stroke: #000000; stroke-width: 0.8"/>
      </g>
     </g>
     <g id="text_2">
      <!-- 200 -->
      <g transform="translate(129.219886 322.182437) scale(0.1 -0.1)">
       <defs>
        <path id="DejaVuSans-32" d="M 1228 531 
L 3431 531 
L 3431 0 
L 469 0 
L 469 531 
Q 828 903 1448 1529 
Q 2069 2156 2228 2338 
Q 2531 2678 2651 2914 
Q 2772 3150 2772 3378 
Q 2772 3750 2511 3984 
Q 2250 4219 1831 4219 
Q 1534 4219 1204 4116 
Q 875 4013 500 3803 
L 500 4441 
Q 881 4594 1212 4672 
Q 1544 4750 1819 4750 
Q 2544 4750 2975 4387 
Q 3406 4025 3406 3419 
Q 3406 3131 3298 2873 
Q 3191 2616 2906 2266 
Q 2828 2175 2409 1742 
Q 1991 1309 1228 531 
z
" transform="scale(0.015625)"/>
       </defs>
       <use xlink:href="#DejaVuSans-32"/>
       <use xlink:href="#DejaVuSans-30" x="63.623047"/>
       <use xlink:href="#DejaVuSans-30" x="127.246094"/>
      </g>
     </g>
    </g>
    <g id="xtick_3">
     <g id="line2d_3">
      <g>
       <use xlink:href="#mffe64c2613" x="203.694545" y="307.584" style="stroke: #000000; stroke-width: 0.8"/>
      </g>
     </g>
     <g id="text_3">
      <!-- 400 -->
      <g transform="translate(194.150795 322.182437) scale(0.1 -0.1)">
       <defs>
        <path id="DejaVuSans-34" d="M 2419 4116 
L 825 1625 
L 2419 1625 
L 2419 4116 
z
M 2253 4666 
L 3047 4666 
L 3047 1625 
L 3713 1625 
L 3713 1100 
L 3047 1100 
L 3047 0 
L 2419 0 
L 2419 1100 
L 313 1100 
L 313 1709 
L 2253 4666 
z
" transform="scale(0.015625)"/>
       </defs>
       <use xlink:href="#DejaVuSans-34"/>
       <use xlink:href="#DejaVuSans-30" x="63.623047"/>
       <use xlink:href="#DejaVuSans-30" x="127.246094"/>
      </g>
     </g>
    </g>
    <g id="xtick_4">
     <g id="line2d_4">
      <g>
       <use xlink:href="#mffe64c2613" x="268.625455" y="307.584" style="stroke: #000000; stroke-width: 0.8"/>
      </g>
     </g>
     <g id="text_4">
      <!-- 600 -->
      <g transform="translate(259.081705 322.182437) scale(0.1 -0.1)">
       <defs>
        <path id="DejaVuSans-36" d="M 2113 2584 
Q 1688 2584 1439 2293 
Q 1191 2003 1191 1497 
Q 1191 994 1439 701 
Q 1688 409 2113 409 
Q 2538 409 2786 701 
Q 3034 994 3034 1497 
Q 3034 2003 2786 2293 
Q 2538 2584 2113 2584 
z
M 3366 4563 
L 3366 3988 
Q 3128 4100 2886 4159 
Q 2644 4219 2406 4219 
Q 1781 4219 1451 3797 
Q 1122 3375 1075 2522 
Q 1259 2794 1537 2939 
Q 1816 3084 2150 3084 
Q 2853 3084 3261 2657 
Q 3669 2231 3669 1497 
Q 3669 778 3244 343 
Q 2819 -91 2113 -91 
Q 1303 -91 875 529 
Q 447 1150 447 2328 
Q 447 3434 972 4092 
Q 1497 4750 2381 4750 
Q 2619 4750 2861 4703 
Q 3103 4656 3366 4563 
z
" transform="scale(0.015625)"/>
       </defs>
       <use xlink:href="#DejaVuSans-36"/>
       <use xlink:href="#DejaVuSans-30" x="63.623047"/>
       <use xlink:href="#DejaVuSans-30" x="127.246094"/>
      </g>
     </g>
    </g>
    <g id="xtick_5">
     <g id="line2d_5">
      <g>
       <use xlink:href="#mffe64c2613" x="333.556364" y="307.584" style="stroke: #000000; stroke-width: 0.8"/>
      </g>
     </g>
     <g id="text_5">
      <!-- 800 -->
      <g transform="translate(324.012614 322.182437) scale(0.1 -0.1)">
       <defs>
        <path id="DejaVuSans-38" d="M 2034 2216 
Q 1584 2216 1326 1975 
Q 1069 1734 1069 1313 
Q 1069 891 1326 650 
Q 1584 409 2034 409 
Q 2484 409 2743 651 
Q 3003 894 3003 1313 
Q 3003 1734 2745 1975 
Q 2488 2216 2034 2216 
z
M 1403 2484 
Q 997 2584 770 2862 
Q 544 3141 544 3541 
Q 544 4100 942 4425 
Q 1341 4750 2034 4750 
Q 2731 4750 3128 4425 
Q 3525 4100 3525 3541 
Q 3525 3141 3298 2862 
Q 3072 2584 2669 2484 
Q 3125 2378 3379 2068 
Q 3634 1759 3634 1313 
Q 3634 634 3220 271 
Q 2806 -91 2034 -91 
Q 1263 -91 848 271 
Q 434 634 434 1313 
Q 434 1759 690 2068 
Q 947 2378 1403 2484 
z
M 1172 3481 
Q 1172 3119 1398 2916 
Q 1625 2713 2034 2713 
Q 2441 2713 2670 2916 
Q 2900 3119 2900 3481 
Q 2900 3844 2670 4047 
Q 2441 4250 2034 4250 
Q 1625 4250 1398 4047 
Q 1172 3844 1172 3481 
z
" transform="scale(0.015625)"/>
       </defs>
       <use xlink:href="#DejaVuSans-38"/>
       <use xlink:href="#DejaVuSans-30" x="63.623047"/>
       <use xlink:href="#DejaVuSans-30" x="127.246094"/>
      </g>
     </g>
    </g>
    <g id="xtick_6">
     <g id="line2d_6">
      <g>
       <use xlink:href="#mffe64c2613" x="398.487273" y="307.584" style="stroke: #000000; stroke-width: 0.8"/>
      </g>
     </g>
     <g id="text_6">
      <!-- 1000 -->
      <g transform="translate(385.762273 322.182437) scale(0.1 -0.1)">
       <defs>
        <path id="DejaVuSans-31" d="M 794 531 
L 1825 531 
L 1825 4091 
L 703 3866 
L 703 4441 
L 1819 4666 
L 2450 4666 
L 2450 531 
L 3481 531 
L 3481 0 
L 794 0 
L 794 531 
z
" transform="scale(0.015625)"/>
       </defs>
       <use xlink:href="#DejaVuSans-31"/>
       <use xlink:href="#DejaVuSans-30" x="63.623047"/>
       <use xlink:href="#DejaVuSans-30" x="127.246094"/>
       <use xlink:href="#DejaVuSans-30" x="190.869141"/>
      </g>
     </g>
    </g>
    <g id="text_7">
     <!-- MCS -->
     <g transform="translate(225.180312 335.860562) scale(0.1 -0.1)">
      <defs>
       <path id="DejaVuSans-4d" d="M 628 4666 
L 1569 4666 
L 2759 1491 
L 3956 4666 
L 4897 4666 
L 4897 0 
L 4281 0 
L 4281 4097 
L 3078 897 
L 2444 897 
L 1241 4097 
L 1241 0 
L 628 0 
L 628 4666 
z
" transform="scale(0.015625)"/>
       <path id="DejaVuSans-43" d="M 4122 4306 
L 4122 3641 
Q 3803 3938 3442 4084 
Q 3081 4231 2675 4231 
Q 1875 4231 1450 3742 
Q 1025 3253 1025 2328 
Q 1025 1406 1450 917 
Q 1875 428 2675 428 
Q 3081 428 3442 575 
Q 3803 722 4122 1019 
L 4122 359 
Q 3791 134 3420 21 
Q 3050 -91 2638 -91 
Q 1578 -91 968 557 
Q 359 1206 359 2328 
Q 359 3453 968 4101 
Q 1578 4750 2638 4750 
Q 3056 4750 3426 4639 
Q 3797 4528 4122 4306 
z
" transform="scale(0.015625)"/>
       <path id="DejaVuSans-53" d="M 3425 4513 
L 3425 3897 
Q 3066 4069 2747 4153 
Q 2428 4238 2131 4238 
Q 1616 4238 1336 4038 
Q 1056 3838 1056 3469 
Q 1056 3159 1242 3001 
Q 1428 2844 1947 2747 
L 2328 2669 
Q 3034 2534 3370 2195 
Q 3706 1856 3706 1288 
Q 3706 609 3251 259 
Q 2797 -91 1919 -91 
Q 1588 -91 1214 -16 
Q 841 59 441 206 
L 441 856 
Q 825 641 1194 531 
Q 1563 422 1919 422 
Q 2459 422 2753 634 
Q 3047 847 3047 1241 
Q 3047 1584 2836 1778 
Q 2625 1972 2144 2069 
L 1759 2144 
Q 1053 2284 737 2584 
Q 422 2884 422 3419 
Q 422 4038 858 4394 
Q 1294 4750 2059 4750 
Q 2388 4750 2728 4690 
Q 3069 4631 3425 4513 
z
" transform="scale(0.015625)"/>
      </defs>
      <use xlink:href="#DejaVuSans-4d"/>
      <use xlink:href="#DejaVuSans-43" x="86.279297"/>
      <use xlink:href="#DejaVuSans-53" x="156.103516"/>
     </g>
    </g>
   </g>
   <g id="matplotlib.axis_2">
    <g id="ytick_1">
     <g id="line2d_7">
      <defs>
       <path id="mf30314b7f0" d="M 0 0 
L -3.5 0 
" style="stroke: #000000; stroke-width: 0.8"/>
      </defs>
      <g>
       <use xlink:href="#mf30314b7f0" x="57.6" y="274.796025" style="stroke: #000000; stroke-width: 0.8"/>
      </g>
     </g>
     <g id="text_8">
      <!-- 0.26 -->
      <g transform="translate(28.334375 278.595244) scale(0.1 -0.1)">
       <defs>
        <path id="DejaVuSans-2e" d="M 684 794 
L 1344 794 
L 1344 0 
L 684 0 
L 684 794 
z
" transform="scale(0.015625)"/>
       </defs>
       <use xlink:href="#DejaVuSans-30"/>
       <use xlink:href="#DejaVuSans-2e" x="63.623047"/>
       <use xlink:href="#DejaVuSans-32" x="95.410156"/>
       <use xlink:href="#DejaVuSans-36" x="159.033203"/>
      </g>
     </g>
    </g>
    <g id="ytick_2">
     <g id="line2d_8">
      <g>
       <use xlink:href="#mf30314b7f0" x="57.6" y="230.770548" style="stroke: #000000; stroke-width: 0.8"/>
      </g>
     </g>
     <g id="text_9">
      <!-- 0.28 -->
      <g transform="translate(28.334375 234.569767) scale(0.1 -0.1)">
       <use xlink:href="#DejaVuSans-30"/>
       <use xlink:href="#DejaVuSans-2e" x="63.623047"/>
       <use xlink:href="#DejaVuSans-32" x="95.410156"/>
       <use xlink:href="#DejaVuSans-38" x="159.033203"/>
      </g>
     </g>
    </g>
    <g id="ytick_3">
     <g id="line2d_9">
      <g>
       <use xlink:href="#mf30314b7f0" x="57.6" y="186.74507" style="stroke: #000000; stroke-width: 0.8"/>
      </g>
     </g>
     <g id="text_10">
      <!-- 0.30 -->
      <g transform="translate(28.334375 190.544289) scale(0.1 -0.1)">
       <defs>
        <path id="DejaVuSans-33" d="M 2597 2516 
Q 3050 2419 3304 2112 
Q 3559 1806 3559 1356 
Q 3559 666 3084 287 
Q 2609 -91 1734 -91 
Q 1441 -91 1130 -33 
Q 819 25 488 141 
L 488 750 
Q 750 597 1062 519 
Q 1375 441 1716 441 
Q 2309 441 2620 675 
Q 2931 909 2931 1356 
Q 2931 1769 2642 2001 
Q 2353 2234 1838 2234 
L 1294 2234 
L 1294 2753 
L 1863 2753 
Q 2328 2753 2575 2939 
Q 2822 3125 2822 3475 
Q 2822 3834 2567 4026 
Q 2313 4219 1838 4219 
Q 1578 4219 1281 4162 
Q 984 4106 628 3988 
L 628 4550 
Q 988 4650 1302 4700 
Q 1616 4750 1894 4750 
Q 2613 4750 3031 4423 
Q 3450 4097 3450 3541 
Q 3450 3153 3228 2886 
Q 3006 2619 2597 2516 
z
" transform="scale(0.015625)"/>
       </defs>
       <use xlink:href="#DejaVuSans-30"/>
       <use xlink:href="#DejaVuSans-2e" x="63.623047"/>
       <use xlink:href="#DejaVuSans-33" x="95.410156"/>
       <use xlink:href="#DejaVuSans-30" x="159.033203"/>
      </g>
     </g>
    </g>
    <g id="ytick_4">
     <g id="line2d_10">
      <g>
       <use xlink:href="#mf30314b7f0" x="57.6" y="142.719592" style="stroke: #000000; stroke-width: 0.8"/>
      </g>
     </g>
     <g id="text_11">
      <!-- 0.32 -->
      <g transform="translate(28.334375 146.518811) scale(0.1 -0.1)">
       <use xlink:href="#DejaVuSans-30"/>
       <use xlink:href="#DejaVuSans-2e" x="63.623047"/>
       <use xlink:href="#DejaVuSans-33" x="95.410156"/>
       <use xlink:href="#DejaVuSans-32" x="159.033203"/>
      </g>
     </g>
    </g>
    <g id="ytick_5">
     <g id="line2d_11">
      <g>
       <use xlink:href="#mf30314b7f0" x="57.6" y="98.694115" style="stroke: #000000; stroke-width: 0.8"/>
      </g>
     </g>
     <g id="text_12">
      <!-- 0.34 -->
      <g transform="translate(28.334375 102.493333) scale(0.1 -0.1)">
       <use xlink:href="#DejaVuSans-30"/>
       <use xlink:href="#DejaVuSans-2e" x="63.623047"/>
       <use xlink:href="#DejaVuSans-33" x="95.410156"/>
       <use xlink:href="#DejaVuSans-34" x="159.033203"/>
      </g>
     </g>
    </g>
    <g id="ytick_6">
     <g id="line2d_12">
      <g>
       <use xlink:href="#mf30314b7f0" x="57.6" y="54.668637" style="stroke: #000000; stroke-width: 0.8"/>
      </g>
     </g>
     <g id="text_13">
      <!-- 0.36 -->
      <g transform="translate(28.334375 58.467856) scale(0.1 -0.1)">
       <use xlink:href="#DejaVuSans-30"/>
       <use xlink:href="#DejaVuSans-2e" x="63.623047"/>
       <use xlink:href="#DejaVuSans-33" x="95.410156"/>
       <use xlink:href="#DejaVuSans-36" x="159.033203"/>
      </g>
     </g>
    </g>
    <g id="text_14">
     <!-- Order Parameter,S -->
     <g transform="translate(22.254687 221.103) rotate(-90) scale(0.1 -0.1)">
      <defs>
       <path id="DejaVuSans-4f" d="M 2522 4238 
Q 1834 4238 1429 3725 
Q 1025 3213 1025 2328 
Q 1025 1447 1429 934 
Q 1834 422 2522 422 
Q 3209 422 3611 934 
Q 4013 1447 4013 2328 
Q 4013 3213 3611 3725 
Q 3209 4238 2522 4238 
z
M 2522 4750 
Q 3503 4750 4090 4092 
Q 4678 3434 4678 2328 
Q 4678 1225 4090 567 
Q 3503 -91 2522 -91 
Q 1538 -91 948 565 
Q 359 1222 359 2328 
Q 359 3434 948 4092 
Q 1538 4750 2522 4750 
z
" transform="scale(0.015625)"/>
       <path id="DejaVuSans-72" d="M 2631 2963 
Q 2534 3019 2420 3045 
Q 2306 3072 2169 3072 
Q 1681 3072 1420 2755 
Q 1159 2438 1159 1844 
L 1159 0 
L 581 0 
L 581 3500 
L 1159 3500 
L 1159 2956 
Q 1341 3275 1631 3429 
Q 1922 3584 2338 3584 
Q 2397 3584 2469 3576 
Q 2541 3569 2628 3553 
L 2631 2963 
z
" transform="scale(0.015625)"/>
       <path id="DejaVuSans-64" d="M 2906 2969 
L 2906 4863 
L 3481 4863 
L 3481 0 
L 2906 0 
L 2906 525 
Q 2725 213 2448 61 
Q 2172 -91 1784 -91 
Q 1150 -91 751 415 
Q 353 922 353 1747 
Q 353 2572 751 3078 
Q 1150 3584 1784 3584 
Q 2172 3584 2448 3432 
Q 2725 3281 2906 2969 
z
M 947 1747 
Q 947 1113 1208 752 
Q 1469 391 1925 391 
Q 2381 391 2643 752 
Q 2906 1113 2906 1747 
Q 2906 2381 2643 2742 
Q 2381 3103 1925 3103 
Q 1469 3103 1208 2742 
Q 947 2381 947 1747 
z
" transform="scale(0.015625)"/>
       <path id="DejaVuSans-65" d="M 3597 1894 
L 3597 1613 
L 953 1613 
Q 991 1019 1311 708 
Q 1631 397 2203 397 
Q 2534 397 2845 478 
Q 3156 559 3463 722 
L 3463 178 
Q 3153 47 2828 -22 
Q 2503 -91 2169 -91 
Q 1331 -91 842 396 
Q 353 884 353 1716 
Q 353 2575 817 3079 
Q 1281 3584 2069 3584 
Q 2775 3584 3186 3129 
Q 3597 2675 3597 1894 
z
M 3022 2063 
Q 3016 2534 2758 2815 
Q 2500 3097 2075 3097 
Q 1594 3097 1305 2825 
Q 1016 2553 972 2059 
L 3022 2063 
z
" transform="scale(0.015625)"/>
       <path id="DejaVuSans-20" transform="scale(0.015625)"/>
       <path id="DejaVuSans-50" d="M 1259 4147 
L 1259 2394 
L 2053 2394 
Q 2494 2394 2734 2622 
Q 2975 2850 2975 3272 
Q 2975 3691 2734 3919 
Q 2494 4147 2053 4147 
L 1259 4147 
z
M 628 4666 
L 2053 4666 
Q 2838 4666 3239 4311 
Q 3641 3956 3641 3272 
Q 3641 2581 3239 2228 
Q 2838 1875 2053 1875 
L 1259 1875 
L 1259 0 
L 628 0 
L 628 4666 
z
" transform="scale(0.015625)"/>
       <path id="DejaVuSans-61" d="M 2194 1759 
Q 1497 1759 1228 1600 
Q 959 1441 959 1056 
Q 959 750 1161 570 
Q 1363 391 1709 391 
Q 2188 391 2477 730 
Q 2766 1069 2766 1631 
L 2766 1759 
L 2194 1759 
z
M 3341 1997 
L 3341 0 
L 2766 0 
L 2766 531 
Q 2569 213 2275 61 
Q 1981 -91 1556 -91 
Q 1019 -91 701 211 
Q 384 513 384 1019 
Q 384 1609 779 1909 
Q 1175 2209 1959 2209 
L 2766 2209 
L 2766 2266 
Q 2766 2663 2505 2880 
Q 2244 3097 1772 3097 
Q 1472 3097 1187 3025 
Q 903 2953 641 2809 
L 641 3341 
Q 956 3463 1253 3523 
Q 1550 3584 1831 3584 
Q 2591 3584 2966 3190 
Q 3341 2797 3341 1997 
z
" transform="scale(0.015625)"/>
       <path id="DejaVuSans-6d" d="M 3328 2828 
Q 3544 3216 3844 3400 
Q 4144 3584 4550 3584 
Q 5097 3584 5394 3201 
Q 5691 2819 5691 2113 
L 5691 0 
L 5113 0 
L 5113 2094 
Q 5113 2597 4934 2840 
Q 4756 3084 4391 3084 
Q 3944 3084 3684 2787 
Q 3425 2491 3425 1978 
L 3425 0 
L 2847 0 
L 2847 2094 
Q 2847 2600 2669 2842 
Q 2491 3084 2119 3084 
Q 1678 3084 1418 2786 
Q 1159 2488 1159 1978 
L 1159 0 
L 581 0 
L 581 3500 
L 1159 3500 
L 1159 2956 
Q 1356 3278 1631 3431 
Q 1906 3584 2284 3584 
Q 2666 3584 2933 3390 
Q 3200 3197 3328 2828 
z
" transform="scale(0.015625)"/>
       <path id="DejaVuSans-74" d="M 1172 4494 
L 1172 3500 
L 2356 3500 
L 2356 3053 
L 1172 3053 
L 1172 1153 
Q 1172 725 1289 603 
Q 1406 481 1766 481 
L 2356 481 
L 2356 0 
L 1766 0 
Q 1100 0 847 248 
Q 594 497 594 1153 
L 594 3053 
L 172 3053 
L 172 3500 
L 594 3500 
L 594 4494 
L 1172 4494 
z
" transform="scale(0.015625)"/>
       <path id="DejaVuSans-2c" d="M 750 794 
L 1409 794 
L 1409 256 
L 897 -744 
L 494 -744 
L 750 256 
L 750 794 
z
" transform="scale(0.015625)"/>
      </defs>
      <use xlink:href="#DejaVuSans-4f"/>
      <use xlink:href="#DejaVuSans-72" x="78.710938"/>
      <use xlink:href="#DejaVuSans-64" x="118.074219"/>
      <use xlink:href="#DejaVuSans-65" x="181.550781"/>
      <use xlink:href="#DejaVuSans-72" x="243.074219"/>
      <use xlink:href="#DejaVuSans-20" x="284.1875"/>
      <use xlink:href="#DejaVuSans-50" x="315.974609"/>
      <use xlink:href="#DejaVuSans-61" x="371.777344"/>
      <use xlink:href="#DejaVuSans-72" x="433.056641"/>
      <use xlink:href="#DejaVuSans-61" x="474.169922"/>
      <use xlink:href="#DejaVuSans-6d" x="535.449219"/>
      <use xlink:href="#DejaVuSans-65" x="632.861328"/>
      <use xlink:href="#DejaVuSans-74" x="694.384766"/>
      <use xlink:href="#DejaVuSans-65" x="733.59375"/>
      <use xlink:href="#DejaVuSans-72" x="795.117188"/>
      <use xlink:href="#DejaVuSans-2c" x="836.230469"/>
      <use xlink:href="#DejaVuSans-53" x="868.017578"/>
     </g>
    </g>
   </g>
   <g id="line2d_13">
    <path d="M 73.832727 112.121885 
L 74.157382 170.015389 
L 74.482036 168.254369 
L 74.806691 214.701248 
L 75.131345 186.084688 
L 75.780655 88.788382 
L 76.105309 91.870166 
L 76.429964 128.851567 
L 76.754618 120.706854 
L 77.403927 197.531312 
L 77.728582 206.11628 
L 78.053236 252.343032 
L 78.377891 174.638064 
L 78.702545 184.543796 
L 79.0272 209.418191 
L 79.351855 244.198318 
L 79.676509 250.141758 
L 80.001164 204.575389 
L 80.650473 290.42507 
L 80.975127 209.858446 
L 81.624436 177.49972 
L 82.273745 96.272713 
L 82.5984 177.279592 
L 82.923055 133.694369 
L 83.247709 162.751185 
L 83.572364 201.93386 
L 83.897018 221.30507 
L 84.221673 232.311439 
L 84.870982 183.883414 
L 85.195636 189.166471 
L 85.520291 182.122395 
L 85.844945 199.732586 
L 86.1696 230.770548 
L 86.494255 231.210803 
L 86.818909 253.003414 
L 87.143564 262.028637 
L 87.468218 226.368 
L 87.792873 270.17335 
L 88.117527 284.701758 
L 88.442182 234.732841 
L 89.091491 188.946344 
L 89.416145 125.109401 
L 89.7408 197.091057 
L 90.714764 131.493096 
L 91.039418 223.506344 
L 91.364073 195.550166 
L 91.688727 202.594242 
L 92.013382 248.160611 
L 92.338036 272.814879 
L 92.987345 245.298955 
L 93.312 269.292841 
L 93.636655 231.43093 
L 93.961309 231.871185 
L 94.285964 215.581758 
L 94.610618 193.569019 
L 94.935273 222.845962 
L 95.259927 277.217427 
L 95.584582 206.99679 
L 95.909236 189.826854 
L 96.233891 242.437299 
L 96.558545 207.877299 
L 96.8832 201.05335 
L 97.207855 179.700994 
L 97.532509 271.714242 
L 97.857164 237.814624 
L 98.181818 289.104306 
L 98.506473 274.796025 
L 98.831127 239.575643 
L 99.480436 145.581248 
L 99.805091 146.461758 
L 100.129745 127.971057 
L 100.4544 187.845707 
L 100.779055 175.738701 
L 101.103709 120.046471 
L 101.753018 215.581758 
L 102.077673 241.336662 
L 102.402327 285.36214 
L 102.726982 235.173096 
L 103.051636 225.267363 
L 103.376291 199.952713 
L 103.700945 190.267108 
L 104.0256 184.763924 
L 104.350255 171.996535 
L 104.674909 196.650803 
L 104.999564 182.56265 
L 105.324218 178.600357 
L 105.648873 232.311439 
L 105.973527 200.392968 
L 106.298182 239.795771 
L 106.622836 232.751694 
L 106.947491 237.594497 
L 107.272145 233.412076 
L 107.5968 274.796025 
L 107.921455 255.424815 
L 108.246109 217.342777 
L 108.895418 257.846217 
L 109.544727 206.11628 
L 109.869382 261.80851 
L 110.194036 215.581758 
L 110.518691 205.235771 
L 110.843345 172.656917 
L 111.492655 153.946089 
L 111.817309 179.921121 
L 112.141964 221.745325 
L 112.466618 245.298955 
L 112.791273 231.871185 
L 113.115927 278.758318 
L 113.440582 252.563159 
L 113.765236 246.399592 
L 114.089891 268.192204 
L 114.414545 252.122904 
L 114.7392 250.361885 
L 115.063855 223.506344 
L 115.388509 187.185325 
L 115.713164 188.946344 
L 116.037818 177.719847 
L 116.687127 225.707618 
L 117.011782 272.154497 
L 117.661091 240.236025 
L 117.985745 240.015898 
L 118.3104 267.091567 
L 118.635055 219.103796 
L 118.959709 206.556535 
L 119.284364 166.273223 
L 119.609018 156.147363 
L 120.258327 218.223287 
L 120.582982 155.486981 
L 120.907636 216.24214 
L 121.232291 234.952968 
L 121.556945 218.223287 
L 121.8816 223.286217 
L 122.206255 166.933605 
L 122.530909 181.68214 
L 122.855564 185.424306 
L 123.180218 243.097682 
L 123.504873 207.216917 
L 123.829527 266.211057 
L 124.154182 245.519083 
L 124.478836 273.255134 
L 124.803491 178.820484 
L 125.128145 215.141503 
L 125.4528 199.072204 
L 125.777455 237.814624 
L 126.102109 235.173096 
L 126.751418 271.494115 
L 127.076073 271.714242 
L 127.400727 270.613605 
L 127.725382 261.80851 
L 128.050036 203.254624 
L 128.374691 166.933605 
L 128.699345 163.851822 
L 129.024 141.839083 
L 129.348655 203.254624 
L 129.673309 190.046981 
L 129.997964 197.971567 
L 130.322618 266.871439 
L 130.647273 248.160611 
L 130.971927 274.355771 
L 131.296582 263.129274 
L 131.621236 205.235771 
L 131.945891 198.191694 
L 132.270545 186.74507 
L 132.5952 247.720357 
L 132.919855 253.663796 
L 133.244509 210.738955 
L 133.569164 204.135134 
L 133.893818 224.386854 
L 134.218473 208.537682 
L 134.543127 152.18507 
L 134.867782 152.625325 
L 135.192436 171.336153 
L 135.517091 175.298446 
L 135.841745 177.49972 
L 136.1664 188.506089 
L 136.491055 225.48749 
L 136.815709 200.833223 
L 137.140364 249.261248 
L 137.465018 247.720357 
L 137.789673 234.512713 
L 138.114327 204.795516 
L 138.438982 209.638318 
L 138.763636 238.695134 
L 139.088291 236.273732 
L 139.412945 250.582013 
L 139.7376 215.801885 
L 140.062255 261.588382 
L 140.386909 217.342777 
L 140.711564 192.68851 
L 141.036218 183.002904 
L 141.360873 221.525197 
L 141.685527 211.839592 
L 142.010182 253.883924 
L 142.334836 257.405962 
L 142.659491 288.003669 
L 142.984145 243.978191 
L 143.3088 255.204688 
L 143.633455 282.060229 
L 143.958109 188.726217 
L 144.282764 187.405452 
L 144.607418 207.216917 
L 145.256727 265.770803 
L 145.581382 210.738955 
L 145.906036 209.198064 
L 146.230691 234.292586 
L 146.555345 277.437554 
L 146.88 236.934115 
L 147.204655 238.254879 
L 147.529309 206.776662 
L 147.853964 234.072459 
L 148.178618 233.852331 
L 148.503273 251.462522 
L 148.827927 251.902777 
L 149.152582 241.776917 
L 149.477236 260.487745 
L 149.801891 269.733096 
L 150.126545 265.330548 
L 150.4512 243.758064 
L 150.775855 248.820994 
L 151.100509 219.764178 
L 151.425164 229.890038 
L 152.399127 289.104306 
L 152.723782 254.324178 
L 153.373091 288.223796 
L 153.697745 267.972076 
L 154.0224 234.072459 
L 154.347055 228.349146 
L 154.671709 216.24214 
L 154.996364 254.544306 
L 155.321018 245.298955 
L 155.645673 273.915516 
L 155.970327 270.17335 
L 156.294982 228.789401 
L 156.619636 253.443669 
L 156.944291 194.229401 
L 157.5936 229.229656 
L 157.918255 274.135643 
L 158.242909 244.858701 
L 158.892218 164.292076 
L 159.216873 199.512459 
L 159.541527 194.669656 
L 159.866182 200.833223 
L 160.190836 167.814115 
L 160.515491 200.172841 
L 160.840145 248.160611 
L 161.1648 246.399592 
L 161.489455 167.153732 
L 161.814109 200.613096 
L 162.138764 251.242395 
L 162.463418 225.48749 
L 162.788073 247.280102 
L 163.762036 205.896153 
L 164.086691 197.751439 
L 164.411345 174.638064 
L 164.736 181.021758 
L 165.060655 209.858446 
L 165.385309 208.977936 
L 165.709964 206.99679 
L 166.034618 188.726217 
L 166.359273 221.965452 
L 166.683927 235.173096 
L 167.008582 234.732841 
L 167.333236 195.109911 
L 167.657891 179.040611 
L 167.982545 188.946344 
L 168.3072 249.921631 
L 168.631855 247.500229 
L 168.956509 222.845962 
L 169.281164 167.153732 
L 169.605818 221.30507 
L 169.930473 242.437299 
L 170.255127 243.978191 
L 170.904436 206.11628 
L 171.229091 232.311439 
L 171.553745 190.707363 
L 171.8784 225.267363 
L 172.203055 272.154497 
L 172.527709 251.68265 
L 172.852364 223.286217 
L 173.177018 216.24214 
L 173.501673 246.61972 
L 173.826327 288.443924 
L 174.150982 248.380739 
L 174.475636 254.104051 
L 174.800291 275.896662 
L 175.124945 274.135643 
L 175.4496 270.17335 
L 176.098909 159.449274 
L 176.748218 196.650803 
L 177.072873 211.839592 
L 177.397527 128.411312 
L 177.722182 163.191439 
L 178.046836 158.788892 
L 178.371491 181.241885 
L 178.696145 176.178955 
L 179.0208 191.147618 
L 179.345455 211.619465 
L 179.670109 269.733096 
L 179.994764 192.908637 
L 180.319418 197.311185 
L 180.644073 227.468637 
L 180.968727 213.160357 
L 181.293382 244.418446 
L 181.618036 254.984561 
L 181.942691 223.066089 
L 182.267345 224.386854 
L 182.592 203.915006 
L 182.916655 221.30507 
L 183.241309 273.035006 
L 183.890618 238.695134 
L 184.215273 237.594497 
L 184.539927 251.68265 
L 184.864582 289.764688 
L 185.189236 245.078828 
L 185.513891 233.191949 
L 185.838545 254.764433 
L 186.1632 205.015643 
L 186.487855 196.650803 
L 186.812509 208.757809 
L 187.461818 286.24265 
L 187.786473 275.23628 
L 188.111127 272.154497 
L 188.435782 254.764433 
L 188.760436 212.05972 
L 189.085091 195.550166 
L 189.409745 172.877045 
L 189.7344 187.845707 
L 190.059055 164.071949 
L 190.708364 232.971822 
L 191.357673 144.920866 
L 191.682327 180.581503 
L 192.006982 182.56265 
L 193.3056 263.789656 
L 193.630255 246.179465 
L 193.954909 202.153987 
L 194.279564 180.141248 
L 194.604218 191.147618 
L 194.928873 190.707363 
L 195.253527 179.921121 
L 195.578182 221.745325 
L 195.902836 159.229146 
L 196.227491 167.593987 
L 196.552145 192.248255 
L 196.8768 206.776662 
L 197.201455 261.588382 
L 197.850764 214.040866 
L 198.175418 269.733096 
L 198.500073 253.883924 
L 198.824727 266.651312 
L 199.149382 260.707873 
L 199.474036 271.273987 
L 199.798691 286.462777 
L 200.123345 272.814879 
L 200.448 249.041121 
L 200.772655 247.940484 
L 201.421964 233.412076 
L 201.746618 203.474752 
L 202.395927 282.500484 
L 203.045236 285.802395 
L 203.369891 230.330293 
L 203.694545 239.575643 
L 204.0192 220.644688 
L 204.343855 256.305325 
L 204.668509 275.456408 
L 204.993164 282.280357 
L 205.317818 228.349146 
L 205.642473 280.079083 
L 205.967127 252.783287 
L 206.291782 256.305325 
L 206.616436 255.204688 
L 206.941091 271.494115 
L 207.265745 251.242395 
L 207.915055 195.770293 
L 208.239709 219.984306 
L 208.564364 265.770803 
L 208.889018 198.852076 
L 209.213673 216.24214 
L 209.862982 240.236025 
L 210.512291 203.694879 
L 210.836945 273.695389 
L 211.1616 250.361885 
L 211.486255 239.795771 
L 211.810909 245.73921 
L 212.135564 232.091312 
L 212.460218 262.689019 
L 212.784873 215.361631 
L 213.109527 258.946854 
L 213.434182 144.040357 
L 213.758836 145.361121 
L 214.083491 129.511949 
L 214.408145 176.399083 
L 214.7328 250.141758 
L 215.057455 265.550675 
L 215.382109 262.689019 
L 215.706764 267.972076 
L 216.031418 286.682904 
L 216.356073 262.689019 
L 216.680727 229.009529 
L 217.005382 236.49386 
L 217.330036 197.751439 
L 217.654691 230.330293 
L 217.979345 230.990675 
L 218.304 222.18558 
L 218.628655 192.68851 
L 218.953309 207.877299 
L 219.277964 202.153987 
L 219.602618 210.518828 
L 219.927273 187.185325 
L 220.576582 212.940229 
L 220.901236 211.399338 
L 221.225891 166.713478 
L 221.550545 155.707108 
L 221.8752 203.474752 
L 222.199855 212.279847 
L 222.524509 173.977682 
L 222.849164 245.078828 
L 223.173818 165.832968 
L 223.498473 160.549911 
L 223.823127 211.839592 
L 224.147782 179.040611 
L 224.472436 212.720102 
L 224.797091 198.631949 
L 225.121745 159.889529 
L 225.771055 271.934369 
L 226.095709 252.122904 
L 226.420364 251.462522 
L 226.745018 229.890038 
L 227.069673 227.908892 
L 227.394327 269.953223 
L 227.718982 187.405452 
L 228.368291 269.733096 
L 228.692945 241.116535 
L 229.0176 237.374369 
L 229.342255 262.468892 
L 229.666909 260.267618 
L 229.991564 253.223541 
L 230.316218 223.726471 
L 230.640873 245.078828 
L 230.965527 252.343032 
L 231.290182 195.770293 
L 231.614836 204.795516 
L 231.939491 201.93386 
L 232.264145 180.141248 
L 232.5888 90.329274 
L 232.913455 162.971312 
L 233.238109 205.235771 
L 233.562764 159.229146 
L 233.887418 199.292331 
L 234.212073 186.965197 
L 234.536727 225.48749 
L 235.186036 171.776408 
L 235.510691 224.166726 
L 235.835345 244.198318 
L 236.16 232.751694 
L 236.484655 240.236025 
L 236.809309 251.242395 
L 237.133964 256.525452 
L 237.458618 251.242395 
L 237.783273 265.330548 
L 238.107927 208.977936 
L 238.432582 222.625834 
L 238.757236 176.178955 
L 239.081891 180.581503 
L 239.406545 225.267363 
L 239.7312 204.795516 
L 240.055855 196.210548 
L 240.705164 142.279338 
L 241.029818 131.93335 
L 241.354473 183.883414 
L 241.679127 190.267108 
L 242.003782 199.072204 
L 242.328436 156.587618 
L 242.653091 222.18558 
L 242.977745 251.462522 
L 243.3024 247.059975 
L 243.627055 226.808255 
L 243.951709 246.839847 
L 244.276364 273.915516 
L 244.601018 220.644688 
L 245.250327 284.921885 
L 245.574982 200.392968 
L 245.899636 207.877299 
L 246.548945 253.883924 
L 246.8736 242.877554 
L 247.198255 209.418191 
L 247.522909 235.393223 
L 247.847564 205.896153 
L 248.172218 134.574879 
L 248.496873 128.411312 
L 248.821527 160.990166 
L 249.146182 221.745325 
L 249.470836 248.160611 
L 249.795491 227.24851 
L 250.120145 221.525197 
L 250.4448 245.73921 
L 250.769455 249.261248 
L 251.094109 175.518573 
L 251.418764 166.273223 
L 251.743418 109.700484 
L 252.392727 206.776662 
L 252.717382 178.600357 
L 253.042036 211.619465 
L 253.366691 200.833223 
L 253.691345 135.895643 
L 254.016 132.81386 
L 254.340655 223.946599 
L 254.665309 180.361376 
L 254.989964 161.43042 
L 255.314618 181.902268 
L 255.639273 151.744815 
L 255.963927 175.958828 
L 256.288582 188.506089 
L 256.937891 254.324178 
L 257.5872 232.971822 
L 257.911855 269.953223 
L 258.236509 288.884178 
L 258.561164 216.902522 
L 258.885818 281.17972 
L 259.210473 221.525197 
L 259.535127 234.732841 
L 259.859782 175.518573 
L 260.184436 201.493605 
L 260.509091 207.216917 
L 260.833745 175.958828 
L 261.1584 218.223287 
L 261.483055 238.475006 
L 261.807709 203.254624 
L 262.132364 180.361376 
L 262.457018 241.776917 
L 262.781673 187.62558 
L 263.106327 181.021758 
L 263.430982 116.964688 
L 263.755636 129.071694 
L 264.080291 131.713223 
L 264.404945 158.348637 
L 264.7296 200.833223 
L 265.054255 210.959083 
L 265.378909 274.575898 
L 265.703564 274.135643 
L 266.352873 171.55628 
L 266.677527 191.367745 
L 267.326836 108.159592 
L 267.651491 103.31679 
L 267.976145 154.166217 
L 268.3008 156.147363 
L 268.625455 178.160102 
L 268.950109 183.223032 
L 269.274764 156.36749 
L 269.599418 160.109656 
L 269.924073 232.311439 
L 270.248727 263.129274 
L 270.573382 262.248764 
L 270.898036 249.481376 
L 271.222691 219.103796 
L 271.547345 239.135389 
L 271.872 219.764178 
L 272.196655 240.67628 
L 272.521309 270.17335 
L 272.845964 267.531822 
L 273.495273 257.185834 
L 273.819927 243.317809 
L 274.144582 259.387108 
L 274.793891 190.267108 
L 275.4432 286.682904 
L 275.767855 232.531567 
L 276.092509 237.814624 
L 276.417164 175.958828 
L 276.741818 250.582013 
L 277.066473 231.43093 
L 277.391127 230.330293 
L 277.715782 241.776917 
L 278.040436 249.041121 
L 278.365091 234.072459 
L 278.689745 227.688764 
L 279.0144 288.664051 
L 279.339055 239.135389 
L 279.663709 219.984306 
L 279.988364 254.324178 
L 280.313018 255.424815 
L 280.637673 245.519083 
L 280.962327 212.279847 
L 281.286982 211.619465 
L 281.611636 223.066089 
L 281.936291 131.493096 
L 282.910255 290.645197 
L 283.234909 271.934369 
L 283.559564 235.833478 
L 283.884218 239.575643 
L 284.208873 272.814879 
L 284.533527 275.676535 
L 284.858182 206.776662 
L 285.182836 247.940484 
L 285.507491 264.890293 
L 286.1568 280.959592 
L 286.481455 240.896408 
L 286.806109 236.49386 
L 287.130764 236.273732 
L 287.780073 254.984561 
L 288.104727 231.651057 
L 288.429382 270.393478 
L 288.754036 243.758064 
L 289.078691 184.103541 
L 289.403345 191.587873 
L 289.728 175.958828 
L 290.052655 265.550675 
L 290.377309 252.122904 
L 290.701964 206.336408 
L 291.026618 253.003414 
L 291.351273 256.525452 
L 291.675927 223.506344 
L 292.000582 275.016153 
L 292.325236 264.890293 
L 292.649891 244.858701 
L 292.974545 243.097682 
L 293.2992 216.462268 
L 293.623855 255.204688 
L 294.273164 227.468637 
L 294.922473 164.732331 
L 295.247127 194.889783 
L 295.571782 171.776408 
L 295.896436 158.12851 
L 296.221091 225.047236 
L 296.545745 236.713987 
L 296.8704 238.915261 
L 297.195055 270.613605 
L 297.519709 263.569529 
L 297.844364 211.399338 
L 298.169018 215.141503 
L 298.493673 163.411567 
L 298.818327 214.481121 
L 299.142982 183.883414 
L 299.467636 196.430675 
L 299.792291 169.355006 
L 300.116945 198.852076 
L 300.4416 267.311694 
L 300.766255 250.141758 
L 301.090909 259.607236 
L 301.415564 215.141503 
L 301.740218 212.940229 
L 302.064873 212.940229 
L 302.389527 253.223541 
L 302.714182 254.324178 
L 303.038836 278.538191 
L 303.363491 229.449783 
L 303.688145 222.625834 
L 304.0128 240.67628 
L 304.337455 173.977682 
L 304.662109 184.543796 
L 304.986764 159.449274 
L 305.311418 175.298446 
L 305.636073 164.952459 
L 305.960727 166.053096 
L 306.285382 222.625834 
L 306.610036 222.18558 
L 307.259345 174.417936 
L 307.584 224.606981 
L 308.233309 259.607236 
L 308.557964 193.348892 
L 308.882618 252.783287 
L 309.207273 282.280357 
L 309.531927 217.562904 
L 310.181236 275.23628 
L 310.505891 281.17972 
L 310.830545 269.733096 
L 311.1552 262.689019 
L 311.479855 218.883669 
L 311.804509 270.833732 
L 312.129164 223.066089 
L 312.453818 241.776917 
L 312.778473 279.198573 
L 313.103127 291.965962 
L 313.427782 161.870675 
L 314.077091 242.437299 
L 314.401745 206.556535 
L 314.7264 226.368 
L 315.051055 206.11628 
L 315.375709 153.725962 
L 315.700364 195.770293 
L 316.025018 278.538191 
L 316.349673 272.814879 
L 316.674327 278.758318 
L 316.998982 265.11042 
L 317.323636 207.437045 
L 317.648291 246.61972 
L 317.972945 241.55679 
L 318.2976 210.959083 
L 318.622255 293.947108 
L 318.946909 272.594752 
L 319.271564 237.154242 
L 319.596218 240.236025 
L 319.920873 266.871439 
L 320.245527 188.285962 
L 320.570182 159.889529 
L 320.894836 142.499465 
L 321.219491 160.770038 
L 321.544145 220.424561 
L 321.8688 191.147618 
L 322.193455 183.663287 
L 322.518109 153.285707 
L 322.842764 169.134879 
L 323.167418 202.153987 
L 323.492073 264.009783 
L 323.816727 250.361885 
L 324.141382 280.959592 
L 324.466036 252.563159 
L 324.790691 146.241631 
L 325.44 265.550675 
L 325.764655 264.009783 
L 326.089309 279.638828 
L 326.413964 241.116535 
L 326.738618 261.588382 
L 327.063273 272.814879 
L 327.387927 264.670166 
L 327.712582 265.550675 
L 328.037236 249.921631 
L 328.361891 210.738955 
L 328.686545 185.204178 
L 329.0112 242.877554 
L 329.335855 248.600866 
L 329.660509 256.305325 
L 329.985164 258.946854 
L 330.309818 235.393223 
L 330.634473 256.085197 
L 330.959127 194.449529 
L 331.283782 207.877299 
L 331.608436 255.424815 
L 331.933091 219.103796 
L 332.257745 261.588382 
L 332.5824 251.902777 
L 333.231709 193.348892 
L 333.556364 185.864561 
L 333.881018 126.430166 
L 334.205673 148.00265 
L 334.530327 151.084433 
L 334.854982 158.12851 
L 335.179636 155.927236 
L 335.828945 88.788382 
L 336.478255 53.568 
L 337.127564 149.103287 
L 337.776873 240.456153 
L 338.101527 179.480866 
L 338.426182 225.927745 
L 338.750836 205.015643 
L 339.075491 166.273223 
L 339.400145 189.166471 
L 339.7248 186.524943 
L 340.049455 143.159847 
L 340.698764 108.819975 
L 341.023418 90.329274 
L 341.672727 224.386854 
L 341.997382 225.48749 
L 342.322036 209.638318 
L 342.971345 283.601121 
L 343.296 277.877809 
L 343.620655 240.015898 
L 343.945309 256.74558 
L 344.269964 178.600357 
L 344.594618 147.782522 
L 344.919273 150.864306 
L 345.568582 191.808 
L 345.893236 198.631949 
L 346.217891 138.317045 
L 346.542545 132.81386 
L 346.8672 155.046726 
L 347.516509 240.456153 
L 347.841164 169.795261 
L 348.165818 160.109656 
L 348.490473 92.530548 
L 348.815127 67.87628 
L 349.139782 124.669146 
L 349.464436 142.05921 
L 349.789091 127.530803 
L 350.113745 229.449783 
L 350.4384 263.129274 
L 350.763055 275.016153 
L 351.087709 260.928 
L 352.061673 184.323669 
L 352.710982 215.141503 
L 353.035636 216.682395 
L 353.360291 207.877299 
L 353.684945 218.223287 
L 354.0096 176.839338 
L 354.334255 183.002904 
L 354.658909 130.392459 
L 354.983564 146.021503 
L 355.308218 175.738701 
L 355.632873 173.097172 
L 355.957527 157.688255 
L 356.282182 223.946599 
L 356.606836 198.852076 
L 356.931491 206.11628 
L 357.256145 228.789401 
L 357.5808 192.248255 
L 357.905455 234.732841 
L 358.230109 227.24851 
L 358.554764 234.952968 
L 358.879418 258.506599 
L 359.204073 154.826599 
L 359.528727 224.827108 
L 359.853382 153.946089 
L 360.502691 188.285962 
L 360.827345 254.764433 
L 361.152 266.871439 
L 361.801309 191.367745 
L 362.450618 241.997045 
L 362.775273 243.758064 
L 363.099927 210.298701 
L 363.424582 213.380484 
L 363.749236 252.563159 
L 364.073891 233.852331 
L 364.398545 241.776917 
L 364.7232 233.191949 
L 365.047855 218.883669 
L 365.372509 240.015898 
L 365.697164 205.676025 
L 366.021818 257.185834 
L 366.346473 286.903032 
L 366.995782 242.217172 
L 367.320436 163.631694 
L 367.645091 238.915261 
L 368.2944 275.456408 
L 368.619055 278.538191 
L 368.943709 254.544306 
L 369.268364 251.022268 
L 369.593018 222.18558 
L 369.917673 252.563159 
L 370.242327 253.883924 
L 370.566982 257.185834 
L 371.216291 269.512968 
L 371.540945 237.594497 
L 371.8656 277.877809 
L 372.190255 260.487745 
L 372.514909 181.902268 
L 372.839564 259.387108 
L 373.164218 270.613605 
L 373.488873 237.814624 
L 373.813527 244.858701 
L 374.138182 267.311694 
L 374.787491 222.845962 
L 375.112145 174.858191 
L 375.4368 232.311439 
L 375.761455 212.940229 
L 376.086109 286.24265 
L 376.410764 278.097936 
L 376.735418 262.468892 
L 377.060073 241.116535 
L 377.384727 206.556535 
L 377.709382 193.569019 
L 378.034036 235.61335 
L 378.358691 257.405962 
L 378.683345 218.663541 
L 379.008 212.720102 
L 379.332655 268.192204 
L 379.657309 224.166726 
L 379.981964 215.581758 
L 380.306618 249.261248 
L 380.631273 246.179465 
L 380.955927 266.431185 
L 381.280582 214.481121 
L 381.605236 206.556535 
L 381.929891 230.770548 
L 382.254545 202.153987 
L 382.5792 260.928 
L 382.903855 279.858955 
L 383.228509 239.795771 
L 383.553164 264.229911 
L 383.877818 274.135643 
L 384.202473 271.273987 
L 384.527127 248.160611 
L 384.851782 240.456153 
L 385.176436 293.947108 
L 385.501091 253.223541 
L 385.825745 279.858955 
L 386.1504 264.890293 
L 386.799709 217.562904 
L 387.124364 240.236025 
L 387.449018 199.952713 
L 387.773673 198.411822 
L 388.098327 291.525707 
L 388.422982 252.343032 
L 388.747636 245.73921 
L 389.072291 260.707873 
L 389.396945 248.380739 
L 389.7216 214.481121 
L 390.046255 222.845962 
L 390.370909 204.355261 
L 390.695564 129.511949 
L 391.020218 167.814115 
L 391.344873 183.443159 
L 391.669527 217.12265 
L 391.994182 265.550675 
L 392.318836 222.18558 
L 392.643491 229.229656 
L 392.968145 251.462522 
L 393.2928 254.324178 
L 393.617455 205.896153 
L 393.942109 197.751439 
L 394.591418 295.488 
L 394.916073 254.764433 
L 395.240727 241.336662 
L 395.565382 249.261248 
L 395.890036 239.575643 
L 396.214691 233.412076 
L 396.539345 264.670166 
L 396.864 213.380484 
L 397.188655 276.777172 
L 397.513309 243.978191 
L 397.837964 176.178955 
L 398.162618 239.135389 
L 398.487273 238.915261 
L 398.487273 238.915261 
" clip-path="url(#p634c64df6a)" style="fill: none; stroke: #1f77b4; stroke-width: 1.5; stroke-linecap: square"/>
   </g>
   <g id="patch_3">
    <path d="M 57.6 307.584 
L 57.6 41.472 
" style="fill: none; stroke: #000000; stroke-width: 0.8; stroke-linejoin: miter; stroke-linecap: square"/>
   </g>
   <g id="patch_4">
    <path d="M 414.72 307.584 
L 414.72 41.472 
" style="fill: none; stroke: #000000; stroke-width: 0.8; stroke-linejoin: miter; stroke-linecap: square"/>
   </g>
   <g id="patch_5">
    <path d="M 57.6 307.584 
L 414.72 307.584 
" style="fill: none; stroke: #000000; stroke-width: 0.8; stroke-linejoin: miter; stroke-linecap: square"/>
   </g>
   <g id="patch_6">
    <path d="M 57.6 41.472 
L 414.72 41.472 
" style="fill: none; stroke: #000000; stroke-width: 0.8; stroke-linejoin: miter; stroke-linecap: square"/>
   </g>
   <g id="text_15">
    <!-- Reduced Temperature,T$^*$=0.65 -->
    <g transform="translate(140.88 35.472) scale(0.12 -0.12)">
     <defs>
      <path id="DejaVuSans-52" d="M 2841 2188 
Q 3044 2119 3236 1894 
Q 3428 1669 3622 1275 
L 4263 0 
L 3584 0 
L 2988 1197 
Q 2756 1666 2539 1819 
Q 2322 1972 1947 1972 
L 1259 1972 
L 1259 0 
L 628 0 
L 628 4666 
L 2053 4666 
Q 2853 4666 3247 4331 
Q 3641 3997 3641 3322 
Q 3641 2881 3436 2590 
Q 3231 2300 2841 2188 
z
M 1259 4147 
L 1259 2491 
L 2053 2491 
Q 2509 2491 2742 2702 
Q 2975 2913 2975 3322 
Q 2975 3731 2742 3939 
Q 2509 4147 2053 4147 
L 1259 4147 
z
" transform="scale(0.015625)"/>
      <path id="DejaVuSans-75" d="M 544 1381 
L 544 3500 
L 1119 3500 
L 1119 1403 
Q 1119 906 1312 657 
Q 1506 409 1894 409 
Q 2359 409 2629 706 
Q 2900 1003 2900 1516 
L 2900 3500 
L 3475 3500 
L 3475 0 
L 2900 0 
L 2900 538 
Q 2691 219 2414 64 
Q 2138 -91 1772 -91 
Q 1169 -91 856 284 
Q 544 659 544 1381 
z
M 1991 3584 
L 1991 3584 
z
" transform="scale(0.015625)"/>
      <path id="DejaVuSans-63" d="M 3122 3366 
L 3122 2828 
Q 2878 2963 2633 3030 
Q 2388 3097 2138 3097 
Q 1578 3097 1268 2742 
Q 959 2388 959 1747 
Q 959 1106 1268 751 
Q 1578 397 2138 397 
Q 2388 397 2633 464 
Q 2878 531 3122 666 
L 3122 134 
Q 2881 22 2623 -34 
Q 2366 -91 2075 -91 
Q 1284 -91 818 406 
Q 353 903 353 1747 
Q 353 2603 823 3093 
Q 1294 3584 2113 3584 
Q 2378 3584 2631 3529 
Q 2884 3475 3122 3366 
z
" transform="scale(0.015625)"/>
      <path id="DejaVuSans-54" d="M -19 4666 
L 3928 4666 
L 3928 4134 
L 2272 4134 
L 2272 0 
L 1638 0 
L 1638 4134 
L -19 4134 
L -19 4666 
z
" transform="scale(0.015625)"/>
      <path id="DejaVuSans-70" d="M 1159 525 
L 1159 -1331 
L 581 -1331 
L 581 3500 
L 1159 3500 
L 1159 2969 
Q 1341 3281 1617 3432 
Q 1894 3584 2278 3584 
Q 2916 3584 3314 3078 
Q 3713 2572 3713 1747 
Q 3713 922 3314 415 
Q 2916 -91 2278 -91 
Q 1894 -91 1617 61 
Q 1341 213 1159 525 
z
M 3116 1747 
Q 3116 2381 2855 2742 
Q 2594 3103 2138 3103 
Q 1681 3103 1420 2742 
Q 1159 2381 1159 1747 
Q 1159 1113 1420 752 
Q 1681 391 2138 391 
Q 2594 391 2855 752 
Q 3116 1113 3116 1747 
z
" transform="scale(0.015625)"/>
      <path id="DejaVuSans-2a" d="M 3009 3897 
L 1888 3291 
L 3009 2681 
L 2828 2375 
L 1778 3009 
L 1778 1831 
L 1422 1831 
L 1422 3009 
L 372 2375 
L 191 2681 
L 1313 3291 
L 191 3897 
L 372 4206 
L 1422 3572 
L 1422 4750 
L 1778 4750 
L 1778 3572 
L 2828 4206 
L 3009 3897 
z
" transform="scale(0.015625)"/>
      <path id="DejaVuSans-3d" d="M 678 2906 
L 4684 2906 
L 4684 2381 
L 678 2381 
L 678 2906 
z
M 678 1631 
L 4684 1631 
L 4684 1100 
L 678 1100 
L 678 1631 
z
" transform="scale(0.015625)"/>
      <path id="DejaVuSans-35" d="M 691 4666 
L 3169 4666 
L 3169 4134 
L 1269 4134 
L 1269 2991 
Q 1406 3038 1543 3061 
Q 1681 3084 1819 3084 
Q 2600 3084 3056 2656 
Q 3513 2228 3513 1497 
Q 3513 744 3044 326 
Q 2575 -91 1722 -91 
Q 1428 -91 1123 -41 
Q 819 9 494 109 
L 494 744 
Q 775 591 1075 516 
Q 1375 441 1709 441 
Q 2250 441 2565 725 
Q 2881 1009 2881 1497 
Q 2881 1984 2565 2268 
Q 2250 2553 1709 2553 
Q 1456 2553 1204 2497 
Q 953 2441 691 2322 
L 691 4666 
z
" transform="scale(0.015625)"/>
     </defs>
     <use xlink:href="#DejaVuSans-52" transform="translate(0 0.765625)"/>
     <use xlink:href="#DejaVuSans-65" transform="translate(69.482422 0.765625)"/>
     <use xlink:href="#DejaVuSans-64" transform="translate(131.005859 0.765625)"/>
     <use xlink:href="#DejaVuSans-75" transform="translate(194.482422 0.765625)"/>
     <use xlink:href="#DejaVuSans-63" transform="translate(257.861328 0.765625)"/>
     <use xlink:href="#DejaVuSans-65" transform="translate(312.841797 0.765625)"/>
     <use xlink:href="#DejaVuSans-64" transform="translate(374.365234 0.765625)"/>
     <use xlink:href="#DejaVuSans-20" transform="translate(437.841797 0.765625)"/>
     <use xlink:href="#DejaVuSans-54" transform="translate(469.628906 0.765625)"/>
     <use xlink:href="#DejaVuSans-65" transform="translate(530.712891 0.765625)"/>
     <use xlink:href="#DejaVuSans-6d" transform="translate(592.236328 0.765625)"/>
     <use xlink:href="#DejaVuSans-70" transform="translate(689.648438 0.765625)"/>
     <use xlink:href="#DejaVuSans-65" transform="translate(753.125 0.765625)"/>
     <use xlink:href="#DejaVuSans-72" transform="translate(814.648438 0.765625)"/>
     <use xlink:href="#DejaVuSans-61" transform="translate(855.761719 0.765625)"/>
     <use xlink:href="#DejaVuSans-74" transform="translate(917.041016 0.765625)"/>
     <use xlink:href="#DejaVuSans-75" transform="translate(956.25 0.765625)"/>
     <use xlink:href="#DejaVuSans-72" transform="translate(1019.628906 0.765625)"/>
     <use xlink:href="#DejaVuSans-65" transform="translate(1060.742188 0.765625)"/>
     <use xlink:href="#DejaVuSans-2c" transform="translate(1122.265625 0.765625)"/>
     <use xlink:href="#DejaVuSans-54" transform="translate(1154.052734 0.765625)"/>
     <use xlink:href="#DejaVuSans-2a" transform="translate(1229.731445 39.046875) scale(0.7)"/>
     <use xlink:href="#DejaVuSans-3d" transform="translate(1281.103516 0.765625)"/>
     <use xlink:href="#DejaVuSans-30" transform="translate(1364.892578 0.765625)"/>
     <use xlink:href="#DejaVuSans-2e" transform="translate(1428.515625 0.765625)"/>
     <use xlink:href="#DejaVuSans-36" transform="translate(1460.302734 0.765625)"/>
     <use xlink:href="#DejaVuSans-35" transform="translate(1523.925781 0.765625)"/>
    </g>
   </g>
  </g>
 </g>
 <defs>
  <clipPath id="p634c64df6a">
   <rect x="57.6" y="41.472" width="357.12" height="266.112"/>
  </clipPath>
 </defs>
</svg>
