<?xml version="1.0" encoding="utf-8" standalone="no"?>
<!DOCTYPE svg PUBLIC "-//W3C//DTD SVG 1.1//EN"
  "http://www.w3.org/Graphics/SVG/1.1/DTD/svg11.dtd">
<svg xmlns:xlink="http://www.w3.org/1999/xlink" width="460.8pt" height="345.6pt" viewBox="0 0 460.8 345.6" xmlns="http://www.w3.org/2000/svg" version="1.1">
 <metadata>
  <rdf:RDF xmlns:dc="http://purl.org/dc/elements/1.1/" xmlns:cc="http://creativecommons.org/ns#" xmlns:rdf="http://www.w3.org/1999/02/22-rdf-syntax-ns#">
   <cc:Work>
    <dc:type rdf:resource="http://purl.org/dc/dcmitype/StillImage"/>
    <dc:date>2024-03-10T19:33:50.573863</dc:date>
    <dc:format>image/svg+xml</dc:format>
    <dc:creator>
     <cc:Agent>
      <dc:title>Matplotlib v3.8.3, https://matplotlib.org/</dc:title>
     </cc:Agent>
    </dc:creator>
   </cc:Work>
  </rdf:RDF>
 </metadata>
 <defs>
  <style type="text/css">*{stroke-linejoin: round; stroke-linecap: butt}</style>
 </defs>
 <g id="figure_1">
  <g id="patch_1">
   <path d="M 0 345.6 
L 460.8 345.6 
L 460.8 0 
L 0 0 
z
" style="fill: #ffffff"/>
  </g>
  <g id="axes_1">
   <g id="patch_2">
    <path d="M 57.6 307.584 
L 414.72 307.584 
L 414.72 41.472 
L 57.6 41.472 
z
" style="fill: #ffffff"/>
   </g>
   <g id="matplotlib.axis_1">
    <g id="xtick_1">
     <g id="line2d_1">
      <defs>
       <path id="m39b185eb89" d="M 0 0 
L 0 3.5 
" style="stroke: #000000; stroke-width: 0.8"/>
      </defs>
      <g>
       <use xlink:href="#m39b185eb89" x="73.832727" y="307.584" style="stroke: #000000; stroke-width: 0.8"/>
      </g>
     </g>
     <g id="text_1">
      <!-- 0 -->
      <g transform="translate(70.651477 322.182437) scale(0.1 -0.1)">
       <defs>
        <path id="DejaVuSans-30" d="M 2034 4250 
Q 1547 4250 1301 3770 
Q 1056 3291 1056 2328 
Q 1056 1369 1301 889 
Q 1547 409 2034 409 
Q 2525 409 2770 889 
Q 3016 1369 3016 2328 
Q 3016 3291 2770 3770 
Q 2525 4250 2034 4250 
z
M 2034 4750 
Q 2819 4750 3233 4129 
Q 3647 3509 3647 2328 
Q 3647 1150 3233 529 
Q 2819 -91 2034 -91 
Q 1250 -91 836 529 
Q 422 1150 422 2328 
Q 422 3509 836 4129 
Q 1250 4750 2034 4750 
z
" transform="scale(0.015625)"/>
       </defs>
       <use xlink:href="#DejaVuSans-30"/>
      </g>
     </g>
    </g>
    <g id="xtick_2">
     <g id="line2d_2">
      <g>
       <use xlink:href="#m39b185eb89" x="138.763636" y="307.584" style="stroke: #000000; stroke-width: 0.8"/>
      </g>
     </g>
     <g id="text_2">
      <!-- 200 -->
      <g transform="translate(129.219886 322.182437) scale(0.1 -0.1)">
       <defs>
        <path id="DejaVuSans-32" d="M 1228 531 
L 3431 531 
L 3431 0 
L 469 0 
L 469 531 
Q 828 903 1448 1529 
Q 2069 2156 2228 2338 
Q 2531 2678 2651 2914 
Q 2772 3150 2772 3378 
Q 2772 3750 2511 3984 
Q 2250 4219 1831 4219 
Q 1534 4219 1204 4116 
Q 875 4013 500 3803 
L 500 4441 
Q 881 4594 1212 4672 
Q 1544 4750 1819 4750 
Q 2544 4750 2975 4387 
Q 3406 4025 3406 3419 
Q 3406 3131 3298 2873 
Q 3191 2616 2906 2266 
Q 2828 2175 2409 1742 
Q 1991 1309 1228 531 
z
" transform="scale(0.015625)"/>
       </defs>
       <use xlink:href="#DejaVuSans-32"/>
       <use xlink:href="#DejaVuSans-30" x="63.623047"/>
       <use xlink:href="#DejaVuSans-30" x="127.246094"/>
      </g>
     </g>
    </g>
    <g id="xtick_3">
     <g id="line2d_3">
      <g>
       <use xlink:href="#m39b185eb89" x="203.694545" y="307.584" style="stroke: #000000; stroke-width: 0.8"/>
      </g>
     </g>
     <g id="text_3">
      <!-- 400 -->
      <g transform="translate(194.150795 322.182437) scale(0.1 -0.1)">
       <defs>
        <path id="DejaVuSans-34" d="M 2419 4116 
L 825 1625 
L 2419 1625 
L 2419 4116 
z
M 2253 4666 
L 3047 4666 
L 3047 1625 
L 3713 1625 
L 3713 1100 
L 3047 1100 
L 3047 0 
L 2419 0 
L 2419 1100 
L 313 1100 
L 313 1709 
L 2253 4666 
z
" transform="scale(0.015625)"/>
       </defs>
       <use xlink:href="#DejaVuSans-34"/>
       <use xlink:href="#DejaVuSans-30" x="63.623047"/>
       <use xlink:href="#DejaVuSans-30" x="127.246094"/>
      </g>
     </g>
    </g>
    <g id="xtick_4">
     <g id="line2d_4">
      <g>
       <use xlink:href="#m39b185eb89" x="268.625455" y="307.584" style="stroke: #000000; stroke-width: 0.8"/>
      </g>
     </g>
     <g id="text_4">
      <!-- 600 -->
      <g transform="translate(259.081705 322.182437) scale(0.1 -0.1)">
       <defs>
        <path id="DejaVuSans-36" d="M 2113 2584 
Q 1688 2584 1439 2293 
Q 1191 2003 1191 1497 
Q 1191 994 1439 701 
Q 1688 409 2113 409 
Q 2538 409 2786 701 
Q 3034 994 3034 1497 
Q 3034 2003 2786 2293 
Q 2538 2584 2113 2584 
z
M 3366 4563 
L 3366 3988 
Q 3128 4100 2886 4159 
Q 2644 4219 2406 4219 
Q 1781 4219 1451 3797 
Q 1122 3375 1075 2522 
Q 1259 2794 1537 2939 
Q 1816 3084 2150 3084 
Q 2853 3084 3261 2657 
Q 3669 2231 3669 1497 
Q 3669 778 3244 343 
Q 2819 -91 2113 -91 
Q 1303 -91 875 529 
Q 447 1150 447 2328 
Q 447 3434 972 4092 
Q 1497 4750 2381 4750 
Q 2619 4750 2861 4703 
Q 3103 4656 3366 4563 
z
" transform="scale(0.015625)"/>
       </defs>
       <use xlink:href="#DejaVuSans-36"/>
       <use xlink:href="#DejaVuSans-30" x="63.623047"/>
       <use xlink:href="#DejaVuSans-30" x="127.246094"/>
      </g>
     </g>
    </g>
    <g id="xtick_5">
     <g id="line2d_5">
      <g>
       <use xlink:href="#m39b185eb89" x="333.556364" y="307.584" style="stroke: #000000; stroke-width: 0.8"/>
      </g>
     </g>
     <g id="text_5">
      <!-- 800 -->
      <g transform="translate(324.012614 322.182437) scale(0.1 -0.1)">
       <defs>
        <path id="DejaVuSans-38" d="M 2034 2216 
Q 1584 2216 1326 1975 
Q 1069 1734 1069 1313 
Q 1069 891 1326 650 
Q 1584 409 2034 409 
Q 2484 409 2743 651 
Q 3003 894 3003 1313 
Q 3003 1734 2745 1975 
Q 2488 2216 2034 2216 
z
M 1403 2484 
Q 997 2584 770 2862 
Q 544 3141 544 3541 
Q 544 4100 942 4425 
Q 1341 4750 2034 4750 
Q 2731 4750 3128 4425 
Q 3525 4100 3525 3541 
Q 3525 3141 3298 2862 
Q 3072 2584 2669 2484 
Q 3125 2378 3379 2068 
Q 3634 1759 3634 1313 
Q 3634 634 3220 271 
Q 2806 -91 2034 -91 
Q 1263 -91 848 271 
Q 434 634 434 1313 
Q 434 1759 690 2068 
Q 947 2378 1403 2484 
z
M 1172 3481 
Q 1172 3119 1398 2916 
Q 1625 2713 2034 2713 
Q 2441 2713 2670 2916 
Q 2900 3119 2900 3481 
Q 2900 3844 2670 4047 
Q 2441 4250 2034 4250 
Q 1625 4250 1398 4047 
Q 1172 3844 1172 3481 
z
" transform="scale(0.015625)"/>
       </defs>
       <use xlink:href="#DejaVuSans-38"/>
       <use xlink:href="#DejaVuSans-30" x="63.623047"/>
       <use xlink:href="#DejaVuSans-30" x="127.246094"/>
      </g>
     </g>
    </g>
    <g id="xtick_6">
     <g id="line2d_6">
      <g>
       <use xlink:href="#m39b185eb89" x="398.487273" y="307.584" style="stroke: #000000; stroke-width: 0.8"/>
      </g>
     </g>
     <g id="text_6">
      <!-- 1000 -->
      <g transform="translate(385.762273 322.182437) scale(0.1 -0.1)">
       <defs>
        <path id="DejaVuSans-31" d="M 794 531 
L 1825 531 
L 1825 4091 
L 703 3866 
L 703 4441 
L 1819 4666 
L 2450 4666 
L 2450 531 
L 3481 531 
L 3481 0 
L 794 0 
L 794 531 
z
" transform="scale(0.015625)"/>
       </defs>
       <use xlink:href="#DejaVuSans-31"/>
       <use xlink:href="#DejaVuSans-30" x="63.623047"/>
       <use xlink:href="#DejaVuSans-30" x="127.246094"/>
       <use xlink:href="#DejaVuSans-30" x="190.869141"/>
      </g>
     </g>
    </g>
    <g id="text_7">
     <!-- MCS -->
     <g transform="translate(225.180312 335.860562) scale(0.1 -0.1)">
      <defs>
       <path id="DejaVuSans-4d" d="M 628 4666 
L 1569 4666 
L 2759 1491 
L 3956 4666 
L 4897 4666 
L 4897 0 
L 4281 0 
L 4281 4097 
L 3078 897 
L 2444 897 
L 1241 4097 
L 1241 0 
L 628 0 
L 628 4666 
z
" transform="scale(0.015625)"/>
       <path id="DejaVuSans-43" d="M 4122 4306 
L 4122 3641 
Q 3803 3938 3442 4084 
Q 3081 4231 2675 4231 
Q 1875 4231 1450 3742 
Q 1025 3253 1025 2328 
Q 1025 1406 1450 917 
Q 1875 428 2675 428 
Q 3081 428 3442 575 
Q 3803 722 4122 1019 
L 4122 359 
Q 3791 134 3420 21 
Q 3050 -91 2638 -91 
Q 1578 -91 968 557 
Q 359 1206 359 2328 
Q 359 3453 968 4101 
Q 1578 4750 2638 4750 
Q 3056 4750 3426 4639 
Q 3797 4528 4122 4306 
z
" transform="scale(0.015625)"/>
       <path id="DejaVuSans-53" d="M 3425 4513 
L 3425 3897 
Q 3066 4069 2747 4153 
Q 2428 4238 2131 4238 
Q 1616 4238 1336 4038 
Q 1056 3838 1056 3469 
Q 1056 3159 1242 3001 
Q 1428 2844 1947 2747 
L 2328 2669 
Q 3034 2534 3370 2195 
Q 3706 1856 3706 1288 
Q 3706 609 3251 259 
Q 2797 -91 1919 -91 
Q 1588 -91 1214 -16 
Q 841 59 441 206 
L 441 856 
Q 825 641 1194 531 
Q 1563 422 1919 422 
Q 2459 422 2753 634 
Q 3047 847 3047 1241 
Q 3047 1584 2836 1778 
Q 2625 1972 2144 2069 
L 1759 2144 
Q 1053 2284 737 2584 
Q 422 2884 422 3419 
Q 422 4038 858 4394 
Q 1294 4750 2059 4750 
Q 2388 4750 2728 4690 
Q 3069 4631 3425 4513 
z
" transform="scale(0.015625)"/>
      </defs>
      <use xlink:href="#DejaVuSans-4d"/>
      <use xlink:href="#DejaVuSans-43" x="86.279297"/>
      <use xlink:href="#DejaVuSans-53" x="156.103516"/>
     </g>
    </g>
   </g>
   <g id="matplotlib.axis_2">
    <g id="ytick_1">
     <g id="line2d_7">
      <defs>
       <path id="m5780494da1" d="M 0 0 
L -3.5 0 
" style="stroke: #000000; stroke-width: 0.8"/>
      </defs>
      <g>
       <use xlink:href="#m5780494da1" x="57.6" y="288.680998" style="stroke: #000000; stroke-width: 0.8"/>
      </g>
     </g>
     <g id="text_8">
      <!-- 0.3 -->
      <g transform="translate(34.696875 292.480217) scale(0.1 -0.1)">
       <defs>
        <path id="DejaVuSans-2e" d="M 684 794 
L 1344 794 
L 1344 0 
L 684 0 
L 684 794 
z
" transform="scale(0.015625)"/>
        <path id="DejaVuSans-33" d="M 2597 2516 
Q 3050 2419 3304 2112 
Q 3559 1806 3559 1356 
Q 3559 666 3084 287 
Q 2609 -91 1734 -91 
Q 1441 -91 1130 -33 
Q 819 25 488 141 
L 488 750 
Q 750 597 1062 519 
Q 1375 441 1716 441 
Q 2309 441 2620 675 
Q 2931 909 2931 1356 
Q 2931 1769 2642 2001 
Q 2353 2234 1838 2234 
L 1294 2234 
L 1294 2753 
L 1863 2753 
Q 2328 2753 2575 2939 
Q 2822 3125 2822 3475 
Q 2822 3834 2567 4026 
Q 2313 4219 1838 4219 
Q 1578 4219 1281 4162 
Q 984 4106 628 3988 
L 628 4550 
Q 988 4650 1302 4700 
Q 1616 4750 1894 4750 
Q 2613 4750 3031 4423 
Q 3450 4097 3450 3541 
Q 3450 3153 3228 2886 
Q 3006 2619 2597 2516 
z
" transform="scale(0.015625)"/>
       </defs>
       <use xlink:href="#DejaVuSans-30"/>
       <use xlink:href="#DejaVuSans-2e" x="63.623047"/>
       <use xlink:href="#DejaVuSans-33" x="95.410156"/>
      </g>
     </g>
    </g>
    <g id="ytick_2">
     <g id="line2d_8">
      <g>
       <use xlink:href="#m5780494da1" x="57.6" y="246.920253" style="stroke: #000000; stroke-width: 0.8"/>
      </g>
     </g>
     <g id="text_9">
      <!-- 0.4 -->
      <g transform="translate(34.696875 250.719471) scale(0.1 -0.1)">
       <use xlink:href="#DejaVuSans-30"/>
       <use xlink:href="#DejaVuSans-2e" x="63.623047"/>
       <use xlink:href="#DejaVuSans-34" x="95.410156"/>
      </g>
     </g>
    </g>
    <g id="ytick_3">
     <g id="line2d_9">
      <g>
       <use xlink:href="#m5780494da1" x="57.6" y="205.159507" style="stroke: #000000; stroke-width: 0.8"/>
      </g>
     </g>
     <g id="text_10">
      <!-- 0.5 -->
      <g transform="translate(34.696875 208.958726) scale(0.1 -0.1)">
       <defs>
        <path id="DejaVuSans-35" d="M 691 4666 
L 3169 4666 
L 3169 4134 
L 1269 4134 
L 1269 2991 
Q 1406 3038 1543 3061 
Q 1681 3084 1819 3084 
Q 2600 3084 3056 2656 
Q 3513 2228 3513 1497 
Q 3513 744 3044 326 
Q 2575 -91 1722 -91 
Q 1428 -91 1123 -41 
Q 819 9 494 109 
L 494 744 
Q 775 591 1075 516 
Q 1375 441 1709 441 
Q 2250 441 2565 725 
Q 2881 1009 2881 1497 
Q 2881 1984 2565 2268 
Q 2250 2553 1709 2553 
Q 1456 2553 1204 2497 
Q 953 2441 691 2322 
L 691 4666 
z
" transform="scale(0.015625)"/>
       </defs>
       <use xlink:href="#DejaVuSans-30"/>
       <use xlink:href="#DejaVuSans-2e" x="63.623047"/>
       <use xlink:href="#DejaVuSans-35" x="95.410156"/>
      </g>
     </g>
    </g>
    <g id="ytick_4">
     <g id="line2d_10">
      <g>
       <use xlink:href="#m5780494da1" x="57.6" y="163.398761" style="stroke: #000000; stroke-width: 0.8"/>
      </g>
     </g>
     <g id="text_11">
      <!-- 0.6 -->
      <g transform="translate(34.696875 167.19798) scale(0.1 -0.1)">
       <use xlink:href="#DejaVuSans-30"/>
       <use xlink:href="#DejaVuSans-2e" x="63.623047"/>
       <use xlink:href="#DejaVuSans-36" x="95.410156"/>
      </g>
     </g>
    </g>
    <g id="ytick_5">
     <g id="line2d_11">
      <g>
       <use xlink:href="#m5780494da1" x="57.6" y="121.638016" style="stroke: #000000; stroke-width: 0.8"/>
      </g>
     </g>
     <g id="text_12">
      <!-- 0.7 -->
      <g transform="translate(34.696875 125.437234) scale(0.1 -0.1)">
       <defs>
        <path id="DejaVuSans-37" d="M 525 4666 
L 3525 4666 
L 3525 4397 
L 1831 0 
L 1172 0 
L 2766 4134 
L 525 4134 
L 525 4666 
z
" transform="scale(0.015625)"/>
       </defs>
       <use xlink:href="#DejaVuSans-30"/>
       <use xlink:href="#DejaVuSans-2e" x="63.623047"/>
       <use xlink:href="#DejaVuSans-37" x="95.410156"/>
      </g>
     </g>
    </g>
    <g id="ytick_6">
     <g id="line2d_12">
      <g>
       <use xlink:href="#m5780494da1" x="57.6" y="79.87727" style="stroke: #000000; stroke-width: 0.8"/>
      </g>
     </g>
     <g id="text_13">
      <!-- 0.8 -->
      <g transform="translate(34.696875 83.676489) scale(0.1 -0.1)">
       <use xlink:href="#DejaVuSans-30"/>
       <use xlink:href="#DejaVuSans-2e" x="63.623047"/>
       <use xlink:href="#DejaVuSans-38" x="95.410156"/>
      </g>
     </g>
    </g>
    <g id="text_14">
     <!-- Order Parameter,S -->
     <g transform="translate(28.617187 221.103) rotate(-90) scale(0.1 -0.1)">
      <defs>
       <path id="DejaVuSans-4f" d="M 2522 4238 
Q 1834 4238 1429 3725 
Q 1025 3213 1025 2328 
Q 1025 1447 1429 934 
Q 1834 422 2522 422 
Q 3209 422 3611 934 
Q 4013 1447 4013 2328 
Q 4013 3213 3611 3725 
Q 3209 4238 2522 4238 
z
M 2522 4750 
Q 3503 4750 4090 4092 
Q 4678 3434 4678 2328 
Q 4678 1225 4090 567 
Q 3503 -91 2522 -91 
Q 1538 -91 948 565 
Q 359 1222 359 2328 
Q 359 3434 948 4092 
Q 1538 4750 2522 4750 
z
" transform="scale(0.015625)"/>
       <path id="DejaVuSans-72" d="M 2631 2963 
Q 2534 3019 2420 3045 
Q 2306 3072 2169 3072 
Q 1681 3072 1420 2755 
Q 1159 2438 1159 1844 
L 1159 0 
L 581 0 
L 581 3500 
L 1159 3500 
L 1159 2956 
Q 1341 3275 1631 3429 
Q 1922 3584 2338 3584 
Q 2397 3584 2469 3576 
Q 2541 3569 2628 3553 
L 2631 2963 
z
" transform="scale(0.015625)"/>
       <path id="DejaVuSans-64" d="M 2906 2969 
L 2906 4863 
L 3481 4863 
L 3481 0 
L 2906 0 
L 2906 525 
Q 2725 213 2448 61 
Q 2172 -91 1784 -91 
Q 1150 -91 751 415 
Q 353 922 353 1747 
Q 353 2572 751 3078 
Q 1150 3584 1784 3584 
Q 2172 3584 2448 3432 
Q 2725 3281 2906 2969 
z
M 947 1747 
Q 947 1113 1208 752 
Q 1469 391 1925 391 
Q 2381 391 2643 752 
Q 2906 1113 2906 1747 
Q 2906 2381 2643 2742 
Q 2381 3103 1925 3103 
Q 1469 3103 1208 2742 
Q 947 2381 947 1747 
z
" transform="scale(0.015625)"/>
       <path id="DejaVuSans-65" d="M 3597 1894 
L 3597 1613 
L 953 1613 
Q 991 1019 1311 708 
Q 1631 397 2203 397 
Q 2534 397 2845 478 
Q 3156 559 3463 722 
L 3463 178 
Q 3153 47 2828 -22 
Q 2503 -91 2169 -91 
Q 1331 -91 842 396 
Q 353 884 353 1716 
Q 353 2575 817 3079 
Q 1281 3584 2069 3584 
Q 2775 3584 3186 3129 
Q 3597 2675 3597 1894 
z
M 3022 2063 
Q 3016 2534 2758 2815 
Q 2500 3097 2075 3097 
Q 1594 3097 1305 2825 
Q 1016 2553 972 2059 
L 3022 2063 
z
" transform="scale(0.015625)"/>
       <path id="DejaVuSans-20" transform="scale(0.015625)"/>
       <path id="DejaVuSans-50" d="M 1259 4147 
L 1259 2394 
L 2053 2394 
Q 2494 2394 2734 2622 
Q 2975 2850 2975 3272 
Q 2975 3691 2734 3919 
Q 2494 4147 2053 4147 
L 1259 4147 
z
M 628 4666 
L 2053 4666 
Q 2838 4666 3239 4311 
Q 3641 3956 3641 3272 
Q 3641 2581 3239 2228 
Q 2838 1875 2053 1875 
L 1259 1875 
L 1259 0 
L 628 0 
L 628 4666 
z
" transform="scale(0.015625)"/>
       <path id="DejaVuSans-61" d="M 2194 1759 
Q 1497 1759 1228 1600 
Q 959 1441 959 1056 
Q 959 750 1161 570 
Q 1363 391 1709 391 
Q 2188 391 2477 730 
Q 2766 1069 2766 1631 
L 2766 1759 
L 2194 1759 
z
M 3341 1997 
L 3341 0 
L 2766 0 
L 2766 531 
Q 2569 213 2275 61 
Q 1981 -91 1556 -91 
Q 1019 -91 701 211 
Q 384 513 384 1019 
Q 384 1609 779 1909 
Q 1175 2209 1959 2209 
L 2766 2209 
L 2766 2266 
Q 2766 2663 2505 2880 
Q 2244 3097 1772 3097 
Q 1472 3097 1187 3025 
Q 903 2953 641 2809 
L 641 3341 
Q 956 3463 1253 3523 
Q 1550 3584 1831 3584 
Q 2591 3584 2966 3190 
Q 3341 2797 3341 1997 
z
" transform="scale(0.015625)"/>
       <path id="DejaVuSans-6d" d="M 3328 2828 
Q 3544 3216 3844 3400 
Q 4144 3584 4550 3584 
Q 5097 3584 5394 3201 
Q 5691 2819 5691 2113 
L 5691 0 
L 5113 0 
L 5113 2094 
Q 5113 2597 4934 2840 
Q 4756 3084 4391 3084 
Q 3944 3084 3684 2787 
Q 3425 2491 3425 1978 
L 3425 0 
L 2847 0 
L 2847 2094 
Q 2847 2600 2669 2842 
Q 2491 3084 2119 3084 
Q 1678 3084 1418 2786 
Q 1159 2488 1159 1978 
L 1159 0 
L 581 0 
L 581 3500 
L 1159 3500 
L 1159 2956 
Q 1356 3278 1631 3431 
Q 1906 3584 2284 3584 
Q 2666 3584 2933 3390 
Q 3200 3197 3328 2828 
z
" transform="scale(0.015625)"/>
       <path id="DejaVuSans-74" d="M 1172 4494 
L 1172 3500 
L 2356 3500 
L 2356 3053 
L 1172 3053 
L 1172 1153 
Q 1172 725 1289 603 
Q 1406 481 1766 481 
L 2356 481 
L 2356 0 
L 1766 0 
Q 1100 0 847 248 
Q 594 497 594 1153 
L 594 3053 
L 172 3053 
L 172 3500 
L 594 3500 
L 594 4494 
L 1172 4494 
z
" transform="scale(0.015625)"/>
       <path id="DejaVuSans-2c" d="M 750 794 
L 1409 794 
L 1409 256 
L 897 -744 
L 494 -744 
L 750 256 
L 750 794 
z
" transform="scale(0.015625)"/>
      </defs>
      <use xlink:href="#DejaVuSans-4f"/>
      <use xlink:href="#DejaVuSans-72" x="78.710938"/>
      <use xlink:href="#DejaVuSans-64" x="118.074219"/>
      <use xlink:href="#DejaVuSans-65" x="181.550781"/>
      <use xlink:href="#DejaVuSans-72" x="243.074219"/>
      <use xlink:href="#DejaVuSans-20" x="284.1875"/>
      <use xlink:href="#DejaVuSans-50" x="315.974609"/>
      <use xlink:href="#DejaVuSans-61" x="371.777344"/>
      <use xlink:href="#DejaVuSans-72" x="433.056641"/>
      <use xlink:href="#DejaVuSans-61" x="474.169922"/>
      <use xlink:href="#DejaVuSans-6d" x="535.449219"/>
      <use xlink:href="#DejaVuSans-65" x="632.861328"/>
      <use xlink:href="#DejaVuSans-74" x="694.384766"/>
      <use xlink:href="#DejaVuSans-65" x="733.59375"/>
      <use xlink:href="#DejaVuSans-72" x="795.117188"/>
      <use xlink:href="#DejaVuSans-2c" x="836.230469"/>
      <use xlink:href="#DejaVuSans-53" x="868.017578"/>
     </g>
    </g>
   </g>
   <g id="line2d_13">
    <path d="M 73.832727 295.488 
L 74.157382 288.597477 
L 74.482036 284.504924 
L 74.806691 271.851418 
L 75.131345 274.064737 
L 75.456 268.218233 
L 76.105309 263.499269 
L 76.429964 269.387534 
L 76.754618 268.928166 
L 77.079273 260.116648 
L 77.728582 234.934919 
L 78.053236 210.755447 
L 78.377891 211.214815 
L 79.0272 191.294939 
L 79.351855 195.763339 
L 79.676509 191.461982 
L 80.001164 192.589523 
L 80.325818 197.183205 
L 80.650473 184.905545 
L 81.299782 178.766716 
L 81.624436 167.867161 
L 81.949091 174.882966 
L 82.273745 168.91118 
L 82.5984 171.082738 
L 82.923055 168.869419 
L 83.572364 161.728331 
L 83.897018 165.57032 
L 84.221673 165.02743 
L 84.870982 152.039838 
L 85.195636 156.257674 
L 85.520291 150.578212 
L 85.844945 150.828777 
L 86.1696 146.986788 
L 86.494255 137.966467 
L 86.818909 139.845701 
L 87.143564 134.375043 
L 87.468218 139.428093 
L 87.792873 140.138026 
L 88.442182 131.242987 
L 88.766836 133.289264 
L 89.416145 118.50596 
L 89.7408 117.378419 
L 90.065455 109.652682 
L 90.390109 113.285866 
L 90.714764 113.202345 
L 91.039418 109.276835 
L 91.364073 110.446136 
L 91.688727 110.195571 
L 92.338036 98.669605 
L 92.662691 102.469833 
L 92.987345 104.182024 
L 93.312 103.764416 
L 93.636655 104.098502 
L 93.961309 102.636876 
L 94.285964 107.773448 
L 94.610618 117.211376 
L 95.259927 109.56916 
L 95.584582 109.652682 
L 95.909236 106.812951 
L 96.233891 111.156068 
L 96.558545 109.861485 
L 96.8832 109.777964 
L 97.207855 106.938233 
L 97.532509 108.483381 
L 97.857164 113.244106 
L 98.506473 105.351325 
L 98.831127 109.694442 
L 99.155782 112.033044 
L 99.480436 115.624468 
L 99.805091 110.654939 
L 100.129745 111.866001 
L 100.4544 116.919051 
L 100.779055 119.299414 
L 101.103709 114.58045 
L 101.428364 118.923567 
L 101.753018 119.257653 
L 102.077673 116.543205 
L 102.402327 117.378419 
L 102.726982 114.162842 
L 103.376291 128.277974 
L 103.700945 125.020636 
L 104.0256 129.948404 
L 104.674909 116.668487 
L 104.999564 116.501444 
L 105.324218 120.176389 
L 105.648873 121.429212 
L 106.298182 105.226042 
L 106.622836 103.179766 
L 106.947491 109.193313 
L 107.272145 106.2283 
L 107.5968 111.156068 
L 107.921455 111.281351 
L 108.246109 111.657197 
L 108.570764 110.487896 
L 108.895418 112.95178 
L 109.220073 101.467575 
L 109.544727 98.92017 
L 109.869382 102.135747 
L 110.194036 99.922428 
L 110.518691 112.91002 
L 110.843345 111.615437 
L 111.168 108.859227 
L 111.492655 107.397601 
L 111.817309 103.179766 
L 112.141964 102.135747 
L 112.466618 99.922428 
L 112.791273 106.645908 
L 113.115927 102.636876 
L 113.440582 102.135747 
L 113.765236 102.678637 
L 114.089891 102.26103 
L 114.414545 106.520626 
L 114.7392 105.601889 
L 115.063855 103.012723 
L 115.388509 102.511594 
L 115.713164 106.77119 
L 116.037818 107.31408 
L 116.362473 112.36713 
L 116.687127 107.564644 
L 117.011782 104.808435 
L 117.336436 97.333262 
L 117.661091 96.999176 
L 117.985745 95.412267 
L 118.3104 96.66509 
L 118.635055 92.071408 
L 118.959709 96.247482 
L 119.284364 89.356959 
L 119.933673 89.649284 
L 120.258327 91.444996 
L 120.582982 95.537549 
L 121.232291 87.018357 
L 121.556945 76.077042 
L 121.8816 76.828735 
L 122.206255 79.250859 
L 122.530909 74.364851 
L 122.855564 82.341154 
L 123.180218 82.800522 
L 123.504873 80.503681 
L 123.829527 84.470952 
L 124.154182 78.666208 
L 124.803491 72.736182 
L 125.128145 73.863722 
L 125.4528 74.406612 
L 125.777455 80.211356 
L 126.102109 80.253117 
L 126.426764 74.114287 
L 126.751418 71.650403 
L 127.076073 70.522863 
L 127.400727 70.35582 
L 127.725382 76.661692 
L 128.050036 77.580429 
L 128.374691 80.002552 
L 128.699345 73.279072 
L 129.024 74.991263 
L 129.348655 71.859207 
L 129.673309 76.619932 
L 129.997964 73.73844 
L 130.322618 73.19555 
L 130.647273 73.15379 
L 130.971927 69.729409 
L 131.621236 65.219248 
L 131.945891 64.843401 
L 132.5952 57.159424 
L 132.919855 56.031884 
L 133.244509 56.157166 
L 133.569164 58.0364 
L 133.893818 58.746332 
L 134.218473 57.785835 
L 134.543127 67.098482 
L 134.867782 65.386291 
L 135.517091 69.353562 
L 135.841745 70.230538 
L 136.1664 69.938212 
L 136.491055 68.393065 
L 136.815709 69.395323 
L 137.140364 74.82422 
L 137.465018 74.448373 
L 137.789673 72.569139 
L 138.114327 75.868238 
L 138.438982 74.991263 
L 138.763636 75.158306 
L 139.088291 70.856949 
L 139.7376 66.221506 
L 140.062255 71.107513 
L 140.386909 78.79149 
L 141.036218 89.106395 
L 141.360873 89.524002 
L 141.685527 88.521744 
L 142.010182 86.016099 
L 142.334836 84.596234 
L 142.659491 88.939352 
L 142.984145 87.435965 
L 143.3088 87.352443 
L 143.633455 86.224903 
L 143.958109 86.976597 
L 144.282764 82.508197 
L 144.607418 84.053344 
L 144.932073 77.496907 
L 145.256727 76.661692 
L 145.581382 65.386291 
L 145.906036 61.335499 
L 146.230691 55.196669 
L 146.88 61.168456 
L 147.204655 66.764396 
L 147.529309 64.509315 
L 147.853964 63.298254 
L 148.178618 64.801641 
L 148.503273 64.551076 
L 148.827927 68.727151 
L 149.152582 67.850175 
L 149.477236 63.63234 
L 149.801891 60.917891 
L 150.4512 53.568 
L 150.775855 54.612019 
L 151.100509 57.326467 
L 151.425164 56.700056 
L 151.749818 57.660553 
L 152.074473 59.665069 
L 152.399127 57.159424 
L 152.723782 58.0364 
L 153.048436 57.952878 
L 153.373091 62.463039 
L 153.697745 63.799383 
L 154.0224 66.806156 
L 154.671709 79.33438 
L 154.996364 80.754245 
L 155.321018 79.501423 
L 155.645673 71.48336 
L 155.970327 69.938212 
L 156.294982 65.135727 
L 156.619636 66.43031 
L 156.944291 61.210216 
L 157.268945 60.667327 
L 157.5936 56.741817 
L 157.918255 56.574774 
L 158.242909 54.570258 
L 158.567564 54.194411 
L 158.892218 57.326467 
L 159.216873 58.0364 
L 159.541527 54.904344 
L 160.515491 67.808414 
L 160.840145 67.307285 
L 161.1648 70.35582 
L 161.489455 79.710227 
L 162.138764 78.540926 
L 162.463418 71.859207 
L 162.788073 72.777943 
L 163.112727 71.817446 
L 164.086691 82.13235 
L 164.411345 81.171853 
L 164.736 79.417902 
L 165.060655 75.784717 
L 165.385309 70.522863 
L 165.709964 73.947244 
L 166.034618 74.907741 
L 166.359273 68.977715 
L 166.683927 73.237311 
L 167.008582 74.531894 
L 167.333236 71.859207 
L 167.657891 74.239569 
L 167.982545 74.531894 
L 168.3072 75.116545 
L 168.631855 68.727151 
L 168.956509 69.687648 
L 169.281164 72.569139 
L 170.255127 67.056721 
L 170.579782 70.982231 
L 170.904436 71.441599 
L 171.229091 77.872754 
L 171.553745 71.441599 
L 171.8784 73.19555 
L 172.527709 68.810672 
L 172.852364 72.276814 
L 173.177018 69.437083 
L 173.501673 70.648145 
L 173.826327 69.604126 
L 174.800291 84.011584 
L 175.124945 83.385172 
L 175.4496 84.93032 
L 175.774255 82.13235 
L 176.098909 78.290361 
L 176.423564 76.411128 
L 176.748218 78.165079 
L 177.072873 75.617674 
L 177.397527 80.044313 
L 177.722182 72.986747 
L 178.371491 83.80278 
L 178.696145 87.310683 
L 179.0208 86.099621 
L 179.345455 81.255374 
L 179.670109 87.686529 
L 179.994764 84.136866 
L 180.319418 85.598492 
L 180.644073 88.897591 
L 180.968727 85.389688 
L 181.293382 89.39872 
L 181.618036 85.974339 
L 181.942691 85.51497 
L 182.267345 87.811811 
L 182.592 84.763277 
L 182.916655 88.772309 
L 183.241309 86.809554 
L 183.565964 95.328746 
L 183.890618 91.946125 
L 184.215273 95.036421 
L 184.539927 93.157187 
L 184.864582 86.475468 
L 185.189236 83.385172 
L 185.513891 85.013842 
L 185.838545 100.757643 
L 186.1632 99.713624 
L 186.487855 96.247482 
L 186.812509 102.762158 
L 187.461818 109.443878 
L 187.786473 107.063515 
L 188.111127 105.768932 
L 188.435782 106.019497 
L 188.760436 107.773448 
L 189.085091 108.566902 
L 189.409745 103.597373 
L 189.7344 103.179766 
L 190.059055 107.522883 
L 190.383709 107.188798 
L 190.708364 110.571418 
L 191.033018 103.138005 
L 191.357673 98.627845 
L 191.682327 98.460802 
L 192.006982 101.049968 
L 192.331636 102.344551 
L 192.656291 95.996918 
L 192.980945 93.365991 
L 193.3056 92.19669 
L 193.630255 89.858088 
L 193.954909 90.233935 
L 194.279564 84.596234 
L 194.604218 85.264406 
L 194.928873 91.862604 
L 195.253527 87.477726 
L 195.578182 86.893075 
L 195.902836 84.846799 
L 196.227491 84.679756 
L 196.552145 90.568021 
L 196.8768 88.730548 
L 197.201455 83.385172 
L 197.850764 83.510455 
L 198.175418 80.754245 
L 198.500073 76.035281 
L 198.824727 75.868238 
L 199.149382 77.830993 
L 199.474036 77.496907 
L 199.798691 82.842283 
L 200.123345 82.549958 
L 200.448 80.963049 
L 200.772655 88.187658 
L 201.097309 90.275695 
L 201.421964 89.440481 
L 201.746618 84.679756 
L 202.395927 93.741837 
L 202.720582 89.691045 
L 203.045236 92.405494 
L 203.369891 89.231677 
L 203.694545 92.823101 
L 204.668509 77.162821 
L 204.993164 76.578171 
L 205.317818 77.705711 
L 205.642473 80.46192 
L 205.967127 81.00481 
L 206.291782 78.540926 
L 206.616436 80.169595 
L 206.941091 82.925804 
L 207.5904 95.57931 
L 207.915055 90.860346 
L 208.239709 84.429191 
L 208.564364 83.134608 
L 208.889018 80.837767 
L 209.538327 88.187658 
L 209.862982 93.90888 
L 210.187636 93.783598 
L 210.836945 88.31294 
L 211.1616 89.273438 
L 211.486255 81.297135 
L 211.810909 83.552215 
L 212.135564 79.250859 
L 212.460218 77.0793 
L 213.109527 70.898709 
L 213.434182 74.030765 
L 213.758836 73.320833 
L 214.083491 72.06801 
L 214.7328 74.698937 
L 215.057455 78.290361 
L 215.382109 68.017218 
L 216.031418 71.984489 
L 216.356073 85.890817 
L 217.005382 96.957415 
L 217.330036 98.419041 
L 218.304 86.726032 
L 218.628655 89.148155 
L 218.953309 89.482241 
L 219.277964 97.79263 
L 219.602618 93.574794 
L 219.927273 93.491273 
L 220.251927 93.700077 
L 220.901236 86.016099 
L 221.225891 86.60075 
L 221.550545 88.521744 
L 221.8752 84.763277 
L 222.199855 82.549958 
L 222.849164 70.35582 
L 223.173818 75.450631 
L 223.498473 73.279072 
L 223.823127 66.806156 
L 224.147782 64.091708 
L 224.472436 67.474328 
L 224.797091 66.054463 
L 225.121745 67.390807 
L 225.4464 72.861465 
L 225.771055 72.485618 
L 226.095709 78.290361 
L 226.420364 78.123318 
L 226.745018 86.726032 
L 227.069673 82.257632 
L 227.394327 83.134608 
L 229.0176 67.850175 
L 229.342255 75.784717 
L 229.666909 74.698937 
L 229.991564 81.714743 
L 230.316218 77.914515 
L 230.640873 80.086074 
L 230.965527 83.301651 
L 231.290182 85.097363 
L 231.614836 82.967565 
L 231.939491 82.090589 
L 232.5888 83.051086 
L 232.913455 82.800522 
L 233.238109 77.705711 
L 233.562764 78.916773 
L 233.887418 74.030765 
L 234.212073 81.714743 
L 234.536727 83.510455 
L 234.861382 83.009326 
L 235.510691 74.740698 
L 235.835345 76.244085 
L 236.16 74.615416 
L 236.484655 80.796006 
L 237.133964 88.104137 
L 237.458618 94.284727 
L 237.783273 93.491273 
L 238.107927 84.262148 
L 238.432582 80.46192 
L 238.757236 73.320833 
L 239.081891 75.909999 
L 239.406545 75.450631 
L 239.7312 78.373883 
L 240.380509 74.949502 
L 240.705164 78.457404 
L 241.029818 79.835509 
L 241.354473 76.995778 
L 241.679127 71.191035 
L 242.003782 69.729409 
L 242.328436 69.520605 
L 242.977745 80.503681 
L 243.627055 72.402096 
L 244.601018 83.218129 
L 244.925673 87.477726 
L 245.250327 90.108653 
L 245.574982 88.688787 
L 245.899636 90.442738 
L 246.224291 95.746353 
L 246.548945 91.236193 
L 246.8736 97.416783 
L 247.198255 95.871635 
L 247.522909 97.040936 
L 248.172218 104.223785 
L 248.496873 102.469833 
L 248.821527 107.648166 
L 249.146182 110.362614 
L 249.795491 112.868259 
L 250.120145 105.727171 
L 250.4448 107.021755 
L 250.769455 107.564644 
L 251.094109 103.38857 
L 251.418764 97.416783 
L 251.743418 105.184282 
L 252.068073 110.195571 
L 252.392727 102.010465 
L 252.717382 98.460802 
L 253.042036 97.207979 
L 253.366691 99.838906 
L 254.016 95.286985 
L 254.340655 96.70685 
L 254.665309 102.010465 
L 255.314618 106.019497 
L 255.639273 106.687669 
L 255.963927 114.371646 
L 256.288582 110.738461 
L 256.613236 101.885183 
L 256.937891 97.667347 
L 257.262545 94.952899 
L 257.5872 99.755385 
L 257.911855 102.052226 
L 258.236509 94.869378 
L 258.561164 91.403236 
L 258.885818 93.658316 
L 259.210473 98.001433 
L 259.535127 99.003691 
L 259.859782 95.871635 
L 260.184436 98.293759 
L 260.833745 90.609781 
L 261.483055 89.899849 
L 261.807709 91.06915 
L 262.132364 85.47321 
L 262.457018 85.51497 
L 263.106327 78.875012 
L 264.080291 89.565763 
L 264.404945 87.227161 
L 264.7296 80.754245 
L 265.054255 78.540926 
L 265.378909 79.376141 
L 266.028218 75.283588 
L 266.352873 77.037539 
L 266.677527 83.092847 
L 267.002182 80.294877 
L 267.326836 85.389688 
L 267.651491 82.549958 
L 267.976145 90.275695 
L 268.3008 86.726032 
L 268.625455 89.524002 
L 268.950109 88.772309 
L 269.274764 85.055602 
L 269.599418 82.967565 
L 269.924073 83.552215 
L 270.248727 77.789233 
L 270.573382 78.290361 
L 270.898036 80.670724 
L 271.547345 75.659434 
L 271.872 76.870496 
L 272.196655 70.856949 
L 272.521309 72.485618 
L 272.845964 72.318575 
L 273.170618 71.232795 
L 273.495273 65.30277 
L 273.819927 65.553334 
L 274.144582 62.880646 
L 274.469236 65.386291 
L 274.793891 63.63234 
L 275.118545 66.722635 
L 275.4432 72.485618 
L 275.767855 72.652661 
L 276.092509 69.81293 
L 276.417164 70.397581 
L 276.741818 74.490134 
L 277.066473 74.072526 
L 277.391127 76.160563 
L 278.365091 71.232795 
L 278.689745 73.863722 
L 279.0144 72.109771 
L 279.339055 64.551076 
L 279.663709 68.935954 
L 279.988364 69.562366 
L 280.313018 69.353562 
L 280.637673 73.947244 
L 280.962327 71.441599 
L 281.286982 81.631221 
L 281.611636 83.468694 
L 281.936291 79.33438 
L 282.260945 77.538668 
L 282.910255 83.886301 
L 283.559564 98.293759 
L 283.884218 98.37728 
L 284.208873 91.904365 
L 284.533527 87.978854 
L 284.858182 86.558989 
L 285.507491 76.369367 
L 285.832145 75.367109 
L 286.1568 70.439341 
L 286.481455 67.432568 
L 286.806109 71.107513 
L 287.130764 67.265525 
L 287.455418 67.223764 
L 287.780073 63.298254 
L 288.104727 63.966426 
L 288.429382 64.968684 
L 288.754036 66.639113 
L 289.078691 69.061237 
L 289.403345 69.311801 
L 290.377309 83.426933 
L 290.701964 82.925804 
L 291.026618 81.380657 
L 291.351273 80.670724 
L 291.675927 80.42016 
L 292.000582 81.965307 
L 292.325236 78.165079 
L 292.649891 75.99352 
L 292.974545 77.580429 
L 293.2992 81.297135 
L 293.623855 88.688787 
L 293.948509 88.020615 
L 294.273164 93.407751 
L 294.922473 86.767793 
L 295.247127 89.356959 
L 295.571782 89.858088 
L 296.221091 93.157187 
L 296.545745 82.884044 
L 296.8704 82.257632 
L 297.195055 84.470952 
L 297.519709 84.178627 
L 297.844364 81.798264 
L 298.169018 85.222645 
L 298.493673 84.596234 
L 299.142982 74.991263 
L 299.467636 82.508197 
L 299.792291 81.5477 
L 300.116945 78.332122 
L 300.4416 69.395323 
L 300.766255 72.443857 
L 301.090909 74.364851 
L 301.415564 75.40887 
L 301.740218 78.248601 
L 302.064873 78.540926 
L 302.389527 77.998036 
L 302.714182 81.631221 
L 303.038836 81.840025 
L 303.363491 76.703453 
L 303.688145 77.0793 
L 304.0128 74.573655 
L 304.337455 73.446115 
L 304.662109 71.48336 
L 304.986764 75.116545 
L 305.311418 73.821962 
L 305.636073 74.782459 
L 305.960727 74.490134 
L 306.285382 71.608642 
L 306.610036 72.569139 
L 306.934691 67.55785 
L 307.259345 72.861465 
L 307.584 72.736182 
L 307.908655 73.362593 
L 308.233309 77.66395 
L 308.557964 78.081558 
L 308.882618 76.118803 
L 309.207273 75.534152 
L 309.531927 76.912257 
L 309.856582 77.789233 
L 310.181236 82.967565 
L 310.505891 75.450631 
L 310.830545 77.246343 
L 311.479855 70.982231 
L 311.804509 68.309543 
L 312.129164 73.237311 
L 312.453818 68.810672 
L 312.778473 72.318575 
L 313.103127 72.569139 
L 313.427782 74.239569 
L 313.752436 77.580429 
L 314.077091 74.114287 
L 314.401745 68.518347 
L 314.7264 75.617674 
L 315.051055 65.762138 
L 315.375709 63.6741 
L 315.700364 65.511573 
L 316.025018 62.630082 
L 316.349673 62.254235 
L 316.674327 55.656037 
L 316.998982 65.511573 
L 317.323636 67.390807 
L 317.648291 65.511573 
L 317.972945 71.274556 
L 318.2976 69.81293 
L 318.622255 72.485618 
L 318.946909 70.063495 
L 319.271564 76.954018 
L 319.596218 79.167337 
L 319.920873 75.116545 
L 320.245527 77.413386 
L 320.570182 77.204582 
L 320.894836 83.385172 
L 321.219491 84.596234 
L 321.544145 86.475468 
L 322.193455 82.758761 
L 322.518109 90.066892 
L 322.842764 87.352443 
L 323.167418 89.858088 
L 323.492073 90.025131 
L 323.816727 84.596234 
L 324.141382 81.631221 
L 325.115345 96.205721 
L 326.413964 89.899849 
L 326.738618 82.048829 
L 327.063273 82.090589 
L 327.712582 74.323091 
L 328.037236 80.587202 
L 328.361891 78.958533 
L 328.686545 81.171853 
L 329.0112 77.538668 
L 329.335855 79.584945 
L 329.985164 89.440481 
L 330.309818 86.266664 
L 330.634473 79.960791 
L 330.959127 80.587202 
L 331.608436 87.519486 
L 331.933091 88.479983 
L 332.257745 87.352443 
L 332.5824 85.807296 
L 333.231709 88.27118 
L 333.556364 83.677498 
L 333.881018 88.229419 
L 334.205673 90.568021 
L 334.854982 77.496907 
L 335.179636 78.833251 
L 335.504291 74.406612 
L 335.828945 79.376141 
L 336.1536 76.786975 
L 336.478255 72.944986 
L 336.802909 72.06801 
L 337.127564 76.745214 
L 337.452218 74.28133 
L 337.776873 73.320833 
L 338.101527 75.367109 
L 338.750836 70.314059 
L 339.075491 66.43031 
L 339.400145 64.801641 
L 339.7248 62.337757 
L 340.049455 63.381775 
L 340.374109 63.465297 
L 340.698764 61.836628 
L 341.023418 58.245204 
L 341.348073 60.500284 
L 341.672727 58.829854 
L 341.997382 59.581547 
L 342.322036 63.256493 
L 342.646691 71.441599 
L 342.971345 75.241827 
L 343.296 71.149274 
L 343.620655 70.564624 
L 343.945309 73.112029 
L 344.269964 70.982231 
L 344.594618 65.428052 
L 344.919273 64.258751 
L 345.243927 64.634598 
L 345.568582 62.922407 
L 345.893236 68.434825 
L 346.542545 72.276814 
L 346.8672 65.929181 
L 347.191855 66.137984 
L 347.841164 58.161682 
L 348.165818 60.333241 
L 348.490473 58.62105 
L 348.815127 63.256493 
L 349.139782 63.924665 
L 349.464436 63.172972 
L 349.789091 67.182003 
L 350.113745 65.553334 
L 350.4384 65.929181 
L 350.763055 71.065752 
L 351.087709 70.147016 
L 351.412364 72.151532 
L 352.061673 65.970941 
L 352.710982 73.821962 
L 353.035636 67.766654 
L 353.360291 71.399838 
L 354.0096 74.323091 
L 354.334255 74.072526 
L 354.658909 74.28133 
L 355.308218 60.83437 
L 355.632873 65.469813 
L 355.957527 72.443857 
L 356.282182 74.531894 
L 356.606836 71.232795 
L 356.931491 74.86598 
L 357.256145 84.93032 
L 357.5808 83.886301 
L 357.905455 83.80278 
L 358.230109 78.74973 
L 358.554764 84.38743 
L 358.879418 79.167337 
L 359.204073 84.262148 
L 359.853382 88.104137 
L 360.178036 87.561247 
L 360.502691 83.969823 
L 360.827345 85.640253 
L 361.152 85.723774 
L 361.476655 93.825359 
L 361.801309 88.605266 
L 362.125964 89.440481 
L 362.450618 86.433707 
L 362.775273 94.201206 
L 363.099927 95.955157 
L 363.424582 94.827617 
L 363.749236 100.172992 
L 364.073891 99.46306 
L 364.398545 97.333262 
L 364.7232 88.981112 
L 365.697164 98.168476 
L 366.021818 100.340035 
L 366.346473 99.922428 
L 366.671127 102.219269 
L 366.995782 103.43033 
L 367.320436 103.472091 
L 367.969745 105.685411 
L 368.2944 112.617694 
L 368.619055 107.731687 
L 368.943709 105.10076 
L 369.268364 105.64365 
L 369.593018 116.042076 
L 369.917673 114.329885 
L 370.242327 111.573676 
L 370.566982 110.362614 
L 370.891636 108.358098 
L 371.216291 107.564644 
L 371.540945 103.639134 
L 371.8656 101.676379 
L 372.190255 104.51611 
L 372.514909 101.008207 
L 372.839564 102.553355 
L 373.164218 102.26103 
L 373.488873 106.896472 
L 373.813527 109.109792 
L 374.787491 96.498047 
L 375.112145 97.166219 
L 375.4368 105.476607 
L 375.761455 104.014981 
L 376.086109 105.560128 
L 376.410764 102.177508 
L 376.735418 100.5906 
L 377.060073 97.207979 
L 377.384727 87.978854 
L 377.709382 96.790372 
L 378.034036 91.06915 
L 378.358691 89.524002 
L 378.683345 98.001433 
L 379.008 102.386312 
L 379.332655 100.340035 
L 379.657309 100.507078 
L 379.981964 97.750869 
L 380.306618 98.043194 
L 380.955927 88.772309 
L 381.280582 87.352443 
L 381.605236 84.011584 
L 381.929891 84.429191 
L 382.5792 75.492392 
L 382.903855 76.828735 
L 383.228509 83.134608 
L 383.553164 77.288104 
L 383.877818 82.591718 
L 384.202473 84.136866 
L 384.527127 83.134608 
L 384.851782 85.431449 
L 385.176436 84.053344 
L 385.825745 73.613158 
L 386.1504 75.367109 
L 386.475055 76.452889 
L 386.799709 78.248601 
L 387.124364 79.209098 
L 387.449018 79.751988 
L 387.773673 84.721516 
L 388.098327 84.262148 
L 388.422982 85.389688 
L 388.747636 82.007068 
L 389.072291 74.657177 
L 389.396945 84.178627 
L 389.7216 83.552215 
L 390.046255 79.33438 
L 390.695564 80.754245 
L 391.020218 79.125576 
L 391.344873 86.893075 
L 391.669527 86.60075 
L 391.994182 85.682013 
L 392.643491 87.268922 
L 392.968145 84.429191 
L 393.2928 85.264406 
L 393.617455 85.139124 
L 394.591418 77.956276 
L 394.916073 76.786975 
L 395.240727 73.028508 
L 395.565382 72.569139 
L 395.890036 72.903225 
L 396.214691 78.039797 
L 396.539345 79.292619 
L 396.864 82.090589 
L 397.188655 82.007068 
L 397.513309 76.202324 
L 397.837964 76.369367 
L 398.162618 76.870496 
L 398.487273 80.378399 
L 398.487273 80.378399 
" clip-path="url(#p47c32dcb2e)" style="fill: none; stroke: #1f77b4; stroke-width: 1.5; stroke-linecap: square"/>
   </g>
   <g id="patch_3">
    <path d="M 57.6 307.584 
L 57.6 41.472 
" style="fill: none; stroke: #000000; stroke-width: 0.8; stroke-linejoin: miter; stroke-linecap: square"/>
   </g>
   <g id="patch_4">
    <path d="M 414.72 307.584 
L 414.72 41.472 
" style="fill: none; stroke: #000000; stroke-width: 0.8; stroke-linejoin: miter; stroke-linecap: square"/>
   </g>
   <g id="patch_5">
    <path d="M 57.6 307.584 
L 414.72 307.584 
" style="fill: none; stroke: #000000; stroke-width: 0.8; stroke-linejoin: miter; stroke-linecap: square"/>
   </g>
   <g id="patch_6">
    <path d="M 57.6 41.472 
L 414.72 41.472 
" style="fill: none; stroke: #000000; stroke-width: 0.8; stroke-linejoin: miter; stroke-linecap: square"/>
   </g>
   <g id="text_15">
    <!-- Reduced Temperature,T$^*$=0.65 -->
    <g transform="translate(140.88 35.472) scale(0.12 -0.12)">
     <defs>
      <path id="DejaVuSans-52" d="M 2841 2188 
Q 3044 2119 3236 1894 
Q 3428 1669 3622 1275 
L 4263 0 
L 3584 0 
L 2988 1197 
Q 2756 1666 2539 1819 
Q 2322 1972 1947 1972 
L 1259 1972 
L 1259 0 
L 628 0 
L 628 4666 
L 2053 4666 
Q 2853 4666 3247 4331 
Q 3641 3997 3641 3322 
Q 3641 2881 3436 2590 
Q 3231 2300 2841 2188 
z
M 1259 4147 
L 1259 2491 
L 2053 2491 
Q 2509 2491 2742 2702 
Q 2975 2913 2975 3322 
Q 2975 3731 2742 3939 
Q 2509 4147 2053 4147 
L 1259 4147 
z
" transform="scale(0.015625)"/>
      <path id="DejaVuSans-75" d="M 544 1381 
L 544 3500 
L 1119 3500 
L 1119 1403 
Q 1119 906 1312 657 
Q 1506 409 1894 409 
Q 2359 409 2629 706 
Q 2900 1003 2900 1516 
L 2900 3500 
L 3475 3500 
L 3475 0 
L 2900 0 
L 2900 538 
Q 2691 219 2414 64 
Q 2138 -91 1772 -91 
Q 1169 -91 856 284 
Q 544 659 544 1381 
z
M 1991 3584 
L 1991 3584 
z
" transform="scale(0.015625)"/>
      <path id="DejaVuSans-63" d="M 3122 3366 
L 3122 2828 
Q 2878 2963 2633 3030 
Q 2388 3097 2138 3097 
Q 1578 3097 1268 2742 
Q 959 2388 959 1747 
Q 959 1106 1268 751 
Q 1578 397 2138 397 
Q 2388 397 2633 464 
Q 2878 531 3122 666 
L 3122 134 
Q 2881 22 2623 -34 
Q 2366 -91 2075 -91 
Q 1284 -91 818 406 
Q 353 903 353 1747 
Q 353 2603 823 3093 
Q 1294 3584 2113 3584 
Q 2378 3584 2631 3529 
Q 2884 3475 3122 3366 
z
" transform="scale(0.015625)"/>
      <path id="DejaVuSans-54" d="M -19 4666 
L 3928 4666 
L 3928 4134 
L 2272 4134 
L 2272 0 
L 1638 0 
L 1638 4134 
L -19 4134 
L -19 4666 
z
" transform="scale(0.015625)"/>
      <path id="DejaVuSans-70" d="M 1159 525 
L 1159 -1331 
L 581 -1331 
L 581 3500 
L 1159 3500 
L 1159 2969 
Q 1341 3281 1617 3432 
Q 1894 3584 2278 3584 
Q 2916 3584 3314 3078 
Q 3713 2572 3713 1747 
Q 3713 922 3314 415 
Q 2916 -91 2278 -91 
Q 1894 -91 1617 61 
Q 1341 213 1159 525 
z
M 3116 1747 
Q 3116 2381 2855 2742 
Q 2594 3103 2138 3103 
Q 1681 3103 1420 2742 
Q 1159 2381 1159 1747 
Q 1159 1113 1420 752 
Q 1681 391 2138 391 
Q 2594 391 2855 752 
Q 3116 1113 3116 1747 
z
" transform="scale(0.015625)"/>
      <path id="DejaVuSans-2a" d="M 3009 3897 
L 1888 3291 
L 3009 2681 
L 2828 2375 
L 1778 3009 
L 1778 1831 
L 1422 1831 
L 1422 3009 
L 372 2375 
L 191 2681 
L 1313 3291 
L 191 3897 
L 372 4206 
L 1422 3572 
L 1422 4750 
L 1778 4750 
L 1778 3572 
L 2828 4206 
L 3009 3897 
z
" transform="scale(0.015625)"/>
      <path id="DejaVuSans-3d" d="M 678 2906 
L 4684 2906 
L 4684 2381 
L 678 2381 
L 678 2906 
z
M 678 1631 
L 4684 1631 
L 4684 1100 
L 678 1100 
L 678 1631 
z
" transform="scale(0.015625)"/>
     </defs>
     <use xlink:href="#DejaVuSans-52" transform="translate(0 0.765625)"/>
     <use xlink:href="#DejaVuSans-65" transform="translate(69.482422 0.765625)"/>
     <use xlink:href="#DejaVuSans-64" transform="translate(131.005859 0.765625)"/>
     <use xlink:href="#DejaVuSans-75" transform="translate(194.482422 0.765625)"/>
     <use xlink:href="#DejaVuSans-63" transform="translate(257.861328 0.765625)"/>
     <use xlink:href="#DejaVuSans-65" transform="translate(312.841797 0.765625)"/>
     <use xlink:href="#DejaVuSans-64" transform="translate(374.365234 0.765625)"/>
     <use xlink:href="#DejaVuSans-20" transform="translate(437.841797 0.765625)"/>
     <use xlink:href="#DejaVuSans-54" transform="translate(469.628906 0.765625)"/>
     <use xlink:href="#DejaVuSans-65" transform="translate(530.712891 0.765625)"/>
     <use xlink:href="#DejaVuSans-6d" transform="translate(592.236328 0.765625)"/>
     <use xlink:href="#DejaVuSans-70" transform="translate(689.648438 0.765625)"/>
     <use xlink:href="#DejaVuSans-65" transform="translate(753.125 0.765625)"/>
     <use xlink:href="#DejaVuSans-72" transform="translate(814.648438 0.765625)"/>
     <use xlink:href="#DejaVuSans-61" transform="translate(855.761719 0.765625)"/>
     <use xlink:href="#DejaVuSans-74" transform="translate(917.041016 0.765625)"/>
     <use xlink:href="#DejaVuSans-75" transform="translate(956.25 0.765625)"/>
     <use xlink:href="#DejaVuSans-72" transform="translate(1019.628906 0.765625)"/>
     <use xlink:href="#DejaVuSans-65" transform="translate(1060.742188 0.765625)"/>
     <use xlink:href="#DejaVuSans-2c" transform="translate(1122.265625 0.765625)"/>
     <use xlink:href="#DejaVuSans-54" transform="translate(1154.052734 0.765625)"/>
     <use xlink:href="#DejaVuSans-2a" transform="translate(1229.731445 39.046875) scale(0.7)"/>
     <use xlink:href="#DejaVuSans-3d" transform="translate(1281.103516 0.765625)"/>
     <use xlink:href="#DejaVuSans-30" transform="translate(1364.892578 0.765625)"/>
     <use xlink:href="#DejaVuSans-2e" transform="translate(1428.515625 0.765625)"/>
     <use xlink:href="#DejaVuSans-36" transform="translate(1460.302734 0.765625)"/>
     <use xlink:href="#DejaVuSans-35" transform="translate(1523.925781 0.765625)"/>
    </g>
   </g>
  </g>
 </g>
 <defs>
  <clipPath id="p47c32dcb2e">
   <rect x="57.6" y="41.472" width="357.12" height="266.112"/>
  </clipPath>
 </defs>
</svg>
