<?xml version="1.0" encoding="utf-8" standalone="no"?>
<!DOCTYPE svg PUBLIC "-//W3C//DTD SVG 1.1//EN"
  "http://www.w3.org/Graphics/SVG/1.1/DTD/svg11.dtd">
<svg xmlns:xlink="http://www.w3.org/1999/xlink" width="460.8pt" height="345.6pt" viewBox="0 0 460.8 345.6" xmlns="http://www.w3.org/2000/svg" version="1.1">
 <metadata>
  <rdf:RDF xmlns:dc="http://purl.org/dc/elements/1.1/" xmlns:cc="http://creativecommons.org/ns#" xmlns:rdf="http://www.w3.org/1999/02/22-rdf-syntax-ns#">
   <cc:Work>
    <dc:type rdf:resource="http://purl.org/dc/dcmitype/StillImage"/>
    <dc:date>2024-03-10T15:58:48.978317</dc:date>
    <dc:format>image/svg+xml</dc:format>
    <dc:creator>
     <cc:Agent>
      <dc:title>Matplotlib v3.8.3, https://matplotlib.org/</dc:title>
     </cc:Agent>
    </dc:creator>
   </cc:Work>
  </rdf:RDF>
 </metadata>
 <defs>
  <style type="text/css">*{stroke-linejoin: round; stroke-linecap: butt}</style>
 </defs>
 <g id="figure_1">
  <g id="patch_1">
   <path d="M 0 345.6 
L 460.8 345.6 
L 460.8 0 
L 0 0 
z
" style="fill: #ffffff"/>
  </g>
  <g id="axes_1">
   <g id="patch_2">
    <path d="M 57.6 307.584 
L 414.72 307.584 
L 414.72 41.472 
L 57.6 41.472 
z
" style="fill: #ffffff"/>
   </g>
   <g id="matplotlib.axis_1">
    <g id="xtick_1">
     <g id="line2d_1">
      <defs>
       <path id="m9ed692389a" d="M 0 0 
L 0 3.5 
" style="stroke: #000000; stroke-width: 0.8"/>
      </defs>
      <g>
       <use xlink:href="#m9ed692389a" x="73.832727" y="307.584" style="stroke: #000000; stroke-width: 0.8"/>
      </g>
     </g>
     <g id="text_1">
      <!-- 0 -->
      <g transform="translate(70.651477 322.182437) scale(0.1 -0.1)">
       <defs>
        <path id="DejaVuSans-30" d="M 2034 4250 
Q 1547 4250 1301 3770 
Q 1056 3291 1056 2328 
Q 1056 1369 1301 889 
Q 1547 409 2034 409 
Q 2525 409 2770 889 
Q 3016 1369 3016 2328 
Q 3016 3291 2770 3770 
Q 2525 4250 2034 4250 
z
M 2034 4750 
Q 2819 4750 3233 4129 
Q 3647 3509 3647 2328 
Q 3647 1150 3233 529 
Q 2819 -91 2034 -91 
Q 1250 -91 836 529 
Q 422 1150 422 2328 
Q 422 3509 836 4129 
Q 1250 4750 2034 4750 
z
" transform="scale(0.015625)"/>
       </defs>
       <use xlink:href="#DejaVuSans-30"/>
      </g>
     </g>
    </g>
    <g id="xtick_2">
     <g id="line2d_2">
      <g>
       <use xlink:href="#m9ed692389a" x="138.763636" y="307.584" style="stroke: #000000; stroke-width: 0.8"/>
      </g>
     </g>
     <g id="text_2">
      <!-- 200 -->
      <g transform="translate(129.219886 322.182437) scale(0.1 -0.1)">
       <defs>
        <path id="DejaVuSans-32" d="M 1228 531 
L 3431 531 
L 3431 0 
L 469 0 
L 469 531 
Q 828 903 1448 1529 
Q 2069 2156 2228 2338 
Q 2531 2678 2651 2914 
Q 2772 3150 2772 3378 
Q 2772 3750 2511 3984 
Q 2250 4219 1831 4219 
Q 1534 4219 1204 4116 
Q 875 4013 500 3803 
L 500 4441 
Q 881 4594 1212 4672 
Q 1544 4750 1819 4750 
Q 2544 4750 2975 4387 
Q 3406 4025 3406 3419 
Q 3406 3131 3298 2873 
Q 3191 2616 2906 2266 
Q 2828 2175 2409 1742 
Q 1991 1309 1228 531 
z
" transform="scale(0.015625)"/>
       </defs>
       <use xlink:href="#DejaVuSans-32"/>
       <use xlink:href="#DejaVuSans-30" x="63.623047"/>
       <use xlink:href="#DejaVuSans-30" x="127.246094"/>
      </g>
     </g>
    </g>
    <g id="xtick_3">
     <g id="line2d_3">
      <g>
       <use xlink:href="#m9ed692389a" x="203.694545" y="307.584" style="stroke: #000000; stroke-width: 0.8"/>
      </g>
     </g>
     <g id="text_3">
      <!-- 400 -->
      <g transform="translate(194.150795 322.182437) scale(0.1 -0.1)">
       <defs>
        <path id="DejaVuSans-34" d="M 2419 4116 
L 825 1625 
L 2419 1625 
L 2419 4116 
z
M 2253 4666 
L 3047 4666 
L 3047 1625 
L 3713 1625 
L 3713 1100 
L 3047 1100 
L 3047 0 
L 2419 0 
L 2419 1100 
L 313 1100 
L 313 1709 
L 2253 4666 
z
" transform="scale(0.015625)"/>
       </defs>
       <use xlink:href="#DejaVuSans-34"/>
       <use xlink:href="#DejaVuSans-30" x="63.623047"/>
       <use xlink:href="#DejaVuSans-30" x="127.246094"/>
      </g>
     </g>
    </g>
    <g id="xtick_4">
     <g id="line2d_4">
      <g>
       <use xlink:href="#m9ed692389a" x="268.625455" y="307.584" style="stroke: #000000; stroke-width: 0.8"/>
      </g>
     </g>
     <g id="text_4">
      <!-- 600 -->
      <g transform="translate(259.081705 322.182437) scale(0.1 -0.1)">
       <defs>
        <path id="DejaVuSans-36" d="M 2113 2584 
Q 1688 2584 1439 2293 
Q 1191 2003 1191 1497 
Q 1191 994 1439 701 
Q 1688 409 2113 409 
Q 2538 409 2786 701 
Q 3034 994 3034 1497 
Q 3034 2003 2786 2293 
Q 2538 2584 2113 2584 
z
M 3366 4563 
L 3366 3988 
Q 3128 4100 2886 4159 
Q 2644 4219 2406 4219 
Q 1781 4219 1451 3797 
Q 1122 3375 1075 2522 
Q 1259 2794 1537 2939 
Q 1816 3084 2150 3084 
Q 2853 3084 3261 2657 
Q 3669 2231 3669 1497 
Q 3669 778 3244 343 
Q 2819 -91 2113 -91 
Q 1303 -91 875 529 
Q 447 1150 447 2328 
Q 447 3434 972 4092 
Q 1497 4750 2381 4750 
Q 2619 4750 2861 4703 
Q 3103 4656 3366 4563 
z
" transform="scale(0.015625)"/>
       </defs>
       <use xlink:href="#DejaVuSans-36"/>
       <use xlink:href="#DejaVuSans-30" x="63.623047"/>
       <use xlink:href="#DejaVuSans-30" x="127.246094"/>
      </g>
     </g>
    </g>
    <g id="xtick_5">
     <g id="line2d_5">
      <g>
       <use xlink:href="#m9ed692389a" x="333.556364" y="307.584" style="stroke: #000000; stroke-width: 0.8"/>
      </g>
     </g>
     <g id="text_5">
      <!-- 800 -->
      <g transform="translate(324.012614 322.182437) scale(0.1 -0.1)">
       <defs>
        <path id="DejaVuSans-38" d="M 2034 2216 
Q 1584 2216 1326 1975 
Q 1069 1734 1069 1313 
Q 1069 891 1326 650 
Q 1584 409 2034 409 
Q 2484 409 2743 651 
Q 3003 894 3003 1313 
Q 3003 1734 2745 1975 
Q 2488 2216 2034 2216 
z
M 1403 2484 
Q 997 2584 770 2862 
Q 544 3141 544 3541 
Q 544 4100 942 4425 
Q 1341 4750 2034 4750 
Q 2731 4750 3128 4425 
Q 3525 4100 3525 3541 
Q 3525 3141 3298 2862 
Q 3072 2584 2669 2484 
Q 3125 2378 3379 2068 
Q 3634 1759 3634 1313 
Q 3634 634 3220 271 
Q 2806 -91 2034 -91 
Q 1263 -91 848 271 
Q 434 634 434 1313 
Q 434 1759 690 2068 
Q 947 2378 1403 2484 
z
M 1172 3481 
Q 1172 3119 1398 2916 
Q 1625 2713 2034 2713 
Q 2441 2713 2670 2916 
Q 2900 3119 2900 3481 
Q 2900 3844 2670 4047 
Q 2441 4250 2034 4250 
Q 1625 4250 1398 4047 
Q 1172 3844 1172 3481 
z
" transform="scale(0.015625)"/>
       </defs>
       <use xlink:href="#DejaVuSans-38"/>
       <use xlink:href="#DejaVuSans-30" x="63.623047"/>
       <use xlink:href="#DejaVuSans-30" x="127.246094"/>
      </g>
     </g>
    </g>
    <g id="xtick_6">
     <g id="line2d_6">
      <g>
       <use xlink:href="#m9ed692389a" x="398.487273" y="307.584" style="stroke: #000000; stroke-width: 0.8"/>
      </g>
     </g>
     <g id="text_6">
      <!-- 1000 -->
      <g transform="translate(385.762273 322.182437) scale(0.1 -0.1)">
       <defs>
        <path id="DejaVuSans-31" d="M 794 531 
L 1825 531 
L 1825 4091 
L 703 3866 
L 703 4441 
L 1819 4666 
L 2450 4666 
L 2450 531 
L 3481 531 
L 3481 0 
L 794 0 
L 794 531 
z
" transform="scale(0.015625)"/>
       </defs>
       <use xlink:href="#DejaVuSans-31"/>
       <use xlink:href="#DejaVuSans-30" x="63.623047"/>
       <use xlink:href="#DejaVuSans-30" x="127.246094"/>
       <use xlink:href="#DejaVuSans-30" x="190.869141"/>
      </g>
     </g>
    </g>
    <g id="text_7">
     <!-- MCS -->
     <g transform="translate(225.180312 335.860562) scale(0.1 -0.1)">
      <defs>
       <path id="DejaVuSans-4d" d="M 628 4666 
L 1569 4666 
L 2759 1491 
L 3956 4666 
L 4897 4666 
L 4897 0 
L 4281 0 
L 4281 4097 
L 3078 897 
L 2444 897 
L 1241 4097 
L 1241 0 
L 628 0 
L 628 4666 
z
" transform="scale(0.015625)"/>
       <path id="DejaVuSans-43" d="M 4122 4306 
L 4122 3641 
Q 3803 3938 3442 4084 
Q 3081 4231 2675 4231 
Q 1875 4231 1450 3742 
Q 1025 3253 1025 2328 
Q 1025 1406 1450 917 
Q 1875 428 2675 428 
Q 3081 428 3442 575 
Q 3803 722 4122 1019 
L 4122 359 
Q 3791 134 3420 21 
Q 3050 -91 2638 -91 
Q 1578 -91 968 557 
Q 359 1206 359 2328 
Q 359 3453 968 4101 
Q 1578 4750 2638 4750 
Q 3056 4750 3426 4639 
Q 3797 4528 4122 4306 
z
" transform="scale(0.015625)"/>
       <path id="DejaVuSans-53" d="M 3425 4513 
L 3425 3897 
Q 3066 4069 2747 4153 
Q 2428 4238 2131 4238 
Q 1616 4238 1336 4038 
Q 1056 3838 1056 3469 
Q 1056 3159 1242 3001 
Q 1428 2844 1947 2747 
L 2328 2669 
Q 3034 2534 3370 2195 
Q 3706 1856 3706 1288 
Q 3706 609 3251 259 
Q 2797 -91 1919 -91 
Q 1588 -91 1214 -16 
Q 841 59 441 206 
L 441 856 
Q 825 641 1194 531 
Q 1563 422 1919 422 
Q 2459 422 2753 634 
Q 3047 847 3047 1241 
Q 3047 1584 2836 1778 
Q 2625 1972 2144 2069 
L 1759 2144 
Q 1053 2284 737 2584 
Q 422 2884 422 3419 
Q 422 4038 858 4394 
Q 1294 4750 2059 4750 
Q 2388 4750 2728 4690 
Q 3069 4631 3425 4513 
z
" transform="scale(0.015625)"/>
      </defs>
      <use xlink:href="#DejaVuSans-4d"/>
      <use xlink:href="#DejaVuSans-43" x="86.279297"/>
      <use xlink:href="#DejaVuSans-53" x="156.103516"/>
     </g>
    </g>
   </g>
   <g id="matplotlib.axis_2">
    <g id="ytick_1">
     <g id="line2d_7">
      <defs>
       <path id="m68d90a68ef" d="M 0 0 
L -3.5 0 
" style="stroke: #000000; stroke-width: 0.8"/>
      </defs>
      <g>
       <use xlink:href="#m68d90a68ef" x="57.6" y="299.262506" style="stroke: #000000; stroke-width: 0.8"/>
      </g>
     </g>
     <g id="text_8">
      <!-- −500 -->
      <g transform="translate(23.132812 303.061725) scale(0.1 -0.1)">
       <defs>
        <path id="DejaVuSans-2212" d="M 678 2272 
L 4684 2272 
L 4684 1741 
L 678 1741 
L 678 2272 
z
" transform="scale(0.015625)"/>
        <path id="DejaVuSans-35" d="M 691 4666 
L 3169 4666 
L 3169 4134 
L 1269 4134 
L 1269 2991 
Q 1406 3038 1543 3061 
Q 1681 3084 1819 3084 
Q 2600 3084 3056 2656 
Q 3513 2228 3513 1497 
Q 3513 744 3044 326 
Q 2575 -91 1722 -91 
Q 1428 -91 1123 -41 
Q 819 9 494 109 
L 494 744 
Q 775 591 1075 516 
Q 1375 441 1709 441 
Q 2250 441 2565 725 
Q 2881 1009 2881 1497 
Q 2881 1984 2565 2268 
Q 2250 2553 1709 2553 
Q 1456 2553 1204 2497 
Q 953 2441 691 2322 
L 691 4666 
z
" transform="scale(0.015625)"/>
       </defs>
       <use xlink:href="#DejaVuSans-2212"/>
       <use xlink:href="#DejaVuSans-35" x="83.789062"/>
       <use xlink:href="#DejaVuSans-30" x="147.412109"/>
       <use xlink:href="#DejaVuSans-30" x="211.035156"/>
      </g>
     </g>
    </g>
    <g id="ytick_2">
     <g id="line2d_8">
      <g>
       <use xlink:href="#m68d90a68ef" x="57.6" y="267.134675" style="stroke: #000000; stroke-width: 0.8"/>
      </g>
     </g>
     <g id="text_9">
      <!-- −475 -->
      <g transform="translate(23.132812 270.933894) scale(0.1 -0.1)">
       <defs>
        <path id="DejaVuSans-37" d="M 525 4666 
L 3525 4666 
L 3525 4397 
L 1831 0 
L 1172 0 
L 2766 4134 
L 525 4134 
L 525 4666 
z
" transform="scale(0.015625)"/>
       </defs>
       <use xlink:href="#DejaVuSans-2212"/>
       <use xlink:href="#DejaVuSans-34" x="83.789062"/>
       <use xlink:href="#DejaVuSans-37" x="147.412109"/>
       <use xlink:href="#DejaVuSans-35" x="211.035156"/>
      </g>
     </g>
    </g>
    <g id="ytick_3">
     <g id="line2d_9">
      <g>
       <use xlink:href="#m68d90a68ef" x="57.6" y="235.006843" style="stroke: #000000; stroke-width: 0.8"/>
      </g>
     </g>
     <g id="text_10">
      <!-- −450 -->
      <g transform="translate(23.132812 238.806062) scale(0.1 -0.1)">
       <use xlink:href="#DejaVuSans-2212"/>
       <use xlink:href="#DejaVuSans-34" x="83.789062"/>
       <use xlink:href="#DejaVuSans-35" x="147.412109"/>
       <use xlink:href="#DejaVuSans-30" x="211.035156"/>
      </g>
     </g>
    </g>
    <g id="ytick_4">
     <g id="line2d_10">
      <g>
       <use xlink:href="#m68d90a68ef" x="57.6" y="202.879012" style="stroke: #000000; stroke-width: 0.8"/>
      </g>
     </g>
     <g id="text_11">
      <!-- −425 -->
      <g transform="translate(23.132812 206.678231) scale(0.1 -0.1)">
       <use xlink:href="#DejaVuSans-2212"/>
       <use xlink:href="#DejaVuSans-34" x="83.789062"/>
       <use xlink:href="#DejaVuSans-32" x="147.412109"/>
       <use xlink:href="#DejaVuSans-35" x="211.035156"/>
      </g>
     </g>
    </g>
    <g id="ytick_5">
     <g id="line2d_11">
      <g>
       <use xlink:href="#m68d90a68ef" x="57.6" y="170.751181" style="stroke: #000000; stroke-width: 0.8"/>
      </g>
     </g>
     <g id="text_12">
      <!-- −400 -->
      <g transform="translate(23.132812 174.550399) scale(0.1 -0.1)">
       <use xlink:href="#DejaVuSans-2212"/>
       <use xlink:href="#DejaVuSans-34" x="83.789062"/>
       <use xlink:href="#DejaVuSans-30" x="147.412109"/>
       <use xlink:href="#DejaVuSans-30" x="211.035156"/>
      </g>
     </g>
    </g>
    <g id="ytick_6">
     <g id="line2d_12">
      <g>
       <use xlink:href="#m68d90a68ef" x="57.6" y="138.623349" style="stroke: #000000; stroke-width: 0.8"/>
      </g>
     </g>
     <g id="text_13">
      <!-- −375 -->
      <g transform="translate(23.132812 142.422568) scale(0.1 -0.1)">
       <defs>
        <path id="DejaVuSans-33" d="M 2597 2516 
Q 3050 2419 3304 2112 
Q 3559 1806 3559 1356 
Q 3559 666 3084 287 
Q 2609 -91 1734 -91 
Q 1441 -91 1130 -33 
Q 819 25 488 141 
L 488 750 
Q 750 597 1062 519 
Q 1375 441 1716 441 
Q 2309 441 2620 675 
Q 2931 909 2931 1356 
Q 2931 1769 2642 2001 
Q 2353 2234 1838 2234 
L 1294 2234 
L 1294 2753 
L 1863 2753 
Q 2328 2753 2575 2939 
Q 2822 3125 2822 3475 
Q 2822 3834 2567 4026 
Q 2313 4219 1838 4219 
Q 1578 4219 1281 4162 
Q 984 4106 628 3988 
L 628 4550 
Q 988 4650 1302 4700 
Q 1616 4750 1894 4750 
Q 2613 4750 3031 4423 
Q 3450 4097 3450 3541 
Q 3450 3153 3228 2886 
Q 3006 2619 2597 2516 
z
" transform="scale(0.015625)"/>
       </defs>
       <use xlink:href="#DejaVuSans-2212"/>
       <use xlink:href="#DejaVuSans-33" x="83.789062"/>
       <use xlink:href="#DejaVuSans-37" x="147.412109"/>
       <use xlink:href="#DejaVuSans-35" x="211.035156"/>
      </g>
     </g>
    </g>
    <g id="ytick_7">
     <g id="line2d_13">
      <g>
       <use xlink:href="#m68d90a68ef" x="57.6" y="106.495518" style="stroke: #000000; stroke-width: 0.8"/>
      </g>
     </g>
     <g id="text_14">
      <!-- −350 -->
      <g transform="translate(23.132812 110.294737) scale(0.1 -0.1)">
       <use xlink:href="#DejaVuSans-2212"/>
       <use xlink:href="#DejaVuSans-33" x="83.789062"/>
       <use xlink:href="#DejaVuSans-35" x="147.412109"/>
       <use xlink:href="#DejaVuSans-30" x="211.035156"/>
      </g>
     </g>
    </g>
    <g id="ytick_8">
     <g id="line2d_14">
      <g>
       <use xlink:href="#m68d90a68ef" x="57.6" y="74.367687" style="stroke: #000000; stroke-width: 0.8"/>
      </g>
     </g>
     <g id="text_15">
      <!-- −325 -->
      <g transform="translate(23.132812 78.166905) scale(0.1 -0.1)">
       <use xlink:href="#DejaVuSans-2212"/>
       <use xlink:href="#DejaVuSans-33" x="83.789062"/>
       <use xlink:href="#DejaVuSans-32" x="147.412109"/>
       <use xlink:href="#DejaVuSans-35" x="211.035156"/>
      </g>
     </g>
    </g>
    <g id="ytick_9">
     <g id="line2d_15">
      <g>
       <use xlink:href="#m68d90a68ef" x="57.6" y="42.239855" style="stroke: #000000; stroke-width: 0.8"/>
      </g>
     </g>
     <g id="text_16">
      <!-- −300 -->
      <g transform="translate(23.132812 46.039074) scale(0.1 -0.1)">
       <use xlink:href="#DejaVuSans-2212"/>
       <use xlink:href="#DejaVuSans-33" x="83.789062"/>
       <use xlink:href="#DejaVuSans-30" x="147.412109"/>
       <use xlink:href="#DejaVuSans-30" x="211.035156"/>
      </g>
     </g>
    </g>
    <g id="text_17">
     <!-- Reduced Energy U/($\epsilon$) -->
     <g transform="translate(17.032812 229.178) rotate(-90) scale(0.1 -0.1)">
      <defs>
       <path id="DejaVuSans-52" d="M 2841 2188 
Q 3044 2119 3236 1894 
Q 3428 1669 3622 1275 
L 4263 0 
L 3584 0 
L 2988 1197 
Q 2756 1666 2539 1819 
Q 2322 1972 1947 1972 
L 1259 1972 
L 1259 0 
L 628 0 
L 628 4666 
L 2053 4666 
Q 2853 4666 3247 4331 
Q 3641 3997 3641 3322 
Q 3641 2881 3436 2590 
Q 3231 2300 2841 2188 
z
M 1259 4147 
L 1259 2491 
L 2053 2491 
Q 2509 2491 2742 2702 
Q 2975 2913 2975 3322 
Q 2975 3731 2742 3939 
Q 2509 4147 2053 4147 
L 1259 4147 
z
" transform="scale(0.015625)"/>
       <path id="DejaVuSans-65" d="M 3597 1894 
L 3597 1613 
L 953 1613 
Q 991 1019 1311 708 
Q 1631 397 2203 397 
Q 2534 397 2845 478 
Q 3156 559 3463 722 
L 3463 178 
Q 3153 47 2828 -22 
Q 2503 -91 2169 -91 
Q 1331 -91 842 396 
Q 353 884 353 1716 
Q 353 2575 817 3079 
Q 1281 3584 2069 3584 
Q 2775 3584 3186 3129 
Q 3597 2675 3597 1894 
z
M 3022 2063 
Q 3016 2534 2758 2815 
Q 2500 3097 2075 3097 
Q 1594 3097 1305 2825 
Q 1016 2553 972 2059 
L 3022 2063 
z
" transform="scale(0.015625)"/>
       <path id="DejaVuSans-64" d="M 2906 2969 
L 2906 4863 
L 3481 4863 
L 3481 0 
L 2906 0 
L 2906 525 
Q 2725 213 2448 61 
Q 2172 -91 1784 -91 
Q 1150 -91 751 415 
Q 353 922 353 1747 
Q 353 2572 751 3078 
Q 1150 3584 1784 3584 
Q 2172 3584 2448 3432 
Q 2725 3281 2906 2969 
z
M 947 1747 
Q 947 1113 1208 752 
Q 1469 391 1925 391 
Q 2381 391 2643 752 
Q 2906 1113 2906 1747 
Q 2906 2381 2643 2742 
Q 2381 3103 1925 3103 
Q 1469 3103 1208 2742 
Q 947 2381 947 1747 
z
" transform="scale(0.015625)"/>
       <path id="DejaVuSans-75" d="M 544 1381 
L 544 3500 
L 1119 3500 
L 1119 1403 
Q 1119 906 1312 657 
Q 1506 409 1894 409 
Q 2359 409 2629 706 
Q 2900 1003 2900 1516 
L 2900 3500 
L 3475 3500 
L 3475 0 
L 2900 0 
L 2900 538 
Q 2691 219 2414 64 
Q 2138 -91 1772 -91 
Q 1169 -91 856 284 
Q 544 659 544 1381 
z
M 1991 3584 
L 1991 3584 
z
" transform="scale(0.015625)"/>
       <path id="DejaVuSans-63" d="M 3122 3366 
L 3122 2828 
Q 2878 2963 2633 3030 
Q 2388 3097 2138 3097 
Q 1578 3097 1268 2742 
Q 959 2388 959 1747 
Q 959 1106 1268 751 
Q 1578 397 2138 397 
Q 2388 397 2633 464 
Q 2878 531 3122 666 
L 3122 134 
Q 2881 22 2623 -34 
Q 2366 -91 2075 -91 
Q 1284 -91 818 406 
Q 353 903 353 1747 
Q 353 2603 823 3093 
Q 1294 3584 2113 3584 
Q 2378 3584 2631 3529 
Q 2884 3475 3122 3366 
z
" transform="scale(0.015625)"/>
       <path id="DejaVuSans-20" transform="scale(0.015625)"/>
       <path id="DejaVuSans-45" d="M 628 4666 
L 3578 4666 
L 3578 4134 
L 1259 4134 
L 1259 2753 
L 3481 2753 
L 3481 2222 
L 1259 2222 
L 1259 531 
L 3634 531 
L 3634 0 
L 628 0 
L 628 4666 
z
" transform="scale(0.015625)"/>
       <path id="DejaVuSans-6e" d="M 3513 2113 
L 3513 0 
L 2938 0 
L 2938 2094 
Q 2938 2591 2744 2837 
Q 2550 3084 2163 3084 
Q 1697 3084 1428 2787 
Q 1159 2491 1159 1978 
L 1159 0 
L 581 0 
L 581 3500 
L 1159 3500 
L 1159 2956 
Q 1366 3272 1645 3428 
Q 1925 3584 2291 3584 
Q 2894 3584 3203 3211 
Q 3513 2838 3513 2113 
z
" transform="scale(0.015625)"/>
       <path id="DejaVuSans-72" d="M 2631 2963 
Q 2534 3019 2420 3045 
Q 2306 3072 2169 3072 
Q 1681 3072 1420 2755 
Q 1159 2438 1159 1844 
L 1159 0 
L 581 0 
L 581 3500 
L 1159 3500 
L 1159 2956 
Q 1341 3275 1631 3429 
Q 1922 3584 2338 3584 
Q 2397 3584 2469 3576 
Q 2541 3569 2628 3553 
L 2631 2963 
z
" transform="scale(0.015625)"/>
       <path id="DejaVuSans-67" d="M 2906 1791 
Q 2906 2416 2648 2759 
Q 2391 3103 1925 3103 
Q 1463 3103 1205 2759 
Q 947 2416 947 1791 
Q 947 1169 1205 825 
Q 1463 481 1925 481 
Q 2391 481 2648 825 
Q 2906 1169 2906 1791 
z
M 3481 434 
Q 3481 -459 3084 -895 
Q 2688 -1331 1869 -1331 
Q 1566 -1331 1297 -1286 
Q 1028 -1241 775 -1147 
L 775 -588 
Q 1028 -725 1275 -790 
Q 1522 -856 1778 -856 
Q 2344 -856 2625 -561 
Q 2906 -266 2906 331 
L 2906 616 
Q 2728 306 2450 153 
Q 2172 0 1784 0 
Q 1141 0 747 490 
Q 353 981 353 1791 
Q 353 2603 747 3093 
Q 1141 3584 1784 3584 
Q 2172 3584 2450 3431 
Q 2728 3278 2906 2969 
L 2906 3500 
L 3481 3500 
L 3481 434 
z
" transform="scale(0.015625)"/>
       <path id="DejaVuSans-79" d="M 2059 -325 
Q 1816 -950 1584 -1140 
Q 1353 -1331 966 -1331 
L 506 -1331 
L 506 -850 
L 844 -850 
Q 1081 -850 1212 -737 
Q 1344 -625 1503 -206 
L 1606 56 
L 191 3500 
L 800 3500 
L 1894 763 
L 2988 3500 
L 3597 3500 
L 2059 -325 
z
" transform="scale(0.015625)"/>
       <path id="DejaVuSans-55" d="M 556 4666 
L 1191 4666 
L 1191 1831 
Q 1191 1081 1462 751 
Q 1734 422 2344 422 
Q 2950 422 3222 751 
Q 3494 1081 3494 1831 
L 3494 4666 
L 4128 4666 
L 4128 1753 
Q 4128 841 3676 375 
Q 3225 -91 2344 -91 
Q 1459 -91 1007 375 
Q 556 841 556 1753 
L 556 4666 
z
" transform="scale(0.015625)"/>
       <path id="DejaVuSans-2f" d="M 1625 4666 
L 2156 4666 
L 531 -594 
L 0 -594 
L 1625 4666 
z
" transform="scale(0.015625)"/>
       <path id="DejaVuSans-28" d="M 1984 4856 
Q 1566 4138 1362 3434 
Q 1159 2731 1159 2009 
Q 1159 1288 1364 580 
Q 1569 -128 1984 -844 
L 1484 -844 
Q 1016 -109 783 600 
Q 550 1309 550 2009 
Q 550 2706 781 3412 
Q 1013 4119 1484 4856 
L 1984 4856 
z
" transform="scale(0.015625)"/>
       <path id="DejaVuSans-Oblique-3b5" d="M 1263 1888 
Q 925 1963 778 2166 
Q 669 2309 669 2503 
Q 669 3034 1175 3344 
Q 1575 3588 2188 3588 
Q 2425 3588 2684 3550 
Q 2944 3513 3234 3438 
L 3134 2916 
Q 2847 3006 2606 3047 
Q 2359 3088 2138 3088 
Q 1766 3088 1522 2944 
Q 1228 2772 1228 2522 
Q 1228 2356 1381 2241 
Q 1563 2103 1925 2103 
L 2409 2103 
L 2319 1628 
L 1856 1628 
Q 1425 1628 1172 1469 
Q 828 1253 828 916 
Q 828 703 1013 563 
Q 1244 388 1716 388 
Q 2006 388 2284 444 
Q 2563 503 2806 619 
L 2700 84 
Q 2403 -3 2131 -47 
Q 1859 -91 1609 -91 
Q 866 -91 516 194 
Q 250 413 250 781 
Q 250 1278 600 1584 
Q 859 1813 1263 1888 
z
" transform="scale(0.015625)"/>
       <path id="DejaVuSans-29" d="M 513 4856 
L 1013 4856 
Q 1481 4119 1714 3412 
Q 1947 2706 1947 2009 
Q 1947 1309 1714 600 
Q 1481 -109 1013 -844 
L 513 -844 
Q 928 -128 1133 580 
Q 1338 1288 1338 2009 
Q 1338 2731 1133 3434 
Q 928 4138 513 4856 
z
" transform="scale(0.015625)"/>
      </defs>
      <use xlink:href="#DejaVuSans-52" transform="translate(0 0.015625)"/>
      <use xlink:href="#DejaVuSans-65" transform="translate(69.482422 0.015625)"/>
      <use xlink:href="#DejaVuSans-64" transform="translate(131.005859 0.015625)"/>
      <use xlink:href="#DejaVuSans-75" transform="translate(194.482422 0.015625)"/>
      <use xlink:href="#DejaVuSans-63" transform="translate(257.861328 0.015625)"/>
      <use xlink:href="#DejaVuSans-65" transform="translate(312.841797 0.015625)"/>
      <use xlink:href="#DejaVuSans-64" transform="translate(374.365234 0.015625)"/>
      <use xlink:href="#DejaVuSans-20" transform="translate(437.841797 0.015625)"/>
      <use xlink:href="#DejaVuSans-45" transform="translate(469.628906 0.015625)"/>
      <use xlink:href="#DejaVuSans-6e" transform="translate(532.8125 0.015625)"/>
      <use xlink:href="#DejaVuSans-65" transform="translate(596.191406 0.015625)"/>
      <use xlink:href="#DejaVuSans-72" transform="translate(657.714844 0.015625)"/>
      <use xlink:href="#DejaVuSans-67" transform="translate(698.828125 0.015625)"/>
      <use xlink:href="#DejaVuSans-79" transform="translate(762.304688 0.015625)"/>
      <use xlink:href="#DejaVuSans-20" transform="translate(821.484375 0.015625)"/>
      <use xlink:href="#DejaVuSans-55" transform="translate(853.271484 0.015625)"/>
      <use xlink:href="#DejaVuSans-2f" transform="translate(926.464844 0.015625)"/>
      <use xlink:href="#DejaVuSans-28" transform="translate(960.15625 0.015625)"/>
      <use xlink:href="#DejaVuSans-Oblique-3b5" transform="translate(999.169922 0.015625)"/>
      <use xlink:href="#DejaVuSans-29" transform="translate(1053.222656 0.015625)"/>
     </g>
    </g>
   </g>
   <g id="line2d_16">
    <path d="M 73.832727 161.145859 
L 74.157382 139.618927 
L 74.482036 154.530353 
L 74.806691 124.155159 
L 75.131345 124.237792 
L 75.780655 264.493253 
L 76.429964 206.655831 
L 76.754618 238.357905 
L 77.079273 229.321888 
L 77.403927 198.828464 
L 77.728582 132.1618 
L 78.053236 146.330945 
L 78.377891 148.935227 
L 78.702545 198.391782 
L 79.0272 213.381343 
L 79.351855 182.166456 
L 79.676509 175.585006 
L 80.001164 145.787856 
L 80.325818 211.765056 
L 80.650473 162.54856 
L 80.975127 193.206864 
L 81.299782 141.667012 
L 81.624436 131.378909 
L 81.949091 185.203307 
L 82.273745 182.943564 
L 82.5984 219.53151 
L 82.923055 189.477465 
L 83.247709 176.205972 
L 83.572364 150.73567 
L 83.897018 159.68687 
L 84.221673 262.292368 
L 84.546327 242.565108 
L 84.870982 191.371594 
L 85.195636 194.332495 
L 85.520291 191.296286 
L 85.844945 168.202159 
L 86.1696 171.301338 
L 86.494255 151.809896 
L 86.818909 178.257913 
L 87.143564 174.017939 
L 87.468218 243.868984 
L 88.117527 203.539817 
L 89.091491 128.688524 
L 89.416145 102.163915 
L 89.7408 176.672854 
L 90.065455 149.237871 
L 90.390109 134.028041 
L 90.714764 200.6451 
L 91.039418 220.542251 
L 91.364073 211.690006 
L 91.688727 212.440255 
L 92.013382 194.624344 
L 92.338036 122.112086 
L 92.662691 106.390139 
L 92.987345 120.04164 
L 93.312 180.337226 
L 93.636655 208.465656 
L 93.961309 171.938368 
L 94.285964 205.550891 
L 94.610618 171.094434 
L 94.935273 182.191516 
L 95.259927 197.343515 
L 95.909236 184.302186 
L 96.233891 234.378037 
L 96.8832 192.437595 
L 97.207855 196.450233 
L 97.532509 129.059022 
L 97.857164 156.715945 
L 98.181818 193.980759 
L 98.506473 173.437067 
L 98.831127 130.396054 
L 99.155782 192.373725 
L 99.480436 191.500748 
L 99.805091 178.793162 
L 100.129745 192.21013 
L 100.4544 153.889467 
L 100.779055 195.301342 
L 101.103709 208.846435 
L 101.428364 178.177079 
L 101.753018 257.590396 
L 102.077673 200.242474 
L 102.402327 250.198167 
L 102.726982 234.551271 
L 103.051636 270.095961 
L 103.376291 197.351097 
L 103.700945 192.938147 
L 104.0256 167.606766 
L 104.350255 188.023103 
L 104.674909 168.135204 
L 104.999564 216.43323 
L 105.324218 198.307607 
L 105.648873 153.08293 
L 105.973527 170.039228 
L 106.298182 228.780213 
L 106.622836 245.599903 
L 106.947491 202.632013 
L 107.272145 190.748828 
L 107.5968 173.287223 
L 107.921455 186.624129 
L 108.246109 189.105682 
L 108.570764 223.385179 
L 108.895418 226.543345 
L 109.220073 211.060686 
L 109.544727 208.581188 
L 109.869382 154.657707 
L 110.194036 205.571196 
L 110.518691 217.016928 
L 110.843345 221.409189 
L 111.492655 166.318182 
L 112.141964 230.684879 
L 112.466618 216.148706 
L 112.791273 176.863179 
L 113.115927 157.871262 
L 113.440582 167.716386 
L 113.765236 159.562085 
L 114.089891 180.827497 
L 114.414545 166.469312 
L 114.7392 222.685692 
L 115.063855 181.124101 
L 115.388509 163.617003 
L 115.713164 193.503597 
L 116.037818 202.504273 
L 116.362473 197.396333 
L 116.687127 154.998905 
L 117.011782 157.159694 
L 117.336436 156.893804 
L 117.661091 238.021719 
L 118.3104 171.918706 
L 118.635055 158.45843 
L 118.959709 174.986014 
L 119.284364 251.018583 
L 119.609018 247.365007 
L 119.933673 276.057859 
L 120.258327 238.826971 
L 120.582982 273.682841 
L 120.907636 227.790932 
L 121.232291 159.559001 
L 121.556945 135.316881 
L 122.206255 198.742104 
L 122.530909 194.883423 
L 122.855564 207.751262 
L 123.180218 155.339331 
L 123.504873 210.912383 
L 123.829527 221.785727 
L 124.154182 246.115105 
L 124.478836 204.800128 
L 124.803491 228.370776 
L 125.4528 184.014578 
L 125.777455 184.884214 
L 126.102109 163.671106 
L 126.426764 197.861544 
L 126.751418 159.482151 
L 127.076073 79.061049 
L 127.400727 116.608588 
L 127.725382 97.058417 
L 128.050036 141.438004 
L 128.374691 151.917203 
L 128.699345 184.060585 
L 129.024 204.969891 
L 129.348655 267.503245 
L 129.673309 252.206799 
L 130.322618 192.933649 
L 130.647273 184.700057 
L 130.971927 211.059657 
L 131.296582 186.724753 
L 131.621236 183.813714 
L 131.945891 157.547799 
L 132.270545 212.518647 
L 132.919855 135.89107 
L 133.244509 158.36346 
L 133.569164 196.5213 
L 133.893818 197.091119 
L 134.218473 161.623921 
L 134.543127 221.902929 
L 134.867782 201.584132 
L 135.192436 263.078086 
L 135.517091 276.599277 
L 135.841745 247.196143 
L 136.1664 253.829897 
L 136.491055 251.057522 
L 136.815709 213.58272 
L 137.140364 226.151642 
L 137.465018 214.580996 
L 137.789673 219.702558 
L 138.114327 201.315158 
L 138.438982 199.580897 
L 138.763636 179.876641 
L 139.088291 198.527619 
L 139.7376 176.586751 
L 140.062255 231.551302 
L 140.386909 138.857111 
L 140.711564 180.137262 
L 141.036218 176.73968 
L 141.360873 231.756406 
L 141.685527 192.218098 
L 142.010182 212.219472 
L 142.334836 173.52831 
L 142.659491 113.707959 
L 142.984145 110.713517 
L 143.3088 119.325832 
L 143.633455 124.315798 
L 143.958109 183.781329 
L 144.282764 181.891699 
L 144.607418 147.173208 
L 144.932073 148.136015 
L 145.256727 120.581644 
L 145.581382 133.43599 
L 145.906036 151.70426 
L 146.230691 115.781104 
L 146.555345 170.585273 
L 146.88 117.181492 
L 147.204655 144.143168 
L 147.529309 143.455247 
L 147.853964 123.53779 
L 148.178618 176.561435 
L 148.827927 223.362561 
L 149.152582 242.559197 
L 149.477236 220.111096 
L 149.801891 177.673443 
L 150.126545 184.031284 
L 150.4512 178.34106 
L 150.775855 217.331139 
L 151.100509 212.372529 
L 151.425164 256.00418 
L 151.749818 220.367861 
L 152.074473 279.444646 
L 152.399127 245.508275 
L 152.723782 199.869148 
L 153.048436 227.457189 
L 153.373091 212.467499 
L 153.697745 216.187002 
L 154.0224 200.109721 
L 154.347055 209.209994 
L 154.671709 156.326041 
L 154.996364 144.429748 
L 155.321018 153.500206 
L 155.645673 150.243986 
L 155.970327 138.116372 
L 156.294982 208.08115 
L 156.619636 138.392543 
L 156.944291 207.546158 
L 157.268945 226.192252 
L 157.918255 160.291001 
L 158.242909 165.002998 
L 158.567564 196.970061 
L 158.892218 158.501096 
L 159.216873 177.496612 
L 159.866182 107.470276 
L 160.190836 143.800042 
L 160.515491 105.167225 
L 160.840145 214.113858 
L 161.1648 109.827688 
L 161.489455 133.849539 
L 161.814109 100.449189 
L 162.138764 53.568 
L 162.463418 103.349304 
L 162.788073 132.75488 
L 163.112727 94.862416 
L 163.437382 144.33979 
L 163.762036 168.598873 
L 164.086691 172.308609 
L 164.411345 177.633605 
L 165.060655 101.437441 
L 165.385309 153.454841 
L 165.709964 159.597811 
L 166.034618 218.223907 
L 166.359273 179.501517 
L 166.683927 188.870764 
L 167.008582 188.346566 
L 167.333236 173.812706 
L 167.657891 197.929655 
L 167.982545 173.05526 
L 168.3072 183.496934 
L 168.631855 144.200098 
L 168.956509 147.33012 
L 169.281164 192.787275 
L 169.605818 184.493796 
L 169.930473 187.813501 
L 170.255127 160.046444 
L 170.579782 200.593567 
L 171.229091 169.44859 
L 171.553745 223.153858 
L 171.8784 242.566394 
L 172.203055 246.867796 
L 172.527709 201.232268 
L 172.852364 187.820569 
L 173.177018 160.960288 
L 173.826327 222.355674 
L 174.150982 213.89436 
L 174.475636 240.10386 
L 174.800291 220.817265 
L 175.124945 213.023696 
L 175.4496 182.55546 
L 175.774255 231.42459 
L 176.098909 202.874386 
L 176.423564 212.563626 
L 176.748218 202.705136 
L 177.072873 214.603871 
L 177.397527 187.389285 
L 177.722182 231.256497 
L 178.046836 208.666391 
L 178.371491 203.410535 
L 178.696145 205.304663 
L 179.0208 227.597009 
L 179.345455 173.548101 
L 179.670109 185.938264 
L 179.994764 165.121485 
L 180.319418 178.043042 
L 180.644073 183.93323 
L 180.968727 187.719431 
L 181.293382 170.930197 
L 181.618036 161.199962 
L 181.942691 190.90664 
L 182.267345 167.666523 
L 182.592 94.738659 
L 182.916655 113.876309 
L 183.241309 177.068283 
L 183.890618 205.609878 
L 184.215273 170.900254 
L 184.539927 163.361265 
L 184.864582 152.055096 
L 185.189236 169.254152 
L 185.513891 139.09897 
L 185.838545 143.41181 
L 186.1632 176.070907 
L 186.812509 81.59285 
L 187.137164 165.399455 
L 187.461818 136.085508 
L 187.786473 171.955974 
L 188.111127 184.651094 
L 188.435782 132.981574 
L 188.760436 146.387361 
L 189.085091 178.153433 
L 189.409745 230.814033 
L 189.7344 193.778354 
L 190.059055 202.944167 
L 190.383709 163.852307 
L 190.708364 168.962432 
L 191.033018 161.753332 
L 191.357673 134.05143 
L 191.682327 119.263889 
L 192.006982 152.97408 
L 192.331636 174.917261 
L 192.656291 176.049831 
L 192.980945 211.868379 
L 193.3056 98.707475 
L 193.630255 88.209256 
L 193.954909 73.125368 
L 194.279564 68.21405 
L 194.604218 80.012418 
L 194.928873 120.685224 
L 195.253527 115.974513 
L 195.578182 186.844011 
L 195.902836 187.618549 
L 196.227491 186.102116 
L 196.552145 155.752881 
L 196.8768 176.094296 
L 197.201455 155.536725 
L 197.526109 162.655738 
L 197.850764 184.101965 
L 198.175418 179.739263 
L 198.500073 191.216738 
L 198.824727 153.822384 
L 199.149382 239.143109 
L 199.474036 152.654987 
L 199.798691 117.794876 
L 200.123345 118.459408 
L 200.448 131.621024 
L 200.772655 182.874297 
L 201.097309 120.272703 
L 201.421964 98.251773 
L 201.746618 170.053364 
L 202.071273 129.592601 
L 202.395927 160.367209 
L 202.720582 167.56577 
L 203.045236 134.864779 
L 203.369891 129.640022 
L 203.694545 130.537031 
L 204.0192 120.817077 
L 204.343855 116.216886 
L 204.668509 120.849076 
L 204.993164 90.990369 
L 205.317818 134.650165 
L 205.642473 105.241247 
L 205.967127 146.812605 
L 206.291782 134.844602 
L 206.616436 162.917516 
L 206.941091 251.509111 
L 207.265745 208.316198 
L 207.5904 186.442799 
L 207.915055 132.596168 
L 208.239709 134.943299 
L 208.564364 91.966799 
L 209.538327 141.50573 
L 209.862982 98.392493 
L 210.187636 96.380906 
L 210.836945 161.778648 
L 211.1616 166.990425 
L 211.810909 159.266123 
L 212.135564 138.297573 
L 212.460218 160.993316 
L 212.784873 151.863614 
L 213.109527 162.165982 
L 213.434182 200.936435 
L 213.758836 190.165387 
L 214.083491 268.211985 
L 214.7328 178.106141 
L 215.057455 240.014416 
L 215.382109 195.699084 
L 215.706764 189.924942 
L 216.031418 170.245617 
L 216.356073 220.2549 
L 216.680727 211.781891 
L 217.005382 223.117875 
L 217.330036 253.115503 
L 217.654691 198.304394 
L 217.979345 197.756936 
L 218.304 171.066547 
L 218.628655 175.170171 
L 218.953309 229.833106 
L 219.277964 214.176057 
L 219.602618 186.588659 
L 219.927273 143.319924 
L 220.576582 177.883302 
L 220.901236 202.534987 
L 221.225891 211.527953 
L 221.550545 198.770505 
L 221.8752 220.852349 
L 222.199855 253.921397 
L 222.524509 245.537961 
L 222.849164 200.05896 
L 223.173818 220.277389 
L 223.498473 179.671923 
L 223.823127 178.986829 
L 224.147782 176.954165 
L 224.472436 145.195675 
L 225.121745 174.774742 
L 225.4464 153.481829 
L 225.771055 199.818129 
L 226.095709 175.418198 
L 226.420364 210.164962 
L 226.745018 202.033022 
L 227.069673 140.992584 
L 227.394327 130.739694 
L 227.718982 148.943965 
L 228.043636 152.548708 
L 228.368291 230.351521 
L 228.692945 204.693463 
L 229.0176 212.105483 
L 229.342255 205.219974 
L 229.666909 157.512458 
L 229.991564 141.009419 
L 230.316218 210.758555 
L 230.640873 216.663779 
L 230.965527 185.519188 
L 231.290182 185.899967 
L 232.264145 107.293702 
L 232.5888 211.269773 
L 233.238109 131.425687 
L 233.562764 157.179999 
L 233.887418 167.866615 
L 234.212073 159.430489 
L 234.536727 185.752308 
L 234.861382 148.560102 
L 235.186036 168.282992 
L 235.510691 153.452528 
L 235.835345 187.176599 
L 236.16 172.228547 
L 236.809309 121.100445 
L 237.133964 135.957125 
L 237.458618 162.332147 
L 238.107927 193.001889 
L 238.432582 201.866214 
L 238.757236 165.716364 
L 239.081891 157.24464 
L 239.406545 136.237794 
L 239.7312 162.544833 
L 240.055855 158.886758 
L 241.029818 253.039039 
L 241.354473 242.854002 
L 241.679127 185.958054 
L 242.003782 152.138114 
L 242.328436 195.463009 
L 242.653091 156.515853 
L 242.977745 94.826047 
L 243.3024 101.885817 
L 243.627055 144.203311 
L 243.951709 149.740864 
L 244.276364 159.077469 
L 244.601018 177.393931 
L 244.925673 174.949774 
L 245.250327 149.134419 
L 245.574982 85.341526 
L 246.224291 182.119164 
L 246.548945 194.017771 
L 247.522909 124.00056 
L 247.847564 171.128104 
L 248.172218 159.615931 
L 248.496873 140.54665 
L 248.821527 149.492837 
L 249.146182 132.968337 
L 249.470836 211.274657 
L 249.795491 167.684515 
L 250.120145 175.950492 
L 250.4448 163.828661 
L 250.769455 158.967078 
L 251.094109 186.766391 
L 251.418764 226.816817 
L 251.743418 200.119231 
L 252.068073 205.775529 
L 252.392727 151.597981 
L 252.717382 194.608666 
L 253.042036 167.897844 
L 253.366691 152.417883 
L 253.691345 182.219403 
L 254.016 180.731499 
L 254.340655 147.414809 
L 254.989964 195.656547 
L 255.314618 165.922882 
L 255.639273 194.527704 
L 255.963927 161.578685 
L 256.288582 224.460818 
L 256.613236 183.897761 
L 257.262545 57.152438 
L 257.5872 98.059906 
L 257.911855 109.543164 
L 258.561164 166.524572 
L 258.885818 179.727054 
L 259.210473 152.44924 
L 259.535127 180.323861 
L 259.859782 175.41113 
L 260.184436 164.742377 
L 260.509091 147.081065 
L 260.833745 177.258352 
L 261.483055 255.518793 
L 261.807709 212.212661 
L 262.132364 222.752646 
L 262.457018 199.096024 
L 262.781673 244.321087 
L 263.106327 239.066516 
L 263.430982 198.095178 
L 264.080291 163.691797 
L 264.404945 108.636517 
L 264.7296 114.902986 
L 265.054255 143.155815 
L 265.703564 127.480646 
L 266.028218 182.107469 
L 266.352873 214.168732 
L 266.677527 205.539068 
L 267.002182 239.104041 
L 267.326836 240.625487 
L 267.651491 165.592608 
L 267.976145 164.000738 
L 268.3008 175.940468 
L 268.625455 127.626764 
L 268.950109 183.717459 
L 269.274764 134.263603 
L 269.599418 107.544299 
L 269.924073 111.539587 
L 270.248727 130.199817 
L 270.573382 192.305357 
L 270.898036 159.893901 
L 271.222691 181.845435 
L 271.547345 131.904777 
L 271.872 189.762247 
L 272.196655 150.183457 
L 272.521309 134.783431 
L 272.845964 160.612151 
L 273.170618 157.35169 
L 273.495273 139.81542 
L 274.144582 223.654924 
L 274.469236 198.540984 
L 274.793891 219.94069 
L 275.4432 148.097847 
L 275.767855 136.811083 
L 276.092509 81.856684 
L 276.417164 84.587678 
L 277.066473 240.523192 
L 277.715782 185.840081 
L 278.040436 194.541454 
L 278.365091 221.862062 
L 278.689745 188.486772 
L 279.0144 215.684138 
L 279.339055 230.540818 
L 279.663709 185.543862 
L 279.988364 172.799523 
L 280.313018 241.945555 
L 280.637673 172.5434 
L 280.962327 149.567888 
L 281.286982 217.539456 
L 281.611636 224.077726 
L 281.936291 208.42222 
L 282.260945 177.446107 
L 282.5856 133.748529 
L 282.910255 146.90025 
L 283.234909 174.65317 
L 283.559564 154.051905 
L 283.884218 167.263512 
L 284.208873 119.541988 
L 284.533527 118.243895 
L 284.858182 243.61042 
L 285.182836 202.022484 
L 285.507491 190.47587 
L 285.832145 201.392907 
L 286.1568 232.285231 
L 287.130764 156.651175 
L 287.455418 237.560749 
L 287.780073 215.665118 
L 288.104727 136.693109 
L 288.429382 174.773585 
L 288.754036 227.806482 
L 289.078691 214.433594 
L 289.403345 194.783827 
L 289.728 219.342084 
L 290.052655 185.511349 
L 290.377309 188.290149 
L 290.701964 188.868322 
L 291.026618 140.299008 
L 291.351273 143.473752 
L 292.000582 232.436231 
L 292.325236 182.910665 
L 292.649891 214.223606 
L 292.974545 162.96725 
L 293.2992 161.053716 
L 293.623855 140.496016 
L 293.948509 151.57305 
L 294.273164 128.887974 
L 294.597818 118.271653 
L 294.922473 179.441631 
L 295.571782 161.72416 
L 295.896436 163.961156 
L 296.545745 87.306464 
L 296.8704 163.848966 
L 297.195055 173.728531 
L 297.519709 187.861693 
L 297.844364 187.73498 
L 298.169018 204.259866 
L 298.493673 233.374493 
L 298.818327 232.807758 
L 299.142982 206.276466 
L 299.467636 201.702619 
L 299.792291 193.62504 
L 300.116945 211.16131 
L 300.4416 170.508037 
L 300.766255 178.206251 
L 301.090909 200.758832 
L 301.415564 149.28285 
L 301.740218 130.874887 
L 302.064873 168.968343 
L 302.389527 173.146118 
L 302.714182 218.979425 
L 303.038836 167.656885 
L 303.363491 151.090619 
L 303.688145 146.342125 
L 304.0128 163.19343 
L 304.337455 174.027191 
L 304.662109 177.776509 
L 304.986764 168.855382 
L 305.636073 131.170978 
L 305.960727 176.084272 
L 306.285382 160.45344 
L 306.610036 179.924833 
L 306.934691 210.086184 
L 307.908655 107.218651 
L 308.233309 62.896509 
L 308.557964 107.800036 
L 309.207273 149.876186 
L 309.531927 205.183606 
L 310.181236 246.589569 
L 310.505891 193.761005 
L 310.830545 227.989482 
L 311.1552 245.70721 
L 311.479855 250.502996 
L 311.804509 204.539121 
L 312.129164 194.965156 
L 312.453818 203.03888 
L 312.778473 177.779337 
L 313.103127 178.062704 
L 313.427782 198.010489 
L 313.752436 175.947793 
L 314.077091 222.87229 
L 314.401745 198.965585 
L 314.7264 188.423801 
L 315.051055 185.364589 
L 315.375709 206.285462 
L 315.700364 206.369123 
L 316.025018 194.811714 
L 316.674327 127.582684 
L 316.998982 196.309128 
L 317.323636 201.210549 
L 317.648291 217.505143 
L 317.972945 295.488 
L 318.622255 190.253288 
L 318.946909 186.350271 
L 319.271564 248.887095 
L 319.596218 229.355686 
L 319.920873 181.301189 
L 320.570182 149.286062 
L 320.894836 180.315765 
L 321.219491 198.166887 
L 321.544145 130.493851 
L 321.8688 139.953827 
L 322.193455 114.367608 
L 323.167418 166.981172 
L 323.492073 137.785455 
L 323.816727 146.557124 
L 324.141382 201.572309 
L 324.466036 188.159196 
L 324.790691 258.400403 
L 325.115345 267.189935 
L 325.44 229.319189 
L 325.764655 178.069772 
L 326.089309 146.837151 
L 326.413964 150.242187 
L 326.738618 194.494419 
L 327.063273 181.695976 
L 327.387927 202.135703 
L 327.712582 189.61523 
L 328.037236 190.83673 
L 328.361891 141.360383 
L 328.686545 64.635652 
L 329.0112 141.872887 
L 329.335855 186.389595 
L 329.660509 171.39695 
L 329.985164 188.523654 
L 330.309818 147.859972 
L 330.634473 147.946332 
L 330.959127 201.31066 
L 331.283782 182.81531 
L 331.608436 200.754591 
L 331.933091 191.019987 
L 332.5824 163.550948 
L 332.907055 173.740997 
L 333.231709 190.058337 
L 333.556364 187.141387 
L 333.881018 195.400938 
L 334.205673 206.509328 
L 334.530327 233.097165 
L 334.854982 175.95846 
L 335.179636 155.387909 
L 335.504291 161.357388 
L 335.828945 160.28509 
L 336.1536 167.048898 
L 336.478255 186.913665 
L 336.802909 148.336492 
L 337.127564 159.600767 
L 337.452218 162.014081 
L 337.776873 147.393091 
L 338.101527 179.132175 
L 338.426182 188.276784 
L 338.750836 201.827918 
L 339.075491 199.089984 
L 339.400145 167.777686 
L 340.049455 194.751313 
L 340.374109 156.515082 
L 340.698764 195.578155 
L 341.023418 173.271802 
L 341.348073 136.958228 
L 341.672727 150.589167 
L 341.997382 152.631855 
L 342.322036 157.713321 
L 342.646691 173.255995 
L 342.971345 163.970538 
L 343.296 131.192696 
L 343.620655 114.612165 
L 343.945309 156.890592 
L 344.269964 174.519647 
L 344.594618 162.84722 
L 344.919273 165.119943 
L 345.243927 146.989051 
L 345.568582 212.009742 
L 345.893236 225.109415 
L 346.217891 230.980969 
L 346.542545 206.401636 
L 346.8672 162.467469 
L 347.191855 153.909129 
L 347.516509 159.795847 
L 347.841164 172.632715 
L 348.165818 149.135833 
L 348.490473 195.452857 
L 348.815127 222.915855 
L 349.139782 195.274611 
L 349.464436 144.683301 
L 349.789091 163.356253 
L 350.113745 151.109253 
L 350.4384 178.149963 
L 350.763055 149.718246 
L 351.087709 157.71255 
L 351.412364 180.735097 
L 351.737018 194.253332 
L 352.061673 163.77353 
L 352.386327 189.478751 
L 352.710982 177.622681 
L 353.035636 156.016843 
L 353.360291 141.892035 
L 353.684945 139.573176 
L 354.0096 140.393207 
L 354.658909 179.55562 
L 355.308218 168.094595 
L 355.632873 168.155766 
L 355.957527 179.206583 
L 356.282182 79.126718 
L 356.931491 131.032956 
L 357.256145 112.063657 
L 357.5808 156.368322 
L 357.905455 158.679469 
L 358.230109 114.364909 
L 358.554764 175.919264 
L 358.879418 174.748011 
L 359.204073 184.587224 
L 359.853382 99.591118 
L 360.178036 115.643468 
L 360.502691 148.483381 
L 360.827345 80.540214 
L 361.152 113.734689 
L 361.476655 106.772974 
L 361.801309 130.51904 
L 362.125964 171.816411 
L 362.450618 186.635695 
L 362.775273 106.918063 
L 363.099927 110.512139 
L 363.749236 165.104136 
L 364.073891 201.058649 
L 364.398545 184.837307 
L 364.7232 220.76162 
L 365.372509 188.296446 
L 365.697164 208.346526 
L 366.021818 199.95795 
L 366.346473 165.650309 
L 366.671127 177.764172 
L 366.995782 167.911851 
L 367.320436 194.938683 
L 367.969745 167.933441 
L 368.2944 122.072119 
L 368.619055 148.60778 
L 368.943709 123.629033 
L 369.268364 167.250404 
L 369.593018 184.419388 
L 369.917673 179.064064 
L 370.242327 108.183514 
L 370.566982 96.62572 
L 371.216291 169.882573 
L 371.540945 160.09258 
L 371.8656 184.078191 
L 372.190255 251.931014 
L 372.514909 243.218717 
L 372.839564 196.085132 
L 373.488873 138.818429 
L 373.813527 179.700067 
L 374.138182 167.953489 
L 374.462836 172.787443 
L 374.787491 213.071502 
L 375.4368 233.967444 
L 375.761455 212.372658 
L 376.086109 158.037684 
L 376.410764 194.994585 
L 376.735418 187.213867 
L 377.060073 129.324141 
L 377.384727 113.068101 
L 377.709382 138.086429 
L 378.034036 205.822821 
L 378.358691 172.31375 
L 378.683345 180.012349 
L 379.008 207.655264 
L 379.657309 199.319634 
L 379.981964 200.108179 
L 380.306618 223.411138 
L 380.631273 152.124107 
L 381.280582 149.862564 
L 381.605236 192.578958 
L 381.929891 148.669465 
L 382.254545 219.485374 
L 382.5792 216.436314 
L 382.903855 196.817518 
L 383.228509 260.33694 
L 383.553164 197.811168 
L 383.877818 213.191275 
L 384.202473 215.258894 
L 384.527127 203.111361 
L 384.851782 199.019431 
L 385.176436 221.97194 
L 385.825745 157.544586 
L 386.1504 125.032763 
L 386.475055 160.832934 
L 386.799709 144.682401 
L 387.124364 139.691021 
L 387.449018 166.432943 
L 387.773673 218.724587 
L 388.098327 174.459503 
L 388.422982 200.927953 
L 388.747636 175.715959 
L 389.072291 106.704606 
L 389.7216 195.453756 
L 390.046255 179.731809 
L 390.370909 178.430375 
L 391.020218 244.83539 
L 391.344873 173.051148 
L 391.669527 150.997705 
L 391.994182 110.270667 
L 392.318836 177.464098 
L 392.643491 199.832651 
L 392.968145 174.353867 
L 393.2928 137.012588 
L 393.617455 143.605219 
L 393.942109 146.718278 
L 394.266764 181.679013 
L 394.591418 164.082985 
L 394.916073 158.089859 
L 395.565382 227.951572 
L 395.890036 214.440148 
L 396.214691 164.526478 
L 396.539345 138.385089 
L 396.864 136.27262 
L 397.188655 151.728806 
L 397.513309 183.092766 
L 397.837964 175.362938 
L 398.162618 159.534841 
L 398.487273 137.573669 
L 398.487273 137.573669 
" clip-path="url(#peda0fdfadc)" style="fill: none; stroke: #1f77b4; stroke-width: 1.5; stroke-linecap: square"/>
   </g>
   <g id="patch_3">
    <path d="M 57.6 307.584 
L 57.6 41.472 
" style="fill: none; stroke: #000000; stroke-width: 0.8; stroke-linejoin: miter; stroke-linecap: square"/>
   </g>
   <g id="patch_4">
    <path d="M 414.72 307.584 
L 414.72 41.472 
" style="fill: none; stroke: #000000; stroke-width: 0.8; stroke-linejoin: miter; stroke-linecap: square"/>
   </g>
   <g id="patch_5">
    <path d="M 57.6 307.584 
L 414.72 307.584 
" style="fill: none; stroke: #000000; stroke-width: 0.8; stroke-linejoin: miter; stroke-linecap: square"/>
   </g>
   <g id="patch_6">
    <path d="M 57.6 41.472 
L 414.72 41.472 
" style="fill: none; stroke: #000000; stroke-width: 0.8; stroke-linejoin: miter; stroke-linecap: square"/>
   </g>
   <g id="text_18">
    <!-- Reduced Temperature,T$^*$=0.65 -->
    <g transform="translate(140.88 35.472) scale(0.12 -0.12)">
     <defs>
      <path id="DejaVuSans-54" d="M -19 4666 
L 3928 4666 
L 3928 4134 
L 2272 4134 
L 2272 0 
L 1638 0 
L 1638 4134 
L -19 4134 
L -19 4666 
z
" transform="scale(0.015625)"/>
      <path id="DejaVuSans-6d" d="M 3328 2828 
Q 3544 3216 3844 3400 
Q 4144 3584 4550 3584 
Q 5097 3584 5394 3201 
Q 5691 2819 5691 2113 
L 5691 0 
L 5113 0 
L 5113 2094 
Q 5113 2597 4934 2840 
Q 4756 3084 4391 3084 
Q 3944 3084 3684 2787 
Q 3425 2491 3425 1978 
L 3425 0 
L 2847 0 
L 2847 2094 
Q 2847 2600 2669 2842 
Q 2491 3084 2119 3084 
Q 1678 3084 1418 2786 
Q 1159 2488 1159 1978 
L 1159 0 
L 581 0 
L 581 3500 
L 1159 3500 
L 1159 2956 
Q 1356 3278 1631 3431 
Q 1906 3584 2284 3584 
Q 2666 3584 2933 3390 
Q 3200 3197 3328 2828 
z
" transform="scale(0.015625)"/>
      <path id="DejaVuSans-70" d="M 1159 525 
L 1159 -1331 
L 581 -1331 
L 581 3500 
L 1159 3500 
L 1159 2969 
Q 1341 3281 1617 3432 
Q 1894 3584 2278 3584 
Q 2916 3584 3314 3078 
Q 3713 2572 3713 1747 
Q 3713 922 3314 415 
Q 2916 -91 2278 -91 
Q 1894 -91 1617 61 
Q 1341 213 1159 525 
z
M 3116 1747 
Q 3116 2381 2855 2742 
Q 2594 3103 2138 3103 
Q 1681 3103 1420 2742 
Q 1159 2381 1159 1747 
Q 1159 1113 1420 752 
Q 1681 391 2138 391 
Q 2594 391 2855 752 
Q 3116 1113 3116 1747 
z
" transform="scale(0.015625)"/>
      <path id="DejaVuSans-61" d="M 2194 1759 
Q 1497 1759 1228 1600 
Q 959 1441 959 1056 
Q 959 750 1161 570 
Q 1363 391 1709 391 
Q 2188 391 2477 730 
Q 2766 1069 2766 1631 
L 2766 1759 
L 2194 1759 
z
M 3341 1997 
L 3341 0 
L 2766 0 
L 2766 531 
Q 2569 213 2275 61 
Q 1981 -91 1556 -91 
Q 1019 -91 701 211 
Q 384 513 384 1019 
Q 384 1609 779 1909 
Q 1175 2209 1959 2209 
L 2766 2209 
L 2766 2266 
Q 2766 2663 2505 2880 
Q 2244 3097 1772 3097 
Q 1472 3097 1187 3025 
Q 903 2953 641 2809 
L 641 3341 
Q 956 3463 1253 3523 
Q 1550 3584 1831 3584 
Q 2591 3584 2966 3190 
Q 3341 2797 3341 1997 
z
" transform="scale(0.015625)"/>
      <path id="DejaVuSans-74" d="M 1172 4494 
L 1172 3500 
L 2356 3500 
L 2356 3053 
L 1172 3053 
L 1172 1153 
Q 1172 725 1289 603 
Q 1406 481 1766 481 
L 2356 481 
L 2356 0 
L 1766 0 
Q 1100 0 847 248 
Q 594 497 594 1153 
L 594 3053 
L 172 3053 
L 172 3500 
L 594 3500 
L 594 4494 
L 1172 4494 
z
" transform="scale(0.015625)"/>
      <path id="DejaVuSans-2c" d="M 750 794 
L 1409 794 
L 1409 256 
L 897 -744 
L 494 -744 
L 750 256 
L 750 794 
z
" transform="scale(0.015625)"/>
      <path id="DejaVuSans-2a" d="M 3009 3897 
L 1888 3291 
L 3009 2681 
L 2828 2375 
L 1778 3009 
L 1778 1831 
L 1422 1831 
L 1422 3009 
L 372 2375 
L 191 2681 
L 1313 3291 
L 191 3897 
L 372 4206 
L 1422 3572 
L 1422 4750 
L 1778 4750 
L 1778 3572 
L 2828 4206 
L 3009 3897 
z
" transform="scale(0.015625)"/>
      <path id="DejaVuSans-3d" d="M 678 2906 
L 4684 2906 
L 4684 2381 
L 678 2381 
L 678 2906 
z
M 678 1631 
L 4684 1631 
L 4684 1100 
L 678 1100 
L 678 1631 
z
" transform="scale(0.015625)"/>
      <path id="DejaVuSans-2e" d="M 684 794 
L 1344 794 
L 1344 0 
L 684 0 
L 684 794 
z
" transform="scale(0.015625)"/>
     </defs>
     <use xlink:href="#DejaVuSans-52" transform="translate(0 0.765625)"/>
     <use xlink:href="#DejaVuSans-65" transform="translate(69.482422 0.765625)"/>
     <use xlink:href="#DejaVuSans-64" transform="translate(131.005859 0.765625)"/>
     <use xlink:href="#DejaVuSans-75" transform="translate(194.482422 0.765625)"/>
     <use xlink:href="#DejaVuSans-63" transform="translate(257.861328 0.765625)"/>
     <use xlink:href="#DejaVuSans-65" transform="translate(312.841797 0.765625)"/>
     <use xlink:href="#DejaVuSans-64" transform="translate(374.365234 0.765625)"/>
     <use xlink:href="#DejaVuSans-20" transform="translate(437.841797 0.765625)"/>
     <use xlink:href="#DejaVuSans-54" transform="translate(469.628906 0.765625)"/>
     <use xlink:href="#DejaVuSans-65" transform="translate(530.712891 0.765625)"/>
     <use xlink:href="#DejaVuSans-6d" transform="translate(592.236328 0.765625)"/>
     <use xlink:href="#DejaVuSans-70" transform="translate(689.648438 0.765625)"/>
     <use xlink:href="#DejaVuSans-65" transform="translate(753.125 0.765625)"/>
     <use xlink:href="#DejaVuSans-72" transform="translate(814.648438 0.765625)"/>
     <use xlink:href="#DejaVuSans-61" transform="translate(855.761719 0.765625)"/>
     <use xlink:href="#DejaVuSans-74" transform="translate(917.041016 0.765625)"/>
     <use xlink:href="#DejaVuSans-75" transform="translate(956.25 0.765625)"/>
     <use xlink:href="#DejaVuSans-72" transform="translate(1019.628906 0.765625)"/>
     <use xlink:href="#DejaVuSans-65" transform="translate(1060.742188 0.765625)"/>
     <use xlink:href="#DejaVuSans-2c" transform="translate(1122.265625 0.765625)"/>
     <use xlink:href="#DejaVuSans-54" transform="translate(1154.052734 0.765625)"/>
     <use xlink:href="#DejaVuSans-2a" transform="translate(1229.731445 39.046875) scale(0.7)"/>
     <use xlink:href="#DejaVuSans-3d" transform="translate(1281.103516 0.765625)"/>
     <use xlink:href="#DejaVuSans-30" transform="translate(1364.892578 0.765625)"/>
     <use xlink:href="#DejaVuSans-2e" transform="translate(1428.515625 0.765625)"/>
     <use xlink:href="#DejaVuSans-36" transform="translate(1460.302734 0.765625)"/>
     <use xlink:href="#DejaVuSans-35" transform="translate(1523.925781 0.765625)"/>
    </g>
   </g>
  </g>
 </g>
 <defs>
  <clipPath id="peda0fdfadc">
   <rect x="57.6" y="41.472" width="357.12" height="266.112"/>
  </clipPath>
 </defs>
</svg>
