<?xml version="1.0" encoding="utf-8" standalone="no"?>
<!DOCTYPE svg PUBLIC "-//W3C//DTD SVG 1.1//EN"
  "http://www.w3.org/Graphics/SVG/1.1/DTD/svg11.dtd">
<svg xmlns:xlink="http://www.w3.org/1999/xlink" width="460.8pt" height="345.6pt" viewBox="0 0 460.8 345.6" xmlns="http://www.w3.org/2000/svg" version="1.1">
 <metadata>
  <rdf:RDF xmlns:dc="http://purl.org/dc/elements/1.1/" xmlns:cc="http://creativecommons.org/ns#" xmlns:rdf="http://www.w3.org/1999/02/22-rdf-syntax-ns#">
   <cc:Work>
    <dc:type rdf:resource="http://purl.org/dc/dcmitype/StillImage"/>
    <dc:date>2024-03-10T00:31:28.216746</dc:date>
    <dc:format>image/svg+xml</dc:format>
    <dc:creator>
     <cc:Agent>
      <dc:title>Matplotlib v3.8.3, https://matplotlib.org/</dc:title>
     </cc:Agent>
    </dc:creator>
   </cc:Work>
  </rdf:RDF>
 </metadata>
 <defs>
  <style type="text/css">*{stroke-linejoin: round; stroke-linecap: butt}</style>
 </defs>
 <g id="figure_1">
  <g id="patch_1">
   <path d="M 0 345.6 
L 460.8 345.6 
L 460.8 0 
L 0 0 
z
" style="fill: #ffffff"/>
  </g>
  <g id="axes_1">
   <g id="patch_2">
    <path d="M 57.6 307.584 
L 414.72 307.584 
L 414.72 41.472 
L 57.6 41.472 
z
" style="fill: #ffffff"/>
   </g>
   <g id="matplotlib.axis_1">
    <g id="xtick_1">
     <g id="line2d_1">
      <defs>
       <path id="m42debc6d73" d="M 0 0 
L 0 3.5 
" style="stroke: #000000; stroke-width: 0.8"/>
      </defs>
      <g>
       <use xlink:href="#m42debc6d73" x="81.408" y="307.584" style="stroke: #000000; stroke-width: 0.8"/>
      </g>
     </g>
     <g id="text_1">
      <!-- 0.2 -->
      <g transform="translate(73.456438 322.182437) scale(0.1 -0.1)">
       <defs>
        <path id="DejaVuSans-30" d="M 2034 4250 
Q 1547 4250 1301 3770 
Q 1056 3291 1056 2328 
Q 1056 1369 1301 889 
Q 1547 409 2034 409 
Q 2525 409 2770 889 
Q 3016 1369 3016 2328 
Q 3016 3291 2770 3770 
Q 2525 4250 2034 4250 
z
M 2034 4750 
Q 2819 4750 3233 4129 
Q 3647 3509 3647 2328 
Q 3647 1150 3233 529 
Q 2819 -91 2034 -91 
Q 1250 -91 836 529 
Q 422 1150 422 2328 
Q 422 3509 836 4129 
Q 1250 4750 2034 4750 
z
" transform="scale(0.015625)"/>
        <path id="DejaVuSans-2e" d="M 684 794 
L 1344 794 
L 1344 0 
L 684 0 
L 684 794 
z
" transform="scale(0.015625)"/>
        <path id="DejaVuSans-32" d="M 1228 531 
L 3431 531 
L 3431 0 
L 469 0 
L 469 531 
Q 828 903 1448 1529 
Q 2069 2156 2228 2338 
Q 2531 2678 2651 2914 
Q 2772 3150 2772 3378 
Q 2772 3750 2511 3984 
Q 2250 4219 1831 4219 
Q 1534 4219 1204 4116 
Q 875 4013 500 3803 
L 500 4441 
Q 881 4594 1212 4672 
Q 1544 4750 1819 4750 
Q 2544 4750 2975 4387 
Q 3406 4025 3406 3419 
Q 3406 3131 3298 2873 
Q 3191 2616 2906 2266 
Q 2828 2175 2409 1742 
Q 1991 1309 1228 531 
z
" transform="scale(0.015625)"/>
       </defs>
       <use xlink:href="#DejaVuSans-30"/>
       <use xlink:href="#DejaVuSans-2e" x="63.623047"/>
       <use xlink:href="#DejaVuSans-32" x="95.410156"/>
      </g>
     </g>
    </g>
    <g id="xtick_2">
     <g id="line2d_2">
      <g>
       <use xlink:href="#m42debc6d73" x="129.024" y="307.584" style="stroke: #000000; stroke-width: 0.8"/>
      </g>
     </g>
     <g id="text_2">
      <!-- 0.4 -->
      <g transform="translate(121.072438 322.182437) scale(0.1 -0.1)">
       <defs>
        <path id="DejaVuSans-34" d="M 2419 4116 
L 825 1625 
L 2419 1625 
L 2419 4116 
z
M 2253 4666 
L 3047 4666 
L 3047 1625 
L 3713 1625 
L 3713 1100 
L 3047 1100 
L 3047 0 
L 2419 0 
L 2419 1100 
L 313 1100 
L 313 1709 
L 2253 4666 
z
" transform="scale(0.015625)"/>
       </defs>
       <use xlink:href="#DejaVuSans-30"/>
       <use xlink:href="#DejaVuSans-2e" x="63.623047"/>
       <use xlink:href="#DejaVuSans-34" x="95.410156"/>
      </g>
     </g>
    </g>
    <g id="xtick_3">
     <g id="line2d_3">
      <g>
       <use xlink:href="#m42debc6d73" x="176.64" y="307.584" style="stroke: #000000; stroke-width: 0.8"/>
      </g>
     </g>
     <g id="text_3">
      <!-- 0.6 -->
      <g transform="translate(168.688438 322.182437) scale(0.1 -0.1)">
       <defs>
        <path id="DejaVuSans-36" d="M 2113 2584 
Q 1688 2584 1439 2293 
Q 1191 2003 1191 1497 
Q 1191 994 1439 701 
Q 1688 409 2113 409 
Q 2538 409 2786 701 
Q 3034 994 3034 1497 
Q 3034 2003 2786 2293 
Q 2538 2584 2113 2584 
z
M 3366 4563 
L 3366 3988 
Q 3128 4100 2886 4159 
Q 2644 4219 2406 4219 
Q 1781 4219 1451 3797 
Q 1122 3375 1075 2522 
Q 1259 2794 1537 2939 
Q 1816 3084 2150 3084 
Q 2853 3084 3261 2657 
Q 3669 2231 3669 1497 
Q 3669 778 3244 343 
Q 2819 -91 2113 -91 
Q 1303 -91 875 529 
Q 447 1150 447 2328 
Q 447 3434 972 4092 
Q 1497 4750 2381 4750 
Q 2619 4750 2861 4703 
Q 3103 4656 3366 4563 
z
" transform="scale(0.015625)"/>
       </defs>
       <use xlink:href="#DejaVuSans-30"/>
       <use xlink:href="#DejaVuSans-2e" x="63.623047"/>
       <use xlink:href="#DejaVuSans-36" x="95.410156"/>
      </g>
     </g>
    </g>
    <g id="xtick_4">
     <g id="line2d_4">
      <g>
       <use xlink:href="#m42debc6d73" x="224.256" y="307.584" style="stroke: #000000; stroke-width: 0.8"/>
      </g>
     </g>
     <g id="text_4">
      <!-- 0.8 -->
      <g transform="translate(216.304438 322.182437) scale(0.1 -0.1)">
       <defs>
        <path id="DejaVuSans-38" d="M 2034 2216 
Q 1584 2216 1326 1975 
Q 1069 1734 1069 1313 
Q 1069 891 1326 650 
Q 1584 409 2034 409 
Q 2484 409 2743 651 
Q 3003 894 3003 1313 
Q 3003 1734 2745 1975 
Q 2488 2216 2034 2216 
z
M 1403 2484 
Q 997 2584 770 2862 
Q 544 3141 544 3541 
Q 544 4100 942 4425 
Q 1341 4750 2034 4750 
Q 2731 4750 3128 4425 
Q 3525 4100 3525 3541 
Q 3525 3141 3298 2862 
Q 3072 2584 2669 2484 
Q 3125 2378 3379 2068 
Q 3634 1759 3634 1313 
Q 3634 634 3220 271 
Q 2806 -91 2034 -91 
Q 1263 -91 848 271 
Q 434 634 434 1313 
Q 434 1759 690 2068 
Q 947 2378 1403 2484 
z
M 1172 3481 
Q 1172 3119 1398 2916 
Q 1625 2713 2034 2713 
Q 2441 2713 2670 2916 
Q 2900 3119 2900 3481 
Q 2900 3844 2670 4047 
Q 2441 4250 2034 4250 
Q 1625 4250 1398 4047 
Q 1172 3844 1172 3481 
z
" transform="scale(0.015625)"/>
       </defs>
       <use xlink:href="#DejaVuSans-30"/>
       <use xlink:href="#DejaVuSans-2e" x="63.623047"/>
       <use xlink:href="#DejaVuSans-38" x="95.410156"/>
      </g>
     </g>
    </g>
    <g id="xtick_5">
     <g id="line2d_5">
      <g>
       <use xlink:href="#m42debc6d73" x="271.872" y="307.584" style="stroke: #000000; stroke-width: 0.8"/>
      </g>
     </g>
     <g id="text_5">
      <!-- 1.0 -->
      <g transform="translate(263.920437 322.182437) scale(0.1 -0.1)">
       <defs>
        <path id="DejaVuSans-31" d="M 794 531 
L 1825 531 
L 1825 4091 
L 703 3866 
L 703 4441 
L 1819 4666 
L 2450 4666 
L 2450 531 
L 3481 531 
L 3481 0 
L 794 0 
L 794 531 
z
" transform="scale(0.015625)"/>
       </defs>
       <use xlink:href="#DejaVuSans-31"/>
       <use xlink:href="#DejaVuSans-2e" x="63.623047"/>
       <use xlink:href="#DejaVuSans-30" x="95.410156"/>
      </g>
     </g>
    </g>
    <g id="xtick_6">
     <g id="line2d_6">
      <g>
       <use xlink:href="#m42debc6d73" x="319.488" y="307.584" style="stroke: #000000; stroke-width: 0.8"/>
      </g>
     </g>
     <g id="text_6">
      <!-- 1.2 -->
      <g transform="translate(311.536438 322.182437) scale(0.1 -0.1)">
       <use xlink:href="#DejaVuSans-31"/>
       <use xlink:href="#DejaVuSans-2e" x="63.623047"/>
       <use xlink:href="#DejaVuSans-32" x="95.410156"/>
      </g>
     </g>
    </g>
    <g id="xtick_7">
     <g id="line2d_7">
      <g>
       <use xlink:href="#m42debc6d73" x="367.104" y="307.584" style="stroke: #000000; stroke-width: 0.8"/>
      </g>
     </g>
     <g id="text_7">
      <!-- 1.4 -->
      <g transform="translate(359.152438 322.182437) scale(0.1 -0.1)">
       <use xlink:href="#DejaVuSans-31"/>
       <use xlink:href="#DejaVuSans-2e" x="63.623047"/>
       <use xlink:href="#DejaVuSans-34" x="95.410156"/>
      </g>
     </g>
    </g>
    <g id="xtick_8">
     <g id="line2d_8">
      <g>
       <use xlink:href="#m42debc6d73" x="414.72" y="307.584" style="stroke: #000000; stroke-width: 0.8"/>
      </g>
     </g>
     <g id="text_8">
      <!-- 1.6 -->
      <g transform="translate(406.768438 322.182437) scale(0.1 -0.1)">
       <use xlink:href="#DejaVuSans-31"/>
       <use xlink:href="#DejaVuSans-2e" x="63.623047"/>
       <use xlink:href="#DejaVuSans-36" x="95.410156"/>
      </g>
     </g>
    </g>
    <g id="text_9">
     <!-- Reduced Tempetature, T$^*$ -->
     <g transform="translate(170.61 337.362125) scale(0.1 -0.1)">
      <defs>
       <path id="DejaVuSans-52" d="M 2841 2188 
Q 3044 2119 3236 1894 
Q 3428 1669 3622 1275 
L 4263 0 
L 3584 0 
L 2988 1197 
Q 2756 1666 2539 1819 
Q 2322 1972 1947 1972 
L 1259 1972 
L 1259 0 
L 628 0 
L 628 4666 
L 2053 4666 
Q 2853 4666 3247 4331 
Q 3641 3997 3641 3322 
Q 3641 2881 3436 2590 
Q 3231 2300 2841 2188 
z
M 1259 4147 
L 1259 2491 
L 2053 2491 
Q 2509 2491 2742 2702 
Q 2975 2913 2975 3322 
Q 2975 3731 2742 3939 
Q 2509 4147 2053 4147 
L 1259 4147 
z
" transform="scale(0.015625)"/>
       <path id="DejaVuSans-65" d="M 3597 1894 
L 3597 1613 
L 953 1613 
Q 991 1019 1311 708 
Q 1631 397 2203 397 
Q 2534 397 2845 478 
Q 3156 559 3463 722 
L 3463 178 
Q 3153 47 2828 -22 
Q 2503 -91 2169 -91 
Q 1331 -91 842 396 
Q 353 884 353 1716 
Q 353 2575 817 3079 
Q 1281 3584 2069 3584 
Q 2775 3584 3186 3129 
Q 3597 2675 3597 1894 
z
M 3022 2063 
Q 3016 2534 2758 2815 
Q 2500 3097 2075 3097 
Q 1594 3097 1305 2825 
Q 1016 2553 972 2059 
L 3022 2063 
z
" transform="scale(0.015625)"/>
       <path id="DejaVuSans-64" d="M 2906 2969 
L 2906 4863 
L 3481 4863 
L 3481 0 
L 2906 0 
L 2906 525 
Q 2725 213 2448 61 
Q 2172 -91 1784 -91 
Q 1150 -91 751 415 
Q 353 922 353 1747 
Q 353 2572 751 3078 
Q 1150 3584 1784 3584 
Q 2172 3584 2448 3432 
Q 2725 3281 2906 2969 
z
M 947 1747 
Q 947 1113 1208 752 
Q 1469 391 1925 391 
Q 2381 391 2643 752 
Q 2906 1113 2906 1747 
Q 2906 2381 2643 2742 
Q 2381 3103 1925 3103 
Q 1469 3103 1208 2742 
Q 947 2381 947 1747 
z
" transform="scale(0.015625)"/>
       <path id="DejaVuSans-75" d="M 544 1381 
L 544 3500 
L 1119 3500 
L 1119 1403 
Q 1119 906 1312 657 
Q 1506 409 1894 409 
Q 2359 409 2629 706 
Q 2900 1003 2900 1516 
L 2900 3500 
L 3475 3500 
L 3475 0 
L 2900 0 
L 2900 538 
Q 2691 219 2414 64 
Q 2138 -91 1772 -91 
Q 1169 -91 856 284 
Q 544 659 544 1381 
z
M 1991 3584 
L 1991 3584 
z
" transform="scale(0.015625)"/>
       <path id="DejaVuSans-63" d="M 3122 3366 
L 3122 2828 
Q 2878 2963 2633 3030 
Q 2388 3097 2138 3097 
Q 1578 3097 1268 2742 
Q 959 2388 959 1747 
Q 959 1106 1268 751 
Q 1578 397 2138 397 
Q 2388 397 2633 464 
Q 2878 531 3122 666 
L 3122 134 
Q 2881 22 2623 -34 
Q 2366 -91 2075 -91 
Q 1284 -91 818 406 
Q 353 903 353 1747 
Q 353 2603 823 3093 
Q 1294 3584 2113 3584 
Q 2378 3584 2631 3529 
Q 2884 3475 3122 3366 
z
" transform="scale(0.015625)"/>
       <path id="DejaVuSans-20" transform="scale(0.015625)"/>
       <path id="DejaVuSans-54" d="M -19 4666 
L 3928 4666 
L 3928 4134 
L 2272 4134 
L 2272 0 
L 1638 0 
L 1638 4134 
L -19 4134 
L -19 4666 
z
" transform="scale(0.015625)"/>
       <path id="DejaVuSans-6d" d="M 3328 2828 
Q 3544 3216 3844 3400 
Q 4144 3584 4550 3584 
Q 5097 3584 5394 3201 
Q 5691 2819 5691 2113 
L 5691 0 
L 5113 0 
L 5113 2094 
Q 5113 2597 4934 2840 
Q 4756 3084 4391 3084 
Q 3944 3084 3684 2787 
Q 3425 2491 3425 1978 
L 3425 0 
L 2847 0 
L 2847 2094 
Q 2847 2600 2669 2842 
Q 2491 3084 2119 3084 
Q 1678 3084 1418 2786 
Q 1159 2488 1159 1978 
L 1159 0 
L 581 0 
L 581 3500 
L 1159 3500 
L 1159 2956 
Q 1356 3278 1631 3431 
Q 1906 3584 2284 3584 
Q 2666 3584 2933 3390 
Q 3200 3197 3328 2828 
z
" transform="scale(0.015625)"/>
       <path id="DejaVuSans-70" d="M 1159 525 
L 1159 -1331 
L 581 -1331 
L 581 3500 
L 1159 3500 
L 1159 2969 
Q 1341 3281 1617 3432 
Q 1894 3584 2278 3584 
Q 2916 3584 3314 3078 
Q 3713 2572 3713 1747 
Q 3713 922 3314 415 
Q 2916 -91 2278 -91 
Q 1894 -91 1617 61 
Q 1341 213 1159 525 
z
M 3116 1747 
Q 3116 2381 2855 2742 
Q 2594 3103 2138 3103 
Q 1681 3103 1420 2742 
Q 1159 2381 1159 1747 
Q 1159 1113 1420 752 
Q 1681 391 2138 391 
Q 2594 391 2855 752 
Q 3116 1113 3116 1747 
z
" transform="scale(0.015625)"/>
       <path id="DejaVuSans-74" d="M 1172 4494 
L 1172 3500 
L 2356 3500 
L 2356 3053 
L 1172 3053 
L 1172 1153 
Q 1172 725 1289 603 
Q 1406 481 1766 481 
L 2356 481 
L 2356 0 
L 1766 0 
Q 1100 0 847 248 
Q 594 497 594 1153 
L 594 3053 
L 172 3053 
L 172 3500 
L 594 3500 
L 594 4494 
L 1172 4494 
z
" transform="scale(0.015625)"/>
       <path id="DejaVuSans-61" d="M 2194 1759 
Q 1497 1759 1228 1600 
Q 959 1441 959 1056 
Q 959 750 1161 570 
Q 1363 391 1709 391 
Q 2188 391 2477 730 
Q 2766 1069 2766 1631 
L 2766 1759 
L 2194 1759 
z
M 3341 1997 
L 3341 0 
L 2766 0 
L 2766 531 
Q 2569 213 2275 61 
Q 1981 -91 1556 -91 
Q 1019 -91 701 211 
Q 384 513 384 1019 
Q 384 1609 779 1909 
Q 1175 2209 1959 2209 
L 2766 2209 
L 2766 2266 
Q 2766 2663 2505 2880 
Q 2244 3097 1772 3097 
Q 1472 3097 1187 3025 
Q 903 2953 641 2809 
L 641 3341 
Q 956 3463 1253 3523 
Q 1550 3584 1831 3584 
Q 2591 3584 2966 3190 
Q 3341 2797 3341 1997 
z
" transform="scale(0.015625)"/>
       <path id="DejaVuSans-72" d="M 2631 2963 
Q 2534 3019 2420 3045 
Q 2306 3072 2169 3072 
Q 1681 3072 1420 2755 
Q 1159 2438 1159 1844 
L 1159 0 
L 581 0 
L 581 3500 
L 1159 3500 
L 1159 2956 
Q 1341 3275 1631 3429 
Q 1922 3584 2338 3584 
Q 2397 3584 2469 3576 
Q 2541 3569 2628 3553 
L 2631 2963 
z
" transform="scale(0.015625)"/>
       <path id="DejaVuSans-2c" d="M 750 794 
L 1409 794 
L 1409 256 
L 897 -744 
L 494 -744 
L 750 256 
L 750 794 
z
" transform="scale(0.015625)"/>
       <path id="DejaVuSans-2a" d="M 3009 3897 
L 1888 3291 
L 3009 2681 
L 2828 2375 
L 1778 3009 
L 1778 1831 
L 1422 1831 
L 1422 3009 
L 372 2375 
L 191 2681 
L 1313 3291 
L 191 3897 
L 372 4206 
L 1422 3572 
L 1422 4750 
L 1778 4750 
L 1778 3572 
L 2828 4206 
L 3009 3897 
z
" transform="scale(0.015625)"/>
      </defs>
      <use xlink:href="#DejaVuSans-52" transform="translate(0 0.765625)"/>
      <use xlink:href="#DejaVuSans-65" transform="translate(69.482422 0.765625)"/>
      <use xlink:href="#DejaVuSans-64" transform="translate(131.005859 0.765625)"/>
      <use xlink:href="#DejaVuSans-75" transform="translate(194.482422 0.765625)"/>
      <use xlink:href="#DejaVuSans-63" transform="translate(257.861328 0.765625)"/>
      <use xlink:href="#DejaVuSans-65" transform="translate(312.841797 0.765625)"/>
      <use xlink:href="#DejaVuSans-64" transform="translate(374.365234 0.765625)"/>
      <use xlink:href="#DejaVuSans-20" transform="translate(437.841797 0.765625)"/>
      <use xlink:href="#DejaVuSans-54" transform="translate(469.628906 0.765625)"/>
      <use xlink:href="#DejaVuSans-65" transform="translate(530.712891 0.765625)"/>
      <use xlink:href="#DejaVuSans-6d" transform="translate(592.236328 0.765625)"/>
      <use xlink:href="#DejaVuSans-70" transform="translate(689.648438 0.765625)"/>
      <use xlink:href="#DejaVuSans-65" transform="translate(753.125 0.765625)"/>
      <use xlink:href="#DejaVuSans-74" transform="translate(814.648438 0.765625)"/>
      <use xlink:href="#DejaVuSans-61" transform="translate(853.857422 0.765625)"/>
      <use xlink:href="#DejaVuSans-74" transform="translate(915.136719 0.765625)"/>
      <use xlink:href="#DejaVuSans-75" transform="translate(954.345703 0.765625)"/>
      <use xlink:href="#DejaVuSans-72" transform="translate(1017.724609 0.765625)"/>
      <use xlink:href="#DejaVuSans-65" transform="translate(1058.837891 0.765625)"/>
      <use xlink:href="#DejaVuSans-2c" transform="translate(1120.361328 0.765625)"/>
      <use xlink:href="#DejaVuSans-20" transform="translate(1152.148438 0.765625)"/>
      <use xlink:href="#DejaVuSans-54" transform="translate(1183.935547 0.765625)"/>
      <use xlink:href="#DejaVuSans-2a" transform="translate(1259.614258 39.046875) scale(0.7)"/>
     </g>
    </g>
   </g>
   <g id="matplotlib.axis_2">
    <g id="ytick_1">
     <g id="line2d_9">
      <defs>
       <path id="m8189dc672d" d="M 0 0 
L -3.5 0 
" style="stroke: #000000; stroke-width: 0.8"/>
      </defs>
      <g>
       <use xlink:href="#m8189dc672d" x="57.6" y="307.584" style="stroke: #000000; stroke-width: 0.8"/>
      </g>
     </g>
     <g id="text_10">
      <!-- 0.0 -->
      <g transform="translate(34.696875 311.383219) scale(0.1 -0.1)">
       <use xlink:href="#DejaVuSans-30"/>
       <use xlink:href="#DejaVuSans-2e" x="63.623047"/>
       <use xlink:href="#DejaVuSans-30" x="95.410156"/>
      </g>
     </g>
    </g>
    <g id="ytick_2">
     <g id="line2d_10">
      <g>
       <use xlink:href="#m8189dc672d" x="57.6" y="254.3616" style="stroke: #000000; stroke-width: 0.8"/>
      </g>
     </g>
     <g id="text_11">
      <!-- 0.2 -->
      <g transform="translate(34.696875 258.160819) scale(0.1 -0.1)">
       <use xlink:href="#DejaVuSans-30"/>
       <use xlink:href="#DejaVuSans-2e" x="63.623047"/>
       <use xlink:href="#DejaVuSans-32" x="95.410156"/>
      </g>
     </g>
    </g>
    <g id="ytick_3">
     <g id="line2d_11">
      <g>
       <use xlink:href="#m8189dc672d" x="57.6" y="201.1392" style="stroke: #000000; stroke-width: 0.8"/>
      </g>
     </g>
     <g id="text_12">
      <!-- 0.4 -->
      <g transform="translate(34.696875 204.938419) scale(0.1 -0.1)">
       <use xlink:href="#DejaVuSans-30"/>
       <use xlink:href="#DejaVuSans-2e" x="63.623047"/>
       <use xlink:href="#DejaVuSans-34" x="95.410156"/>
      </g>
     </g>
    </g>
    <g id="ytick_4">
     <g id="line2d_12">
      <g>
       <use xlink:href="#m8189dc672d" x="57.6" y="147.9168" style="stroke: #000000; stroke-width: 0.8"/>
      </g>
     </g>
     <g id="text_13">
      <!-- 0.6 -->
      <g transform="translate(34.696875 151.716019) scale(0.1 -0.1)">
       <use xlink:href="#DejaVuSans-30"/>
       <use xlink:href="#DejaVuSans-2e" x="63.623047"/>
       <use xlink:href="#DejaVuSans-36" x="95.410156"/>
      </g>
     </g>
    </g>
    <g id="ytick_5">
     <g id="line2d_13">
      <g>
       <use xlink:href="#m8189dc672d" x="57.6" y="94.6944" style="stroke: #000000; stroke-width: 0.8"/>
      </g>
     </g>
     <g id="text_14">
      <!-- 0.8 -->
      <g transform="translate(34.696875 98.493619) scale(0.1 -0.1)">
       <use xlink:href="#DejaVuSans-30"/>
       <use xlink:href="#DejaVuSans-2e" x="63.623047"/>
       <use xlink:href="#DejaVuSans-38" x="95.410156"/>
      </g>
     </g>
    </g>
    <g id="ytick_6">
     <g id="line2d_14">
      <g>
       <use xlink:href="#m8189dc672d" x="57.6" y="41.472" style="stroke: #000000; stroke-width: 0.8"/>
      </g>
     </g>
     <g id="text_15">
      <!-- 1.0 -->
      <g transform="translate(34.696875 45.271219) scale(0.1 -0.1)">
       <use xlink:href="#DejaVuSans-31"/>
       <use xlink:href="#DejaVuSans-2e" x="63.623047"/>
       <use xlink:href="#DejaVuSans-30" x="95.410156"/>
      </g>
     </g>
    </g>
    <g id="text_16">
     <!-- Order Parameter,&lt;S&gt; -->
     <g transform="translate(28.617187 229.482687) rotate(-90) scale(0.1 -0.1)">
      <defs>
       <path id="DejaVuSans-4f" d="M 2522 4238 
Q 1834 4238 1429 3725 
Q 1025 3213 1025 2328 
Q 1025 1447 1429 934 
Q 1834 422 2522 422 
Q 3209 422 3611 934 
Q 4013 1447 4013 2328 
Q 4013 3213 3611 3725 
Q 3209 4238 2522 4238 
z
M 2522 4750 
Q 3503 4750 4090 4092 
Q 4678 3434 4678 2328 
Q 4678 1225 4090 567 
Q 3503 -91 2522 -91 
Q 1538 -91 948 565 
Q 359 1222 359 2328 
Q 359 3434 948 4092 
Q 1538 4750 2522 4750 
z
" transform="scale(0.015625)"/>
       <path id="DejaVuSans-50" d="M 1259 4147 
L 1259 2394 
L 2053 2394 
Q 2494 2394 2734 2622 
Q 2975 2850 2975 3272 
Q 2975 3691 2734 3919 
Q 2494 4147 2053 4147 
L 1259 4147 
z
M 628 4666 
L 2053 4666 
Q 2838 4666 3239 4311 
Q 3641 3956 3641 3272 
Q 3641 2581 3239 2228 
Q 2838 1875 2053 1875 
L 1259 1875 
L 1259 0 
L 628 0 
L 628 4666 
z
" transform="scale(0.015625)"/>
       <path id="DejaVuSans-3c" d="M 4684 3150 
L 1459 2003 
L 4684 863 
L 4684 294 
L 678 1747 
L 678 2266 
L 4684 3719 
L 4684 3150 
z
" transform="scale(0.015625)"/>
       <path id="DejaVuSans-53" d="M 3425 4513 
L 3425 3897 
Q 3066 4069 2747 4153 
Q 2428 4238 2131 4238 
Q 1616 4238 1336 4038 
Q 1056 3838 1056 3469 
Q 1056 3159 1242 3001 
Q 1428 2844 1947 2747 
L 2328 2669 
Q 3034 2534 3370 2195 
Q 3706 1856 3706 1288 
Q 3706 609 3251 259 
Q 2797 -91 1919 -91 
Q 1588 -91 1214 -16 
Q 841 59 441 206 
L 441 856 
Q 825 641 1194 531 
Q 1563 422 1919 422 
Q 2459 422 2753 634 
Q 3047 847 3047 1241 
Q 3047 1584 2836 1778 
Q 2625 1972 2144 2069 
L 1759 2144 
Q 1053 2284 737 2584 
Q 422 2884 422 3419 
Q 422 4038 858 4394 
Q 1294 4750 2059 4750 
Q 2388 4750 2728 4690 
Q 3069 4631 3425 4513 
z
" transform="scale(0.015625)"/>
       <path id="DejaVuSans-3e" d="M 678 3150 
L 678 3719 
L 4684 2266 
L 4684 1747 
L 678 294 
L 678 863 
L 3897 2003 
L 678 3150 
z
" transform="scale(0.015625)"/>
      </defs>
      <use xlink:href="#DejaVuSans-4f"/>
      <use xlink:href="#DejaVuSans-72" x="78.710938"/>
      <use xlink:href="#DejaVuSans-64" x="118.074219"/>
      <use xlink:href="#DejaVuSans-65" x="181.550781"/>
      <use xlink:href="#DejaVuSans-72" x="243.074219"/>
      <use xlink:href="#DejaVuSans-20" x="284.1875"/>
      <use xlink:href="#DejaVuSans-50" x="315.974609"/>
      <use xlink:href="#DejaVuSans-61" x="371.777344"/>
      <use xlink:href="#DejaVuSans-72" x="433.056641"/>
      <use xlink:href="#DejaVuSans-61" x="474.169922"/>
      <use xlink:href="#DejaVuSans-6d" x="535.449219"/>
      <use xlink:href="#DejaVuSans-65" x="632.861328"/>
      <use xlink:href="#DejaVuSans-74" x="694.384766"/>
      <use xlink:href="#DejaVuSans-65" x="733.59375"/>
      <use xlink:href="#DejaVuSans-72" x="795.117188"/>
      <use xlink:href="#DejaVuSans-2c" x="836.230469"/>
      <use xlink:href="#DejaVuSans-3c" x="868.017578"/>
      <use xlink:href="#DejaVuSans-53" x="951.806641"/>
      <use xlink:href="#DejaVuSans-3e" x="1015.283203"/>
     </g>
    </g>
   </g>
   <g id="LineCollection_1">
    <path d="M 57.6 61.292329 
L 57.6 35.489495 
" clip-path="url(#p62ce2130b4)" style="fill: none; stroke: #008000; stroke-width: 1.5"/>
    <path d="M 69.504 65.816233 
L 69.504 40.013399 
" clip-path="url(#p62ce2130b4)" style="fill: none; stroke: #008000; stroke-width: 1.5"/>
    <path d="M 81.408 67.146793 
L 81.408 41.343959 
" clip-path="url(#p62ce2130b4)" style="fill: none; stroke: #008000; stroke-width: 1.5"/>
    <path d="M 93.312 74.597929 
L 93.312 48.795095 
" clip-path="url(#p62ce2130b4)" style="fill: none; stroke: #008000; stroke-width: 1.5"/>
    <path d="M 105.216 74.597929 
L 105.216 48.795095 
" clip-path="url(#p62ce2130b4)" style="fill: none; stroke: #008000; stroke-width: 1.5"/>
    <path d="M 117.12 76.460713 
L 117.12 50.657879 
" clip-path="url(#p62ce2130b4)" style="fill: none; stroke: #008000; stroke-width: 1.5"/>
    <path d="M 129.024 80.186281 
L 129.024 54.383447 
" clip-path="url(#p62ce2130b4)" style="fill: none; stroke: #008000; stroke-width: 1.5"/>
    <path d="M 140.928 78.057385 
L 140.928 52.254551 
" clip-path="url(#p62ce2130b4)" style="fill: none; stroke: #008000; stroke-width: 1.5"/>
    <path d="M 152.832 96.153001 
L 152.832 70.350167 
" clip-path="url(#p62ce2130b4)" style="fill: none; stroke: #008000; stroke-width: 1.5"/>
    <path d="M 164.736 107.329705 
L 164.736 81.526871 
" clip-path="url(#p62ce2130b4)" style="fill: none; stroke: #008000; stroke-width: 1.5"/>
    <path d="M 176.64 103.338025 
L 176.64 77.535191 
" clip-path="url(#p62ce2130b4)" style="fill: none; stroke: #008000; stroke-width: 1.5"/>
    <path d="M 188.544 104.136361 
L 188.544 78.333527 
" clip-path="url(#p62ce2130b4)" style="fill: none; stroke: #008000; stroke-width: 1.5"/>
    <path d="M 200.448 104.668585 
L 200.448 78.865751 
" clip-path="url(#p62ce2130b4)" style="fill: none; stroke: #008000; stroke-width: 1.5"/>
    <path d="M 212.352 130.747561 
L 212.352 104.944727 
" clip-path="url(#p62ce2130b4)" style="fill: none; stroke: #008000; stroke-width: 1.5"/>
    <path d="M 224.256 132.876457 
L 224.256 107.073623 
" clip-path="url(#p62ce2130b4)" style="fill: none; stroke: #008000; stroke-width: 1.5"/>
    <path d="M 236.16 179.446057 
L 236.16 153.643223 
" clip-path="url(#p62ce2130b4)" style="fill: none; stroke: #008000; stroke-width: 1.5"/>
    <path d="M 248.064 203.130025 
L 248.064 177.327191 
" clip-path="url(#p62ce2130b4)" style="fill: none; stroke: #008000; stroke-width: 1.5"/>
    <path d="M 259.968 227.346217 
L 259.968 201.543383 
" clip-path="url(#p62ce2130b4)" style="fill: none; stroke: #008000; stroke-width: 1.5"/>
    <path d="M 271.872 248.635177 
L 271.872 222.832343 
" clip-path="url(#p62ce2130b4)" style="fill: none; stroke: #008000; stroke-width: 1.5"/>
    <path d="M 283.776 205.525033 
L 283.776 179.722199 
" clip-path="url(#p62ce2130b4)" style="fill: none; stroke: #008000; stroke-width: 1.5"/>
    <path d="M 295.68 244.111273 
L 295.68 218.308439 
" clip-path="url(#p62ce2130b4)" style="fill: none; stroke: #008000; stroke-width: 1.5"/>
    <path d="M 307.584 210.315049 
L 307.584 184.512215 
" clip-path="url(#p62ce2130b4)" style="fill: none; stroke: #008000; stroke-width: 1.5"/>
    <path d="M 319.488 208.718377 
L 319.488 182.915543 
" clip-path="url(#p62ce2130b4)" style="fill: none; stroke: #008000; stroke-width: 1.5"/>
    <path d="M 331.392 240.651817 
L 331.392 214.848983 
" clip-path="url(#p62ce2130b4)" style="fill: none; stroke: #008000; stroke-width: 1.5"/>
    <path d="M 343.296 239.055145 
L 343.296 213.252311 
" clip-path="url(#p62ce2130b4)" style="fill: none; stroke: #008000; stroke-width: 1.5"/>
    <path d="M 355.2 227.080105 
L 355.2 201.277271 
" clip-path="url(#p62ce2130b4)" style="fill: none; stroke: #008000; stroke-width: 1.5"/>
    <path d="M 367.104 241.982377 
L 367.104 216.179543 
" clip-path="url(#p62ce2130b4)" style="fill: none; stroke: #008000; stroke-width: 1.5"/>
    <path d="M 379.008 242.780713 
L 379.008 216.977879 
" clip-path="url(#p62ce2130b4)" style="fill: none; stroke: #008000; stroke-width: 1.5"/>
    <path d="M 390.912 240.651817 
L 390.912 214.848983 
" clip-path="url(#p62ce2130b4)" style="fill: none; stroke: #008000; stroke-width: 1.5"/>
    <path d="M 402.816 245.707945 
L 402.816 219.905111 
" clip-path="url(#p62ce2130b4)" style="fill: none; stroke: #008000; stroke-width: 1.5"/>
    <path d="M 414.72 243.312937 
L 414.72 217.510103 
" clip-path="url(#p62ce2130b4)" style="fill: none; stroke: #008000; stroke-width: 1.5"/>
   </g>
   <g id="line2d_15">
    <path d="M 57.6 48.390912 
L 69.504 52.914816 
L 81.408 54.245376 
L 93.312 61.696512 
L 105.216 61.696512 
L 117.12 63.559296 
L 129.024 67.284864 
L 140.928 65.155968 
L 152.832 83.251584 
L 164.736 94.428288 
L 176.64 90.436608 
L 188.544 91.234944 
L 200.448 91.767168 
L 212.352 117.846144 
L 224.256 119.97504 
L 236.16 166.54464 
L 248.064 190.228608 
L 259.968 214.4448 
L 271.872 235.73376 
L 283.776 192.623616 
L 295.68 231.209856 
L 307.584 197.413632 
L 319.488 195.81696 
L 331.392 227.7504 
L 343.296 226.153728 
L 355.2 214.178688 
L 367.104 229.08096 
L 379.008 229.879296 
L 390.912 227.7504 
L 402.816 232.806528 
L 414.72 230.41152 
" clip-path="url(#p62ce2130b4)" style="fill: none; stroke: #000000; stroke-width: 1.5; stroke-linecap: square"/>
    <defs>
     <path id="m3b3eaaffb8" d="M 0 3 
C 0.795609 3 1.55874 2.683901 2.12132 2.12132 
C 2.683901 1.55874 3 0.795609 3 0 
C 3 -0.795609 2.683901 -1.55874 2.12132 -2.12132 
C 1.55874 -2.683901 0.795609 -3 0 -3 
C -0.795609 -3 -1.55874 -2.683901 -2.12132 -2.12132 
C -2.683901 -1.55874 -3 -0.795609 -3 0 
C -3 0.795609 -2.683901 1.55874 -2.12132 2.12132 
C -1.55874 2.683901 -0.795609 3 0 3 
z
" style="stroke: #000000"/>
    </defs>
    <g clip-path="url(#p62ce2130b4)">
     <use xlink:href="#m3b3eaaffb8" x="57.6" y="48.390912" style="stroke: #000000"/>
     <use xlink:href="#m3b3eaaffb8" x="69.504" y="52.914816" style="stroke: #000000"/>
     <use xlink:href="#m3b3eaaffb8" x="81.408" y="54.245376" style="stroke: #000000"/>
     <use xlink:href="#m3b3eaaffb8" x="93.312" y="61.696512" style="stroke: #000000"/>
     <use xlink:href="#m3b3eaaffb8" x="105.216" y="61.696512" style="stroke: #000000"/>
     <use xlink:href="#m3b3eaaffb8" x="117.12" y="63.559296" style="stroke: #000000"/>
     <use xlink:href="#m3b3eaaffb8" x="129.024" y="67.284864" style="stroke: #000000"/>
     <use xlink:href="#m3b3eaaffb8" x="140.928" y="65.155968" style="stroke: #000000"/>
     <use xlink:href="#m3b3eaaffb8" x="152.832" y="83.251584" style="stroke: #000000"/>
     <use xlink:href="#m3b3eaaffb8" x="164.736" y="94.428288" style="stroke: #000000"/>
     <use xlink:href="#m3b3eaaffb8" x="176.64" y="90.436608" style="stroke: #000000"/>
     <use xlink:href="#m3b3eaaffb8" x="188.544" y="91.234944" style="stroke: #000000"/>
     <use xlink:href="#m3b3eaaffb8" x="200.448" y="91.767168" style="stroke: #000000"/>
     <use xlink:href="#m3b3eaaffb8" x="212.352" y="117.846144" style="stroke: #000000"/>
     <use xlink:href="#m3b3eaaffb8" x="224.256" y="119.97504" style="stroke: #000000"/>
     <use xlink:href="#m3b3eaaffb8" x="236.16" y="166.54464" style="stroke: #000000"/>
     <use xlink:href="#m3b3eaaffb8" x="248.064" y="190.228608" style="stroke: #000000"/>
     <use xlink:href="#m3b3eaaffb8" x="259.968" y="214.4448" style="stroke: #000000"/>
     <use xlink:href="#m3b3eaaffb8" x="271.872" y="235.73376" style="stroke: #000000"/>
     <use xlink:href="#m3b3eaaffb8" x="283.776" y="192.623616" style="stroke: #000000"/>
     <use xlink:href="#m3b3eaaffb8" x="295.68" y="231.209856" style="stroke: #000000"/>
     <use xlink:href="#m3b3eaaffb8" x="307.584" y="197.413632" style="stroke: #000000"/>
     <use xlink:href="#m3b3eaaffb8" x="319.488" y="195.81696" style="stroke: #000000"/>
     <use xlink:href="#m3b3eaaffb8" x="331.392" y="227.7504" style="stroke: #000000"/>
     <use xlink:href="#m3b3eaaffb8" x="343.296" y="226.153728" style="stroke: #000000"/>
     <use xlink:href="#m3b3eaaffb8" x="355.2" y="214.178688" style="stroke: #000000"/>
     <use xlink:href="#m3b3eaaffb8" x="367.104" y="229.08096" style="stroke: #000000"/>
     <use xlink:href="#m3b3eaaffb8" x="379.008" y="229.879296" style="stroke: #000000"/>
     <use xlink:href="#m3b3eaaffb8" x="390.912" y="227.7504" style="stroke: #000000"/>
     <use xlink:href="#m3b3eaaffb8" x="402.816" y="232.806528" style="stroke: #000000"/>
     <use xlink:href="#m3b3eaaffb8" x="414.72" y="230.41152" style="stroke: #000000"/>
    </g>
   </g>
   <g id="line2d_16">
    <defs>
     <path id="md82147a3f0" d="M 0 3 
C 0.795609 3 1.55874 2.683901 2.12132 2.12132 
C 2.683901 1.55874 3 0.795609 3 0 
C 3 -0.795609 2.683901 -1.55874 2.12132 -2.12132 
C 1.55874 -2.683901 0.795609 -3 0 -3 
C -0.795609 -3 -1.55874 -2.683901 -2.12132 -2.12132 
C -2.683901 -1.55874 -3 -0.795609 -3 0 
C -3 0.795609 -2.683901 1.55874 -2.12132 2.12132 
C -1.55874 2.683901 -0.795609 3 0 3 
z
" style="stroke: #008000"/>
    </defs>
    <g clip-path="url(#p62ce2130b4)">
     <use xlink:href="#md82147a3f0" x="57.6" y="48.390912" style="fill: #008000; stroke: #008000"/>
     <use xlink:href="#md82147a3f0" x="69.504" y="52.914816" style="fill: #008000; stroke: #008000"/>
     <use xlink:href="#md82147a3f0" x="81.408" y="54.245376" style="fill: #008000; stroke: #008000"/>
     <use xlink:href="#md82147a3f0" x="93.312" y="61.696512" style="fill: #008000; stroke: #008000"/>
     <use xlink:href="#md82147a3f0" x="105.216" y="61.696512" style="fill: #008000; stroke: #008000"/>
     <use xlink:href="#md82147a3f0" x="117.12" y="63.559296" style="fill: #008000; stroke: #008000"/>
     <use xlink:href="#md82147a3f0" x="129.024" y="67.284864" style="fill: #008000; stroke: #008000"/>
     <use xlink:href="#md82147a3f0" x="140.928" y="65.155968" style="fill: #008000; stroke: #008000"/>
     <use xlink:href="#md82147a3f0" x="152.832" y="83.251584" style="fill: #008000; stroke: #008000"/>
     <use xlink:href="#md82147a3f0" x="164.736" y="94.428288" style="fill: #008000; stroke: #008000"/>
     <use xlink:href="#md82147a3f0" x="176.64" y="90.436608" style="fill: #008000; stroke: #008000"/>
     <use xlink:href="#md82147a3f0" x="188.544" y="91.234944" style="fill: #008000; stroke: #008000"/>
     <use xlink:href="#md82147a3f0" x="200.448" y="91.767168" style="fill: #008000; stroke: #008000"/>
     <use xlink:href="#md82147a3f0" x="212.352" y="117.846144" style="fill: #008000; stroke: #008000"/>
     <use xlink:href="#md82147a3f0" x="224.256" y="119.97504" style="fill: #008000; stroke: #008000"/>
     <use xlink:href="#md82147a3f0" x="236.16" y="166.54464" style="fill: #008000; stroke: #008000"/>
     <use xlink:href="#md82147a3f0" x="248.064" y="190.228608" style="fill: #008000; stroke: #008000"/>
     <use xlink:href="#md82147a3f0" x="259.968" y="214.4448" style="fill: #008000; stroke: #008000"/>
     <use xlink:href="#md82147a3f0" x="271.872" y="235.73376" style="fill: #008000; stroke: #008000"/>
     <use xlink:href="#md82147a3f0" x="283.776" y="192.623616" style="fill: #008000; stroke: #008000"/>
     <use xlink:href="#md82147a3f0" x="295.68" y="231.209856" style="fill: #008000; stroke: #008000"/>
     <use xlink:href="#md82147a3f0" x="307.584" y="197.413632" style="fill: #008000; stroke: #008000"/>
     <use xlink:href="#md82147a3f0" x="319.488" y="195.81696" style="fill: #008000; stroke: #008000"/>
     <use xlink:href="#md82147a3f0" x="331.392" y="227.7504" style="fill: #008000; stroke: #008000"/>
     <use xlink:href="#md82147a3f0" x="343.296" y="226.153728" style="fill: #008000; stroke: #008000"/>
     <use xlink:href="#md82147a3f0" x="355.2" y="214.178688" style="fill: #008000; stroke: #008000"/>
     <use xlink:href="#md82147a3f0" x="367.104" y="229.08096" style="fill: #008000; stroke: #008000"/>
     <use xlink:href="#md82147a3f0" x="379.008" y="229.879296" style="fill: #008000; stroke: #008000"/>
     <use xlink:href="#md82147a3f0" x="390.912" y="227.7504" style="fill: #008000; stroke: #008000"/>
     <use xlink:href="#md82147a3f0" x="402.816" y="232.806528" style="fill: #008000; stroke: #008000"/>
     <use xlink:href="#md82147a3f0" x="414.72" y="230.41152" style="fill: #008000; stroke: #008000"/>
    </g>
   </g>
   <g id="patch_3">
    <path d="M 57.6 307.584 
L 57.6 41.472 
" style="fill: none; stroke: #000000; stroke-width: 0.8; stroke-linejoin: miter; stroke-linecap: square"/>
   </g>
   <g id="patch_4">
    <path d="M 414.72 307.584 
L 414.72 41.472 
" style="fill: none; stroke: #000000; stroke-width: 0.8; stroke-linejoin: miter; stroke-linecap: square"/>
   </g>
   <g id="patch_5">
    <path d="M 57.6 307.584 
L 414.72 307.584 
" style="fill: none; stroke: #000000; stroke-width: 0.8; stroke-linejoin: miter; stroke-linecap: square"/>
   </g>
   <g id="patch_6">
    <path d="M 57.6 41.472 
L 414.72 41.472 
" style="fill: none; stroke: #000000; stroke-width: 0.8; stroke-linejoin: miter; stroke-linecap: square"/>
   </g>
   <g id="text_17">
    <!-- 20 x 20 Lebwohl-Lasher model -->
    <g transform="translate(143.97 35.472) scale(0.12 -0.12)">
     <defs>
      <path id="DejaVuSans-78" d="M 3513 3500 
L 2247 1797 
L 3578 0 
L 2900 0 
L 1881 1375 
L 863 0 
L 184 0 
L 1544 1831 
L 300 3500 
L 978 3500 
L 1906 2253 
L 2834 3500 
L 3513 3500 
z
" transform="scale(0.015625)"/>
      <path id="DejaVuSans-4c" d="M 628 4666 
L 1259 4666 
L 1259 531 
L 3531 531 
L 3531 0 
L 628 0 
L 628 4666 
z
" transform="scale(0.015625)"/>
      <path id="DejaVuSans-62" d="M 3116 1747 
Q 3116 2381 2855 2742 
Q 2594 3103 2138 3103 
Q 1681 3103 1420 2742 
Q 1159 2381 1159 1747 
Q 1159 1113 1420 752 
Q 1681 391 2138 391 
Q 2594 391 2855 752 
Q 3116 1113 3116 1747 
z
M 1159 2969 
Q 1341 3281 1617 3432 
Q 1894 3584 2278 3584 
Q 2916 3584 3314 3078 
Q 3713 2572 3713 1747 
Q 3713 922 3314 415 
Q 2916 -91 2278 -91 
Q 1894 -91 1617 61 
Q 1341 213 1159 525 
L 1159 0 
L 581 0 
L 581 4863 
L 1159 4863 
L 1159 2969 
z
" transform="scale(0.015625)"/>
      <path id="DejaVuSans-77" d="M 269 3500 
L 844 3500 
L 1563 769 
L 2278 3500 
L 2956 3500 
L 3675 769 
L 4391 3500 
L 4966 3500 
L 4050 0 
L 3372 0 
L 2619 2869 
L 1863 0 
L 1184 0 
L 269 3500 
z
" transform="scale(0.015625)"/>
      <path id="DejaVuSans-6f" d="M 1959 3097 
Q 1497 3097 1228 2736 
Q 959 2375 959 1747 
Q 959 1119 1226 758 
Q 1494 397 1959 397 
Q 2419 397 2687 759 
Q 2956 1122 2956 1747 
Q 2956 2369 2687 2733 
Q 2419 3097 1959 3097 
z
M 1959 3584 
Q 2709 3584 3137 3096 
Q 3566 2609 3566 1747 
Q 3566 888 3137 398 
Q 2709 -91 1959 -91 
Q 1206 -91 779 398 
Q 353 888 353 1747 
Q 353 2609 779 3096 
Q 1206 3584 1959 3584 
z
" transform="scale(0.015625)"/>
      <path id="DejaVuSans-68" d="M 3513 2113 
L 3513 0 
L 2938 0 
L 2938 2094 
Q 2938 2591 2744 2837 
Q 2550 3084 2163 3084 
Q 1697 3084 1428 2787 
Q 1159 2491 1159 1978 
L 1159 0 
L 581 0 
L 581 4863 
L 1159 4863 
L 1159 2956 
Q 1366 3272 1645 3428 
Q 1925 3584 2291 3584 
Q 2894 3584 3203 3211 
Q 3513 2838 3513 2113 
z
" transform="scale(0.015625)"/>
      <path id="DejaVuSans-6c" d="M 603 4863 
L 1178 4863 
L 1178 0 
L 603 0 
L 603 4863 
z
" transform="scale(0.015625)"/>
      <path id="DejaVuSans-2d" d="M 313 2009 
L 1997 2009 
L 1997 1497 
L 313 1497 
L 313 2009 
z
" transform="scale(0.015625)"/>
      <path id="DejaVuSans-73" d="M 2834 3397 
L 2834 2853 
Q 2591 2978 2328 3040 
Q 2066 3103 1784 3103 
Q 1356 3103 1142 2972 
Q 928 2841 928 2578 
Q 928 2378 1081 2264 
Q 1234 2150 1697 2047 
L 1894 2003 
Q 2506 1872 2764 1633 
Q 3022 1394 3022 966 
Q 3022 478 2636 193 
Q 2250 -91 1575 -91 
Q 1294 -91 989 -36 
Q 684 19 347 128 
L 347 722 
Q 666 556 975 473 
Q 1284 391 1588 391 
Q 1994 391 2212 530 
Q 2431 669 2431 922 
Q 2431 1156 2273 1281 
Q 2116 1406 1581 1522 
L 1381 1569 
Q 847 1681 609 1914 
Q 372 2147 372 2553 
Q 372 3047 722 3315 
Q 1072 3584 1716 3584 
Q 2034 3584 2315 3537 
Q 2597 3491 2834 3397 
z
" transform="scale(0.015625)"/>
     </defs>
     <use xlink:href="#DejaVuSans-32"/>
     <use xlink:href="#DejaVuSans-30" x="63.623047"/>
     <use xlink:href="#DejaVuSans-20" x="127.246094"/>
     <use xlink:href="#DejaVuSans-78" x="159.033203"/>
     <use xlink:href="#DejaVuSans-20" x="218.212891"/>
     <use xlink:href="#DejaVuSans-32" x="250"/>
     <use xlink:href="#DejaVuSans-30" x="313.623047"/>
     <use xlink:href="#DejaVuSans-20" x="377.246094"/>
     <use xlink:href="#DejaVuSans-4c" x="409.033203"/>
     <use xlink:href="#DejaVuSans-65" x="462.996094"/>
     <use xlink:href="#DejaVuSans-62" x="524.519531"/>
     <use xlink:href="#DejaVuSans-77" x="587.996094"/>
     <use xlink:href="#DejaVuSans-6f" x="669.783203"/>
     <use xlink:href="#DejaVuSans-68" x="730.964844"/>
     <use xlink:href="#DejaVuSans-6c" x="794.34375"/>
     <use xlink:href="#DejaVuSans-2d" x="822.126953"/>
     <use xlink:href="#DejaVuSans-4c" x="858.210938"/>
     <use xlink:href="#DejaVuSans-61" x="913.923828"/>
     <use xlink:href="#DejaVuSans-73" x="975.203125"/>
     <use xlink:href="#DejaVuSans-68" x="1027.302734"/>
     <use xlink:href="#DejaVuSans-65" x="1090.681641"/>
     <use xlink:href="#DejaVuSans-72" x="1152.205078"/>
     <use xlink:href="#DejaVuSans-20" x="1193.318359"/>
     <use xlink:href="#DejaVuSans-6d" x="1225.105469"/>
     <use xlink:href="#DejaVuSans-6f" x="1322.517578"/>
     <use xlink:href="#DejaVuSans-64" x="1383.699219"/>
     <use xlink:href="#DejaVuSans-65" x="1447.175781"/>
     <use xlink:href="#DejaVuSans-6c" x="1508.699219"/>
    </g>
   </g>
  </g>
 </g>
 <defs>
  <clipPath id="p62ce2130b4">
   <rect x="57.6" y="41.472" width="357.12" height="266.112"/>
  </clipPath>
 </defs>
</svg>
