<?xml version="1.0" encoding="utf-8" standalone="no"?>
<!DOCTYPE svg PUBLIC "-//W3C//DTD SVG 1.1//EN"
  "http://www.w3.org/Graphics/SVG/1.1/DTD/svg11.dtd">
<svg xmlns:xlink="http://www.w3.org/1999/xlink" width="460.8pt" height="345.6pt" viewBox="0 0 460.8 345.6" xmlns="http://www.w3.org/2000/svg" version="1.1">
 <metadata>
  <rdf:RDF xmlns:dc="http://purl.org/dc/elements/1.1/" xmlns:cc="http://creativecommons.org/ns#" xmlns:rdf="http://www.w3.org/1999/02/22-rdf-syntax-ns#">
   <cc:Work>
    <dc:type rdf:resource="http://purl.org/dc/dcmitype/StillImage"/>
    <dc:date>2024-03-10T20:52:57.048593</dc:date>
    <dc:format>image/svg+xml</dc:format>
    <dc:creator>
     <cc:Agent>
      <dc:title>Matplotlib v3.8.3, https://matplotlib.org/</dc:title>
     </cc:Agent>
    </dc:creator>
   </cc:Work>
  </rdf:RDF>
 </metadata>
 <defs>
  <style type="text/css">*{stroke-linejoin: round; stroke-linecap: butt}</style>
 </defs>
 <g id="figure_1">
  <g id="patch_1">
   <path d="M 0 345.6 
L 460.8 345.6 
L 460.8 0 
L 0 0 
z
" style="fill: #ffffff"/>
  </g>
  <g id="axes_1">
   <g id="patch_2">
    <path d="M 57.6 307.584 
L 414.72 307.584 
L 414.72 41.472 
L 57.6 41.472 
z
" style="fill: #ffffff"/>
   </g>
   <g id="matplotlib.axis_1">
    <g id="xtick_1">
     <g id="line2d_1">
      <defs>
       <path id="m82582113fc" d="M 0 0 
L 0 3.5 
" style="stroke: #000000; stroke-width: 0.8"/>
      </defs>
      <g>
       <use xlink:href="#m82582113fc" x="73.832727" y="307.584" style="stroke: #000000; stroke-width: 0.8"/>
      </g>
     </g>
     <g id="text_1">
      <!-- 0 -->
      <g transform="translate(70.651477 322.182437) scale(0.1 -0.1)">
       <defs>
        <path id="DejaVuSans-30" d="M 2034 4250 
Q 1547 4250 1301 3770 
Q 1056 3291 1056 2328 
Q 1056 1369 1301 889 
Q 1547 409 2034 409 
Q 2525 409 2770 889 
Q 3016 1369 3016 2328 
Q 3016 3291 2770 3770 
Q 2525 4250 2034 4250 
z
M 2034 4750 
Q 2819 4750 3233 4129 
Q 3647 3509 3647 2328 
Q 3647 1150 3233 529 
Q 2819 -91 2034 -91 
Q 1250 -91 836 529 
Q 422 1150 422 2328 
Q 422 3509 836 4129 
Q 1250 4750 2034 4750 
z
" transform="scale(0.015625)"/>
       </defs>
       <use xlink:href="#DejaVuSans-30"/>
      </g>
     </g>
    </g>
    <g id="xtick_2">
     <g id="line2d_2">
      <g>
       <use xlink:href="#m82582113fc" x="138.763636" y="307.584" style="stroke: #000000; stroke-width: 0.8"/>
      </g>
     </g>
     <g id="text_2">
      <!-- 200 -->
      <g transform="translate(129.219886 322.182437) scale(0.1 -0.1)">
       <defs>
        <path id="DejaVuSans-32" d="M 1228 531 
L 3431 531 
L 3431 0 
L 469 0 
L 469 531 
Q 828 903 1448 1529 
Q 2069 2156 2228 2338 
Q 2531 2678 2651 2914 
Q 2772 3150 2772 3378 
Q 2772 3750 2511 3984 
Q 2250 4219 1831 4219 
Q 1534 4219 1204 4116 
Q 875 4013 500 3803 
L 500 4441 
Q 881 4594 1212 4672 
Q 1544 4750 1819 4750 
Q 2544 4750 2975 4387 
Q 3406 4025 3406 3419 
Q 3406 3131 3298 2873 
Q 3191 2616 2906 2266 
Q 2828 2175 2409 1742 
Q 1991 1309 1228 531 
z
" transform="scale(0.015625)"/>
       </defs>
       <use xlink:href="#DejaVuSans-32"/>
       <use xlink:href="#DejaVuSans-30" x="63.623047"/>
       <use xlink:href="#DejaVuSans-30" x="127.246094"/>
      </g>
     </g>
    </g>
    <g id="xtick_3">
     <g id="line2d_3">
      <g>
       <use xlink:href="#m82582113fc" x="203.694545" y="307.584" style="stroke: #000000; stroke-width: 0.8"/>
      </g>
     </g>
     <g id="text_3">
      <!-- 400 -->
      <g transform="translate(194.150795 322.182437) scale(0.1 -0.1)">
       <defs>
        <path id="DejaVuSans-34" d="M 2419 4116 
L 825 1625 
L 2419 1625 
L 2419 4116 
z
M 2253 4666 
L 3047 4666 
L 3047 1625 
L 3713 1625 
L 3713 1100 
L 3047 1100 
L 3047 0 
L 2419 0 
L 2419 1100 
L 313 1100 
L 313 1709 
L 2253 4666 
z
" transform="scale(0.015625)"/>
       </defs>
       <use xlink:href="#DejaVuSans-34"/>
       <use xlink:href="#DejaVuSans-30" x="63.623047"/>
       <use xlink:href="#DejaVuSans-30" x="127.246094"/>
      </g>
     </g>
    </g>
    <g id="xtick_4">
     <g id="line2d_4">
      <g>
       <use xlink:href="#m82582113fc" x="268.625455" y="307.584" style="stroke: #000000; stroke-width: 0.8"/>
      </g>
     </g>
     <g id="text_4">
      <!-- 600 -->
      <g transform="translate(259.081705 322.182437) scale(0.1 -0.1)">
       <defs>
        <path id="DejaVuSans-36" d="M 2113 2584 
Q 1688 2584 1439 2293 
Q 1191 2003 1191 1497 
Q 1191 994 1439 701 
Q 1688 409 2113 409 
Q 2538 409 2786 701 
Q 3034 994 3034 1497 
Q 3034 2003 2786 2293 
Q 2538 2584 2113 2584 
z
M 3366 4563 
L 3366 3988 
Q 3128 4100 2886 4159 
Q 2644 4219 2406 4219 
Q 1781 4219 1451 3797 
Q 1122 3375 1075 2522 
Q 1259 2794 1537 2939 
Q 1816 3084 2150 3084 
Q 2853 3084 3261 2657 
Q 3669 2231 3669 1497 
Q 3669 778 3244 343 
Q 2819 -91 2113 -91 
Q 1303 -91 875 529 
Q 447 1150 447 2328 
Q 447 3434 972 4092 
Q 1497 4750 2381 4750 
Q 2619 4750 2861 4703 
Q 3103 4656 3366 4563 
z
" transform="scale(0.015625)"/>
       </defs>
       <use xlink:href="#DejaVuSans-36"/>
       <use xlink:href="#DejaVuSans-30" x="63.623047"/>
       <use xlink:href="#DejaVuSans-30" x="127.246094"/>
      </g>
     </g>
    </g>
    <g id="xtick_5">
     <g id="line2d_5">
      <g>
       <use xlink:href="#m82582113fc" x="333.556364" y="307.584" style="stroke: #000000; stroke-width: 0.8"/>
      </g>
     </g>
     <g id="text_5">
      <!-- 800 -->
      <g transform="translate(324.012614 322.182437) scale(0.1 -0.1)">
       <defs>
        <path id="DejaVuSans-38" d="M 2034 2216 
Q 1584 2216 1326 1975 
Q 1069 1734 1069 1313 
Q 1069 891 1326 650 
Q 1584 409 2034 409 
Q 2484 409 2743 651 
Q 3003 894 3003 1313 
Q 3003 1734 2745 1975 
Q 2488 2216 2034 2216 
z
M 1403 2484 
Q 997 2584 770 2862 
Q 544 3141 544 3541 
Q 544 4100 942 4425 
Q 1341 4750 2034 4750 
Q 2731 4750 3128 4425 
Q 3525 4100 3525 3541 
Q 3525 3141 3298 2862 
Q 3072 2584 2669 2484 
Q 3125 2378 3379 2068 
Q 3634 1759 3634 1313 
Q 3634 634 3220 271 
Q 2806 -91 2034 -91 
Q 1263 -91 848 271 
Q 434 634 434 1313 
Q 434 1759 690 2068 
Q 947 2378 1403 2484 
z
M 1172 3481 
Q 1172 3119 1398 2916 
Q 1625 2713 2034 2713 
Q 2441 2713 2670 2916 
Q 2900 3119 2900 3481 
Q 2900 3844 2670 4047 
Q 2441 4250 2034 4250 
Q 1625 4250 1398 4047 
Q 1172 3844 1172 3481 
z
" transform="scale(0.015625)"/>
       </defs>
       <use xlink:href="#DejaVuSans-38"/>
       <use xlink:href="#DejaVuSans-30" x="63.623047"/>
       <use xlink:href="#DejaVuSans-30" x="127.246094"/>
      </g>
     </g>
    </g>
    <g id="xtick_6">
     <g id="line2d_6">
      <g>
       <use xlink:href="#m82582113fc" x="398.487273" y="307.584" style="stroke: #000000; stroke-width: 0.8"/>
      </g>
     </g>
     <g id="text_6">
      <!-- 1000 -->
      <g transform="translate(385.762273 322.182437) scale(0.1 -0.1)">
       <defs>
        <path id="DejaVuSans-31" d="M 794 531 
L 1825 531 
L 1825 4091 
L 703 3866 
L 703 4441 
L 1819 4666 
L 2450 4666 
L 2450 531 
L 3481 531 
L 3481 0 
L 794 0 
L 794 531 
z
" transform="scale(0.015625)"/>
       </defs>
       <use xlink:href="#DejaVuSans-31"/>
       <use xlink:href="#DejaVuSans-30" x="63.623047"/>
       <use xlink:href="#DejaVuSans-30" x="127.246094"/>
       <use xlink:href="#DejaVuSans-30" x="190.869141"/>
      </g>
     </g>
    </g>
    <g id="text_7">
     <!-- MCS -->
     <g transform="translate(225.180312 335.860562) scale(0.1 -0.1)">
      <defs>
       <path id="DejaVuSans-4d" d="M 628 4666 
L 1569 4666 
L 2759 1491 
L 3956 4666 
L 4897 4666 
L 4897 0 
L 4281 0 
L 4281 4097 
L 3078 897 
L 2444 897 
L 1241 4097 
L 1241 0 
L 628 0 
L 628 4666 
z
" transform="scale(0.015625)"/>
       <path id="DejaVuSans-43" d="M 4122 4306 
L 4122 3641 
Q 3803 3938 3442 4084 
Q 3081 4231 2675 4231 
Q 1875 4231 1450 3742 
Q 1025 3253 1025 2328 
Q 1025 1406 1450 917 
Q 1875 428 2675 428 
Q 3081 428 3442 575 
Q 3803 722 4122 1019 
L 4122 359 
Q 3791 134 3420 21 
Q 3050 -91 2638 -91 
Q 1578 -91 968 557 
Q 359 1206 359 2328 
Q 359 3453 968 4101 
Q 1578 4750 2638 4750 
Q 3056 4750 3426 4639 
Q 3797 4528 4122 4306 
z
" transform="scale(0.015625)"/>
       <path id="DejaVuSans-53" d="M 3425 4513 
L 3425 3897 
Q 3066 4069 2747 4153 
Q 2428 4238 2131 4238 
Q 1616 4238 1336 4038 
Q 1056 3838 1056 3469 
Q 1056 3159 1242 3001 
Q 1428 2844 1947 2747 
L 2328 2669 
Q 3034 2534 3370 2195 
Q 3706 1856 3706 1288 
Q 3706 609 3251 259 
Q 2797 -91 1919 -91 
Q 1588 -91 1214 -16 
Q 841 59 441 206 
L 441 856 
Q 825 641 1194 531 
Q 1563 422 1919 422 
Q 2459 422 2753 634 
Q 3047 847 3047 1241 
Q 3047 1584 2836 1778 
Q 2625 1972 2144 2069 
L 1759 2144 
Q 1053 2284 737 2584 
Q 422 2884 422 3419 
Q 422 4038 858 4394 
Q 1294 4750 2059 4750 
Q 2388 4750 2728 4690 
Q 3069 4631 3425 4513 
z
" transform="scale(0.015625)"/>
      </defs>
      <use xlink:href="#DejaVuSans-4d"/>
      <use xlink:href="#DejaVuSans-43" x="86.279297"/>
      <use xlink:href="#DejaVuSans-53" x="156.103516"/>
     </g>
    </g>
   </g>
   <g id="matplotlib.axis_2">
    <g id="ytick_1">
     <g id="line2d_7">
      <defs>
       <path id="m2b0e6af587" d="M 0 0 
L -3.5 0 
" style="stroke: #000000; stroke-width: 0.8"/>
      </defs>
      <g>
       <use xlink:href="#m2b0e6af587" x="57.6" y="300.700688" style="stroke: #000000; stroke-width: 0.8"/>
      </g>
     </g>
     <g id="text_8">
      <!-- 0.3 -->
      <g transform="translate(34.696875 304.499907) scale(0.1 -0.1)">
       <defs>
        <path id="DejaVuSans-2e" d="M 684 794 
L 1344 794 
L 1344 0 
L 684 0 
L 684 794 
z
" transform="scale(0.015625)"/>
        <path id="DejaVuSans-33" d="M 2597 2516 
Q 3050 2419 3304 2112 
Q 3559 1806 3559 1356 
Q 3559 666 3084 287 
Q 2609 -91 1734 -91 
Q 1441 -91 1130 -33 
Q 819 25 488 141 
L 488 750 
Q 750 597 1062 519 
Q 1375 441 1716 441 
Q 2309 441 2620 675 
Q 2931 909 2931 1356 
Q 2931 1769 2642 2001 
Q 2353 2234 1838 2234 
L 1294 2234 
L 1294 2753 
L 1863 2753 
Q 2328 2753 2575 2939 
Q 2822 3125 2822 3475 
Q 2822 3834 2567 4026 
Q 2313 4219 1838 4219 
Q 1578 4219 1281 4162 
Q 984 4106 628 3988 
L 628 4550 
Q 988 4650 1302 4700 
Q 1616 4750 1894 4750 
Q 2613 4750 3031 4423 
Q 3450 4097 3450 3541 
Q 3450 3153 3228 2886 
Q 3006 2619 2597 2516 
z
" transform="scale(0.015625)"/>
       </defs>
       <use xlink:href="#DejaVuSans-30"/>
       <use xlink:href="#DejaVuSans-2e" x="63.623047"/>
       <use xlink:href="#DejaVuSans-33" x="95.410156"/>
      </g>
     </g>
    </g>
    <g id="ytick_2">
     <g id="line2d_8">
      <g>
       <use xlink:href="#m2b0e6af587" x="57.6" y="257.973736" style="stroke: #000000; stroke-width: 0.8"/>
      </g>
     </g>
     <g id="text_9">
      <!-- 0.4 -->
      <g transform="translate(34.696875 261.772955) scale(0.1 -0.1)">
       <use xlink:href="#DejaVuSans-30"/>
       <use xlink:href="#DejaVuSans-2e" x="63.623047"/>
       <use xlink:href="#DejaVuSans-34" x="95.410156"/>
      </g>
     </g>
    </g>
    <g id="ytick_3">
     <g id="line2d_9">
      <g>
       <use xlink:href="#m2b0e6af587" x="57.6" y="215.246785" style="stroke: #000000; stroke-width: 0.8"/>
      </g>
     </g>
     <g id="text_10">
      <!-- 0.5 -->
      <g transform="translate(34.696875 219.046004) scale(0.1 -0.1)">
       <defs>
        <path id="DejaVuSans-35" d="M 691 4666 
L 3169 4666 
L 3169 4134 
L 1269 4134 
L 1269 2991 
Q 1406 3038 1543 3061 
Q 1681 3084 1819 3084 
Q 2600 3084 3056 2656 
Q 3513 2228 3513 1497 
Q 3513 744 3044 326 
Q 2575 -91 1722 -91 
Q 1428 -91 1123 -41 
Q 819 9 494 109 
L 494 744 
Q 775 591 1075 516 
Q 1375 441 1709 441 
Q 2250 441 2565 725 
Q 2881 1009 2881 1497 
Q 2881 1984 2565 2268 
Q 2250 2553 1709 2553 
Q 1456 2553 1204 2497 
Q 953 2441 691 2322 
L 691 4666 
z
" transform="scale(0.015625)"/>
       </defs>
       <use xlink:href="#DejaVuSans-30"/>
       <use xlink:href="#DejaVuSans-2e" x="63.623047"/>
       <use xlink:href="#DejaVuSans-35" x="95.410156"/>
      </g>
     </g>
    </g>
    <g id="ytick_4">
     <g id="line2d_10">
      <g>
       <use xlink:href="#m2b0e6af587" x="57.6" y="172.519833" style="stroke: #000000; stroke-width: 0.8"/>
      </g>
     </g>
     <g id="text_11">
      <!-- 0.6 -->
      <g transform="translate(34.696875 176.319052) scale(0.1 -0.1)">
       <use xlink:href="#DejaVuSans-30"/>
       <use xlink:href="#DejaVuSans-2e" x="63.623047"/>
       <use xlink:href="#DejaVuSans-36" x="95.410156"/>
      </g>
     </g>
    </g>
    <g id="ytick_5">
     <g id="line2d_11">
      <g>
       <use xlink:href="#m2b0e6af587" x="57.6" y="129.792882" style="stroke: #000000; stroke-width: 0.8"/>
      </g>
     </g>
     <g id="text_12">
      <!-- 0.7 -->
      <g transform="translate(34.696875 133.5921) scale(0.1 -0.1)">
       <defs>
        <path id="DejaVuSans-37" d="M 525 4666 
L 3525 4666 
L 3525 4397 
L 1831 0 
L 1172 0 
L 2766 4134 
L 525 4134 
L 525 4666 
z
" transform="scale(0.015625)"/>
       </defs>
       <use xlink:href="#DejaVuSans-30"/>
       <use xlink:href="#DejaVuSans-2e" x="63.623047"/>
       <use xlink:href="#DejaVuSans-37" x="95.410156"/>
      </g>
     </g>
    </g>
    <g id="ytick_6">
     <g id="line2d_12">
      <g>
       <use xlink:href="#m2b0e6af587" x="57.6" y="87.06593" style="stroke: #000000; stroke-width: 0.8"/>
      </g>
     </g>
     <g id="text_13">
      <!-- 0.8 -->
      <g transform="translate(34.696875 90.865149) scale(0.1 -0.1)">
       <use xlink:href="#DejaVuSans-30"/>
       <use xlink:href="#DejaVuSans-2e" x="63.623047"/>
       <use xlink:href="#DejaVuSans-38" x="95.410156"/>
      </g>
     </g>
    </g>
    <g id="ytick_7">
     <g id="line2d_13">
      <g>
       <use xlink:href="#m2b0e6af587" x="57.6" y="44.338978" style="stroke: #000000; stroke-width: 0.8"/>
      </g>
     </g>
     <g id="text_14">
      <!-- 0.9 -->
      <g transform="translate(34.696875 48.138197) scale(0.1 -0.1)">
       <defs>
        <path id="DejaVuSans-39" d="M 703 97 
L 703 672 
Q 941 559 1184 500 
Q 1428 441 1663 441 
Q 2288 441 2617 861 
Q 2947 1281 2994 2138 
Q 2813 1869 2534 1725 
Q 2256 1581 1919 1581 
Q 1219 1581 811 2004 
Q 403 2428 403 3163 
Q 403 3881 828 4315 
Q 1253 4750 1959 4750 
Q 2769 4750 3195 4129 
Q 3622 3509 3622 2328 
Q 3622 1225 3098 567 
Q 2575 -91 1691 -91 
Q 1453 -91 1209 -44 
Q 966 3 703 97 
z
M 1959 2075 
Q 2384 2075 2632 2365 
Q 2881 2656 2881 3163 
Q 2881 3666 2632 3958 
Q 2384 4250 1959 4250 
Q 1534 4250 1286 3958 
Q 1038 3666 1038 3163 
Q 1038 2656 1286 2365 
Q 1534 2075 1959 2075 
z
" transform="scale(0.015625)"/>
       </defs>
       <use xlink:href="#DejaVuSans-30"/>
       <use xlink:href="#DejaVuSans-2e" x="63.623047"/>
       <use xlink:href="#DejaVuSans-39" x="95.410156"/>
      </g>
     </g>
    </g>
    <g id="text_15">
     <!-- Order Parameter,S -->
     <g transform="translate(28.617187 221.103) rotate(-90) scale(0.1 -0.1)">
      <defs>
       <path id="DejaVuSans-4f" d="M 2522 4238 
Q 1834 4238 1429 3725 
Q 1025 3213 1025 2328 
Q 1025 1447 1429 934 
Q 1834 422 2522 422 
Q 3209 422 3611 934 
Q 4013 1447 4013 2328 
Q 4013 3213 3611 3725 
Q 3209 4238 2522 4238 
z
M 2522 4750 
Q 3503 4750 4090 4092 
Q 4678 3434 4678 2328 
Q 4678 1225 4090 567 
Q 3503 -91 2522 -91 
Q 1538 -91 948 565 
Q 359 1222 359 2328 
Q 359 3434 948 4092 
Q 1538 4750 2522 4750 
z
" transform="scale(0.015625)"/>
       <path id="DejaVuSans-72" d="M 2631 2963 
Q 2534 3019 2420 3045 
Q 2306 3072 2169 3072 
Q 1681 3072 1420 2755 
Q 1159 2438 1159 1844 
L 1159 0 
L 581 0 
L 581 3500 
L 1159 3500 
L 1159 2956 
Q 1341 3275 1631 3429 
Q 1922 3584 2338 3584 
Q 2397 3584 2469 3576 
Q 2541 3569 2628 3553 
L 2631 2963 
z
" transform="scale(0.015625)"/>
       <path id="DejaVuSans-64" d="M 2906 2969 
L 2906 4863 
L 3481 4863 
L 3481 0 
L 2906 0 
L 2906 525 
Q 2725 213 2448 61 
Q 2172 -91 1784 -91 
Q 1150 -91 751 415 
Q 353 922 353 1747 
Q 353 2572 751 3078 
Q 1150 3584 1784 3584 
Q 2172 3584 2448 3432 
Q 2725 3281 2906 2969 
z
M 947 1747 
Q 947 1113 1208 752 
Q 1469 391 1925 391 
Q 2381 391 2643 752 
Q 2906 1113 2906 1747 
Q 2906 2381 2643 2742 
Q 2381 3103 1925 3103 
Q 1469 3103 1208 2742 
Q 947 2381 947 1747 
z
" transform="scale(0.015625)"/>
       <path id="DejaVuSans-65" d="M 3597 1894 
L 3597 1613 
L 953 1613 
Q 991 1019 1311 708 
Q 1631 397 2203 397 
Q 2534 397 2845 478 
Q 3156 559 3463 722 
L 3463 178 
Q 3153 47 2828 -22 
Q 2503 -91 2169 -91 
Q 1331 -91 842 396 
Q 353 884 353 1716 
Q 353 2575 817 3079 
Q 1281 3584 2069 3584 
Q 2775 3584 3186 3129 
Q 3597 2675 3597 1894 
z
M 3022 2063 
Q 3016 2534 2758 2815 
Q 2500 3097 2075 3097 
Q 1594 3097 1305 2825 
Q 1016 2553 972 2059 
L 3022 2063 
z
" transform="scale(0.015625)"/>
       <path id="DejaVuSans-20" transform="scale(0.015625)"/>
       <path id="DejaVuSans-50" d="M 1259 4147 
L 1259 2394 
L 2053 2394 
Q 2494 2394 2734 2622 
Q 2975 2850 2975 3272 
Q 2975 3691 2734 3919 
Q 2494 4147 2053 4147 
L 1259 4147 
z
M 628 4666 
L 2053 4666 
Q 2838 4666 3239 4311 
Q 3641 3956 3641 3272 
Q 3641 2581 3239 2228 
Q 2838 1875 2053 1875 
L 1259 1875 
L 1259 0 
L 628 0 
L 628 4666 
z
" transform="scale(0.015625)"/>
       <path id="DejaVuSans-61" d="M 2194 1759 
Q 1497 1759 1228 1600 
Q 959 1441 959 1056 
Q 959 750 1161 570 
Q 1363 391 1709 391 
Q 2188 391 2477 730 
Q 2766 1069 2766 1631 
L 2766 1759 
L 2194 1759 
z
M 3341 1997 
L 3341 0 
L 2766 0 
L 2766 531 
Q 2569 213 2275 61 
Q 1981 -91 1556 -91 
Q 1019 -91 701 211 
Q 384 513 384 1019 
Q 384 1609 779 1909 
Q 1175 2209 1959 2209 
L 2766 2209 
L 2766 2266 
Q 2766 2663 2505 2880 
Q 2244 3097 1772 3097 
Q 1472 3097 1187 3025 
Q 903 2953 641 2809 
L 641 3341 
Q 956 3463 1253 3523 
Q 1550 3584 1831 3584 
Q 2591 3584 2966 3190 
Q 3341 2797 3341 1997 
z
" transform="scale(0.015625)"/>
       <path id="DejaVuSans-6d" d="M 3328 2828 
Q 3544 3216 3844 3400 
Q 4144 3584 4550 3584 
Q 5097 3584 5394 3201 
Q 5691 2819 5691 2113 
L 5691 0 
L 5113 0 
L 5113 2094 
Q 5113 2597 4934 2840 
Q 4756 3084 4391 3084 
Q 3944 3084 3684 2787 
Q 3425 2491 3425 1978 
L 3425 0 
L 2847 0 
L 2847 2094 
Q 2847 2600 2669 2842 
Q 2491 3084 2119 3084 
Q 1678 3084 1418 2786 
Q 1159 2488 1159 1978 
L 1159 0 
L 581 0 
L 581 3500 
L 1159 3500 
L 1159 2956 
Q 1356 3278 1631 3431 
Q 1906 3584 2284 3584 
Q 2666 3584 2933 3390 
Q 3200 3197 3328 2828 
z
" transform="scale(0.015625)"/>
       <path id="DejaVuSans-74" d="M 1172 4494 
L 1172 3500 
L 2356 3500 
L 2356 3053 
L 1172 3053 
L 1172 1153 
Q 1172 725 1289 603 
Q 1406 481 1766 481 
L 2356 481 
L 2356 0 
L 1766 0 
Q 1100 0 847 248 
Q 594 497 594 1153 
L 594 3053 
L 172 3053 
L 172 3500 
L 594 3500 
L 594 4494 
L 1172 4494 
z
" transform="scale(0.015625)"/>
       <path id="DejaVuSans-2c" d="M 750 794 
L 1409 794 
L 1409 256 
L 897 -744 
L 494 -744 
L 750 256 
L 750 794 
z
" transform="scale(0.015625)"/>
      </defs>
      <use xlink:href="#DejaVuSans-4f"/>
      <use xlink:href="#DejaVuSans-72" x="78.710938"/>
      <use xlink:href="#DejaVuSans-64" x="118.074219"/>
      <use xlink:href="#DejaVuSans-65" x="181.550781"/>
      <use xlink:href="#DejaVuSans-72" x="243.074219"/>
      <use xlink:href="#DejaVuSans-20" x="284.1875"/>
      <use xlink:href="#DejaVuSans-50" x="315.974609"/>
      <use xlink:href="#DejaVuSans-61" x="371.777344"/>
      <use xlink:href="#DejaVuSans-72" x="433.056641"/>
      <use xlink:href="#DejaVuSans-61" x="474.169922"/>
      <use xlink:href="#DejaVuSans-6d" x="535.449219"/>
      <use xlink:href="#DejaVuSans-65" x="632.861328"/>
      <use xlink:href="#DejaVuSans-74" x="694.384766"/>
      <use xlink:href="#DejaVuSans-65" x="733.59375"/>
      <use xlink:href="#DejaVuSans-72" x="795.117188"/>
      <use xlink:href="#DejaVuSans-2c" x="836.230469"/>
      <use xlink:href="#DejaVuSans-53" x="868.017578"/>
     </g>
    </g>
   </g>
   <g id="line2d_14">
    <path d="M 73.832727 295.488 
L 74.157382 293.778922 
L 74.806691 280.149024 
L 75.131345 275.534514 
L 75.456 272.629081 
L 75.780655 276.859049 
L 76.105309 275.064517 
L 76.429964 267.630028 
L 76.754618 271.988177 
L 77.079273 271.94545 
L 77.403927 274.850882 
L 78.053236 250.325612 
L 78.377891 247.334726 
L 78.702545 248.787442 
L 79.0272 247.761995 
L 79.351855 242.549307 
L 79.676509 239.515693 
L 80.001164 226.996697 
L 80.325818 224.091264 
L 80.975127 230.201218 
L 81.624436 223.407633 
L 81.949091 215.759508 
L 82.273745 214.947696 
L 82.5984 211.871356 
L 82.923055 204.778682 
L 83.572364 217.98131 
L 83.897018 211.657721 
L 84.221673 208.538653 
L 84.546327 202.941423 
L 84.870982 208.068657 
L 85.195636 199.181451 
L 85.520291 203.454146 
L 85.844945 204.94959 
L 86.1696 200.847802 
L 86.494255 201.702341 
L 86.818909 194.908756 
L 87.468218 205.975036 
L 87.792873 192.644227 
L 88.117527 196.190564 
L 88.442182 190.550607 
L 88.766836 189.52516 
L 89.091491 190.336972 
L 89.416145 197.472373 
L 90.065455 190.806969 
L 90.390109 188.96971 
L 90.714764 190.550607 
L 91.039418 189.567887 
L 91.364073 192.04605 
L 92.013382 181.663401 
L 92.338036 179.783415 
L 92.987345 183.50066 
L 93.636655 188.798802 
L 93.961309 181.107951 
L 94.285964 181.706128 
L 94.610618 172.477106 
L 95.584582 183.671568 
L 95.909236 181.278858 
L 96.233891 181.492493 
L 96.558545 177.305252 
L 96.8832 178.03161 
L 97.207855 173.801642 
L 97.532509 180.637954 
L 97.857164 179.527053 
L 98.506473 175.895262 
L 98.831127 182.688848 
L 99.155782 175.980716 
L 100.4544 164.700801 
L 100.779055 151.327265 
L 101.103709 148.635467 
L 101.428364 150.429999 
L 101.753018 150.088184 
L 102.077673 143.038237 
L 102.402327 138.50918 
L 102.726982 137.782822 
L 103.051636 136.671921 
L 103.700945 131.331052 
L 104.0256 138.50918 
L 104.350255 130.220151 
L 104.674909 129.237431 
L 104.999564 124.879282 
L 105.648873 120.179318 
L 105.973527 128.810162 
L 106.298182 128.169258 
L 106.947491 137.141917 
L 107.272145 135.98829 
L 107.5968 133.937396 
L 108.570764 123.597474 
L 108.895418 124.152924 
L 109.220073 119.367505 
L 109.544727 116.761161 
L 110.194036 118.555693 
L 110.518691 121.632034 
L 110.843345 115.351172 
L 111.168 113.599367 
L 111.492655 105.865789 
L 111.817309 105.5667 
L 112.141964 102.832175 
L 112.466618 104.242165 
L 112.791273 107.190324 
L 113.115927 100.781282 
L 113.440582 102.49036 
L 114.414545 95.910409 
L 114.7392 94.671327 
L 115.063855 97.405852 
L 115.388509 97.747668 
L 115.713164 103.344899 
L 116.037818 104.669434 
L 116.687127 112.873009 
L 117.011782 110.309392 
L 117.336436 117.572974 
L 117.661091 121.97385 
L 117.985745 120.862949 
L 118.3104 117.231158 
L 118.635055 115.52208 
L 119.284364 107.53214 
L 119.609018 104.712161 
L 119.933673 104.413072 
L 120.258327 101.550367 
L 120.582982 102.661267 
L 120.907636 92.620434 
L 121.232291 100.354012 
L 121.556945 103.900349 
L 121.8816 104.242165 
L 122.206255 106.036697 
L 122.530909 103.344899 
L 123.180218 91.12499 
L 123.504873 90.99681 
L 123.829527 97.619487 
L 124.154182 98.089484 
L 125.4528 106.421239 
L 125.777455 114.411179 
L 126.102109 113.086644 
L 126.426764 107.019416 
L 126.751418 111.505746 
L 127.076073 101.294005 
L 127.400727 101.593094 
L 127.725382 101.123097 
L 128.050036 94.585874 
L 128.374691 94.07315 
L 129.348655 123.682928 
L 129.673309 118.982963 
L 129.997964 119.367505 
L 130.322618 118.683874 
L 130.647273 119.196598 
L 130.971927 121.375672 
L 131.296582 114.752995 
L 131.621236 112.958463 
L 131.945891 108.130317 
L 132.5952 107.53214 
L 132.919855 107.959409 
L 133.244509 107.147597 
L 133.893818 110.05303 
L 134.218473 109.198491 
L 134.543127 111.078477 
L 134.867782 111.03575 
L 135.192436 110.822115 
L 135.841745 107.53214 
L 136.1664 107.233051 
L 136.491055 102.148544 
L 136.815709 99.926742 
L 137.140364 99.584927 
L 137.465018 107.062143 
L 137.789673 107.10487 
L 138.114327 107.53214 
L 138.438982 108.386679 
L 138.763636 106.97669 
L 139.088291 101.294005 
L 139.412945 100.311285 
L 139.7376 97.747668 
L 140.062255 98.773115 
L 140.386909 97.619487 
L 140.711564 94.714054 
L 141.036218 99.499473 
L 141.685527 93.774061 
L 142.010182 95.354959 
L 142.659491 90.227724 
L 142.984145 89.715001 
L 143.3088 91.723168 
L 143.633455 88.262285 
L 144.282764 84.459586 
L 144.607418 85.015036 
L 144.932073 85.143217 
L 145.256727 81.212338 
L 146.230691 97.405852 
L 146.88 92.150437 
L 147.204655 98.687661 
L 147.529309 98.516753 
L 147.853964 94.6286 
L 148.178618 89.159551 
L 148.503273 87.578653 
L 148.827927 87.450473 
L 149.152582 90.270451 
L 149.477236 86.296845 
L 149.801891 87.365019 
L 150.126545 90.526813 
L 150.4512 90.142271 
L 151.100509 101.678548 
L 151.425164 102.960356 
L 151.749818 101.764001 
L 152.074473 106.207604 
L 152.723782 103.857622 
L 153.048436 107.361232 
L 153.373091 102.832175 
L 153.697745 105.523973 
L 154.0224 102.703994 
L 154.347055 101.464913 
L 154.996364 108.130317 
L 155.321018 107.233051 
L 155.645673 102.575813 
L 155.970327 106.12215 
L 156.294982 104.626707 
L 156.619636 104.199438 
L 156.944291 102.789448 
L 157.268945 110.010303 
L 157.918255 91.851349 
L 158.242909 93.859515 
L 158.567564 94.07315 
L 158.892218 98.089484 
L 159.541527 109.711214 
L 159.866182 112.915736 
L 160.190836 110.864842 
L 160.515491 103.857622 
L 160.840145 103.088537 
L 161.1648 97.405852 
L 161.489455 100.695828 
L 161.814109 93.645881 
L 162.138764 92.321345 
L 162.463418 96.209498 
L 162.788073 95.696774 
L 163.112727 93.645881 
L 163.762036 102.105817 
L 164.086691 100.952189 
L 164.411345 91.723168 
L 164.736 90.056817 
L 165.060655 87.407746 
L 165.385309 91.723168 
L 166.034618 97.704941 
L 166.683927 111.420292 
L 167.333236 113.172097 
L 167.982545 117.48752 
L 168.631855 111.847562 
L 168.956509 108.942129 
L 169.281164 111.890289 
L 169.605818 112.915736 
L 169.930473 108.301225 
L 170.579782 110.60848 
L 170.904436 106.079424 
L 171.229091 110.309392 
L 171.553745 111.548473 
L 171.8784 115.180264 
L 172.203055 117.48752 
L 172.527709 109.753941 
L 172.852364 111.249385 
L 173.177018 109.882122 
L 173.501673 102.917629 
L 173.826327 109.839395 
L 174.150982 109.198491 
L 174.475636 106.079424 
L 174.800291 107.916682 
L 175.124945 107.959409 
L 175.4496 102.960356 
L 175.774255 111.890289 
L 176.098909 114.53936 
L 176.423564 112.659374 
L 176.748218 111.463019 
L 177.072873 113.086644 
L 177.397527 120.093864 
L 177.722182 123.640201 
L 178.046836 123.298385 
L 178.371491 125.862002 
L 178.696145 125.947456 
L 179.0208 128.382892 
L 179.345455 125.263825 
L 179.670109 125.947456 
L 179.994764 128.681981 
L 180.319418 135.945563 
L 180.644073 127.357445 
L 180.968727 125.092917 
L 181.293382 121.076584 
L 181.618036 121.204764 
L 181.942691 125.092917 
L 182.267345 124.964736 
L 182.592 119.02569 
L 182.916655 129.792882 
L 183.241309 134.02285 
L 183.890618 119.666594 
L 184.215273 118.683874 
L 184.539927 119.794775 
L 184.864582 110.822115 
L 185.189236 112.146651 
L 185.513891 108.856675 
L 185.838545 103.430353 
L 186.1632 100.653101 
L 186.487855 107.318505 
L 186.812509 110.693934 
L 187.137164 106.293058 
L 187.461818 105.310338 
L 187.786473 107.446686 
L 188.111127 110.950296 
L 188.435782 106.164877 
L 188.760436 106.036697 
L 189.085091 106.720328 
L 189.409745 108.258498 
L 189.7344 98.901296 
L 190.059055 96.807675 
L 190.383709 96.380406 
L 190.708364 96.679494 
L 191.033018 100.140377 
L 191.357673 99.713108 
L 191.682327 94.543147 
L 192.006982 95.05587 
L 192.331636 98.089484 
L 192.656291 96.209498 
L 192.980945 96.59404 
L 193.3056 95.013143 
L 193.630255 89.245005 
L 193.954909 88.518646 
L 194.604218 86.296845 
L 194.928873 83.049597 
L 195.253527 91.253171 
L 195.578182 92.406799 
L 195.902836 90.142271 
L 196.227491 92.193164 
L 196.552145 93.218611 
L 196.8768 92.10771 
L 197.201455 94.799508 
L 197.526109 91.55226 
L 197.850764 84.587767 
L 198.175418 84.203224 
L 198.824727 93.133157 
L 199.149382 88.945916 
L 199.474036 90.01409 
L 199.798691 95.525866 
L 200.123345 96.380406 
L 200.448 97.833122 
L 200.772655 100.567647 
L 201.097309 104.626707 
L 201.421964 101.379459 
L 201.746618 96.722221 
L 202.071273 95.440413 
L 202.395927 99.841289 
L 202.720582 90.056817 
L 203.045236 91.424079 
L 203.369891 97.320398 
L 203.694545 97.619487 
L 204.0192 93.389519 
L 204.343855 103.387626 
L 204.668509 97.534033 
L 205.317818 100.653101 
L 205.642473 107.062143 
L 205.967127 109.241218 
L 206.291782 104.242165 
L 206.616436 104.541253 
L 206.941091 100.567647 
L 207.265745 98.516753 
L 207.5904 92.748615 
L 207.915055 94.201331 
L 208.239709 92.278618 
L 208.564364 92.663161 
L 208.889018 92.064983 
L 209.213673 90.825902 
L 209.538327 88.775008 
L 209.862982 87.792288 
L 210.187636 88.775008 
L 210.512291 84.075043 
L 210.836945 76.341465 
L 211.1616 77.366912 
L 211.486255 80.571433 
L 211.810909 74.846022 
L 212.135564 74.803295 
L 212.460218 80.571433 
L 213.434182 90.142271 
L 213.758836 88.646827 
L 214.083491 88.561373 
L 214.408145 86.254118 
L 214.7328 86.296845 
L 215.706764 80.015983 
L 216.031418 82.5796 
L 216.356073 78.264178 
L 216.680727 81.340519 
L 217.005382 76.726008 
L 217.654691 86.553207 
L 217.979345 86.852295 
L 218.304 85.698668 
L 218.628655 87.535927 
L 218.953309 88.561373 
L 219.277964 87.108657 
L 219.602618 88.945916 
L 220.576582 97.149491 
L 220.901236 106.506693 
L 221.225891 107.147597 
L 221.550545 101.037643 
L 221.8752 109.583034 
L 222.199855 108.386679 
L 222.524509 113.343005 
L 222.849164 108.343952 
L 223.498473 107.10487 
L 223.823127 103.216718 
L 224.147782 105.865789 
L 224.472436 103.943076 
L 224.797091 110.309392 
L 225.121745 108.258498 
L 225.4464 108.984856 
L 225.771055 106.97669 
L 226.095709 109.753941 
L 226.420364 110.05303 
L 226.745018 103.814895 
L 227.069673 93.560427 
L 227.394327 97.704941 
L 227.718982 94.244058 
L 228.043636 98.132211 
L 228.368291 98.00403 
L 228.692945 96.081317 
L 229.0176 99.243111 
L 229.342255 100.610374 
L 229.666909 98.431299 
L 230.316218 105.481246 
L 230.640873 104.370345 
L 230.965527 107.574867 
L 231.290182 108.813948 
L 231.614836 112.787555 
L 231.939491 111.548473 
L 232.264145 114.325725 
L 232.5888 105.182158 
L 232.913455 101.635821 
L 233.238109 101.635821 
L 233.562764 98.602207 
L 233.887418 97.192218 
L 234.212073 97.02131 
L 234.536727 96.978583 
L 234.861382 94.030423 
L 235.186036 97.448579 
L 235.510691 96.893129 
L 235.835345 99.200384 
L 236.16 106.506693 
L 236.484655 110.779388 
L 236.809309 109.583034 
L 237.133964 110.60848 
L 237.458618 108.984856 
L 237.783273 111.505746 
L 238.107927 116.846615 
L 238.432582 113.343005 
L 238.757236 107.831229 
L 239.081891 111.890289 
L 239.406545 108.856675 
L 239.7312 113.471186 
L 240.055855 114.282998 
L 240.380509 121.375672 
L 240.705164 108.130317 
L 241.029818 108.51486 
L 241.354473 103.558533 
L 241.679127 101.764001 
L 242.003782 101.336732 
L 242.328436 101.50764 
L 242.653091 101.294005 
L 242.977745 107.788502 
L 243.3024 104.370345 
L 243.627055 98.901296 
L 243.951709 102.404906 
L 244.601018 94.115877 
L 244.925673 96.764948 
L 245.250327 103.387626 
L 245.574982 99.157657 
L 245.899636 102.06309 
L 246.224291 96.935856 
L 246.548945 96.978583 
L 246.8736 98.00403 
L 247.198255 101.336732 
L 247.522909 107.147597 
L 247.847564 104.883069 
L 248.172218 107.574867 
L 248.496873 97.234945 
L 248.821527 98.00403 
L 249.146182 99.884016 
L 249.470836 97.790395 
L 249.795491 96.935856 
L 250.120145 93.987696 
L 250.4448 96.166771 
L 250.769455 90.056817 
L 251.094109 91.680441 
L 251.743418 96.764948 
L 252.392727 107.617594 
L 252.717382 106.378512 
L 253.042036 104.199438 
L 253.366691 105.908516 
L 254.016 96.722221 
L 254.340655 102.233998 
L 254.665309 100.183104 
L 254.989964 95.61132 
L 255.314618 95.654047 
L 255.639273 93.731335 
L 255.963927 93.133157 
L 256.288582 96.636767 
L 256.613236 101.977636 
L 256.937891 100.653101 
L 257.262545 98.516753 
L 257.5872 94.457693 
L 257.911855 98.132211 
L 258.236509 95.440413 
L 258.561164 94.671327 
L 258.885818 97.149491 
L 259.210473 101.08037 
L 259.535127 101.50764 
L 259.859782 106.848509 
L 260.184436 109.113037 
L 260.509091 107.831229 
L 260.833745 111.847562 
L 261.1584 110.010303 
L 262.132364 92.278618 
L 262.457018 92.022256 
L 262.781673 94.115877 
L 263.106327 93.133157 
L 263.430982 88.945916 
L 263.755636 91.082264 
L 264.080291 88.390466 
L 264.404945 80.870522 
L 264.7296 81.169611 
L 265.054255 82.750508 
L 265.378909 85.143217 
L 266.352873 97.192218 
L 266.677527 94.671327 
L 267.002182 94.372239 
L 267.326836 98.260391 
L 267.651491 95.867682 
L 267.976145 90.654994 
L 268.3008 88.176831 
L 268.625455 87.835015 
L 269.274764 92.962249 
L 269.599418 88.04865 
L 269.924073 93.218611 
L 270.248727 91.424079 
L 270.573382 92.193164 
L 271.222691 98.644934 
L 272.196655 88.005923 
L 272.521309 95.184051 
L 272.845964 92.919522 
L 273.495273 95.696774 
L 274.144582 88.433193 
L 274.469236 81.255065 
L 274.793891 84.673221 
L 275.118545 83.348685 
L 275.4432 83.733228 
L 275.767855 84.972309 
L 276.092509 86.681387 
L 276.417164 85.185944 
L 276.741818 82.066877 
L 277.066473 88.903189 
L 277.391127 88.561373 
L 277.715782 90.825902 
L 278.040436 88.176831 
L 278.365091 86.895022 
L 278.689745 82.066877 
L 279.0144 83.476866 
L 279.339055 81.126884 
L 279.663709 82.494146 
L 279.988364 80.05871 
L 280.313018 72.795128 
L 280.637673 74.58966 
L 280.962327 75.145111 
L 281.286982 75.187838 
L 281.611636 71.470593 
L 281.936291 73.948756 
L 282.260945 78.135997 
L 282.5856 75.444199 
L 282.910255 74.675114 
L 283.234909 68.266071 
L 283.559564 65.702454 
L 283.884218 74.418752 
L 284.208873 70.5306 
L 284.533527 71.940589 
L 284.858182 68.56516 
L 285.182836 67.924256 
L 285.507491 74.546933 
L 285.832145 73.863302 
L 286.1568 71.427866 
L 286.481455 74.675114 
L 286.806109 75.059657 
L 287.130764 73.393306 
L 287.455418 77.238731 
L 287.780073 78.862355 
L 288.104727 75.657834 
L 288.429382 78.905082 
L 288.754036 78.135997 
L 289.078691 81.425972 
L 289.403345 79.246898 
L 289.728 80.656887 
L 290.052655 84.075043 
L 290.701964 92.150437 
L 291.026618 92.834069 
L 291.351273 91.680441 
L 292.000582 82.536873 
L 292.325236 81.981423 
L 292.649891 83.348685 
L 292.974545 82.835962 
L 293.623855 79.63144 
L 293.948509 78.862355 
L 294.922473 86.895022 
L 295.247127 84.11777 
L 295.571782 88.390466 
L 295.896436 88.219558 
L 296.221091 90.099544 
L 296.545745 96.465859 
L 296.8704 99.072203 
L 297.195055 93.645881 
L 297.519709 90.184998 
L 297.844364 92.577707 
L 298.169018 90.99681 
L 298.493673 91.594987 
L 298.818327 91.167717 
L 299.142982 93.304065 
L 299.467636 85.314125 
L 299.792291 92.834069 
L 300.116945 92.406799 
L 300.4416 92.834069 
L 300.766255 94.970416 
L 301.090909 95.226778 
L 301.740218 99.029477 
L 302.064873 96.252225 
L 302.389527 96.081317 
L 302.714182 94.884962 
L 303.038836 90.526813 
L 303.363491 91.039537 
L 303.688145 94.158604 
L 304.0128 89.116824 
L 304.337455 90.184998 
L 304.662109 87.450473 
L 304.986764 87.835015 
L 305.311418 95.61132 
L 305.636073 100.52492 
L 305.960727 98.901296 
L 306.285382 102.832175 
L 306.610036 104.712161 
L 306.934691 104.968523 
L 307.259345 106.891236 
L 307.584 104.498526 
L 307.908655 105.865789 
L 308.557964 95.226778 
L 308.882618 94.6286 
L 309.207273 99.029477 
L 309.531927 95.440413 
L 309.856582 93.816788 
L 310.181236 94.842235 
L 310.505891 100.824008 
L 310.830545 90.398632 
L 311.1552 88.945916 
L 311.479855 82.280511 
L 311.804509 80.955976 
L 312.129164 74.418752 
L 312.453818 76.085103 
L 312.778473 73.564213 
L 313.103127 67.411532 
L 313.427782 68.479706 
L 314.077091 74.717841 
L 314.401745 71.556047 
L 314.7264 70.786961 
L 315.051055 69.590607 
L 315.375709 65.531546 
L 315.700364 68.607887 
L 316.025018 69.761515 
L 316.674327 78.605994 
L 316.998982 78.349632 
L 317.323636 80.101437 
L 317.648291 87.023203 
L 317.972945 89.245005 
L 318.2976 84.673221 
L 318.622255 83.818682 
L 318.946909 77.025096 
L 319.271564 79.07599 
L 319.596218 81.853242 
L 320.245527 75.059657 
L 320.570182 75.486926 
L 320.894836 77.666001 
L 321.219491 74.974203 
L 321.544145 74.247845 
L 321.8688 70.786961 
L 322.193455 71.427866 
L 322.842764 74.162391 
L 323.167418 70.573327 
L 323.492073 74.760568 
L 323.816727 74.888749 
L 324.141382 71.470593 
L 324.466036 64.036103 
L 324.790691 66.001543 
L 325.115345 71.043323 
L 325.44 73.05149 
L 325.764655 70.701508 
L 326.413964 78.563267 
L 326.738618 74.247845 
L 327.063273 78.862355 
L 327.387927 75.57238 
L 328.037236 79.417806 
L 328.361891 82.451419 
L 328.686545 79.63144 
L 329.0112 82.665054 
L 329.335855 78.691448 
L 329.660509 80.998703 
L 329.985164 78.135997 
L 330.309818 79.50326 
L 330.634473 76.426919 
L 330.959127 79.375079 
L 331.283782 79.246898 
L 331.608436 76.213284 
L 331.933091 77.153277 
L 332.257745 77.666001 
L 332.5824 74.247845 
L 332.907055 72.282405 
L 333.556364 85.997756 
L 333.881018 84.715948 
L 334.205673 78.392359 
L 334.530327 75.401472 
L 334.854982 71.08605 
L 335.179636 73.948756 
L 335.504291 77.836909 
L 335.828945 74.846022 
L 336.1536 77.238731 
L 336.478255 81.468699 
L 336.802909 81.126884 
L 337.127564 79.246898 
L 337.452218 74.461479 
L 337.776873 75.102384 
L 338.101527 76.896916 
L 338.426182 75.01693 
L 338.750836 75.102384 
L 339.075491 74.888749 
L 339.400145 78.135997 
L 339.7248 78.135997 
L 340.049455 74.846022 
L 340.374109 73.05149 
L 340.698764 73.735121 
L 341.023418 76.597827 
L 341.348073 73.906029 
L 341.672727 67.539713 
L 341.997382 66.556993 
L 342.322036 68.56516 
L 342.646691 72.239678 
L 343.296 75.871469 
L 343.620655 77.153277 
L 344.269964 70.5306 
L 344.594618 68.821522 
L 344.919273 70.146057 
L 345.243927 67.283351 
L 345.568582 65.958816 
L 345.893236 66.428812 
L 346.217891 62.156117 
L 346.542545 66.941536 
L 346.8672 66.04427 
L 347.191855 70.445146 
L 347.516509 66.129724 
L 347.841164 65.06155 
L 348.165818 64.377919 
L 348.815127 72.709674 
L 349.464436 70.573327 
L 350.4384 63.181564 
L 351.087709 53.568 
L 351.412364 59.720681 
L 351.737018 62.027936 
L 352.061673 65.659727 
L 352.386327 64.07883 
L 352.710982 65.531546 
L 353.035636 65.189731 
L 353.360291 64.591554 
L 353.684945 67.454259 
L 354.0096 67.112444 
L 354.334255 72.06877 
L 354.983564 73.094217 
L 355.308218 75.102384 
L 355.632873 81.725061 
L 356.282182 89.074097 
L 356.606836 89.800455 
L 356.931491 98.474026 
L 357.5808 104.370345 
L 357.905455 94.50042 
L 358.230109 89.458639 
L 358.554764 93.004976 
L 358.879418 84.972309 
L 359.204073 87.322292 
L 359.528727 90.99681 
L 359.853382 91.253171 
L 360.178036 86.467753 
L 360.502691 85.143217 
L 360.827345 81.255065 
L 361.152 79.845075 
L 361.476655 82.02415 
L 361.801309 78.734174 
L 362.125964 78.691448 
L 362.450618 80.443253 
L 362.775273 76.469646 
L 363.099927 79.417806 
L 363.424582 83.476866 
L 363.749236 83.733228 
L 364.073891 86.638661 
L 364.398545 80.998703 
L 364.7232 84.245951 
L 365.047855 84.715948 
L 365.372509 88.775008 
L 365.697164 87.236838 
L 366.021818 86.51048 
L 366.346473 82.109604 
L 366.671127 80.955976 
L 366.995782 80.955976 
L 367.320436 76.256011 
L 367.645091 76.726008 
L 367.969745 71.342412 
L 368.619055 84.374132 
L 368.943709 84.331405 
L 369.268364 90.825902 
L 369.593018 85.356852 
L 369.917673 85.399579 
L 370.242327 83.348685 
L 370.566982 86.425026 
L 370.891636 98.260391 
L 371.216291 97.491306 
L 371.540945 99.11493 
L 371.8656 98.132211 
L 372.190255 94.244058 
L 372.514909 93.133157 
L 373.164218 102.191271 
L 373.488873 98.98675 
L 373.813527 101.764001 
L 374.462836 97.619487 
L 374.787491 96.636767 
L 375.112145 100.824008 
L 375.4368 95.995863 
L 375.761455 94.244058 
L 376.086109 89.245005 
L 376.410764 93.218611 
L 376.735418 93.5177 
L 377.060073 99.798562 
L 377.384727 99.200384 
L 377.709382 102.661267 
L 378.034036 103.216718 
L 378.358691 106.12215 
L 378.683345 98.260391 
L 379.008 99.670381 
L 379.332655 102.319452 
L 379.981964 95.05587 
L 380.306618 93.688608 
L 380.631273 85.784122 
L 380.955927 91.894076 
L 381.280582 90.398632 
L 381.605236 86.809568 
L 381.929891 90.142271 
L 382.254545 89.287732 
L 382.5792 82.408692 
L 382.903855 80.272345 
L 383.553164 85.271398 
L 383.877818 90.441359 
L 384.202473 91.851349 
L 384.527127 91.424079 
L 384.851782 89.971363 
L 385.501091 95.184051 
L 385.825745 92.278618 
L 386.1504 85.271398 
L 386.475055 84.245951 
L 387.124364 85.399579 
L 387.449018 92.406799 
L 387.773673 84.032316 
L 388.098327 88.134104 
L 388.422982 84.673221 
L 388.747636 84.758675 
L 389.072291 85.955029 
L 389.396945 88.04865 
L 389.7216 85.613214 
L 390.370909 87.963196 
L 390.695564 85.869575 
L 391.020218 86.638661 
L 391.344873 92.364072 
L 391.669527 94.286785 
L 391.994182 97.491306 
L 392.643491 88.561373 
L 392.968145 97.320398 
L 393.2928 94.030423 
L 393.617455 101.123097 
L 393.942109 97.961303 
L 394.266764 97.833122 
L 394.591418 95.397686 
L 394.916073 101.550367 
L 395.240727 99.285838 
L 395.565382 101.635821 
L 395.890036 97.704941 
L 396.539345 95.654047 
L 396.864 97.790395 
L 397.188655 93.218611 
L 397.513309 92.278618 
L 397.837964 91.851349 
L 398.162618 89.116824 
L 398.487273 84.160497 
L 398.487273 84.160497 
" clip-path="url(#pd6fef773db)" style="fill: none; stroke: #1f77b4; stroke-width: 1.5; stroke-linecap: square"/>
   </g>
   <g id="patch_3">
    <path d="M 57.6 307.584 
L 57.6 41.472 
" style="fill: none; stroke: #000000; stroke-width: 0.8; stroke-linejoin: miter; stroke-linecap: square"/>
   </g>
   <g id="patch_4">
    <path d="M 414.72 307.584 
L 414.72 41.472 
" style="fill: none; stroke: #000000; stroke-width: 0.8; stroke-linejoin: miter; stroke-linecap: square"/>
   </g>
   <g id="patch_5">
    <path d="M 57.6 307.584 
L 414.72 307.584 
" style="fill: none; stroke: #000000; stroke-width: 0.8; stroke-linejoin: miter; stroke-linecap: square"/>
   </g>
   <g id="patch_6">
    <path d="M 57.6 41.472 
L 414.72 41.472 
" style="fill: none; stroke: #000000; stroke-width: 0.8; stroke-linejoin: miter; stroke-linecap: square"/>
   </g>
   <g id="text_16">
    <!-- Reduced Temperature,T$^*$=0.65 -->
    <g transform="translate(140.88 35.472) scale(0.12 -0.12)">
     <defs>
      <path id="DejaVuSans-52" d="M 2841 2188 
Q 3044 2119 3236 1894 
Q 3428 1669 3622 1275 
L 4263 0 
L 3584 0 
L 2988 1197 
Q 2756 1666 2539 1819 
Q 2322 1972 1947 1972 
L 1259 1972 
L 1259 0 
L 628 0 
L 628 4666 
L 2053 4666 
Q 2853 4666 3247 4331 
Q 3641 3997 3641 3322 
Q 3641 2881 3436 2590 
Q 3231 2300 2841 2188 
z
M 1259 4147 
L 1259 2491 
L 2053 2491 
Q 2509 2491 2742 2702 
Q 2975 2913 2975 3322 
Q 2975 3731 2742 3939 
Q 2509 4147 2053 4147 
L 1259 4147 
z
" transform="scale(0.015625)"/>
      <path id="DejaVuSans-75" d="M 544 1381 
L 544 3500 
L 1119 3500 
L 1119 1403 
Q 1119 906 1312 657 
Q 1506 409 1894 409 
Q 2359 409 2629 706 
Q 2900 1003 2900 1516 
L 2900 3500 
L 3475 3500 
L 3475 0 
L 2900 0 
L 2900 538 
Q 2691 219 2414 64 
Q 2138 -91 1772 -91 
Q 1169 -91 856 284 
Q 544 659 544 1381 
z
M 1991 3584 
L 1991 3584 
z
" transform="scale(0.015625)"/>
      <path id="DejaVuSans-63" d="M 3122 3366 
L 3122 2828 
Q 2878 2963 2633 3030 
Q 2388 3097 2138 3097 
Q 1578 3097 1268 2742 
Q 959 2388 959 1747 
Q 959 1106 1268 751 
Q 1578 397 2138 397 
Q 2388 397 2633 464 
Q 2878 531 3122 666 
L 3122 134 
Q 2881 22 2623 -34 
Q 2366 -91 2075 -91 
Q 1284 -91 818 406 
Q 353 903 353 1747 
Q 353 2603 823 3093 
Q 1294 3584 2113 3584 
Q 2378 3584 2631 3529 
Q 2884 3475 3122 3366 
z
" transform="scale(0.015625)"/>
      <path id="DejaVuSans-54" d="M -19 4666 
L 3928 4666 
L 3928 4134 
L 2272 4134 
L 2272 0 
L 1638 0 
L 1638 4134 
L -19 4134 
L -19 4666 
z
" transform="scale(0.015625)"/>
      <path id="DejaVuSans-70" d="M 1159 525 
L 1159 -1331 
L 581 -1331 
L 581 3500 
L 1159 3500 
L 1159 2969 
Q 1341 3281 1617 3432 
Q 1894 3584 2278 3584 
Q 2916 3584 3314 3078 
Q 3713 2572 3713 1747 
Q 3713 922 3314 415 
Q 2916 -91 2278 -91 
Q 1894 -91 1617 61 
Q 1341 213 1159 525 
z
M 3116 1747 
Q 3116 2381 2855 2742 
Q 2594 3103 2138 3103 
Q 1681 3103 1420 2742 
Q 1159 2381 1159 1747 
Q 1159 1113 1420 752 
Q 1681 391 2138 391 
Q 2594 391 2855 752 
Q 3116 1113 3116 1747 
z
" transform="scale(0.015625)"/>
      <path id="DejaVuSans-2a" d="M 3009 3897 
L 1888 3291 
L 3009 2681 
L 2828 2375 
L 1778 3009 
L 1778 1831 
L 1422 1831 
L 1422 3009 
L 372 2375 
L 191 2681 
L 1313 3291 
L 191 3897 
L 372 4206 
L 1422 3572 
L 1422 4750 
L 1778 4750 
L 1778 3572 
L 2828 4206 
L 3009 3897 
z
" transform="scale(0.015625)"/>
      <path id="DejaVuSans-3d" d="M 678 2906 
L 4684 2906 
L 4684 2381 
L 678 2381 
L 678 2906 
z
M 678 1631 
L 4684 1631 
L 4684 1100 
L 678 1100 
L 678 1631 
z
" transform="scale(0.015625)"/>
     </defs>
     <use xlink:href="#DejaVuSans-52" transform="translate(0 0.765625)"/>
     <use xlink:href="#DejaVuSans-65" transform="translate(69.482422 0.765625)"/>
     <use xlink:href="#DejaVuSans-64" transform="translate(131.005859 0.765625)"/>
     <use xlink:href="#DejaVuSans-75" transform="translate(194.482422 0.765625)"/>
     <use xlink:href="#DejaVuSans-63" transform="translate(257.861328 0.765625)"/>
     <use xlink:href="#DejaVuSans-65" transform="translate(312.841797 0.765625)"/>
     <use xlink:href="#DejaVuSans-64" transform="translate(374.365234 0.765625)"/>
     <use xlink:href="#DejaVuSans-20" transform="translate(437.841797 0.765625)"/>
     <use xlink:href="#DejaVuSans-54" transform="translate(469.628906 0.765625)"/>
     <use xlink:href="#DejaVuSans-65" transform="translate(530.712891 0.765625)"/>
     <use xlink:href="#DejaVuSans-6d" transform="translate(592.236328 0.765625)"/>
     <use xlink:href="#DejaVuSans-70" transform="translate(689.648438 0.765625)"/>
     <use xlink:href="#DejaVuSans-65" transform="translate(753.125 0.765625)"/>
     <use xlink:href="#DejaVuSans-72" transform="translate(814.648438 0.765625)"/>
     <use xlink:href="#DejaVuSans-61" transform="translate(855.761719 0.765625)"/>
     <use xlink:href="#DejaVuSans-74" transform="translate(917.041016 0.765625)"/>
     <use xlink:href="#DejaVuSans-75" transform="translate(956.25 0.765625)"/>
     <use xlink:href="#DejaVuSans-72" transform="translate(1019.628906 0.765625)"/>
     <use xlink:href="#DejaVuSans-65" transform="translate(1060.742188 0.765625)"/>
     <use xlink:href="#DejaVuSans-2c" transform="translate(1122.265625 0.765625)"/>
     <use xlink:href="#DejaVuSans-54" transform="translate(1154.052734 0.765625)"/>
     <use xlink:href="#DejaVuSans-2a" transform="translate(1229.731445 39.046875) scale(0.7)"/>
     <use xlink:href="#DejaVuSans-3d" transform="translate(1281.103516 0.765625)"/>
     <use xlink:href="#DejaVuSans-30" transform="translate(1364.892578 0.765625)"/>
     <use xlink:href="#DejaVuSans-2e" transform="translate(1428.515625 0.765625)"/>
     <use xlink:href="#DejaVuSans-36" transform="translate(1460.302734 0.765625)"/>
     <use xlink:href="#DejaVuSans-35" transform="translate(1523.925781 0.765625)"/>
    </g>
   </g>
  </g>
 </g>
 <defs>
  <clipPath id="pd6fef773db">
   <rect x="57.6" y="41.472" width="357.12" height="266.112"/>
  </clipPath>
 </defs>
</svg>
