<?xml version="1.0" encoding="utf-8" standalone="no"?>
<!DOCTYPE svg PUBLIC "-//W3C//DTD SVG 1.1//EN"
  "http://www.w3.org/Graphics/SVG/1.1/DTD/svg11.dtd">
<svg xmlns:xlink="http://www.w3.org/1999/xlink" width="460.8pt" height="345.6pt" viewBox="0 0 460.8 345.6" xmlns="http://www.w3.org/2000/svg" version="1.1">
 <metadata>
  <rdf:RDF xmlns:dc="http://purl.org/dc/elements/1.1/" xmlns:cc="http://creativecommons.org/ns#" xmlns:rdf="http://www.w3.org/1999/02/22-rdf-syntax-ns#">
   <cc:Work>
    <dc:type rdf:resource="http://purl.org/dc/dcmitype/StillImage"/>
    <dc:date>2024-03-10T00:31:12.727195</dc:date>
    <dc:format>image/svg+xml</dc:format>
    <dc:creator>
     <cc:Agent>
      <dc:title>Matplotlib v3.8.3, https://matplotlib.org/</dc:title>
     </cc:Agent>
    </dc:creator>
   </cc:Work>
  </rdf:RDF>
 </metadata>
 <defs>
  <style type="text/css">*{stroke-linejoin: round; stroke-linecap: butt}</style>
 </defs>
 <g id="figure_1">
  <g id="patch_1">
   <path d="M 0 345.6 
L 460.8 345.6 
L 460.8 0 
L 0 0 
z
" style="fill: #ffffff"/>
  </g>
  <g id="axes_1">
   <g id="patch_2">
    <path d="M 57.6 307.584 
L 414.72 307.584 
L 414.72 41.472 
L 57.6 41.472 
z
" style="fill: #ffffff"/>
   </g>
   <g id="matplotlib.axis_1">
    <g id="xtick_1">
     <g id="line2d_1">
      <defs>
       <path id="m0e920879ec" d="M 0 0 
L 0 3.5 
" style="stroke: #000000; stroke-width: 0.8"/>
      </defs>
      <g>
       <use xlink:href="#m0e920879ec" x="73.832727" y="307.584" style="stroke: #000000; stroke-width: 0.8"/>
      </g>
     </g>
     <g id="text_1">
      <!-- 0 -->
      <g transform="translate(70.651477 322.182437) scale(0.1 -0.1)">
       <defs>
        <path id="DejaVuSans-30" d="M 2034 4250 
Q 1547 4250 1301 3770 
Q 1056 3291 1056 2328 
Q 1056 1369 1301 889 
Q 1547 409 2034 409 
Q 2525 409 2770 889 
Q 3016 1369 3016 2328 
Q 3016 3291 2770 3770 
Q 2525 4250 2034 4250 
z
M 2034 4750 
Q 2819 4750 3233 4129 
Q 3647 3509 3647 2328 
Q 3647 1150 3233 529 
Q 2819 -91 2034 -91 
Q 1250 -91 836 529 
Q 422 1150 422 2328 
Q 422 3509 836 4129 
Q 1250 4750 2034 4750 
z
" transform="scale(0.015625)"/>
       </defs>
       <use xlink:href="#DejaVuSans-30"/>
      </g>
     </g>
    </g>
    <g id="xtick_2">
     <g id="line2d_2">
      <g>
       <use xlink:href="#m0e920879ec" x="138.763636" y="307.584" style="stroke: #000000; stroke-width: 0.8"/>
      </g>
     </g>
     <g id="text_2">
      <!-- 200 -->
      <g transform="translate(129.219886 322.182437) scale(0.1 -0.1)">
       <defs>
        <path id="DejaVuSans-32" d="M 1228 531 
L 3431 531 
L 3431 0 
L 469 0 
L 469 531 
Q 828 903 1448 1529 
Q 2069 2156 2228 2338 
Q 2531 2678 2651 2914 
Q 2772 3150 2772 3378 
Q 2772 3750 2511 3984 
Q 2250 4219 1831 4219 
Q 1534 4219 1204 4116 
Q 875 4013 500 3803 
L 500 4441 
Q 881 4594 1212 4672 
Q 1544 4750 1819 4750 
Q 2544 4750 2975 4387 
Q 3406 4025 3406 3419 
Q 3406 3131 3298 2873 
Q 3191 2616 2906 2266 
Q 2828 2175 2409 1742 
Q 1991 1309 1228 531 
z
" transform="scale(0.015625)"/>
       </defs>
       <use xlink:href="#DejaVuSans-32"/>
       <use xlink:href="#DejaVuSans-30" x="63.623047"/>
       <use xlink:href="#DejaVuSans-30" x="127.246094"/>
      </g>
     </g>
    </g>
    <g id="xtick_3">
     <g id="line2d_3">
      <g>
       <use xlink:href="#m0e920879ec" x="203.694545" y="307.584" style="stroke: #000000; stroke-width: 0.8"/>
      </g>
     </g>
     <g id="text_3">
      <!-- 400 -->
      <g transform="translate(194.150795 322.182437) scale(0.1 -0.1)">
       <defs>
        <path id="DejaVuSans-34" d="M 2419 4116 
L 825 1625 
L 2419 1625 
L 2419 4116 
z
M 2253 4666 
L 3047 4666 
L 3047 1625 
L 3713 1625 
L 3713 1100 
L 3047 1100 
L 3047 0 
L 2419 0 
L 2419 1100 
L 313 1100 
L 313 1709 
L 2253 4666 
z
" transform="scale(0.015625)"/>
       </defs>
       <use xlink:href="#DejaVuSans-34"/>
       <use xlink:href="#DejaVuSans-30" x="63.623047"/>
       <use xlink:href="#DejaVuSans-30" x="127.246094"/>
      </g>
     </g>
    </g>
    <g id="xtick_4">
     <g id="line2d_4">
      <g>
       <use xlink:href="#m0e920879ec" x="268.625455" y="307.584" style="stroke: #000000; stroke-width: 0.8"/>
      </g>
     </g>
     <g id="text_4">
      <!-- 600 -->
      <g transform="translate(259.081705 322.182437) scale(0.1 -0.1)">
       <defs>
        <path id="DejaVuSans-36" d="M 2113 2584 
Q 1688 2584 1439 2293 
Q 1191 2003 1191 1497 
Q 1191 994 1439 701 
Q 1688 409 2113 409 
Q 2538 409 2786 701 
Q 3034 994 3034 1497 
Q 3034 2003 2786 2293 
Q 2538 2584 2113 2584 
z
M 3366 4563 
L 3366 3988 
Q 3128 4100 2886 4159 
Q 2644 4219 2406 4219 
Q 1781 4219 1451 3797 
Q 1122 3375 1075 2522 
Q 1259 2794 1537 2939 
Q 1816 3084 2150 3084 
Q 2853 3084 3261 2657 
Q 3669 2231 3669 1497 
Q 3669 778 3244 343 
Q 2819 -91 2113 -91 
Q 1303 -91 875 529 
Q 447 1150 447 2328 
Q 447 3434 972 4092 
Q 1497 4750 2381 4750 
Q 2619 4750 2861 4703 
Q 3103 4656 3366 4563 
z
" transform="scale(0.015625)"/>
       </defs>
       <use xlink:href="#DejaVuSans-36"/>
       <use xlink:href="#DejaVuSans-30" x="63.623047"/>
       <use xlink:href="#DejaVuSans-30" x="127.246094"/>
      </g>
     </g>
    </g>
    <g id="xtick_5">
     <g id="line2d_5">
      <g>
       <use xlink:href="#m0e920879ec" x="333.556364" y="307.584" style="stroke: #000000; stroke-width: 0.8"/>
      </g>
     </g>
     <g id="text_5">
      <!-- 800 -->
      <g transform="translate(324.012614 322.182437) scale(0.1 -0.1)">
       <defs>
        <path id="DejaVuSans-38" d="M 2034 2216 
Q 1584 2216 1326 1975 
Q 1069 1734 1069 1313 
Q 1069 891 1326 650 
Q 1584 409 2034 409 
Q 2484 409 2743 651 
Q 3003 894 3003 1313 
Q 3003 1734 2745 1975 
Q 2488 2216 2034 2216 
z
M 1403 2484 
Q 997 2584 770 2862 
Q 544 3141 544 3541 
Q 544 4100 942 4425 
Q 1341 4750 2034 4750 
Q 2731 4750 3128 4425 
Q 3525 4100 3525 3541 
Q 3525 3141 3298 2862 
Q 3072 2584 2669 2484 
Q 3125 2378 3379 2068 
Q 3634 1759 3634 1313 
Q 3634 634 3220 271 
Q 2806 -91 2034 -91 
Q 1263 -91 848 271 
Q 434 634 434 1313 
Q 434 1759 690 2068 
Q 947 2378 1403 2484 
z
M 1172 3481 
Q 1172 3119 1398 2916 
Q 1625 2713 2034 2713 
Q 2441 2713 2670 2916 
Q 2900 3119 2900 3481 
Q 2900 3844 2670 4047 
Q 2441 4250 2034 4250 
Q 1625 4250 1398 4047 
Q 1172 3844 1172 3481 
z
" transform="scale(0.015625)"/>
       </defs>
       <use xlink:href="#DejaVuSans-38"/>
       <use xlink:href="#DejaVuSans-30" x="63.623047"/>
       <use xlink:href="#DejaVuSans-30" x="127.246094"/>
      </g>
     </g>
    </g>
    <g id="xtick_6">
     <g id="line2d_6">
      <g>
       <use xlink:href="#m0e920879ec" x="398.487273" y="307.584" style="stroke: #000000; stroke-width: 0.8"/>
      </g>
     </g>
     <g id="text_6">
      <!-- 1000 -->
      <g transform="translate(385.762273 322.182437) scale(0.1 -0.1)">
       <defs>
        <path id="DejaVuSans-31" d="M 794 531 
L 1825 531 
L 1825 4091 
L 703 3866 
L 703 4441 
L 1819 4666 
L 2450 4666 
L 2450 531 
L 3481 531 
L 3481 0 
L 794 0 
L 794 531 
z
" transform="scale(0.015625)"/>
       </defs>
       <use xlink:href="#DejaVuSans-31"/>
       <use xlink:href="#DejaVuSans-30" x="63.623047"/>
       <use xlink:href="#DejaVuSans-30" x="127.246094"/>
       <use xlink:href="#DejaVuSans-30" x="190.869141"/>
      </g>
     </g>
    </g>
    <g id="text_7">
     <!-- MCS -->
     <g transform="translate(225.180312 335.860562) scale(0.1 -0.1)">
      <defs>
       <path id="DejaVuSans-4d" d="M 628 4666 
L 1569 4666 
L 2759 1491 
L 3956 4666 
L 4897 4666 
L 4897 0 
L 4281 0 
L 4281 4097 
L 3078 897 
L 2444 897 
L 1241 4097 
L 1241 0 
L 628 0 
L 628 4666 
z
" transform="scale(0.015625)"/>
       <path id="DejaVuSans-43" d="M 4122 4306 
L 4122 3641 
Q 3803 3938 3442 4084 
Q 3081 4231 2675 4231 
Q 1875 4231 1450 3742 
Q 1025 3253 1025 2328 
Q 1025 1406 1450 917 
Q 1875 428 2675 428 
Q 3081 428 3442 575 
Q 3803 722 4122 1019 
L 4122 359 
Q 3791 134 3420 21 
Q 3050 -91 2638 -91 
Q 1578 -91 968 557 
Q 359 1206 359 2328 
Q 359 3453 968 4101 
Q 1578 4750 2638 4750 
Q 3056 4750 3426 4639 
Q 3797 4528 4122 4306 
z
" transform="scale(0.015625)"/>
       <path id="DejaVuSans-53" d="M 3425 4513 
L 3425 3897 
Q 3066 4069 2747 4153 
Q 2428 4238 2131 4238 
Q 1616 4238 1336 4038 
Q 1056 3838 1056 3469 
Q 1056 3159 1242 3001 
Q 1428 2844 1947 2747 
L 2328 2669 
Q 3034 2534 3370 2195 
Q 3706 1856 3706 1288 
Q 3706 609 3251 259 
Q 2797 -91 1919 -91 
Q 1588 -91 1214 -16 
Q 841 59 441 206 
L 441 856 
Q 825 641 1194 531 
Q 1563 422 1919 422 
Q 2459 422 2753 634 
Q 3047 847 3047 1241 
Q 3047 1584 2836 1778 
Q 2625 1972 2144 2069 
L 1759 2144 
Q 1053 2284 737 2584 
Q 422 2884 422 3419 
Q 422 4038 858 4394 
Q 1294 4750 2059 4750 
Q 2388 4750 2728 4690 
Q 3069 4631 3425 4513 
z
" transform="scale(0.015625)"/>
      </defs>
      <use xlink:href="#DejaVuSans-4d"/>
      <use xlink:href="#DejaVuSans-43" x="86.279297"/>
      <use xlink:href="#DejaVuSans-53" x="156.103516"/>
     </g>
    </g>
   </g>
   <g id="matplotlib.axis_2">
    <g id="ytick_1">
     <g id="line2d_7">
      <defs>
       <path id="m3a5dbebfdd" d="M 0 0 
L -3.5 0 
" style="stroke: #000000; stroke-width: 0.8"/>
      </defs>
      <g>
       <use xlink:href="#m3a5dbebfdd" x="57.6" y="281.956667" style="stroke: #000000; stroke-width: 0.8"/>
      </g>
     </g>
     <g id="text_8">
      <!-- 0.3 -->
      <g transform="translate(34.696875 285.755886) scale(0.1 -0.1)">
       <defs>
        <path id="DejaVuSans-2e" d="M 684 794 
L 1344 794 
L 1344 0 
L 684 0 
L 684 794 
z
" transform="scale(0.015625)"/>
        <path id="DejaVuSans-33" d="M 2597 2516 
Q 3050 2419 3304 2112 
Q 3559 1806 3559 1356 
Q 3559 666 3084 287 
Q 2609 -91 1734 -91 
Q 1441 -91 1130 -33 
Q 819 25 488 141 
L 488 750 
Q 750 597 1062 519 
Q 1375 441 1716 441 
Q 2309 441 2620 675 
Q 2931 909 2931 1356 
Q 2931 1769 2642 2001 
Q 2353 2234 1838 2234 
L 1294 2234 
L 1294 2753 
L 1863 2753 
Q 2328 2753 2575 2939 
Q 2822 3125 2822 3475 
Q 2822 3834 2567 4026 
Q 2313 4219 1838 4219 
Q 1578 4219 1281 4162 
Q 984 4106 628 3988 
L 628 4550 
Q 988 4650 1302 4700 
Q 1616 4750 1894 4750 
Q 2613 4750 3031 4423 
Q 3450 4097 3450 3541 
Q 3450 3153 3228 2886 
Q 3006 2619 2597 2516 
z
" transform="scale(0.015625)"/>
       </defs>
       <use xlink:href="#DejaVuSans-30"/>
       <use xlink:href="#DejaVuSans-2e" x="63.623047"/>
       <use xlink:href="#DejaVuSans-33" x="95.410156"/>
      </g>
     </g>
    </g>
    <g id="ytick_2">
     <g id="line2d_8">
      <g>
       <use xlink:href="#m3a5dbebfdd" x="57.6" y="239.802982" style="stroke: #000000; stroke-width: 0.8"/>
      </g>
     </g>
     <g id="text_9">
      <!-- 0.4 -->
      <g transform="translate(34.696875 243.6022) scale(0.1 -0.1)">
       <use xlink:href="#DejaVuSans-30"/>
       <use xlink:href="#DejaVuSans-2e" x="63.623047"/>
       <use xlink:href="#DejaVuSans-34" x="95.410156"/>
      </g>
     </g>
    </g>
    <g id="ytick_3">
     <g id="line2d_9">
      <g>
       <use xlink:href="#m3a5dbebfdd" x="57.6" y="197.649296" style="stroke: #000000; stroke-width: 0.8"/>
      </g>
     </g>
     <g id="text_10">
      <!-- 0.5 -->
      <g transform="translate(34.696875 201.448515) scale(0.1 -0.1)">
       <defs>
        <path id="DejaVuSans-35" d="M 691 4666 
L 3169 4666 
L 3169 4134 
L 1269 4134 
L 1269 2991 
Q 1406 3038 1543 3061 
Q 1681 3084 1819 3084 
Q 2600 3084 3056 2656 
Q 3513 2228 3513 1497 
Q 3513 744 3044 326 
Q 2575 -91 1722 -91 
Q 1428 -91 1123 -41 
Q 819 9 494 109 
L 494 744 
Q 775 591 1075 516 
Q 1375 441 1709 441 
Q 2250 441 2565 725 
Q 2881 1009 2881 1497 
Q 2881 1984 2565 2268 
Q 2250 2553 1709 2553 
Q 1456 2553 1204 2497 
Q 953 2441 691 2322 
L 691 4666 
z
" transform="scale(0.015625)"/>
       </defs>
       <use xlink:href="#DejaVuSans-30"/>
       <use xlink:href="#DejaVuSans-2e" x="63.623047"/>
       <use xlink:href="#DejaVuSans-35" x="95.410156"/>
      </g>
     </g>
    </g>
    <g id="ytick_4">
     <g id="line2d_10">
      <g>
       <use xlink:href="#m3a5dbebfdd" x="57.6" y="155.495611" style="stroke: #000000; stroke-width: 0.8"/>
      </g>
     </g>
     <g id="text_11">
      <!-- 0.6 -->
      <g transform="translate(34.696875 159.29483) scale(0.1 -0.1)">
       <use xlink:href="#DejaVuSans-30"/>
       <use xlink:href="#DejaVuSans-2e" x="63.623047"/>
       <use xlink:href="#DejaVuSans-36" x="95.410156"/>
      </g>
     </g>
    </g>
    <g id="ytick_5">
     <g id="line2d_11">
      <g>
       <use xlink:href="#m3a5dbebfdd" x="57.6" y="113.341926" style="stroke: #000000; stroke-width: 0.8"/>
      </g>
     </g>
     <g id="text_12">
      <!-- 0.7 -->
      <g transform="translate(34.696875 117.141145) scale(0.1 -0.1)">
       <defs>
        <path id="DejaVuSans-37" d="M 525 4666 
L 3525 4666 
L 3525 4397 
L 1831 0 
L 1172 0 
L 2766 4134 
L 525 4134 
L 525 4666 
z
" transform="scale(0.015625)"/>
       </defs>
       <use xlink:href="#DejaVuSans-30"/>
       <use xlink:href="#DejaVuSans-2e" x="63.623047"/>
       <use xlink:href="#DejaVuSans-37" x="95.410156"/>
      </g>
     </g>
    </g>
    <g id="ytick_6">
     <g id="line2d_12">
      <g>
       <use xlink:href="#m3a5dbebfdd" x="57.6" y="71.18824" style="stroke: #000000; stroke-width: 0.8"/>
      </g>
     </g>
     <g id="text_13">
      <!-- 0.8 -->
      <g transform="translate(34.696875 74.987459) scale(0.1 -0.1)">
       <use xlink:href="#DejaVuSans-30"/>
       <use xlink:href="#DejaVuSans-2e" x="63.623047"/>
       <use xlink:href="#DejaVuSans-38" x="95.410156"/>
      </g>
     </g>
    </g>
    <g id="text_14">
     <!-- Order Parameter,S -->
     <g transform="translate(28.617187 221.103) rotate(-90) scale(0.1 -0.1)">
      <defs>
       <path id="DejaVuSans-4f" d="M 2522 4238 
Q 1834 4238 1429 3725 
Q 1025 3213 1025 2328 
Q 1025 1447 1429 934 
Q 1834 422 2522 422 
Q 3209 422 3611 934 
Q 4013 1447 4013 2328 
Q 4013 3213 3611 3725 
Q 3209 4238 2522 4238 
z
M 2522 4750 
Q 3503 4750 4090 4092 
Q 4678 3434 4678 2328 
Q 4678 1225 4090 567 
Q 3503 -91 2522 -91 
Q 1538 -91 948 565 
Q 359 1222 359 2328 
Q 359 3434 948 4092 
Q 1538 4750 2522 4750 
z
" transform="scale(0.015625)"/>
       <path id="DejaVuSans-72" d="M 2631 2963 
Q 2534 3019 2420 3045 
Q 2306 3072 2169 3072 
Q 1681 3072 1420 2755 
Q 1159 2438 1159 1844 
L 1159 0 
L 581 0 
L 581 3500 
L 1159 3500 
L 1159 2956 
Q 1341 3275 1631 3429 
Q 1922 3584 2338 3584 
Q 2397 3584 2469 3576 
Q 2541 3569 2628 3553 
L 2631 2963 
z
" transform="scale(0.015625)"/>
       <path id="DejaVuSans-64" d="M 2906 2969 
L 2906 4863 
L 3481 4863 
L 3481 0 
L 2906 0 
L 2906 525 
Q 2725 213 2448 61 
Q 2172 -91 1784 -91 
Q 1150 -91 751 415 
Q 353 922 353 1747 
Q 353 2572 751 3078 
Q 1150 3584 1784 3584 
Q 2172 3584 2448 3432 
Q 2725 3281 2906 2969 
z
M 947 1747 
Q 947 1113 1208 752 
Q 1469 391 1925 391 
Q 2381 391 2643 752 
Q 2906 1113 2906 1747 
Q 2906 2381 2643 2742 
Q 2381 3103 1925 3103 
Q 1469 3103 1208 2742 
Q 947 2381 947 1747 
z
" transform="scale(0.015625)"/>
       <path id="DejaVuSans-65" d="M 3597 1894 
L 3597 1613 
L 953 1613 
Q 991 1019 1311 708 
Q 1631 397 2203 397 
Q 2534 397 2845 478 
Q 3156 559 3463 722 
L 3463 178 
Q 3153 47 2828 -22 
Q 2503 -91 2169 -91 
Q 1331 -91 842 396 
Q 353 884 353 1716 
Q 353 2575 817 3079 
Q 1281 3584 2069 3584 
Q 2775 3584 3186 3129 
Q 3597 2675 3597 1894 
z
M 3022 2063 
Q 3016 2534 2758 2815 
Q 2500 3097 2075 3097 
Q 1594 3097 1305 2825 
Q 1016 2553 972 2059 
L 3022 2063 
z
" transform="scale(0.015625)"/>
       <path id="DejaVuSans-20" transform="scale(0.015625)"/>
       <path id="DejaVuSans-50" d="M 1259 4147 
L 1259 2394 
L 2053 2394 
Q 2494 2394 2734 2622 
Q 2975 2850 2975 3272 
Q 2975 3691 2734 3919 
Q 2494 4147 2053 4147 
L 1259 4147 
z
M 628 4666 
L 2053 4666 
Q 2838 4666 3239 4311 
Q 3641 3956 3641 3272 
Q 3641 2581 3239 2228 
Q 2838 1875 2053 1875 
L 1259 1875 
L 1259 0 
L 628 0 
L 628 4666 
z
" transform="scale(0.015625)"/>
       <path id="DejaVuSans-61" d="M 2194 1759 
Q 1497 1759 1228 1600 
Q 959 1441 959 1056 
Q 959 750 1161 570 
Q 1363 391 1709 391 
Q 2188 391 2477 730 
Q 2766 1069 2766 1631 
L 2766 1759 
L 2194 1759 
z
M 3341 1997 
L 3341 0 
L 2766 0 
L 2766 531 
Q 2569 213 2275 61 
Q 1981 -91 1556 -91 
Q 1019 -91 701 211 
Q 384 513 384 1019 
Q 384 1609 779 1909 
Q 1175 2209 1959 2209 
L 2766 2209 
L 2766 2266 
Q 2766 2663 2505 2880 
Q 2244 3097 1772 3097 
Q 1472 3097 1187 3025 
Q 903 2953 641 2809 
L 641 3341 
Q 956 3463 1253 3523 
Q 1550 3584 1831 3584 
Q 2591 3584 2966 3190 
Q 3341 2797 3341 1997 
z
" transform="scale(0.015625)"/>
       <path id="DejaVuSans-6d" d="M 3328 2828 
Q 3544 3216 3844 3400 
Q 4144 3584 4550 3584 
Q 5097 3584 5394 3201 
Q 5691 2819 5691 2113 
L 5691 0 
L 5113 0 
L 5113 2094 
Q 5113 2597 4934 2840 
Q 4756 3084 4391 3084 
Q 3944 3084 3684 2787 
Q 3425 2491 3425 1978 
L 3425 0 
L 2847 0 
L 2847 2094 
Q 2847 2600 2669 2842 
Q 2491 3084 2119 3084 
Q 1678 3084 1418 2786 
Q 1159 2488 1159 1978 
L 1159 0 
L 581 0 
L 581 3500 
L 1159 3500 
L 1159 2956 
Q 1356 3278 1631 3431 
Q 1906 3584 2284 3584 
Q 2666 3584 2933 3390 
Q 3200 3197 3328 2828 
z
" transform="scale(0.015625)"/>
       <path id="DejaVuSans-74" d="M 1172 4494 
L 1172 3500 
L 2356 3500 
L 2356 3053 
L 1172 3053 
L 1172 1153 
Q 1172 725 1289 603 
Q 1406 481 1766 481 
L 2356 481 
L 2356 0 
L 1766 0 
Q 1100 0 847 248 
Q 594 497 594 1153 
L 594 3053 
L 172 3053 
L 172 3500 
L 594 3500 
L 594 4494 
L 1172 4494 
z
" transform="scale(0.015625)"/>
       <path id="DejaVuSans-2c" d="M 750 794 
L 1409 794 
L 1409 256 
L 897 -744 
L 494 -744 
L 750 256 
L 750 794 
z
" transform="scale(0.015625)"/>
      </defs>
      <use xlink:href="#DejaVuSans-4f"/>
      <use xlink:href="#DejaVuSans-72" x="78.710938"/>
      <use xlink:href="#DejaVuSans-64" x="118.074219"/>
      <use xlink:href="#DejaVuSans-65" x="181.550781"/>
      <use xlink:href="#DejaVuSans-72" x="243.074219"/>
      <use xlink:href="#DejaVuSans-20" x="284.1875"/>
      <use xlink:href="#DejaVuSans-50" x="315.974609"/>
      <use xlink:href="#DejaVuSans-61" x="371.777344"/>
      <use xlink:href="#DejaVuSans-72" x="433.056641"/>
      <use xlink:href="#DejaVuSans-61" x="474.169922"/>
      <use xlink:href="#DejaVuSans-6d" x="535.449219"/>
      <use xlink:href="#DejaVuSans-65" x="632.861328"/>
      <use xlink:href="#DejaVuSans-74" x="694.384766"/>
      <use xlink:href="#DejaVuSans-65" x="733.59375"/>
      <use xlink:href="#DejaVuSans-72" x="795.117188"/>
      <use xlink:href="#DejaVuSans-2c" x="836.230469"/>
      <use xlink:href="#DejaVuSans-53" x="868.017578"/>
     </g>
    </g>
   </g>
   <g id="line2d_13">
    <path d="M 73.832727 290.851095 
L 74.157382 285.328962 
L 74.482036 266.823494 
L 74.806691 259.151523 
L 75.131345 257.381068 
L 75.456 257.549683 
L 75.780655 251.058016 
L 76.105309 258.729986 
L 76.754618 281.282208 
L 77.079273 277.277608 
L 77.403927 278.373604 
L 77.728582 276.982532 
L 78.053236 282.251743 
L 78.377891 293.464623 
L 79.0272 291.778476 
L 79.351855 292.410781 
L 79.676509 281.366515 
L 80.001164 281.661591 
L 80.325818 281.661591 
L 80.650473 281.113593 
L 80.975127 276.771764 
L 81.299782 280.692056 
L 81.624436 274.874848 
L 81.949091 260.205365 
L 82.273745 262.692433 
L 82.923055 249.034639 
L 83.247709 245.493729 
L 83.572364 239.676521 
L 83.897018 249.456176 
L 84.221673 249.456176 
L 84.546327 253.924466 
L 84.870982 254.093081 
L 85.195636 250.594325 
L 85.520291 252.36478 
L 85.844945 252.449087 
L 86.1696 246.252496 
L 86.494255 245.578037 
L 86.818909 253.713698 
L 87.143564 253.250007 
L 87.468218 260.036751 
L 87.792873 270.195789 
L 88.117527 272.092705 
L 88.442182 266.570572 
L 89.091491 274.537618 
L 89.416145 274.495465 
L 89.7408 286.256343 
L 90.065455 284.865271 
L 90.390109 286.804341 
L 90.714764 281.745899 
L 91.039418 295.488 
L 91.688727 285.624038 
L 92.013382 272.514242 
L 92.338036 270.743787 
L 92.662691 273.1887 
L 92.987345 269.816406 
L 93.312 270.78594 
L 93.636655 276.560995 
L 93.961309 270.617326 
L 94.285964 269.689945 
L 94.610618 267.202877 
L 94.935273 270.996709 
L 95.259927 278.710833 
L 95.584582 279.511753 
L 95.909236 282.841894 
L 96.233891 281.577284 
L 96.558545 277.825606 
L 96.8832 280.059751 
L 97.207855 277.699145 
L 97.532509 274.158235 
L 98.181818 285.53973 
L 98.506473 286.129882 
L 98.831127 287.4788 
L 99.155782 279.553907 
L 99.805091 270.32225 
L 100.129745 262.355203 
L 100.4544 269.858559 
L 100.779055 259.320138 
L 101.103709 261.301361 
L 101.428364 261.090593 
L 101.753018 267.413646 
L 102.077673 276.434534 
L 102.402327 263.957043 
L 102.726982 262.650279 
L 103.051636 266.359803 
L 103.376291 256.959532 
L 103.700945 266.064728 
L 104.0256 271.839783 
L 104.350255 267.287185 
L 104.674909 273.483776 
L 104.999564 273.736698 
L 105.324218 281.53513 
L 105.648873 283.052663 
L 105.973527 276.055151 
L 106.298182 280.987132 
L 106.947491 286.298497 
L 107.272145 282.715433 
L 107.921455 284.190812 
L 108.246109 276.181612 
L 108.570764 265.390269 
L 108.895418 282.546819 
L 109.544727 266.233342 
L 109.869382 274.621926 
L 110.194036 274.411157 
L 110.518691 275.254231 
L 110.843345 273.905313 
L 111.168 270.490865 
L 111.492655 272.008397 
L 111.817309 264.673656 
L 112.141964 265.601037 
L 112.466618 259.868136 
L 112.791273 258.940755 
L 113.115927 260.163212 
L 113.440582 249.329715 
L 113.765236 250.552171 
L 114.089891 249.456176 
L 114.414545 254.135235 
L 114.7392 252.02755 
L 115.063855 243.807582 
L 115.388509 241.868512 
L 115.713164 243.301738 
L 116.037818 238.664832 
L 116.362473 237.062992 
L 116.687127 242.627279 
L 117.011782 256.200765 
L 117.336436 257.50753 
L 117.661091 257.633991 
L 117.985745 258.30845 
L 118.3104 254.556772 
L 118.635055 255.905689 
L 119.284364 247.601413 
L 119.609018 238.875601 
L 119.933673 239.254984 
L 120.258327 238.327603 
L 120.582982 238.074681 
L 120.907636 239.170676 
L 121.232291 238.032527 
L 121.556945 238.032527 
L 121.8816 241.194053 
L 122.206255 246.126035 
L 122.530909 254.093081 
L 122.855564 255.989997 
L 123.504873 250.172788 
L 123.829527 252.069704 
L 124.154182 248.02295 
L 124.478836 256.158612 
L 124.803491 260.753363 
L 125.128145 268.088105 
L 125.4528 270.364404 
L 125.777455 267.835182 
L 126.102109 269.98502 
L 126.751418 258.350603 
L 127.400727 254.683233 
L 127.725382 253.924466 
L 128.050036 254.514618 
L 128.374691 247.812182 
L 128.699345 252.196165 
L 129.024 249.62479 
L 129.348655 261.51213 
L 129.673309 252.786317 
L 129.997964 256.748763 
L 130.322618 258.898601 
L 130.647273 257.381068 
L 130.971927 258.097681 
L 131.621236 244.482041 
L 131.945891 245.95742 
L 132.270545 237.526683 
L 132.5952 240.730363 
L 132.919855 241.025439 
L 133.244509 237.315914 
L 133.569164 236.936531 
L 133.893818 236.894377 
L 134.218473 240.646055 
L 134.543127 246.041727 
L 134.867782 245.282961 
L 135.192436 244.945731 
L 135.517091 245.240807 
L 135.841745 243.807582 
L 136.1664 252.069704 
L 136.491055 252.154012 
L 136.815709 258.687833 
L 137.140364 261.638591 
L 137.465018 266.823494 
L 137.789673 262.31305 
L 138.114327 263.366892 
L 138.438982 258.013374 
L 138.763636 258.687833 
L 139.088291 262.355203 
L 139.412945 263.746275 
L 139.7376 256.032151 
L 140.062255 253.081393 
L 140.386909 252.02755 
L 140.711564 253.587237 
L 141.360873 259.193677 
L 141.685527 256.833071 
L 142.010182 252.744163 
L 142.334836 254.303849 
L 142.659491 249.498329 
L 142.984145 238.875601 
L 143.3088 236.81007 
L 143.633455 237.821758 
L 143.958109 241.446975 
L 144.282764 242.332203 
L 144.607418 242.500818 
L 144.932073 238.622679 
L 145.256727 239.802982 
L 145.581382 229.433175 
L 145.906036 225.175653 
L 146.230691 222.815047 
L 146.555345 218.641832 
L 146.88 220.243672 
L 147.204655 215.901842 
L 147.529309 216.323379 
L 147.853964 217.335067 
L 148.178618 217.840912 
L 148.503273 228.505794 
L 149.152582 231.456552 
L 149.477236 224.416887 
L 149.801891 226.229495 
L 150.126545 219.99075 
L 150.4512 223.700274 
L 150.775855 221.002438 
L 151.100509 208.946484 
L 151.749818 198.534524 
L 152.074473 196.258225 
L 152.399127 188.038256 
L 152.723782 188.122564 
L 153.048436 183.907195 
L 153.373091 186.436416 
L 153.697745 182.263201 
L 154.0224 185.719803 
L 154.347055 182.178894 
L 154.996364 189.471481 
L 155.321018 182.389662 
L 155.645673 178.595831 
L 155.970327 178.93306 
L 156.294982 187.953949 
L 156.619636 183.949349 
L 156.944291 193.729004 
L 157.268945 190.525324 
L 157.5936 192.337932 
L 157.918255 186.520723 
L 158.242909 187.953949 
L 158.567564 183.27489 
L 158.892218 187.911795 
L 159.216873 184.413039 
L 159.541527 186.857953 
L 159.866182 192.380086 
L 160.190836 190.525324 
L 160.515491 201.653896 
L 160.840145 198.49237 
L 161.489455 214.805846 
L 162.138764 210.674785 
L 162.463418 209.747404 
L 162.788073 209.452328 
L 163.112727 217.335067 
L 163.437382 215.859688 
L 164.086691 210.253248 
L 164.736 189.302867 
L 165.060655 188.122564 
L 165.385309 183.190582 
L 165.709964 180.914283 
L 166.034618 188.501947 
L 166.359273 187.827488 
L 166.683927 189.850865 
L 167.008582 194.909307 
L 167.333236 197.059145 
L 167.657891 185.424728 
L 167.982545 189.134252 
L 168.3072 195.28869 
L 168.631855 190.778246 
L 168.956509 192.211471 
L 169.281164 197.564989 
L 169.605818 199.714827 
L 169.930473 203.087122 
L 170.255127 208.820023 
L 170.579782 204.393886 
L 170.904436 210.801246 
L 171.229091 205.321267 
L 171.553745 205.658497 
L 171.8784 205.279113 
L 172.203055 209.24156 
L 172.527709 211.770781 
L 172.852364 219.737827 
L 173.177018 217.756604 
L 173.501673 224.922731 
L 173.826327 226.566725 
L 174.150982 228.885177 
L 174.475636 225.217807 
L 174.800291 226.735339 
L 175.124945 235.20823 
L 175.4496 227.030415 
L 175.774255 213.794158 
L 176.098909 216.154764 
L 176.423564 211.222783 
L 176.748218 221.002438 
L 177.072873 224.501194 
L 177.722182 218.262449 
L 178.046836 216.112611 
L 178.371491 217.377221 
L 178.696145 212.866777 
L 179.0208 211.180629 
L 179.345455 211.222783 
L 179.670109 206.923107 
L 180.644073 203.340044 
L 181.293382 209.916019 
L 181.618036 217.461528 
L 181.942691 215.395998 
L 182.267345 209.072945 
L 182.592 211.939396 
L 182.916655 212.656008 
L 183.241309 214.468617 
L 183.565964 217.630143 
L 183.890618 213.625543 
L 184.215273 219.18983 
L 184.539927 217.124299 
L 184.864582 213.878465 
L 185.189236 207.176029 
L 185.513891 203.213583 
L 185.838545 204.267425 
L 186.1632 198.323755 
L 186.812509 207.555412 
L 187.137164 207.63972 
L 187.461818 205.363421 
L 187.786473 204.815423 
L 188.111127 198.913907 
L 188.435782 195.752381 
L 189.085091 182.094587 
L 189.409745 183.907195 
L 189.7344 183.991502 
L 190.059055 179.228136 
L 190.383709 181.883818 
L 190.708364 178.13214 
L 191.033018 181.588742 
L 191.357673 175.645073 
L 191.682327 183.106275 
L 192.006982 185.593342 
L 192.331636 183.443504 
L 192.656291 185.256113 
L 192.980945 183.907195 
L 193.3056 185.551189 
L 193.630255 180.408439 
L 193.954909 171.471858 
L 194.279564 168.394639 
L 194.604218 157.097451 
L 195.253527 147.907948 
L 195.578182 146.179647 
L 195.902836 145.252266 
L 196.227491 144.788575 
L 196.552145 141.500588 
L 197.201455 128.980943 
L 197.526109 127.969255 
L 197.850764 128.26433 
L 198.175418 134.587383 
L 198.500073 144.493499 
L 198.824727 143.945501 
L 199.149382 137.538141 
L 199.474036 136.652914 
L 199.798691 138.887059 
L 200.123345 139.477211 
L 200.448 142.596583 
L 200.772655 147.907948 
L 201.097309 145.884571 
L 201.421964 149.214712 
L 201.746618 150.479323 
L 202.071273 154.357462 
L 202.395927 151.533165 
L 202.720582 143.397503 
L 203.045236 142.55443 
L 203.369891 147.191335 
L 203.694545 147.528565 
L 204.0192 159.753133 
L 204.343855 159.500211 
L 204.668509 167.087875 
L 205.317818 155.832841 
L 205.642473 150.900859 
L 205.967127 149.341173 
L 206.291782 153.135005 
L 206.616436 149.509788 
L 206.941091 157.266066 
L 207.265745 153.219312 
L 207.5904 142.132893 
L 208.239709 130.245554 
L 208.564364 137.580295 
L 208.889018 136.14707 
L 209.213673 136.357838 
L 209.538327 132.26893 
L 209.862982 132.100316 
L 210.187636 123.500964 
L 211.1616 116.58776 
L 211.486255 120.381591 
L 211.810909 120.550206 
L 212.135564 115.407456 
L 212.460218 115.576071 
L 212.784873 120.128669 
L 213.109527 120.676667 
L 213.758836 115.702532 
L 214.083491 115.154534 
L 214.7328 108.24133 
L 215.057455 107.609025 
L 215.382109 107.693332 
L 215.706764 110.981319 
L 216.031418 119.580671 
L 216.356073 118.737597 
L 217.005382 121.224665 
L 217.330036 126.915412 
L 217.979345 130.624937 
L 218.304 126.072339 
L 218.628655 130.245554 
L 218.953309 127.126181 
L 219.277964 120.634513 
L 219.602618 119.032673 
L 219.927273 118.1896 
L 220.251927 118.1896 
L 220.576582 124.428345 
L 220.901236 128.011408 
L 221.550545 114.100692 
L 221.8752 114.480075 
L 222.199855 114.64869 
L 222.524509 119.159134 
L 222.849164 110.897012 
L 223.173818 109.590248 
L 223.498473 111.740086 
L 223.823127 121.05605 
L 224.147782 120.086515 
L 224.472436 116.166223 
L 224.797091 114.437922 
L 225.4464 115.112381 
L 225.771055 112.456698 
L 226.095709 118.105292 
L 226.420364 113.426233 
L 226.745018 120.044362 
L 227.069673 119.159134 
L 227.394327 111.950854 
L 227.718982 108.662867 
L 228.043636 109.168711 
L 228.692945 105.459187 
L 229.0176 104.911189 
L 229.342255 99.937054 
L 229.666909 99.178288 
L 229.991564 96.311837 
L 230.316218 96.775527 
L 230.640873 95.215841 
L 230.965527 97.407833 
L 231.290182 98.503829 
L 231.614836 107.398256 
L 231.939491 98.250906 
L 232.264145 96.901988 
L 232.5888 90.115245 
L 232.913455 94.962919 
L 233.238109 93.951231 
L 233.887418 85.689108 
L 234.212073 85.436186 
L 234.861382 97.449986 
L 235.510691 102.929965 
L 235.835345 109.253018 
L 236.16 106.428721 
L 236.484655 107.061027 
L 236.809309 112.751774 
L 237.133964 108.452098 
L 237.783273 114.016385 
L 238.107927 117.304372 
L 239.081891 106.260107 
L 239.406545 112.70962 
L 239.7312 110.939166 
L 240.055855 115.744686 
L 240.380509 115.702532 
L 240.705164 118.273907 
L 241.029818 125.440033 
L 241.354473 122.826505 
L 241.679127 123.838193 
L 242.328436 136.273531 
L 242.653091 136.905836 
L 242.977745 140.826129 
L 243.3024 140.783975 
L 243.951709 145.884571 
L 244.276364 138.296907 
L 244.601018 139.603672 
L 244.925673 137.200912 
L 245.250327 139.730133 
L 245.574982 138.2126 
L 245.899636 132.184623 
L 246.224291 132.100316 
L 246.548945 122.447122 
L 246.8736 117.641602 
L 247.198255 116.124069 
L 247.522909 113.510541 
L 247.847564 105.965031 
L 248.172218 109.210865 
L 248.496873 110.30686 
L 248.821527 102.508429 
L 249.146182 104.363191 
L 249.470836 97.702909 
L 249.795491 99.304749 
L 250.120145 99.389056 
L 250.4448 100.021361 
L 251.094109 108.831481 
L 251.418764 110.053938 
L 251.743418 106.808105 
L 252.392727 112.288084 
L 253.042036 113.805616 
L 253.366691 105.417033 
L 253.691345 112.161623 
L 254.016 108.367791 
L 254.340655 99.136134 
L 254.665309 99.178288 
L 254.989964 86.532182 
L 255.314618 86.532182 
L 255.639273 90.916165 
L 255.963927 82.316813 
L 256.288582 82.021738 
L 256.613236 82.569735 
L 257.262545 78.185752 
L 257.5872 77.216217 
L 257.911855 77.13191 
L 258.236509 79.366055 
L 258.561164 87.796792 
L 258.885818 90.874012 
L 259.210473 87.08018 
L 259.535127 86.405721 
L 259.859782 85.394032 
L 260.184436 92.813081 
L 260.833745 95.932454 
L 261.1584 86.321413 
L 261.483055 81.431586 
L 261.807709 81.052203 
L 262.132364 74.644843 
L 262.457018 73.92823 
L 262.781673 75.740838 
L 263.106327 85.14111 
L 263.430982 90.874012 
L 264.080291 84.761727 
L 264.404945 89.14571 
L 264.7296 83.159887 
L 265.054255 88.34479 
L 265.378909 88.176176 
L 265.703564 84.129422 
L 266.028218 82.654043 
L 266.677527 88.68202 
L 267.002182 95.342302 
L 267.326836 93.276772 
L 267.651491 95.342302 
L 267.976145 95.679532 
L 268.3008 95.805993 
L 268.625455 94.962919 
L 268.950109 96.101068 
L 269.599418 107.10318 
L 269.924073 108.157022 
L 270.248727 112.583159 
L 270.573382 104.953342 
L 270.898036 106.555182 
L 271.222691 101.623201 
L 271.547345 101.665355 
L 271.872 102.466275 
L 272.196655 102.677043 
L 272.521309 97.197064 
L 272.845964 96.986296 
L 273.170618 99.937054 
L 273.495273 100.737974 
L 273.819927 97.787216 
L 274.469236 112.372391 
L 274.793891 121.182511 
L 275.118545 126.66249 
L 275.4432 126.283107 
L 275.767855 120.971743 
L 276.092509 119.116981 
L 276.741818 106.007185 
L 277.066473 105.417033 
L 277.391127 105.121957 
L 277.715782 106.555182 
L 278.040436 104.953342 
L 278.365091 101.201664 
L 278.689745 103.730886 
L 279.0144 103.393656 
L 279.339055 102.550582 
L 279.663709 99.178288 
L 279.988364 94.499228 
L 280.313018 97.955831 
L 280.637673 92.518005 
L 280.962327 82.611889 
L 281.286982 81.178664 
L 281.611636 82.232506 
L 282.260945 72.115622 
L 282.5856 67.394409 
L 282.910255 67.057179 
L 283.234909 66.340567 
L 283.559564 67.689485 
L 283.884218 63.97996 
L 284.208873 65.328878 
L 284.533527 65.792569 
L 284.858182 64.359343 
L 285.182836 59.806745 
L 285.507491 61.071356 
L 285.832145 65.075956 
L 286.1568 64.78088 
L 286.481455 65.286725 
L 286.806109 61.11351 
L 287.130764 66.256259 
L 287.455418 65.961183 
L 287.780073 67.310101 
L 288.104727 64.359343 
L 288.429382 65.11811 
L 288.754036 65.5818 
L 289.078691 69.5864 
L 289.403345 68.195329 
L 289.728 68.659019 
L 290.052655 72.031314 
L 290.377309 72.958695 
L 290.701964 81.600201 
L 291.351273 78.101445 
L 291.675927 78.691596 
L 292.000582 79.787592 
L 292.325236 87.375256 
L 292.649891 87.459563 
L 292.974545 87.754639 
L 293.2992 90.28386 
L 293.623855 83.8765 
L 293.948509 88.639866 
L 294.273164 82.822658 
L 294.597818 82.906965 
L 294.922473 85.984184 
L 295.571782 75.782992 
L 296.221091 73.843923 
L 296.545745 63.97996 
L 296.8704 63.642731 
L 297.519709 55.549223 
L 297.844364 53.568 
L 298.169018 56.097221 
L 298.493673 56.77168 
L 299.467636 65.455339 
L 299.792291 66.551335 
L 300.116945 66.593489 
L 300.4416 65.666108 
L 300.766255 60.734127 
L 301.090909 58.626442 
L 301.415564 66.551335 
L 301.740218 68.78548 
L 302.064873 65.750415 
L 302.714182 69.670708 
L 303.038836 64.527958 
L 303.363491 63.305501 
L 303.688145 62.71535 
L 304.0128 65.623954 
L 304.337455 62.968272 
L 304.662109 67.858099 
L 304.986764 65.413186 
L 305.311418 62.040891 
L 305.636073 69.417786 
L 305.960727 67.605177 
L 306.285382 67.731638 
L 306.610036 67.689485 
L 306.934691 63.895653 
L 307.259345 65.623954 
L 307.584 70.134398 
L 308.233309 62.968272 
L 308.557964 62.083044 
L 308.882618 57.783369 
L 309.207273 62.462428 
L 309.856582 61.5772 
L 310.181236 60.31259 
L 311.1552 72.199929 
L 311.479855 67.605177 
L 311.804509 67.815946 
L 312.129164 64.991649 
L 312.453818 66.298413 
L 313.427782 78.818058 
L 313.752436 77.93283 
L 314.077091 78.902365 
L 314.401745 77.426986 
L 314.7264 78.565135 
L 315.051055 81.052203 
L 315.375709 81.726662 
L 315.700364 76.794681 
L 316.025018 79.281748 
L 316.349673 80.504205 
L 316.998982 89.693708 
L 317.323636 91.590624 
L 317.648291 86.869411 
L 317.972945 85.267571 
L 318.2976 82.73835 
L 318.622255 82.021738 
L 319.596218 89.440786 
L 319.920873 90.368167 
L 320.245527 93.361079 
L 320.570182 93.276772 
L 320.894836 96.817681 
L 321.219491 94.962919 
L 321.544145 89.94663 
L 321.8688 91.506317 
L 322.193455 92.138622 
L 322.518109 93.318925 
L 322.842764 89.735862 
L 323.167418 84.846035 
L 323.492073 82.021738 
L 324.141382 65.708261 
L 324.466036 61.619354 
L 324.790691 63.010426 
L 325.115345 67.225794 
L 326.089309 63.727038 
L 326.413964 65.666108 
L 326.738618 63.389809 
L 327.063273 66.551335 
L 327.387927 63.389809 
L 327.712582 62.926118 
L 328.037236 65.961183 
L 328.361891 63.895653 
L 328.686545 56.265836 
L 329.0112 62.293813 
L 329.335855 56.940295 
L 329.660509 56.476604 
L 329.985164 56.813834 
L 330.309818 58.795057 
L 330.634473 64.991649 
L 330.959127 65.708261 
L 331.283782 63.221194 
L 331.608436 65.834722 
L 331.933091 65.202417 
L 332.257745 68.153175 
L 332.5824 66.467028 
L 332.907055 67.015026 
L 333.231709 75.319302 
L 333.556364 75.277148 
L 333.881018 71.862699 
L 334.205673 74.181152 
L 334.530327 71.98916 
L 334.854982 73.295925 
L 335.179636 73.886076 
L 335.504291 75.277148 
L 335.828945 72.705773 
L 336.1536 79.281748 
L 336.478255 77.722062 
L 336.802909 72.958695 
L 337.127564 74.476228 
L 337.452218 77.13191 
L 337.776873 82.611889 
L 338.101527 79.661131 
L 338.426182 81.979584 
L 338.750836 79.197441 
L 339.075491 82.73835 
L 339.400145 78.902365 
L 339.7248 73.12731 
L 340.049455 75.572224 
L 340.374109 74.602689 
L 340.698764 68.743327 
L 341.023418 70.260859 
L 341.348073 63.811346 
L 341.672727 61.872276 
L 341.997382 61.029202 
L 342.322036 59.090133 
L 342.646691 59.258748 
L 342.971345 64.738727 
L 343.296 66.762104 
L 343.620655 67.057179 
L 343.945309 70.218706 
L 344.269964 70.72455 
L 344.594618 68.954095 
L 345.243927 59.933206 
L 345.568582 57.699061 
L 345.893236 61.366432 
L 346.217891 68.954095 
L 346.542545 62.926118 
L 346.8672 54.495381 
L 347.191855 56.603065 
L 347.516509 57.10891 
L 347.841164 59.553823 
L 348.165818 59.385209 
L 349.789091 83.454963 
L 350.113745 81.642354 
L 350.4384 76.288836 
L 350.763055 74.560535 
L 351.087709 78.649443 
L 351.412364 91.295548 
L 351.737018 90.326014 
L 352.061673 95.257995 
L 352.386327 97.871523 
L 352.710982 97.323525 
L 353.035636 97.197064 
L 353.360291 97.534294 
L 353.684945 96.480452 
L 354.0096 93.023849 
L 354.658909 90.28386 
L 355.308218 83.707885 
L 355.632873 83.623578 
L 355.957527 92.433698 
L 356.282182 92.391544 
L 356.606836 88.977096 
L 356.931491 87.838946 
L 357.256145 97.112757 
L 357.5808 97.02845 
L 358.230109 88.176176 
L 358.554764 86.27926 
L 359.204073 79.914053 
L 359.528727 78.185752 
L 360.178036 73.253771 
L 360.502691 67.352255 
L 361.152 79.028826 
L 361.801309 76.288836 
L 362.125964 74.307613 
L 362.450618 68.153175 
L 362.775273 72.242083 
L 363.099927 78.818058 
L 364.073891 68.279636 
L 364.398545 67.225794 
L 364.7232 69.164864 
L 365.047855 78.354367 
L 365.372509 79.028826 
L 365.697164 70.682396 
L 366.021818 73.970384 
L 366.346473 74.560535 
L 366.671127 71.567624 
L 366.995782 71.18824 
L 367.320436 66.424874 
L 367.645091 68.616866 
L 367.969745 71.567624 
L 368.2944 68.490405 
L 368.619055 73.843923 
L 368.943709 68.78548 
L 369.268364 68.32179 
L 369.593018 70.977472 
L 369.917673 69.965784 
L 370.242327 68.068868 
L 370.566982 71.651931 
L 370.891636 68.659019 
L 371.216291 63.558423 
L 371.540945 68.026714 
L 372.190255 72.958695 
L 372.514909 75.572224 
L 372.839564 74.434074 
L 373.488873 78.860211 
L 374.462836 90.789704 
L 374.787491 84.213729 
L 375.112145 91.8857 
L 375.4368 96.733374 
L 375.761455 91.126934 
L 376.086109 90.199553 
L 376.410764 92.138622 
L 376.735418 96.22753 
L 377.060073 89.272171 
L 377.384727 86.237106 
L 377.709382 81.389432 
L 378.034036 74.476228 
L 378.683345 87.206641 
L 379.008 82.190352 
L 379.332655 87.838946 
L 379.657309 86.827258 
L 379.981964 84.424498 
L 380.306618 85.267571 
L 380.631273 79.281748 
L 380.955927 76.794681 
L 381.280582 80.377744 
L 381.605236 78.986672 
L 381.929891 74.644843 
L 382.254545 72.242083 
L 382.5792 64.823034 
L 382.903855 62.462428 
L 383.228509 58.668596 
L 383.553164 56.603065 
L 383.877818 57.488293 
L 384.202473 58.879364 
L 384.527127 61.956583 
L 384.851782 63.600577 
L 385.176436 69.417786 
L 385.501091 67.352255 
L 385.825745 72.031314 
L 386.1504 72.410697 
L 386.475055 73.295925 
L 386.799709 67.773792 
L 387.124364 72.790081 
L 387.449018 68.743327 
L 387.773673 67.015026 
L 388.098327 62.588889 
L 388.422982 63.347655 
L 388.747636 62.083044 
L 389.072291 61.745815 
L 389.396945 59.090133 
L 390.046255 55.886453 
L 391.344873 69.628554 
L 391.994182 62.37812 
L 392.318836 67.436562 
L 392.643491 66.087645 
L 392.968145 60.77628 
L 393.2928 61.450739 
L 393.617455 60.607665 
L 394.266764 69.333478 
L 394.591418 70.893165 
L 394.916073 75.445763 
L 395.565382 68.532558 
L 395.890036 68.869788 
L 396.214691 65.413186 
L 396.539345 69.417786 
L 396.864 69.628554 
L 397.188655 73.422386 
L 397.513309 66.71995 
L 398.162618 69.544247 
L 398.487273 68.996249 
L 398.487273 68.996249 
" clip-path="url(#p8d2de7b157)" style="fill: none; stroke: #1f77b4; stroke-width: 1.5; stroke-linecap: square"/>
   </g>
   <g id="patch_3">
    <path d="M 57.6 307.584 
L 57.6 41.472 
" style="fill: none; stroke: #000000; stroke-width: 0.8; stroke-linejoin: miter; stroke-linecap: square"/>
   </g>
   <g id="patch_4">
    <path d="M 414.72 307.584 
L 414.72 41.472 
" style="fill: none; stroke: #000000; stroke-width: 0.8; stroke-linejoin: miter; stroke-linecap: square"/>
   </g>
   <g id="patch_5">
    <path d="M 57.6 307.584 
L 414.72 307.584 
" style="fill: none; stroke: #000000; stroke-width: 0.8; stroke-linejoin: miter; stroke-linecap: square"/>
   </g>
   <g id="patch_6">
    <path d="M 57.6 41.472 
L 414.72 41.472 
" style="fill: none; stroke: #000000; stroke-width: 0.8; stroke-linejoin: miter; stroke-linecap: square"/>
   </g>
   <g id="text_15">
    <!-- Reduced Temperature,T$^*$=0.65 -->
    <g transform="translate(140.88 35.472) scale(0.12 -0.12)">
     <defs>
      <path id="DejaVuSans-52" d="M 2841 2188 
Q 3044 2119 3236 1894 
Q 3428 1669 3622 1275 
L 4263 0 
L 3584 0 
L 2988 1197 
Q 2756 1666 2539 1819 
Q 2322 1972 1947 1972 
L 1259 1972 
L 1259 0 
L 628 0 
L 628 4666 
L 2053 4666 
Q 2853 4666 3247 4331 
Q 3641 3997 3641 3322 
Q 3641 2881 3436 2590 
Q 3231 2300 2841 2188 
z
M 1259 4147 
L 1259 2491 
L 2053 2491 
Q 2509 2491 2742 2702 
Q 2975 2913 2975 3322 
Q 2975 3731 2742 3939 
Q 2509 4147 2053 4147 
L 1259 4147 
z
" transform="scale(0.015625)"/>
      <path id="DejaVuSans-75" d="M 544 1381 
L 544 3500 
L 1119 3500 
L 1119 1403 
Q 1119 906 1312 657 
Q 1506 409 1894 409 
Q 2359 409 2629 706 
Q 2900 1003 2900 1516 
L 2900 3500 
L 3475 3500 
L 3475 0 
L 2900 0 
L 2900 538 
Q 2691 219 2414 64 
Q 2138 -91 1772 -91 
Q 1169 -91 856 284 
Q 544 659 544 1381 
z
M 1991 3584 
L 1991 3584 
z
" transform="scale(0.015625)"/>
      <path id="DejaVuSans-63" d="M 3122 3366 
L 3122 2828 
Q 2878 2963 2633 3030 
Q 2388 3097 2138 3097 
Q 1578 3097 1268 2742 
Q 959 2388 959 1747 
Q 959 1106 1268 751 
Q 1578 397 2138 397 
Q 2388 397 2633 464 
Q 2878 531 3122 666 
L 3122 134 
Q 2881 22 2623 -34 
Q 2366 -91 2075 -91 
Q 1284 -91 818 406 
Q 353 903 353 1747 
Q 353 2603 823 3093 
Q 1294 3584 2113 3584 
Q 2378 3584 2631 3529 
Q 2884 3475 3122 3366 
z
" transform="scale(0.015625)"/>
      <path id="DejaVuSans-54" d="M -19 4666 
L 3928 4666 
L 3928 4134 
L 2272 4134 
L 2272 0 
L 1638 0 
L 1638 4134 
L -19 4134 
L -19 4666 
z
" transform="scale(0.015625)"/>
      <path id="DejaVuSans-70" d="M 1159 525 
L 1159 -1331 
L 581 -1331 
L 581 3500 
L 1159 3500 
L 1159 2969 
Q 1341 3281 1617 3432 
Q 1894 3584 2278 3584 
Q 2916 3584 3314 3078 
Q 3713 2572 3713 1747 
Q 3713 922 3314 415 
Q 2916 -91 2278 -91 
Q 1894 -91 1617 61 
Q 1341 213 1159 525 
z
M 3116 1747 
Q 3116 2381 2855 2742 
Q 2594 3103 2138 3103 
Q 1681 3103 1420 2742 
Q 1159 2381 1159 1747 
Q 1159 1113 1420 752 
Q 1681 391 2138 391 
Q 2594 391 2855 752 
Q 3116 1113 3116 1747 
z
" transform="scale(0.015625)"/>
      <path id="DejaVuSans-2a" d="M 3009 3897 
L 1888 3291 
L 3009 2681 
L 2828 2375 
L 1778 3009 
L 1778 1831 
L 1422 1831 
L 1422 3009 
L 372 2375 
L 191 2681 
L 1313 3291 
L 191 3897 
L 372 4206 
L 1422 3572 
L 1422 4750 
L 1778 4750 
L 1778 3572 
L 2828 4206 
L 3009 3897 
z
" transform="scale(0.015625)"/>
      <path id="DejaVuSans-3d" d="M 678 2906 
L 4684 2906 
L 4684 2381 
L 678 2381 
L 678 2906 
z
M 678 1631 
L 4684 1631 
L 4684 1100 
L 678 1100 
L 678 1631 
z
" transform="scale(0.015625)"/>
     </defs>
     <use xlink:href="#DejaVuSans-52" transform="translate(0 0.765625)"/>
     <use xlink:href="#DejaVuSans-65" transform="translate(69.482422 0.765625)"/>
     <use xlink:href="#DejaVuSans-64" transform="translate(131.005859 0.765625)"/>
     <use xlink:href="#DejaVuSans-75" transform="translate(194.482422 0.765625)"/>
     <use xlink:href="#DejaVuSans-63" transform="translate(257.861328 0.765625)"/>
     <use xlink:href="#DejaVuSans-65" transform="translate(312.841797 0.765625)"/>
     <use xlink:href="#DejaVuSans-64" transform="translate(374.365234 0.765625)"/>
     <use xlink:href="#DejaVuSans-20" transform="translate(437.841797 0.765625)"/>
     <use xlink:href="#DejaVuSans-54" transform="translate(469.628906 0.765625)"/>
     <use xlink:href="#DejaVuSans-65" transform="translate(530.712891 0.765625)"/>
     <use xlink:href="#DejaVuSans-6d" transform="translate(592.236328 0.765625)"/>
     <use xlink:href="#DejaVuSans-70" transform="translate(689.648438 0.765625)"/>
     <use xlink:href="#DejaVuSans-65" transform="translate(753.125 0.765625)"/>
     <use xlink:href="#DejaVuSans-72" transform="translate(814.648438 0.765625)"/>
     <use xlink:href="#DejaVuSans-61" transform="translate(855.761719 0.765625)"/>
     <use xlink:href="#DejaVuSans-74" transform="translate(917.041016 0.765625)"/>
     <use xlink:href="#DejaVuSans-75" transform="translate(956.25 0.765625)"/>
     <use xlink:href="#DejaVuSans-72" transform="translate(1019.628906 0.765625)"/>
     <use xlink:href="#DejaVuSans-65" transform="translate(1060.742188 0.765625)"/>
     <use xlink:href="#DejaVuSans-2c" transform="translate(1122.265625 0.765625)"/>
     <use xlink:href="#DejaVuSans-54" transform="translate(1154.052734 0.765625)"/>
     <use xlink:href="#DejaVuSans-2a" transform="translate(1229.731445 39.046875) scale(0.7)"/>
     <use xlink:href="#DejaVuSans-3d" transform="translate(1281.103516 0.765625)"/>
     <use xlink:href="#DejaVuSans-30" transform="translate(1364.892578 0.765625)"/>
     <use xlink:href="#DejaVuSans-2e" transform="translate(1428.515625 0.765625)"/>
     <use xlink:href="#DejaVuSans-36" transform="translate(1460.302734 0.765625)"/>
     <use xlink:href="#DejaVuSans-35" transform="translate(1523.925781 0.765625)"/>
    </g>
   </g>
  </g>
 </g>
 <defs>
  <clipPath id="p8d2de7b157">
   <rect x="57.6" y="41.472" width="357.12" height="266.112"/>
  </clipPath>
 </defs>
</svg>
