<?xml version="1.0" encoding="utf-8" standalone="no"?>
<!DOCTYPE svg PUBLIC "-//W3C//DTD SVG 1.1//EN"
  "http://www.w3.org/Graphics/SVG/1.1/DTD/svg11.dtd">
<svg xmlns:xlink="http://www.w3.org/1999/xlink" width="460.8pt" height="345.6pt" viewBox="0 0 460.8 345.6" xmlns="http://www.w3.org/2000/svg" version="1.1">
 <metadata>
  <rdf:RDF xmlns:dc="http://purl.org/dc/elements/1.1/" xmlns:cc="http://creativecommons.org/ns#" xmlns:rdf="http://www.w3.org/1999/02/22-rdf-syntax-ns#">
   <cc:Work>
    <dc:type rdf:resource="http://purl.org/dc/dcmitype/StillImage"/>
    <dc:date>2024-03-10T19:33:34.166715</dc:date>
    <dc:format>image/svg+xml</dc:format>
    <dc:creator>
     <cc:Agent>
      <dc:title>Matplotlib v3.8.3, https://matplotlib.org/</dc:title>
     </cc:Agent>
    </dc:creator>
   </cc:Work>
  </rdf:RDF>
 </metadata>
 <defs>
  <style type="text/css">*{stroke-linejoin: round; stroke-linecap: butt}</style>
 </defs>
 <g id="figure_1">
  <g id="patch_1">
   <path d="M 0 345.6 
L 460.8 345.6 
L 460.8 0 
L 0 0 
z
" style="fill: #ffffff"/>
  </g>
  <g id="axes_1">
   <g id="patch_2">
    <path d="M 57.6 307.584 
L 414.72 307.584 
L 414.72 41.472 
L 57.6 41.472 
z
" style="fill: #ffffff"/>
   </g>
   <g id="matplotlib.axis_1">
    <g id="xtick_1">
     <g id="line2d_1">
      <defs>
       <path id="mc6e9eb9d19" d="M 0 0 
L 0 3.5 
" style="stroke: #000000; stroke-width: 0.8"/>
      </defs>
      <g>
       <use xlink:href="#mc6e9eb9d19" x="73.832727" y="307.584" style="stroke: #000000; stroke-width: 0.8"/>
      </g>
     </g>
     <g id="text_1">
      <!-- 0 -->
      <g transform="translate(70.651477 322.182437) scale(0.1 -0.1)">
       <defs>
        <path id="DejaVuSans-30" d="M 2034 4250 
Q 1547 4250 1301 3770 
Q 1056 3291 1056 2328 
Q 1056 1369 1301 889 
Q 1547 409 2034 409 
Q 2525 409 2770 889 
Q 3016 1369 3016 2328 
Q 3016 3291 2770 3770 
Q 2525 4250 2034 4250 
z
M 2034 4750 
Q 2819 4750 3233 4129 
Q 3647 3509 3647 2328 
Q 3647 1150 3233 529 
Q 2819 -91 2034 -91 
Q 1250 -91 836 529 
Q 422 1150 422 2328 
Q 422 3509 836 4129 
Q 1250 4750 2034 4750 
z
" transform="scale(0.015625)"/>
       </defs>
       <use xlink:href="#DejaVuSans-30"/>
      </g>
     </g>
    </g>
    <g id="xtick_2">
     <g id="line2d_2">
      <g>
       <use xlink:href="#mc6e9eb9d19" x="138.763636" y="307.584" style="stroke: #000000; stroke-width: 0.8"/>
      </g>
     </g>
     <g id="text_2">
      <!-- 200 -->
      <g transform="translate(129.219886 322.182437) scale(0.1 -0.1)">
       <defs>
        <path id="DejaVuSans-32" d="M 1228 531 
L 3431 531 
L 3431 0 
L 469 0 
L 469 531 
Q 828 903 1448 1529 
Q 2069 2156 2228 2338 
Q 2531 2678 2651 2914 
Q 2772 3150 2772 3378 
Q 2772 3750 2511 3984 
Q 2250 4219 1831 4219 
Q 1534 4219 1204 4116 
Q 875 4013 500 3803 
L 500 4441 
Q 881 4594 1212 4672 
Q 1544 4750 1819 4750 
Q 2544 4750 2975 4387 
Q 3406 4025 3406 3419 
Q 3406 3131 3298 2873 
Q 3191 2616 2906 2266 
Q 2828 2175 2409 1742 
Q 1991 1309 1228 531 
z
" transform="scale(0.015625)"/>
       </defs>
       <use xlink:href="#DejaVuSans-32"/>
       <use xlink:href="#DejaVuSans-30" x="63.623047"/>
       <use xlink:href="#DejaVuSans-30" x="127.246094"/>
      </g>
     </g>
    </g>
    <g id="xtick_3">
     <g id="line2d_3">
      <g>
       <use xlink:href="#mc6e9eb9d19" x="203.694545" y="307.584" style="stroke: #000000; stroke-width: 0.8"/>
      </g>
     </g>
     <g id="text_3">
      <!-- 400 -->
      <g transform="translate(194.150795 322.182437) scale(0.1 -0.1)">
       <defs>
        <path id="DejaVuSans-34" d="M 2419 4116 
L 825 1625 
L 2419 1625 
L 2419 4116 
z
M 2253 4666 
L 3047 4666 
L 3047 1625 
L 3713 1625 
L 3713 1100 
L 3047 1100 
L 3047 0 
L 2419 0 
L 2419 1100 
L 313 1100 
L 313 1709 
L 2253 4666 
z
" transform="scale(0.015625)"/>
       </defs>
       <use xlink:href="#DejaVuSans-34"/>
       <use xlink:href="#DejaVuSans-30" x="63.623047"/>
       <use xlink:href="#DejaVuSans-30" x="127.246094"/>
      </g>
     </g>
    </g>
    <g id="xtick_4">
     <g id="line2d_4">
      <g>
       <use xlink:href="#mc6e9eb9d19" x="268.625455" y="307.584" style="stroke: #000000; stroke-width: 0.8"/>
      </g>
     </g>
     <g id="text_4">
      <!-- 600 -->
      <g transform="translate(259.081705 322.182437) scale(0.1 -0.1)">
       <defs>
        <path id="DejaVuSans-36" d="M 2113 2584 
Q 1688 2584 1439 2293 
Q 1191 2003 1191 1497 
Q 1191 994 1439 701 
Q 1688 409 2113 409 
Q 2538 409 2786 701 
Q 3034 994 3034 1497 
Q 3034 2003 2786 2293 
Q 2538 2584 2113 2584 
z
M 3366 4563 
L 3366 3988 
Q 3128 4100 2886 4159 
Q 2644 4219 2406 4219 
Q 1781 4219 1451 3797 
Q 1122 3375 1075 2522 
Q 1259 2794 1537 2939 
Q 1816 3084 2150 3084 
Q 2853 3084 3261 2657 
Q 3669 2231 3669 1497 
Q 3669 778 3244 343 
Q 2819 -91 2113 -91 
Q 1303 -91 875 529 
Q 447 1150 447 2328 
Q 447 3434 972 4092 
Q 1497 4750 2381 4750 
Q 2619 4750 2861 4703 
Q 3103 4656 3366 4563 
z
" transform="scale(0.015625)"/>
       </defs>
       <use xlink:href="#DejaVuSans-36"/>
       <use xlink:href="#DejaVuSans-30" x="63.623047"/>
       <use xlink:href="#DejaVuSans-30" x="127.246094"/>
      </g>
     </g>
    </g>
    <g id="xtick_5">
     <g id="line2d_5">
      <g>
       <use xlink:href="#mc6e9eb9d19" x="333.556364" y="307.584" style="stroke: #000000; stroke-width: 0.8"/>
      </g>
     </g>
     <g id="text_5">
      <!-- 800 -->
      <g transform="translate(324.012614 322.182437) scale(0.1 -0.1)">
       <defs>
        <path id="DejaVuSans-38" d="M 2034 2216 
Q 1584 2216 1326 1975 
Q 1069 1734 1069 1313 
Q 1069 891 1326 650 
Q 1584 409 2034 409 
Q 2484 409 2743 651 
Q 3003 894 3003 1313 
Q 3003 1734 2745 1975 
Q 2488 2216 2034 2216 
z
M 1403 2484 
Q 997 2584 770 2862 
Q 544 3141 544 3541 
Q 544 4100 942 4425 
Q 1341 4750 2034 4750 
Q 2731 4750 3128 4425 
Q 3525 4100 3525 3541 
Q 3525 3141 3298 2862 
Q 3072 2584 2669 2484 
Q 3125 2378 3379 2068 
Q 3634 1759 3634 1313 
Q 3634 634 3220 271 
Q 2806 -91 2034 -91 
Q 1263 -91 848 271 
Q 434 634 434 1313 
Q 434 1759 690 2068 
Q 947 2378 1403 2484 
z
M 1172 3481 
Q 1172 3119 1398 2916 
Q 1625 2713 2034 2713 
Q 2441 2713 2670 2916 
Q 2900 3119 2900 3481 
Q 2900 3844 2670 4047 
Q 2441 4250 2034 4250 
Q 1625 4250 1398 4047 
Q 1172 3844 1172 3481 
z
" transform="scale(0.015625)"/>
       </defs>
       <use xlink:href="#DejaVuSans-38"/>
       <use xlink:href="#DejaVuSans-30" x="63.623047"/>
       <use xlink:href="#DejaVuSans-30" x="127.246094"/>
      </g>
     </g>
    </g>
    <g id="xtick_6">
     <g id="line2d_6">
      <g>
       <use xlink:href="#mc6e9eb9d19" x="398.487273" y="307.584" style="stroke: #000000; stroke-width: 0.8"/>
      </g>
     </g>
     <g id="text_6">
      <!-- 1000 -->
      <g transform="translate(385.762273 322.182437) scale(0.1 -0.1)">
       <defs>
        <path id="DejaVuSans-31" d="M 794 531 
L 1825 531 
L 1825 4091 
L 703 3866 
L 703 4441 
L 1819 4666 
L 2450 4666 
L 2450 531 
L 3481 531 
L 3481 0 
L 794 0 
L 794 531 
z
" transform="scale(0.015625)"/>
       </defs>
       <use xlink:href="#DejaVuSans-31"/>
       <use xlink:href="#DejaVuSans-30" x="63.623047"/>
       <use xlink:href="#DejaVuSans-30" x="127.246094"/>
       <use xlink:href="#DejaVuSans-30" x="190.869141"/>
      </g>
     </g>
    </g>
    <g id="text_7">
     <!-- MCS -->
     <g transform="translate(225.180312 335.860562) scale(0.1 -0.1)">
      <defs>
       <path id="DejaVuSans-4d" d="M 628 4666 
L 1569 4666 
L 2759 1491 
L 3956 4666 
L 4897 4666 
L 4897 0 
L 4281 0 
L 4281 4097 
L 3078 897 
L 2444 897 
L 1241 4097 
L 1241 0 
L 628 0 
L 628 4666 
z
" transform="scale(0.015625)"/>
       <path id="DejaVuSans-43" d="M 4122 4306 
L 4122 3641 
Q 3803 3938 3442 4084 
Q 3081 4231 2675 4231 
Q 1875 4231 1450 3742 
Q 1025 3253 1025 2328 
Q 1025 1406 1450 917 
Q 1875 428 2675 428 
Q 3081 428 3442 575 
Q 3803 722 4122 1019 
L 4122 359 
Q 3791 134 3420 21 
Q 3050 -91 2638 -91 
Q 1578 -91 968 557 
Q 359 1206 359 2328 
Q 359 3453 968 4101 
Q 1578 4750 2638 4750 
Q 3056 4750 3426 4639 
Q 3797 4528 4122 4306 
z
" transform="scale(0.015625)"/>
       <path id="DejaVuSans-53" d="M 3425 4513 
L 3425 3897 
Q 3066 4069 2747 4153 
Q 2428 4238 2131 4238 
Q 1616 4238 1336 4038 
Q 1056 3838 1056 3469 
Q 1056 3159 1242 3001 
Q 1428 2844 1947 2747 
L 2328 2669 
Q 3034 2534 3370 2195 
Q 3706 1856 3706 1288 
Q 3706 609 3251 259 
Q 2797 -91 1919 -91 
Q 1588 -91 1214 -16 
Q 841 59 441 206 
L 441 856 
Q 825 641 1194 531 
Q 1563 422 1919 422 
Q 2459 422 2753 634 
Q 3047 847 3047 1241 
Q 3047 1584 2836 1778 
Q 2625 1972 2144 2069 
L 1759 2144 
Q 1053 2284 737 2584 
Q 422 2884 422 3419 
Q 422 4038 858 4394 
Q 1294 4750 2059 4750 
Q 2388 4750 2728 4690 
Q 3069 4631 3425 4513 
z
" transform="scale(0.015625)"/>
      </defs>
      <use xlink:href="#DejaVuSans-4d"/>
      <use xlink:href="#DejaVuSans-43" x="86.279297"/>
      <use xlink:href="#DejaVuSans-53" x="156.103516"/>
     </g>
    </g>
   </g>
   <g id="matplotlib.axis_2">
    <g id="ytick_1">
     <g id="line2d_7">
      <defs>
       <path id="me61b00fe96" d="M 0 0 
L -3.5 0 
" style="stroke: #000000; stroke-width: 0.8"/>
      </defs>
      <g>
       <use xlink:href="#me61b00fe96" x="57.6" y="306.385579" style="stroke: #000000; stroke-width: 0.8"/>
      </g>
     </g>
     <g id="text_8">
      <!-- −1400 -->
      <g transform="translate(16.770313 310.184798) scale(0.1 -0.1)">
       <defs>
        <path id="DejaVuSans-2212" d="M 678 2272 
L 4684 2272 
L 4684 1741 
L 678 1741 
L 678 2272 
z
" transform="scale(0.015625)"/>
       </defs>
       <use xlink:href="#DejaVuSans-2212"/>
       <use xlink:href="#DejaVuSans-31" x="83.789062"/>
       <use xlink:href="#DejaVuSans-34" x="147.412109"/>
       <use xlink:href="#DejaVuSans-30" x="211.035156"/>
       <use xlink:href="#DejaVuSans-30" x="274.658203"/>
      </g>
     </g>
    </g>
    <g id="ytick_2">
     <g id="line2d_8">
      <g>
       <use xlink:href="#me61b00fe96" x="57.6" y="257.549484" style="stroke: #000000; stroke-width: 0.8"/>
      </g>
     </g>
     <g id="text_9">
      <!-- −1200 -->
      <g transform="translate(16.770313 261.348703) scale(0.1 -0.1)">
       <use xlink:href="#DejaVuSans-2212"/>
       <use xlink:href="#DejaVuSans-31" x="83.789062"/>
       <use xlink:href="#DejaVuSans-32" x="147.412109"/>
       <use xlink:href="#DejaVuSans-30" x="211.035156"/>
       <use xlink:href="#DejaVuSans-30" x="274.658203"/>
      </g>
     </g>
    </g>
    <g id="ytick_3">
     <g id="line2d_9">
      <g>
       <use xlink:href="#me61b00fe96" x="57.6" y="208.713389" style="stroke: #000000; stroke-width: 0.8"/>
      </g>
     </g>
     <g id="text_10">
      <!-- −1000 -->
      <g transform="translate(16.770313 212.512608) scale(0.1 -0.1)">
       <use xlink:href="#DejaVuSans-2212"/>
       <use xlink:href="#DejaVuSans-31" x="83.789062"/>
       <use xlink:href="#DejaVuSans-30" x="147.412109"/>
       <use xlink:href="#DejaVuSans-30" x="211.035156"/>
       <use xlink:href="#DejaVuSans-30" x="274.658203"/>
      </g>
     </g>
    </g>
    <g id="ytick_4">
     <g id="line2d_10">
      <g>
       <use xlink:href="#me61b00fe96" x="57.6" y="159.877294" style="stroke: #000000; stroke-width: 0.8"/>
      </g>
     </g>
     <g id="text_11">
      <!-- −800 -->
      <g transform="translate(23.132812 163.676512) scale(0.1 -0.1)">
       <use xlink:href="#DejaVuSans-2212"/>
       <use xlink:href="#DejaVuSans-38" x="83.789062"/>
       <use xlink:href="#DejaVuSans-30" x="147.412109"/>
       <use xlink:href="#DejaVuSans-30" x="211.035156"/>
      </g>
     </g>
    </g>
    <g id="ytick_5">
     <g id="line2d_11">
      <g>
       <use xlink:href="#me61b00fe96" x="57.6" y="111.041198" style="stroke: #000000; stroke-width: 0.8"/>
      </g>
     </g>
     <g id="text_12">
      <!-- −600 -->
      <g transform="translate(23.132812 114.840417) scale(0.1 -0.1)">
       <use xlink:href="#DejaVuSans-2212"/>
       <use xlink:href="#DejaVuSans-36" x="83.789062"/>
       <use xlink:href="#DejaVuSans-30" x="147.412109"/>
       <use xlink:href="#DejaVuSans-30" x="211.035156"/>
      </g>
     </g>
    </g>
    <g id="ytick_6">
     <g id="line2d_12">
      <g>
       <use xlink:href="#me61b00fe96" x="57.6" y="62.205103" style="stroke: #000000; stroke-width: 0.8"/>
      </g>
     </g>
     <g id="text_13">
      <!-- −400 -->
      <g transform="translate(23.132812 66.004322) scale(0.1 -0.1)">
       <use xlink:href="#DejaVuSans-2212"/>
       <use xlink:href="#DejaVuSans-34" x="83.789062"/>
       <use xlink:href="#DejaVuSans-30" x="147.412109"/>
       <use xlink:href="#DejaVuSans-30" x="211.035156"/>
      </g>
     </g>
    </g>
    <g id="text_14">
     <!-- Reduced Energy U/($\epsilon$) -->
     <g transform="translate(10.670312 229.178) rotate(-90) scale(0.1 -0.1)">
      <defs>
       <path id="DejaVuSans-52" d="M 2841 2188 
Q 3044 2119 3236 1894 
Q 3428 1669 3622 1275 
L 4263 0 
L 3584 0 
L 2988 1197 
Q 2756 1666 2539 1819 
Q 2322 1972 1947 1972 
L 1259 1972 
L 1259 0 
L 628 0 
L 628 4666 
L 2053 4666 
Q 2853 4666 3247 4331 
Q 3641 3997 3641 3322 
Q 3641 2881 3436 2590 
Q 3231 2300 2841 2188 
z
M 1259 4147 
L 1259 2491 
L 2053 2491 
Q 2509 2491 2742 2702 
Q 2975 2913 2975 3322 
Q 2975 3731 2742 3939 
Q 2509 4147 2053 4147 
L 1259 4147 
z
" transform="scale(0.015625)"/>
       <path id="DejaVuSans-65" d="M 3597 1894 
L 3597 1613 
L 953 1613 
Q 991 1019 1311 708 
Q 1631 397 2203 397 
Q 2534 397 2845 478 
Q 3156 559 3463 722 
L 3463 178 
Q 3153 47 2828 -22 
Q 2503 -91 2169 -91 
Q 1331 -91 842 396 
Q 353 884 353 1716 
Q 353 2575 817 3079 
Q 1281 3584 2069 3584 
Q 2775 3584 3186 3129 
Q 3597 2675 3597 1894 
z
M 3022 2063 
Q 3016 2534 2758 2815 
Q 2500 3097 2075 3097 
Q 1594 3097 1305 2825 
Q 1016 2553 972 2059 
L 3022 2063 
z
" transform="scale(0.015625)"/>
       <path id="DejaVuSans-64" d="M 2906 2969 
L 2906 4863 
L 3481 4863 
L 3481 0 
L 2906 0 
L 2906 525 
Q 2725 213 2448 61 
Q 2172 -91 1784 -91 
Q 1150 -91 751 415 
Q 353 922 353 1747 
Q 353 2572 751 3078 
Q 1150 3584 1784 3584 
Q 2172 3584 2448 3432 
Q 2725 3281 2906 2969 
z
M 947 1747 
Q 947 1113 1208 752 
Q 1469 391 1925 391 
Q 2381 391 2643 752 
Q 2906 1113 2906 1747 
Q 2906 2381 2643 2742 
Q 2381 3103 1925 3103 
Q 1469 3103 1208 2742 
Q 947 2381 947 1747 
z
" transform="scale(0.015625)"/>
       <path id="DejaVuSans-75" d="M 544 1381 
L 544 3500 
L 1119 3500 
L 1119 1403 
Q 1119 906 1312 657 
Q 1506 409 1894 409 
Q 2359 409 2629 706 
Q 2900 1003 2900 1516 
L 2900 3500 
L 3475 3500 
L 3475 0 
L 2900 0 
L 2900 538 
Q 2691 219 2414 64 
Q 2138 -91 1772 -91 
Q 1169 -91 856 284 
Q 544 659 544 1381 
z
M 1991 3584 
L 1991 3584 
z
" transform="scale(0.015625)"/>
       <path id="DejaVuSans-63" d="M 3122 3366 
L 3122 2828 
Q 2878 2963 2633 3030 
Q 2388 3097 2138 3097 
Q 1578 3097 1268 2742 
Q 959 2388 959 1747 
Q 959 1106 1268 751 
Q 1578 397 2138 397 
Q 2388 397 2633 464 
Q 2878 531 3122 666 
L 3122 134 
Q 2881 22 2623 -34 
Q 2366 -91 2075 -91 
Q 1284 -91 818 406 
Q 353 903 353 1747 
Q 353 2603 823 3093 
Q 1294 3584 2113 3584 
Q 2378 3584 2631 3529 
Q 2884 3475 3122 3366 
z
" transform="scale(0.015625)"/>
       <path id="DejaVuSans-20" transform="scale(0.015625)"/>
       <path id="DejaVuSans-45" d="M 628 4666 
L 3578 4666 
L 3578 4134 
L 1259 4134 
L 1259 2753 
L 3481 2753 
L 3481 2222 
L 1259 2222 
L 1259 531 
L 3634 531 
L 3634 0 
L 628 0 
L 628 4666 
z
" transform="scale(0.015625)"/>
       <path id="DejaVuSans-6e" d="M 3513 2113 
L 3513 0 
L 2938 0 
L 2938 2094 
Q 2938 2591 2744 2837 
Q 2550 3084 2163 3084 
Q 1697 3084 1428 2787 
Q 1159 2491 1159 1978 
L 1159 0 
L 581 0 
L 581 3500 
L 1159 3500 
L 1159 2956 
Q 1366 3272 1645 3428 
Q 1925 3584 2291 3584 
Q 2894 3584 3203 3211 
Q 3513 2838 3513 2113 
z
" transform="scale(0.015625)"/>
       <path id="DejaVuSans-72" d="M 2631 2963 
Q 2534 3019 2420 3045 
Q 2306 3072 2169 3072 
Q 1681 3072 1420 2755 
Q 1159 2438 1159 1844 
L 1159 0 
L 581 0 
L 581 3500 
L 1159 3500 
L 1159 2956 
Q 1341 3275 1631 3429 
Q 1922 3584 2338 3584 
Q 2397 3584 2469 3576 
Q 2541 3569 2628 3553 
L 2631 2963 
z
" transform="scale(0.015625)"/>
       <path id="DejaVuSans-67" d="M 2906 1791 
Q 2906 2416 2648 2759 
Q 2391 3103 1925 3103 
Q 1463 3103 1205 2759 
Q 947 2416 947 1791 
Q 947 1169 1205 825 
Q 1463 481 1925 481 
Q 2391 481 2648 825 
Q 2906 1169 2906 1791 
z
M 3481 434 
Q 3481 -459 3084 -895 
Q 2688 -1331 1869 -1331 
Q 1566 -1331 1297 -1286 
Q 1028 -1241 775 -1147 
L 775 -588 
Q 1028 -725 1275 -790 
Q 1522 -856 1778 -856 
Q 2344 -856 2625 -561 
Q 2906 -266 2906 331 
L 2906 616 
Q 2728 306 2450 153 
Q 2172 0 1784 0 
Q 1141 0 747 490 
Q 353 981 353 1791 
Q 353 2603 747 3093 
Q 1141 3584 1784 3584 
Q 2172 3584 2450 3431 
Q 2728 3278 2906 2969 
L 2906 3500 
L 3481 3500 
L 3481 434 
z
" transform="scale(0.015625)"/>
       <path id="DejaVuSans-79" d="M 2059 -325 
Q 1816 -950 1584 -1140 
Q 1353 -1331 966 -1331 
L 506 -1331 
L 506 -850 
L 844 -850 
Q 1081 -850 1212 -737 
Q 1344 -625 1503 -206 
L 1606 56 
L 191 3500 
L 800 3500 
L 1894 763 
L 2988 3500 
L 3597 3500 
L 2059 -325 
z
" transform="scale(0.015625)"/>
       <path id="DejaVuSans-55" d="M 556 4666 
L 1191 4666 
L 1191 1831 
Q 1191 1081 1462 751 
Q 1734 422 2344 422 
Q 2950 422 3222 751 
Q 3494 1081 3494 1831 
L 3494 4666 
L 4128 4666 
L 4128 1753 
Q 4128 841 3676 375 
Q 3225 -91 2344 -91 
Q 1459 -91 1007 375 
Q 556 841 556 1753 
L 556 4666 
z
" transform="scale(0.015625)"/>
       <path id="DejaVuSans-2f" d="M 1625 4666 
L 2156 4666 
L 531 -594 
L 0 -594 
L 1625 4666 
z
" transform="scale(0.015625)"/>
       <path id="DejaVuSans-28" d="M 1984 4856 
Q 1566 4138 1362 3434 
Q 1159 2731 1159 2009 
Q 1159 1288 1364 580 
Q 1569 -128 1984 -844 
L 1484 -844 
Q 1016 -109 783 600 
Q 550 1309 550 2009 
Q 550 2706 781 3412 
Q 1013 4119 1484 4856 
L 1984 4856 
z
" transform="scale(0.015625)"/>
       <path id="DejaVuSans-Oblique-3b5" d="M 1263 1888 
Q 925 1963 778 2166 
Q 669 2309 669 2503 
Q 669 3034 1175 3344 
Q 1575 3588 2188 3588 
Q 2425 3588 2684 3550 
Q 2944 3513 3234 3438 
L 3134 2916 
Q 2847 3006 2606 3047 
Q 2359 3088 2138 3088 
Q 1766 3088 1522 2944 
Q 1228 2772 1228 2522 
Q 1228 2356 1381 2241 
Q 1563 2103 1925 2103 
L 2409 2103 
L 2319 1628 
L 1856 1628 
Q 1425 1628 1172 1469 
Q 828 1253 828 916 
Q 828 703 1013 563 
Q 1244 388 1716 388 
Q 2006 388 2284 444 
Q 2563 503 2806 619 
L 2700 84 
Q 2403 -3 2131 -47 
Q 1859 -91 1609 -91 
Q 866 -91 516 194 
Q 250 413 250 781 
Q 250 1278 600 1584 
Q 859 1813 1263 1888 
z
" transform="scale(0.015625)"/>
       <path id="DejaVuSans-29" d="M 513 4856 
L 1013 4856 
Q 1481 4119 1714 3412 
Q 1947 2706 1947 2009 
Q 1947 1309 1714 600 
Q 1481 -109 1013 -844 
L 513 -844 
Q 928 -128 1133 580 
Q 1338 1288 1338 2009 
Q 1338 2731 1133 3434 
Q 928 4138 513 4856 
z
" transform="scale(0.015625)"/>
      </defs>
      <use xlink:href="#DejaVuSans-52" transform="translate(0 0.015625)"/>
      <use xlink:href="#DejaVuSans-65" transform="translate(69.482422 0.015625)"/>
      <use xlink:href="#DejaVuSans-64" transform="translate(131.005859 0.015625)"/>
      <use xlink:href="#DejaVuSans-75" transform="translate(194.482422 0.015625)"/>
      <use xlink:href="#DejaVuSans-63" transform="translate(257.861328 0.015625)"/>
      <use xlink:href="#DejaVuSans-65" transform="translate(312.841797 0.015625)"/>
      <use xlink:href="#DejaVuSans-64" transform="translate(374.365234 0.015625)"/>
      <use xlink:href="#DejaVuSans-20" transform="translate(437.841797 0.015625)"/>
      <use xlink:href="#DejaVuSans-45" transform="translate(469.628906 0.015625)"/>
      <use xlink:href="#DejaVuSans-6e" transform="translate(532.8125 0.015625)"/>
      <use xlink:href="#DejaVuSans-65" transform="translate(596.191406 0.015625)"/>
      <use xlink:href="#DejaVuSans-72" transform="translate(657.714844 0.015625)"/>
      <use xlink:href="#DejaVuSans-67" transform="translate(698.828125 0.015625)"/>
      <use xlink:href="#DejaVuSans-79" transform="translate(762.304688 0.015625)"/>
      <use xlink:href="#DejaVuSans-20" transform="translate(821.484375 0.015625)"/>
      <use xlink:href="#DejaVuSans-55" transform="translate(853.271484 0.015625)"/>
      <use xlink:href="#DejaVuSans-2f" transform="translate(926.464844 0.015625)"/>
      <use xlink:href="#DejaVuSans-28" transform="translate(960.15625 0.015625)"/>
      <use xlink:href="#DejaVuSans-Oblique-3b5" transform="translate(999.169922 0.015625)"/>
      <use xlink:href="#DejaVuSans-29" transform="translate(1053.222656 0.015625)"/>
     </g>
    </g>
   </g>
   <g id="line2d_13">
    <path d="M 73.832727 53.568 
L 74.157382 116.388506 
L 74.482036 151.957275 
L 74.806691 172.686196 
L 75.131345 181.215957 
L 75.456 194.648471 
L 75.780655 197.882202 
L 76.105309 204.590426 
L 76.429964 202.473943 
L 76.754618 210.15818 
L 77.079273 214.029076 
L 77.403927 222.257005 
L 77.728582 223.508528 
L 78.377891 230.279555 
L 78.702545 230.314595 
L 79.0272 233.35032 
L 79.351855 234.878523 
L 79.676509 239.406655 
L 80.325818 237.830275 
L 81.299782 251.639999 
L 81.624436 251.198399 
L 81.949091 242.953132 
L 82.273745 246.502051 
L 82.5984 248.145459 
L 82.923055 249.177244 
L 83.247709 257.08371 
L 83.572364 259.06753 
L 83.897018 253.459559 
L 84.221673 254.990546 
L 84.546327 254.898636 
L 84.870982 257.906329 
L 85.520291 259.479047 
L 85.844945 259.667799 
L 86.1696 260.320395 
L 86.818909 253.032927 
L 87.468218 260.613143 
L 87.792873 261.574189 
L 88.117527 269.489421 
L 88.442182 267.705121 
L 88.766836 265.006878 
L 89.091491 269.559135 
L 89.416145 269.939983 
L 89.7408 264.650179 
L 90.065455 275.346114 
L 90.390109 275.885362 
L 90.714764 275.084597 
L 91.039418 274.597896 
L 91.688727 272.462294 
L 92.013382 276.392086 
L 92.338036 283.127975 
L 92.662691 280.28884 
L 93.312 284.934544 
L 93.636655 284.033616 
L 93.961309 281.207496 
L 94.285964 276.949721 
L 94.610618 271.156905 
L 94.935273 270.63641 
L 95.259927 279.350747 
L 95.584582 274.671468 
L 95.909236 275.901161 
L 96.558545 282.004598 
L 96.8832 280.888034 
L 97.207855 281.707699 
L 97.532509 281.733241 
L 97.857164 275.560065 
L 98.506473 278.391826 
L 98.831127 274.480275 
L 99.155782 277.354816 
L 99.480436 274.107777 
L 99.805091 273.529485 
L 100.129745 270.740113 
L 100.4544 266.265897 
L 100.779055 264.961241 
L 101.103709 274.952349 
L 101.428364 266.449228 
L 101.753018 265.418591 
L 102.077673 272.821996 
L 102.402327 268.132583 
L 102.726982 273.708078 
L 103.376291 268.994931 
L 103.700945 270.844574 
L 104.0256 268.711145 
L 104.350255 268.272206 
L 104.674909 269.14183 
L 104.999564 265.738833 
L 105.324218 265.887612 
L 106.298182 273.546162 
L 106.622836 278.686137 
L 106.947491 272.45111 
L 107.272145 276.68979 
L 107.5968 273.428076 
L 107.921455 274.276335 
L 108.246109 272.342255 
L 108.570764 279.93136 
L 108.895418 276.327134 
L 109.220073 276.613508 
L 109.544727 276.407298 
L 109.869382 276.723097 
L 110.194036 281.929171 
L 110.518691 277.483694 
L 110.843345 270.354308 
L 111.168 270.566525 
L 111.492655 269.159899 
L 112.466618 279.723855 
L 112.791273 270.110665 
L 113.440582 278.333418 
L 114.089891 275.123324 
L 114.414545 272.161341 
L 114.7392 277.079014 
L 115.063855 272.454993 
L 115.388509 275.605336 
L 116.037818 269.908874 
L 116.362473 273.646276 
L 116.687127 271.470311 
L 117.011782 270.702583 
L 117.336436 277.597873 
L 117.661091 281.092853 
L 117.985745 281.114121 
L 118.3104 272.369481 
L 118.635055 274.465282 
L 118.959709 271.487818 
L 119.284364 276.278591 
L 119.609018 277.02234 
L 119.933673 274.472925 
L 120.258327 274.247253 
L 120.582982 273.544941 
L 121.232291 276.007379 
L 121.556945 279.762558 
L 121.8816 278.654808 
L 122.206255 276.529339 
L 122.530909 281.670291 
L 122.855564 278.523097 
L 123.180218 277.853213 
L 123.504873 280.235901 
L 123.829527 279.057731 
L 124.154182 280.954866 
L 124.478836 284.503077 
L 124.803491 286.377211 
L 125.128145 285.77096 
L 125.4528 283.516198 
L 125.777455 274.800859 
L 126.102109 274.17058 
L 126.426764 279.306673 
L 126.751418 279.722317 
L 127.076073 279.688913 
L 127.400727 280.208968 
L 127.725382 275.514647 
L 128.050036 276.230756 
L 128.374691 275.85904 
L 128.699345 278.140247 
L 129.024 276.292045 
L 129.348655 275.750306 
L 129.673309 272.786834 
L 129.997964 273.463263 
L 130.322618 272.265655 
L 130.647273 272.439243 
L 130.971927 276.216276 
L 131.296582 281.991461 
L 131.621236 280.638604 
L 131.945891 281.606999 
L 132.270545 287.577212 
L 132.5952 287.598114 
L 132.919855 292.264256 
L 133.244509 290.963043 
L 133.569164 292.215469 
L 133.893818 289.902738 
L 134.218473 288.775698 
L 134.543127 281.339744 
L 134.867782 288.738852 
L 135.192436 290.689316 
L 135.517091 285.106814 
L 136.1664 283.626762 
L 136.491055 286.03216 
L 137.140364 279.699852 
L 137.465018 280.279732 
L 137.789673 282.233371 
L 138.114327 280.294431 
L 138.438982 280.22965 
L 138.763636 281.182003 
L 139.088291 278.951439 
L 139.412945 283.654379 
L 139.7376 285.873931 
L 140.062255 279.731815 
L 140.386909 276.927354 
L 140.711564 279.615463 
L 141.036218 278.641427 
L 141.360873 273.862962 
L 141.685527 275.669385 
L 142.010182 280.178617 
L 142.334836 281.955591 
L 142.659491 274.771948 
L 142.984145 277.962947 
L 143.3088 275.477801 
L 143.633455 275.195284 
L 143.958109 275.932221 
L 144.282764 275.907827 
L 144.607418 274.969344 
L 144.932073 282.783412 
L 145.256727 278.37195 
L 145.581382 287.726064 
L 145.906036 288.700906 
L 146.230691 290.990367 
L 146.555345 283.702605 
L 146.88 284.550229 
L 147.204655 276.175351 
L 147.529309 283.444067 
L 147.853964 281.959107 
L 148.178618 282.487636 
L 148.827927 278.726597 
L 149.152582 277.680113 
L 150.126545 289.306107 
L 150.4512 291.093264 
L 150.775855 290.257239 
L 151.100509 285.18522 
L 151.425164 285.528733 
L 151.749818 287.064604 
L 152.074473 287.319479 
L 152.399127 292.122216 
L 152.723782 290.887005 
L 153.048436 291.416168 
L 153.373091 284.928537 
L 153.697745 289.510462 
L 154.996364 274.834751 
L 155.321018 277.658064 
L 155.645673 282.846337 
L 155.970327 277.694471 
L 156.294982 280.428194 
L 156.944291 288.369602 
L 157.268945 286.963782 
L 157.5936 291.218895 
L 157.918255 291.813792 
L 158.242909 290.131559 
L 158.567564 285.115311 
L 158.892218 286.835123 
L 159.216873 285.499187 
L 159.541527 290.428654 
L 159.866182 284.226934 
L 160.190836 282.61693 
L 160.840145 274.4666 
L 161.1648 271.661577 
L 161.489455 270.572117 
L 161.814109 266.611583 
L 162.138764 270.079752 
L 162.463418 277.286323 
L 162.788073 280.020119 
L 163.112727 279.34645 
L 163.437382 276.48734 
L 163.762036 276.764559 
L 164.086691 275.142443 
L 164.411345 272.470303 
L 164.736 272.522045 
L 165.060655 277.441378 
L 165.385309 278.273472 
L 165.709964 281.002482 
L 166.034618 279.101268 
L 166.359273 283.702214 
L 166.683927 282.295564 
L 167.333236 278.606998 
L 167.982545 282.411208 
L 168.3072 279.980293 
L 168.631855 288.239429 
L 168.956509 282.457553 
L 169.281164 274.635256 
L 169.605818 277.278412 
L 169.930473 274.695813 
L 170.255127 284.797046 
L 170.579782 275.981276 
L 170.904436 275.078102 
L 171.229091 272.718805 
L 171.553745 279.37414 
L 171.8784 278.361596 
L 172.203055 280.86242 
L 172.527709 281.237872 
L 172.852364 277.380894 
L 173.177018 281.938084 
L 173.501673 281.949511 
L 174.150982 285.305869 
L 174.800291 279.567286 
L 175.124945 281.945165 
L 175.4496 276.028989 
L 175.774255 277.143722 
L 176.098909 272.08064 
L 176.423564 273.006499 
L 176.748218 282.402905 
L 177.072873 283.359678 
L 177.397527 283.426681 
L 177.722182 285.042228 
L 178.046836 281.08311 
L 178.371491 282.2374 
L 178.696145 274.472143 
L 179.0208 274.970711 
L 179.345455 275.948434 
L 179.670109 276.34784 
L 179.994764 278.099713 
L 180.319418 274.128044 
L 180.644073 265.833575 
L 180.968727 271.11012 
L 181.293382 271.048684 
L 181.618036 271.420229 
L 182.267345 267.442432 
L 182.592 269.201508 
L 182.916655 269.51296 
L 183.241309 265.187938 
L 183.565964 257.28406 
L 183.890618 261.530505 
L 184.215273 261.337212 
L 184.539927 263.527877 
L 185.189236 273.817813 
L 185.513891 274.018896 
L 185.838545 265.948535 
L 186.487855 271.520075 
L 186.812509 264.831605 
L 187.461818 258.496685 
L 188.111127 260.359635 
L 188.435782 259.413485 
L 188.760436 259.021721 
L 189.085091 258.807307 
L 189.409745 263.575809 
L 189.7344 265.511428 
L 190.059055 265.838483 
L 190.383709 266.334512 
L 190.708364 261.847183 
L 191.033018 266.805414 
L 191.357673 267.985611 
L 191.682327 265.97144 
L 192.006982 268.866834 
L 192.331636 266.857644 
L 192.656291 273.741995 
L 192.980945 274.771338 
L 193.3056 274.86332 
L 193.630255 278.139563 
L 193.954909 278.390654 
L 194.279564 279.674067 
L 194.604218 274.239854 
L 194.928873 273.221451 
L 195.253527 275.454384 
L 195.578182 273.962197 
L 195.902836 269.986328 
L 196.227491 273.845405 
L 196.552145 272.482268 
L 196.8768 276.226922 
L 197.526109 270.068397 
L 197.850764 269.228539 
L 198.500073 278.093169 
L 198.824727 274.851404 
L 199.149382 277.327321 
L 199.474036 274.65125 
L 199.798691 275.427646 
L 200.123345 273.793834 
L 200.448 274.99259 
L 200.772655 267.489314 
L 201.097309 266.817183 
L 201.421964 273.140139 
L 201.746618 272.885288 
L 202.395927 277.013525 
L 202.720582 280.634819 
L 203.045236 276.141801 
L 203.369891 277.60283 
L 203.694545 276.464265 
L 204.0192 278.491183 
L 204.343855 276.550827 
L 204.993164 288.506929 
L 205.642473 276.246774 
L 205.967127 279.18783 
L 206.291782 277.154637 
L 206.616436 271.039161 
L 206.941091 275.434874 
L 207.5904 264.52196 
L 208.239709 276.726295 
L 208.564364 274.86271 
L 208.889018 276.790344 
L 209.213673 276.917757 
L 209.538327 276.497352 
L 209.862982 276.683735 
L 210.187636 277.372861 
L 210.512291 277.093421 
L 210.836945 270.87346 
L 211.1616 267.916948 
L 211.486255 274.088853 
L 211.810909 275.85274 
L 212.460218 286.972206 
L 212.784873 285.155918 
L 213.109527 284.677911 
L 213.434182 280.789239 
L 213.758836 283.787336 
L 214.083491 280.860979 
L 214.408145 283.929668 
L 214.7328 284.333079 
L 215.057455 283.51964 
L 215.382109 289.820058 
L 215.706764 289.162236 
L 216.356073 274.346073 
L 216.680727 273.686542 
L 217.330036 267.841032 
L 217.654691 266.6224 
L 217.979345 269.657759 
L 218.304 265.578626 
L 218.628655 263.770812 
L 218.953309 266.88277 
L 219.277964 261.784746 
L 219.602618 275.597937 
L 219.927273 270.384074 
L 220.576582 275.758681 
L 220.901236 275.760537 
L 221.225891 273.581764 
L 221.550545 270.036141 
L 221.8752 275.264289 
L 222.199855 272.498628 
L 222.524509 275.029925 
L 222.849164 279.473863 
L 223.173818 271.407996 
L 223.498473 270.948985 
L 223.823127 276.207851 
L 224.147782 285.040445 
L 224.472436 281.392755 
L 224.797091 281.354053 
L 225.121745 282.379366 
L 225.4464 278.759904 
L 225.771055 278.673391 
L 226.095709 277.134809 
L 226.420364 279.872048 
L 226.745018 275.470866 
L 227.069673 276.799086 
L 227.394327 282.640249 
L 227.718982 283.194514 
L 228.043636 282.357024 
L 228.692945 282.043569 
L 229.0176 282.489394 
L 229.342255 278.498191 
L 229.666909 283.922343 
L 229.991564 282.963202 
L 230.640873 279.952383 
L 230.965527 280.633037 
L 231.290182 277.677281 
L 231.614836 276.497498 
L 231.939491 281.848982 
L 232.264145 279.493495 
L 232.5888 275.887218 
L 232.913455 274.888007 
L 233.238109 276.99653 
L 233.562764 277.223007 
L 233.887418 281.711972 
L 234.212073 274.863345 
L 234.536727 273.023567 
L 234.861382 269.935197 
L 235.186036 274.067048 
L 235.510691 281.352954 
L 235.835345 275.826466 
L 236.16 280.980041 
L 236.484655 276.399704 
L 237.133964 272.078931 
L 237.458618 268.566297 
L 238.107927 273.058045 
L 238.432582 276.795179 
L 238.757236 284.139297 
L 239.081891 284.569201 
L 239.406545 287.099961 
L 239.7312 282.592878 
L 240.055855 286.244109 
L 240.380509 283.247135 
L 240.705164 277.631277 
L 241.029818 277.261368 
L 242.003782 281.877356 
L 242.328436 280.72585 
L 242.653091 272.718659 
L 242.977745 279.148492 
L 243.627055 287.809818 
L 243.951709 288.508248 
L 245.250327 274.367268 
L 245.574982 274.610838 
L 245.899636 281.709067 
L 246.224291 278.780073 
L 246.548945 284.425062 
L 246.8736 280.143552 
L 247.198255 283.000146 
L 247.522909 278.197458 
L 247.847564 275.968335 
L 248.172218 270.033919 
L 248.496873 270.918878 
L 248.821527 265.253476 
L 249.146182 264.901074 
L 249.470836 267.461282 
L 249.795491 268.226495 
L 250.120145 272.391359 
L 250.4448 273.394575 
L 250.769455 277.023878 
L 251.094109 276.028843 
L 251.418764 277.636503 
L 252.068073 267.193099 
L 252.392727 274.719401 
L 253.042036 278.253449 
L 253.366691 276.502895 
L 253.691345 277.284199 
L 254.016 284.766231 
L 254.340655 282.843383 
L 254.665309 280.064023 
L 254.989964 285.341202 
L 255.314618 283.377772 
L 255.639273 277.125531 
L 255.963927 278.774677 
L 256.288582 275.196822 
L 256.613236 283.922612 
L 256.937891 283.185626 
L 257.262545 283.749097 
L 257.5872 274.683604 
L 257.911855 278.692778 
L 258.236509 277.892379 
L 258.561164 277.713273 
L 258.885818 274.268546 
L 259.210473 272.809128 
L 259.535127 274.363532 
L 259.859782 280.551456 
L 260.184436 278.593275 
L 260.509091 275.723959 
L 260.833745 279.171397 
L 261.1584 278.190328 
L 261.483055 278.702277 
L 261.807709 266.250977 
L 262.132364 273.164801 
L 262.457018 276.797059 
L 262.781673 275.048312 
L 263.106327 279.038172 
L 263.430982 276.60064 
L 263.755636 272.739365 
L 264.080291 278.442738 
L 264.404945 278.607364 
L 264.7296 281.326363 
L 265.054255 282.462559 
L 265.378909 280.738303 
L 265.703564 282.561672 
L 266.028218 283.510337 
L 266.352873 282.402783 
L 266.677527 276.273756 
L 267.002182 275.284629 
L 267.326836 275.094388 
L 267.651491 276.937316 
L 267.976145 272.857988 
L 268.3008 275.166373 
L 268.625455 270.439552 
L 268.950109 270.273851 
L 269.274764 265.260703 
L 269.599418 275.45287 
L 269.924073 273.693843 
L 270.248727 277.611987 
L 270.573382 273.243867 
L 270.898036 270.815516 
L 271.222691 281.772895 
L 271.547345 283.009938 
L 271.872 283.169241 
L 272.196655 280.774441 
L 272.521309 279.381587 
L 272.845964 274.718204 
L 273.495273 281.134168 
L 273.819927 281.777046 
L 274.144582 283.525867 
L 274.469236 281.930807 
L 274.793891 283.230335 
L 275.118545 285.552907 
L 275.4432 278.732922 
L 275.767855 283.032329 
L 276.092509 280.603247 
L 276.417164 281.675443 
L 276.741818 279.338025 
L 277.066473 280.713177 
L 277.715782 271.004878 
L 278.040436 275.226588 
L 278.365091 281.964797 
L 278.689745 276.810904 
L 279.0144 277.343901 
L 279.339055 279.83293 
L 279.663709 279.260742 
L 280.637673 271.680721 
L 280.962327 276.659048 
L 281.286982 276.411498 
L 281.611636 273.159771 
L 282.260945 278.373415 
L 282.5856 277.685143 
L 282.910255 276.51713 
L 283.234909 276.611824 
L 283.884218 273.866722 
L 284.208873 274.044608 
L 284.533527 275.959105 
L 284.858182 276.53664 
L 285.182836 276.191711 
L 285.507491 277.034671 
L 285.832145 279.21867 
L 286.1568 280.308911 
L 286.481455 284.194482 
L 286.806109 282.446223 
L 287.130764 283.073596 
L 287.455418 279.882255 
L 287.780073 284.705723 
L 288.104727 285.89957 
L 288.429382 289.087761 
L 288.754036 287.007466 
L 289.078691 282.335292 
L 289.403345 283.664366 
L 290.052655 276.601422 
L 290.701964 268.660062 
L 291.026618 270.174665 
L 291.351273 270.653673 
L 291.675927 277.986706 
L 292.000582 280.684339 
L 292.325236 280.990785 
L 292.649891 280.679944 
L 292.974545 279.266651 
L 293.2992 275.64023 
L 293.623855 273.90733 
L 293.948509 273.125464 
L 294.273164 266.756162 
L 294.922473 274.896676 
L 295.571782 264.974719 
L 295.896436 269.193889 
L 296.221091 265.787254 
L 296.545745 272.692019 
L 296.8704 269.238379 
L 297.195055 271.770262 
L 297.519709 272.94477 
L 297.844364 272.617275 
L 298.169018 272.807321 
L 298.493673 271.909347 
L 298.818327 273.948401 
L 299.142982 277.473878 
L 299.467636 273.756988 
L 299.792291 275.079078 
L 300.116945 278.150356 
L 300.4416 284.183079 
L 300.766255 284.22437 
L 301.090909 281.531132 
L 301.415564 283.417329 
L 301.740218 275.809984 
L 302.064873 271.749751 
L 302.389527 271.250524 
L 302.714182 275.044112 
L 303.038836 276.213761 
L 303.363491 276.535004 
L 304.0128 285.135944 
L 304.662109 289.401655 
L 304.986764 286.798569 
L 305.311418 288.273444 
L 305.636073 288.392506 
L 305.960727 284.65442 
L 306.285382 284.578505 
L 306.610036 285.625673 
L 306.934691 290.641775 
L 307.259345 287.470749 
L 307.584 288.300548 
L 308.233309 281.473921 
L 308.557964 281.608635 
L 308.882618 282.743024 
L 309.207273 286.539665 
L 309.531927 286.326202 
L 309.856582 287.397178 
L 310.181236 287.324778 
L 310.505891 285.815279 
L 310.830545 288.74647 
L 311.1552 289.731177 
L 311.479855 288.820237 
L 311.804509 287.341627 
L 312.129164 279.309823 
L 312.453818 277.966 
L 312.778473 278.540166 
L 313.103127 279.900568 
L 313.427782 276.965983 
L 314.077091 278.387138 
L 314.401745 285.166931 
L 314.7264 275.447742 
L 315.051055 280.567547 
L 315.375709 277.186234 
L 315.700364 277.610815 
L 316.025018 279.970575 
L 316.349673 279.927575 
L 316.674327 285.636319 
L 317.323636 273.828044 
L 317.648291 275.43336 
L 317.972945 272.752966 
L 318.2976 277.861588 
L 318.946909 281.063795 
L 319.271564 271.692637 
L 319.596218 271.997521 
L 320.245527 282.986375 
L 320.570182 285.111966 
L 320.894836 285.00858 
L 321.219491 280.895677 
L 321.544145 278.873277 
L 321.8688 282.544384 
L 322.193455 281.928976 
L 322.842764 270.379581 
L 323.167418 268.606977 
L 323.492073 267.748243 
L 323.816727 275.458193 
L 324.141382 275.113068 
L 324.466036 274.331056 
L 324.790691 272.821728 
L 325.115345 268.875649 
L 325.44 268.452191 
L 325.764655 269.483268 
L 326.089309 276.113427 
L 326.413964 277.399061 
L 326.738618 279.61058 
L 327.063273 276.199574 
L 327.712582 282.756235 
L 328.037236 279.304695 
L 328.361891 280.344781 
L 328.686545 277.590768 
L 329.0112 281.535918 
L 329.335855 275.709088 
L 329.660509 277.601975 
L 329.985164 272.075341 
L 330.309818 274.338625 
L 330.634473 283.997673 
L 330.959127 283.638581 
L 331.283782 285.121049 
L 331.608436 287.838436 
L 332.257745 281.537969 
L 332.5824 283.71457 
L 332.907055 280.607422 
L 333.231709 279.380903 
L 333.556364 281.099372 
L 333.881018 275.652658 
L 334.205673 275.478729 
L 334.530327 273.66017 
L 334.854982 278.197947 
L 335.179636 275.706842 
L 335.504291 282.077437 
L 335.828945 281.771992 
L 336.1536 284.171871 
L 336.478255 289.564328 
L 336.802909 289.958948 
L 337.452218 276.884695 
L 337.776873 280.471829 
L 338.101527 277.884077 
L 338.750836 286.917143 
L 339.075491 290.712074 
L 339.400145 287.161983 
L 339.7248 288.993361 
L 340.049455 281.226566 
L 340.374109 289.212635 
L 340.698764 289.994354 
L 341.023418 295.488 
L 341.348073 294.723935 
L 341.997382 291.627751 
L 342.322036 285.39143 
L 342.646691 282.741291 
L 342.971345 276.322958 
L 343.296 277.95887 
L 343.620655 283.159572 
L 343.945309 281.53709 
L 344.269964 278.362256 
L 344.594618 285.91908 
L 345.243927 289.162773 
L 345.893236 284.550229 
L 346.542545 274.660651 
L 346.8672 279.828413 
L 347.191855 275.105792 
L 347.516509 282.27056 
L 347.841164 283.567842 
L 348.165818 281.602116 
L 348.490473 282.920592 
L 348.815127 284.9553 
L 349.139782 285.556741 
L 349.464436 285.170252 
L 349.789091 276.928452 
L 350.113745 279.558374 
L 350.763055 281.113291 
L 351.412364 277.293282 
L 351.737018 283.118794 
L 352.061673 280.360458 
L 352.386327 276.060562 
L 352.710982 274.823739 
L 353.035636 286.14878 
L 353.360291 282.953215 
L 353.684945 283.771415 
L 354.0096 281.408651 
L 354.334255 285.334243 
L 354.658909 280.582784 
L 354.983564 281.626045 
L 355.308218 283.555877 
L 355.632873 282.845507 
L 356.282182 277.688733 
L 356.606836 277.806867 
L 356.931491 282.468053 
L 357.256145 274.162913 
L 357.5808 276.273292 
L 357.905455 276.824285 
L 358.230109 279.350112 
L 358.554764 271.714564 
L 358.879418 272.487518 
L 359.204073 271.981771 
L 359.528727 268.429434 
L 360.178036 274.072029 
L 360.502691 273.604839 
L 360.827345 274.512653 
L 361.152 274.642166 
L 361.476655 266.623011 
L 362.125964 279.686837 
L 362.450618 280.244814 
L 362.775273 268.783886 
L 363.099927 268.044019 
L 363.424582 269.517209 
L 363.749236 269.613953 
L 364.073891 269.127497 
L 364.398545 272.185003 
L 364.7232 272.518382 
L 365.047855 270.594093 
L 365.372509 272.332512 
L 365.697164 272.238966 
L 366.021818 277.564958 
L 366.346473 280.221934 
L 366.671127 277.252895 
L 366.995782 279.261914 
L 367.320436 268.279482 
L 367.645091 268.301117 
L 367.969745 270.81996 
L 368.2944 269.789641 
L 368.943709 278.426671 
L 369.268364 274.031398 
L 369.593018 264.56435 
L 369.917673 266.869804 
L 370.566982 272.877376 
L 370.891636 274.026954 
L 371.216291 275.874008 
L 371.540945 275.96687 
L 371.8656 279.67602 
L 372.190255 277.308886 
L 372.514909 279.914365 
L 373.488873 270.274827 
L 373.813527 270.627937 
L 374.138182 274.173706 
L 374.462836 273.897098 
L 374.787491 281.677714 
L 375.112145 278.528543 
L 375.4368 270.882226 
L 375.761455 273.085858 
L 376.086109 271.402575 
L 376.410764 273.131593 
L 376.735418 280.359774 
L 377.060073 281.959034 
L 377.384727 281.922285 
L 377.709382 279.292437 
L 378.034036 284.39532 
L 378.358691 281.036984 
L 378.683345 279.404198 
L 379.008 279.230195 
L 379.332655 278.896498 
L 379.657309 276.605353 
L 379.981964 276.646766 
L 380.306618 275.435655 
L 380.631273 272.069407 
L 380.955927 280.33245 
L 381.280582 278.175018 
L 381.605236 273.831145 
L 381.929891 275.354929 
L 382.5792 283.935455 
L 383.228509 278.16928 
L 383.553164 283.37721 
L 383.877818 278.292225 
L 384.202473 279.297784 
L 384.527127 279.8059 
L 384.851782 280.723432 
L 385.501091 276.806069 
L 385.825745 281.434412 
L 386.1504 282.683103 
L 386.475055 282.56133 
L 386.799709 286.131175 
L 387.124364 288.465785 
L 387.449018 286.793148 
L 387.773673 284.221904 
L 388.098327 286.079458 
L 388.422982 289.034334 
L 388.747636 289.009477 
L 389.072291 293.934231 
L 389.396945 284.903118 
L 389.7216 284.666532 
L 390.046255 287.468454 
L 390.370909 286.581883 
L 390.695564 282.725126 
L 391.020218 285.948675 
L 391.344873 282.607089 
L 391.669527 283.888573 
L 391.994182 280.261858 
L 392.318836 278.137903 
L 392.643491 277.428168 
L 392.968145 283.474589 
L 393.2928 283.22279 
L 393.617455 278.179853 
L 393.942109 280.23932 
L 394.266764 278.740662 
L 394.591418 275.374586 
L 394.916073 273.903081 
L 395.240727 284.169771 
L 395.565382 283.650424 
L 395.890036 284.523418 
L 396.214691 281.669778 
L 396.864 272.214206 
L 397.188655 277.501984 
L 397.513309 279.419093 
L 397.837964 282.378707 
L 398.162618 282.069257 
L 398.487273 275.873446 
L 398.487273 275.873446 
" clip-path="url(#p79350c1cc6)" style="fill: none; stroke: #1f77b4; stroke-width: 1.5; stroke-linecap: square"/>
   </g>
   <g id="patch_3">
    <path d="M 57.6 307.584 
L 57.6 41.472 
" style="fill: none; stroke: #000000; stroke-width: 0.8; stroke-linejoin: miter; stroke-linecap: square"/>
   </g>
   <g id="patch_4">
    <path d="M 414.72 307.584 
L 414.72 41.472 
" style="fill: none; stroke: #000000; stroke-width: 0.8; stroke-linejoin: miter; stroke-linecap: square"/>
   </g>
   <g id="patch_5">
    <path d="M 57.6 307.584 
L 414.72 307.584 
" style="fill: none; stroke: #000000; stroke-width: 0.8; stroke-linejoin: miter; stroke-linecap: square"/>
   </g>
   <g id="patch_6">
    <path d="M 57.6 41.472 
L 414.72 41.472 
" style="fill: none; stroke: #000000; stroke-width: 0.8; stroke-linejoin: miter; stroke-linecap: square"/>
   </g>
   <g id="text_15">
    <!-- Reduced Temperature,T$^*$=0.65 -->
    <g transform="translate(140.88 35.472) scale(0.12 -0.12)">
     <defs>
      <path id="DejaVuSans-54" d="M -19 4666 
L 3928 4666 
L 3928 4134 
L 2272 4134 
L 2272 0 
L 1638 0 
L 1638 4134 
L -19 4134 
L -19 4666 
z
" transform="scale(0.015625)"/>
      <path id="DejaVuSans-6d" d="M 3328 2828 
Q 3544 3216 3844 3400 
Q 4144 3584 4550 3584 
Q 5097 3584 5394 3201 
Q 5691 2819 5691 2113 
L 5691 0 
L 5113 0 
L 5113 2094 
Q 5113 2597 4934 2840 
Q 4756 3084 4391 3084 
Q 3944 3084 3684 2787 
Q 3425 2491 3425 1978 
L 3425 0 
L 2847 0 
L 2847 2094 
Q 2847 2600 2669 2842 
Q 2491 3084 2119 3084 
Q 1678 3084 1418 2786 
Q 1159 2488 1159 1978 
L 1159 0 
L 581 0 
L 581 3500 
L 1159 3500 
L 1159 2956 
Q 1356 3278 1631 3431 
Q 1906 3584 2284 3584 
Q 2666 3584 2933 3390 
Q 3200 3197 3328 2828 
z
" transform="scale(0.015625)"/>
      <path id="DejaVuSans-70" d="M 1159 525 
L 1159 -1331 
L 581 -1331 
L 581 3500 
L 1159 3500 
L 1159 2969 
Q 1341 3281 1617 3432 
Q 1894 3584 2278 3584 
Q 2916 3584 3314 3078 
Q 3713 2572 3713 1747 
Q 3713 922 3314 415 
Q 2916 -91 2278 -91 
Q 1894 -91 1617 61 
Q 1341 213 1159 525 
z
M 3116 1747 
Q 3116 2381 2855 2742 
Q 2594 3103 2138 3103 
Q 1681 3103 1420 2742 
Q 1159 2381 1159 1747 
Q 1159 1113 1420 752 
Q 1681 391 2138 391 
Q 2594 391 2855 752 
Q 3116 1113 3116 1747 
z
" transform="scale(0.015625)"/>
      <path id="DejaVuSans-61" d="M 2194 1759 
Q 1497 1759 1228 1600 
Q 959 1441 959 1056 
Q 959 750 1161 570 
Q 1363 391 1709 391 
Q 2188 391 2477 730 
Q 2766 1069 2766 1631 
L 2766 1759 
L 2194 1759 
z
M 3341 1997 
L 3341 0 
L 2766 0 
L 2766 531 
Q 2569 213 2275 61 
Q 1981 -91 1556 -91 
Q 1019 -91 701 211 
Q 384 513 384 1019 
Q 384 1609 779 1909 
Q 1175 2209 1959 2209 
L 2766 2209 
L 2766 2266 
Q 2766 2663 2505 2880 
Q 2244 3097 1772 3097 
Q 1472 3097 1187 3025 
Q 903 2953 641 2809 
L 641 3341 
Q 956 3463 1253 3523 
Q 1550 3584 1831 3584 
Q 2591 3584 2966 3190 
Q 3341 2797 3341 1997 
z
" transform="scale(0.015625)"/>
      <path id="DejaVuSans-74" d="M 1172 4494 
L 1172 3500 
L 2356 3500 
L 2356 3053 
L 1172 3053 
L 1172 1153 
Q 1172 725 1289 603 
Q 1406 481 1766 481 
L 2356 481 
L 2356 0 
L 1766 0 
Q 1100 0 847 248 
Q 594 497 594 1153 
L 594 3053 
L 172 3053 
L 172 3500 
L 594 3500 
L 594 4494 
L 1172 4494 
z
" transform="scale(0.015625)"/>
      <path id="DejaVuSans-2c" d="M 750 794 
L 1409 794 
L 1409 256 
L 897 -744 
L 494 -744 
L 750 256 
L 750 794 
z
" transform="scale(0.015625)"/>
      <path id="DejaVuSans-2a" d="M 3009 3897 
L 1888 3291 
L 3009 2681 
L 2828 2375 
L 1778 3009 
L 1778 1831 
L 1422 1831 
L 1422 3009 
L 372 2375 
L 191 2681 
L 1313 3291 
L 191 3897 
L 372 4206 
L 1422 3572 
L 1422 4750 
L 1778 4750 
L 1778 3572 
L 2828 4206 
L 3009 3897 
z
" transform="scale(0.015625)"/>
      <path id="DejaVuSans-3d" d="M 678 2906 
L 4684 2906 
L 4684 2381 
L 678 2381 
L 678 2906 
z
M 678 1631 
L 4684 1631 
L 4684 1100 
L 678 1100 
L 678 1631 
z
" transform="scale(0.015625)"/>
      <path id="DejaVuSans-2e" d="M 684 794 
L 1344 794 
L 1344 0 
L 684 0 
L 684 794 
z
" transform="scale(0.015625)"/>
      <path id="DejaVuSans-35" d="M 691 4666 
L 3169 4666 
L 3169 4134 
L 1269 4134 
L 1269 2991 
Q 1406 3038 1543 3061 
Q 1681 3084 1819 3084 
Q 2600 3084 3056 2656 
Q 3513 2228 3513 1497 
Q 3513 744 3044 326 
Q 2575 -91 1722 -91 
Q 1428 -91 1123 -41 
Q 819 9 494 109 
L 494 744 
Q 775 591 1075 516 
Q 1375 441 1709 441 
Q 2250 441 2565 725 
Q 2881 1009 2881 1497 
Q 2881 1984 2565 2268 
Q 2250 2553 1709 2553 
Q 1456 2553 1204 2497 
Q 953 2441 691 2322 
L 691 4666 
z
" transform="scale(0.015625)"/>
     </defs>
     <use xlink:href="#DejaVuSans-52" transform="translate(0 0.765625)"/>
     <use xlink:href="#DejaVuSans-65" transform="translate(69.482422 0.765625)"/>
     <use xlink:href="#DejaVuSans-64" transform="translate(131.005859 0.765625)"/>
     <use xlink:href="#DejaVuSans-75" transform="translate(194.482422 0.765625)"/>
     <use xlink:href="#DejaVuSans-63" transform="translate(257.861328 0.765625)"/>
     <use xlink:href="#DejaVuSans-65" transform="translate(312.841797 0.765625)"/>
     <use xlink:href="#DejaVuSans-64" transform="translate(374.365234 0.765625)"/>
     <use xlink:href="#DejaVuSans-20" transform="translate(437.841797 0.765625)"/>
     <use xlink:href="#DejaVuSans-54" transform="translate(469.628906 0.765625)"/>
     <use xlink:href="#DejaVuSans-65" transform="translate(530.712891 0.765625)"/>
     <use xlink:href="#DejaVuSans-6d" transform="translate(592.236328 0.765625)"/>
     <use xlink:href="#DejaVuSans-70" transform="translate(689.648438 0.765625)"/>
     <use xlink:href="#DejaVuSans-65" transform="translate(753.125 0.765625)"/>
     <use xlink:href="#DejaVuSans-72" transform="translate(814.648438 0.765625)"/>
     <use xlink:href="#DejaVuSans-61" transform="translate(855.761719 0.765625)"/>
     <use xlink:href="#DejaVuSans-74" transform="translate(917.041016 0.765625)"/>
     <use xlink:href="#DejaVuSans-75" transform="translate(956.25 0.765625)"/>
     <use xlink:href="#DejaVuSans-72" transform="translate(1019.628906 0.765625)"/>
     <use xlink:href="#DejaVuSans-65" transform="translate(1060.742188 0.765625)"/>
     <use xlink:href="#DejaVuSans-2c" transform="translate(1122.265625 0.765625)"/>
     <use xlink:href="#DejaVuSans-54" transform="translate(1154.052734 0.765625)"/>
     <use xlink:href="#DejaVuSans-2a" transform="translate(1229.731445 39.046875) scale(0.7)"/>
     <use xlink:href="#DejaVuSans-3d" transform="translate(1281.103516 0.765625)"/>
     <use xlink:href="#DejaVuSans-30" transform="translate(1364.892578 0.765625)"/>
     <use xlink:href="#DejaVuSans-2e" transform="translate(1428.515625 0.765625)"/>
     <use xlink:href="#DejaVuSans-36" transform="translate(1460.302734 0.765625)"/>
     <use xlink:href="#DejaVuSans-35" transform="translate(1523.925781 0.765625)"/>
    </g>
   </g>
  </g>
 </g>
 <defs>
  <clipPath id="p79350c1cc6">
   <rect x="57.6" y="41.472" width="357.12" height="266.112"/>
  </clipPath>
 </defs>
</svg>
