<?xml version="1.0" encoding="utf-8" standalone="no"?>
<!DOCTYPE svg PUBLIC "-//W3C//DTD SVG 1.1//EN"
  "http://www.w3.org/Graphics/SVG/1.1/DTD/svg11.dtd">
<svg xmlns:xlink="http://www.w3.org/1999/xlink" width="460.8pt" height="345.6pt" viewBox="0 0 460.8 345.6" xmlns="http://www.w3.org/2000/svg" version="1.1">
 <metadata>
  <rdf:RDF xmlns:dc="http://purl.org/dc/elements/1.1/" xmlns:cc="http://creativecommons.org/ns#" xmlns:rdf="http://www.w3.org/1999/02/22-rdf-syntax-ns#">
   <cc:Work>
    <dc:type rdf:resource="http://purl.org/dc/dcmitype/StillImage"/>
    <dc:date>2024-03-10T20:52:33.918804</dc:date>
    <dc:format>image/svg+xml</dc:format>
    <dc:creator>
     <cc:Agent>
      <dc:title>Matplotlib v3.8.3, https://matplotlib.org/</dc:title>
     </cc:Agent>
    </dc:creator>
   </cc:Work>
  </rdf:RDF>
 </metadata>
 <defs>
  <style type="text/css">*{stroke-linejoin: round; stroke-linecap: butt}</style>
 </defs>
 <g id="figure_1">
  <g id="patch_1">
   <path d="M 0 345.6 
L 460.8 345.6 
L 460.8 0 
L 0 0 
z
" style="fill: #ffffff"/>
  </g>
  <g id="axes_1">
   <g id="patch_2">
    <path d="M 57.6 307.584 
L 414.72 307.584 
L 414.72 41.472 
L 57.6 41.472 
z
" style="fill: #ffffff"/>
   </g>
   <g id="matplotlib.axis_1">
    <g id="xtick_1">
     <g id="line2d_1">
      <defs>
       <path id="m7930b0759b" d="M 0 0 
L 0 3.5 
" style="stroke: #000000; stroke-width: 0.8"/>
      </defs>
      <g>
       <use xlink:href="#m7930b0759b" x="73.832727" y="307.584" style="stroke: #000000; stroke-width: 0.8"/>
      </g>
     </g>
     <g id="text_1">
      <!-- 0 -->
      <g transform="translate(70.651477 322.182437) scale(0.1 -0.1)">
       <defs>
        <path id="DejaVuSans-30" d="M 2034 4250 
Q 1547 4250 1301 3770 
Q 1056 3291 1056 2328 
Q 1056 1369 1301 889 
Q 1547 409 2034 409 
Q 2525 409 2770 889 
Q 3016 1369 3016 2328 
Q 3016 3291 2770 3770 
Q 2525 4250 2034 4250 
z
M 2034 4750 
Q 2819 4750 3233 4129 
Q 3647 3509 3647 2328 
Q 3647 1150 3233 529 
Q 2819 -91 2034 -91 
Q 1250 -91 836 529 
Q 422 1150 422 2328 
Q 422 3509 836 4129 
Q 1250 4750 2034 4750 
z
" transform="scale(0.015625)"/>
       </defs>
       <use xlink:href="#DejaVuSans-30"/>
      </g>
     </g>
    </g>
    <g id="xtick_2">
     <g id="line2d_2">
      <g>
       <use xlink:href="#m7930b0759b" x="138.763636" y="307.584" style="stroke: #000000; stroke-width: 0.8"/>
      </g>
     </g>
     <g id="text_2">
      <!-- 200 -->
      <g transform="translate(129.219886 322.182437) scale(0.1 -0.1)">
       <defs>
        <path id="DejaVuSans-32" d="M 1228 531 
L 3431 531 
L 3431 0 
L 469 0 
L 469 531 
Q 828 903 1448 1529 
Q 2069 2156 2228 2338 
Q 2531 2678 2651 2914 
Q 2772 3150 2772 3378 
Q 2772 3750 2511 3984 
Q 2250 4219 1831 4219 
Q 1534 4219 1204 4116 
Q 875 4013 500 3803 
L 500 4441 
Q 881 4594 1212 4672 
Q 1544 4750 1819 4750 
Q 2544 4750 2975 4387 
Q 3406 4025 3406 3419 
Q 3406 3131 3298 2873 
Q 3191 2616 2906 2266 
Q 2828 2175 2409 1742 
Q 1991 1309 1228 531 
z
" transform="scale(0.015625)"/>
       </defs>
       <use xlink:href="#DejaVuSans-32"/>
       <use xlink:href="#DejaVuSans-30" x="63.623047"/>
       <use xlink:href="#DejaVuSans-30" x="127.246094"/>
      </g>
     </g>
    </g>
    <g id="xtick_3">
     <g id="line2d_3">
      <g>
       <use xlink:href="#m7930b0759b" x="203.694545" y="307.584" style="stroke: #000000; stroke-width: 0.8"/>
      </g>
     </g>
     <g id="text_3">
      <!-- 400 -->
      <g transform="translate(194.150795 322.182437) scale(0.1 -0.1)">
       <defs>
        <path id="DejaVuSans-34" d="M 2419 4116 
L 825 1625 
L 2419 1625 
L 2419 4116 
z
M 2253 4666 
L 3047 4666 
L 3047 1625 
L 3713 1625 
L 3713 1100 
L 3047 1100 
L 3047 0 
L 2419 0 
L 2419 1100 
L 313 1100 
L 313 1709 
L 2253 4666 
z
" transform="scale(0.015625)"/>
       </defs>
       <use xlink:href="#DejaVuSans-34"/>
       <use xlink:href="#DejaVuSans-30" x="63.623047"/>
       <use xlink:href="#DejaVuSans-30" x="127.246094"/>
      </g>
     </g>
    </g>
    <g id="xtick_4">
     <g id="line2d_4">
      <g>
       <use xlink:href="#m7930b0759b" x="268.625455" y="307.584" style="stroke: #000000; stroke-width: 0.8"/>
      </g>
     </g>
     <g id="text_4">
      <!-- 600 -->
      <g transform="translate(259.081705 322.182437) scale(0.1 -0.1)">
       <defs>
        <path id="DejaVuSans-36" d="M 2113 2584 
Q 1688 2584 1439 2293 
Q 1191 2003 1191 1497 
Q 1191 994 1439 701 
Q 1688 409 2113 409 
Q 2538 409 2786 701 
Q 3034 994 3034 1497 
Q 3034 2003 2786 2293 
Q 2538 2584 2113 2584 
z
M 3366 4563 
L 3366 3988 
Q 3128 4100 2886 4159 
Q 2644 4219 2406 4219 
Q 1781 4219 1451 3797 
Q 1122 3375 1075 2522 
Q 1259 2794 1537 2939 
Q 1816 3084 2150 3084 
Q 2853 3084 3261 2657 
Q 3669 2231 3669 1497 
Q 3669 778 3244 343 
Q 2819 -91 2113 -91 
Q 1303 -91 875 529 
Q 447 1150 447 2328 
Q 447 3434 972 4092 
Q 1497 4750 2381 4750 
Q 2619 4750 2861 4703 
Q 3103 4656 3366 4563 
z
" transform="scale(0.015625)"/>
       </defs>
       <use xlink:href="#DejaVuSans-36"/>
       <use xlink:href="#DejaVuSans-30" x="63.623047"/>
       <use xlink:href="#DejaVuSans-30" x="127.246094"/>
      </g>
     </g>
    </g>
    <g id="xtick_5">
     <g id="line2d_5">
      <g>
       <use xlink:href="#m7930b0759b" x="333.556364" y="307.584" style="stroke: #000000; stroke-width: 0.8"/>
      </g>
     </g>
     <g id="text_5">
      <!-- 800 -->
      <g transform="translate(324.012614 322.182437) scale(0.1 -0.1)">
       <defs>
        <path id="DejaVuSans-38" d="M 2034 2216 
Q 1584 2216 1326 1975 
Q 1069 1734 1069 1313 
Q 1069 891 1326 650 
Q 1584 409 2034 409 
Q 2484 409 2743 651 
Q 3003 894 3003 1313 
Q 3003 1734 2745 1975 
Q 2488 2216 2034 2216 
z
M 1403 2484 
Q 997 2584 770 2862 
Q 544 3141 544 3541 
Q 544 4100 942 4425 
Q 1341 4750 2034 4750 
Q 2731 4750 3128 4425 
Q 3525 4100 3525 3541 
Q 3525 3141 3298 2862 
Q 3072 2584 2669 2484 
Q 3125 2378 3379 2068 
Q 3634 1759 3634 1313 
Q 3634 634 3220 271 
Q 2806 -91 2034 -91 
Q 1263 -91 848 271 
Q 434 634 434 1313 
Q 434 1759 690 2068 
Q 947 2378 1403 2484 
z
M 1172 3481 
Q 1172 3119 1398 2916 
Q 1625 2713 2034 2713 
Q 2441 2713 2670 2916 
Q 2900 3119 2900 3481 
Q 2900 3844 2670 4047 
Q 2441 4250 2034 4250 
Q 1625 4250 1398 4047 
Q 1172 3844 1172 3481 
z
" transform="scale(0.015625)"/>
       </defs>
       <use xlink:href="#DejaVuSans-38"/>
       <use xlink:href="#DejaVuSans-30" x="63.623047"/>
       <use xlink:href="#DejaVuSans-30" x="127.246094"/>
      </g>
     </g>
    </g>
    <g id="xtick_6">
     <g id="line2d_6">
      <g>
       <use xlink:href="#m7930b0759b" x="398.487273" y="307.584" style="stroke: #000000; stroke-width: 0.8"/>
      </g>
     </g>
     <g id="text_6">
      <!-- 1000 -->
      <g transform="translate(385.762273 322.182437) scale(0.1 -0.1)">
       <defs>
        <path id="DejaVuSans-31" d="M 794 531 
L 1825 531 
L 1825 4091 
L 703 3866 
L 703 4441 
L 1819 4666 
L 2450 4666 
L 2450 531 
L 3481 531 
L 3481 0 
L 794 0 
L 794 531 
z
" transform="scale(0.015625)"/>
       </defs>
       <use xlink:href="#DejaVuSans-31"/>
       <use xlink:href="#DejaVuSans-30" x="63.623047"/>
       <use xlink:href="#DejaVuSans-30" x="127.246094"/>
       <use xlink:href="#DejaVuSans-30" x="190.869141"/>
      </g>
     </g>
    </g>
    <g id="text_7">
     <!-- MCS -->
     <g transform="translate(225.180312 335.860562) scale(0.1 -0.1)">
      <defs>
       <path id="DejaVuSans-4d" d="M 628 4666 
L 1569 4666 
L 2759 1491 
L 3956 4666 
L 4897 4666 
L 4897 0 
L 4281 0 
L 4281 4097 
L 3078 897 
L 2444 897 
L 1241 4097 
L 1241 0 
L 628 0 
L 628 4666 
z
" transform="scale(0.015625)"/>
       <path id="DejaVuSans-43" d="M 4122 4306 
L 4122 3641 
Q 3803 3938 3442 4084 
Q 3081 4231 2675 4231 
Q 1875 4231 1450 3742 
Q 1025 3253 1025 2328 
Q 1025 1406 1450 917 
Q 1875 428 2675 428 
Q 3081 428 3442 575 
Q 3803 722 4122 1019 
L 4122 359 
Q 3791 134 3420 21 
Q 3050 -91 2638 -91 
Q 1578 -91 968 557 
Q 359 1206 359 2328 
Q 359 3453 968 4101 
Q 1578 4750 2638 4750 
Q 3056 4750 3426 4639 
Q 3797 4528 4122 4306 
z
" transform="scale(0.015625)"/>
       <path id="DejaVuSans-53" d="M 3425 4513 
L 3425 3897 
Q 3066 4069 2747 4153 
Q 2428 4238 2131 4238 
Q 1616 4238 1336 4038 
Q 1056 3838 1056 3469 
Q 1056 3159 1242 3001 
Q 1428 2844 1947 2747 
L 2328 2669 
Q 3034 2534 3370 2195 
Q 3706 1856 3706 1288 
Q 3706 609 3251 259 
Q 2797 -91 1919 -91 
Q 1588 -91 1214 -16 
Q 841 59 441 206 
L 441 856 
Q 825 641 1194 531 
Q 1563 422 1919 422 
Q 2459 422 2753 634 
Q 3047 847 3047 1241 
Q 3047 1584 2836 1778 
Q 2625 1972 2144 2069 
L 1759 2144 
Q 1053 2284 737 2584 
Q 422 2884 422 3419 
Q 422 4038 858 4394 
Q 1294 4750 2059 4750 
Q 2388 4750 2728 4690 
Q 3069 4631 3425 4513 
z
" transform="scale(0.015625)"/>
      </defs>
      <use xlink:href="#DejaVuSans-4d"/>
      <use xlink:href="#DejaVuSans-43" x="86.279297"/>
      <use xlink:href="#DejaVuSans-53" x="156.103516"/>
     </g>
    </g>
   </g>
   <g id="matplotlib.axis_2">
    <g id="ytick_1">
     <g id="line2d_7">
      <defs>
       <path id="mfa5d39083e" d="M 0 0 
L -3.5 0 
" style="stroke: #000000; stroke-width: 0.8"/>
      </defs>
      <g>
       <use xlink:href="#mfa5d39083e" x="57.6" y="304.619637" style="stroke: #000000; stroke-width: 0.8"/>
      </g>
     </g>
     <g id="text_8">
      <!-- −1400 -->
      <g transform="translate(16.770313 308.418856) scale(0.1 -0.1)">
       <defs>
        <path id="DejaVuSans-2212" d="M 678 2272 
L 4684 2272 
L 4684 1741 
L 678 1741 
L 678 2272 
z
" transform="scale(0.015625)"/>
       </defs>
       <use xlink:href="#DejaVuSans-2212"/>
       <use xlink:href="#DejaVuSans-31" x="83.789062"/>
       <use xlink:href="#DejaVuSans-34" x="147.412109"/>
       <use xlink:href="#DejaVuSans-30" x="211.035156"/>
       <use xlink:href="#DejaVuSans-30" x="274.658203"/>
      </g>
     </g>
    </g>
    <g id="ytick_2">
     <g id="line2d_8">
      <g>
       <use xlink:href="#mfa5d39083e" x="57.6" y="254.333216" style="stroke: #000000; stroke-width: 0.8"/>
      </g>
     </g>
     <g id="text_9">
      <!-- −1200 -->
      <g transform="translate(16.770313 258.132435) scale(0.1 -0.1)">
       <use xlink:href="#DejaVuSans-2212"/>
       <use xlink:href="#DejaVuSans-31" x="83.789062"/>
       <use xlink:href="#DejaVuSans-32" x="147.412109"/>
       <use xlink:href="#DejaVuSans-30" x="211.035156"/>
       <use xlink:href="#DejaVuSans-30" x="274.658203"/>
      </g>
     </g>
    </g>
    <g id="ytick_3">
     <g id="line2d_9">
      <g>
       <use xlink:href="#mfa5d39083e" x="57.6" y="204.046795" style="stroke: #000000; stroke-width: 0.8"/>
      </g>
     </g>
     <g id="text_10">
      <!-- −1000 -->
      <g transform="translate(16.770313 207.846014) scale(0.1 -0.1)">
       <use xlink:href="#DejaVuSans-2212"/>
       <use xlink:href="#DejaVuSans-31" x="83.789062"/>
       <use xlink:href="#DejaVuSans-30" x="147.412109"/>
       <use xlink:href="#DejaVuSans-30" x="211.035156"/>
       <use xlink:href="#DejaVuSans-30" x="274.658203"/>
      </g>
     </g>
    </g>
    <g id="ytick_4">
     <g id="line2d_10">
      <g>
       <use xlink:href="#mfa5d39083e" x="57.6" y="153.760375" style="stroke: #000000; stroke-width: 0.8"/>
      </g>
     </g>
     <g id="text_11">
      <!-- −800 -->
      <g transform="translate(23.132812 157.559593) scale(0.1 -0.1)">
       <use xlink:href="#DejaVuSans-2212"/>
       <use xlink:href="#DejaVuSans-38" x="83.789062"/>
       <use xlink:href="#DejaVuSans-30" x="147.412109"/>
       <use xlink:href="#DejaVuSans-30" x="211.035156"/>
      </g>
     </g>
    </g>
    <g id="ytick_5">
     <g id="line2d_11">
      <g>
       <use xlink:href="#mfa5d39083e" x="57.6" y="103.473954" style="stroke: #000000; stroke-width: 0.8"/>
      </g>
     </g>
     <g id="text_12">
      <!-- −600 -->
      <g transform="translate(23.132812 107.273172) scale(0.1 -0.1)">
       <use xlink:href="#DejaVuSans-2212"/>
       <use xlink:href="#DejaVuSans-36" x="83.789062"/>
       <use xlink:href="#DejaVuSans-30" x="147.412109"/>
       <use xlink:href="#DejaVuSans-30" x="211.035156"/>
      </g>
     </g>
    </g>
    <g id="ytick_6">
     <g id="line2d_12">
      <g>
       <use xlink:href="#mfa5d39083e" x="57.6" y="53.187533" style="stroke: #000000; stroke-width: 0.8"/>
      </g>
     </g>
     <g id="text_13">
      <!-- −400 -->
      <g transform="translate(23.132812 56.986752) scale(0.1 -0.1)">
       <use xlink:href="#DejaVuSans-2212"/>
       <use xlink:href="#DejaVuSans-34" x="83.789062"/>
       <use xlink:href="#DejaVuSans-30" x="147.412109"/>
       <use xlink:href="#DejaVuSans-30" x="211.035156"/>
      </g>
     </g>
    </g>
    <g id="text_14">
     <!-- Reduced Energy U/($\epsilon$) -->
     <g transform="translate(10.670312 229.178) rotate(-90) scale(0.1 -0.1)">
      <defs>
       <path id="DejaVuSans-52" d="M 2841 2188 
Q 3044 2119 3236 1894 
Q 3428 1669 3622 1275 
L 4263 0 
L 3584 0 
L 2988 1197 
Q 2756 1666 2539 1819 
Q 2322 1972 1947 1972 
L 1259 1972 
L 1259 0 
L 628 0 
L 628 4666 
L 2053 4666 
Q 2853 4666 3247 4331 
Q 3641 3997 3641 3322 
Q 3641 2881 3436 2590 
Q 3231 2300 2841 2188 
z
M 1259 4147 
L 1259 2491 
L 2053 2491 
Q 2509 2491 2742 2702 
Q 2975 2913 2975 3322 
Q 2975 3731 2742 3939 
Q 2509 4147 2053 4147 
L 1259 4147 
z
" transform="scale(0.015625)"/>
       <path id="DejaVuSans-65" d="M 3597 1894 
L 3597 1613 
L 953 1613 
Q 991 1019 1311 708 
Q 1631 397 2203 397 
Q 2534 397 2845 478 
Q 3156 559 3463 722 
L 3463 178 
Q 3153 47 2828 -22 
Q 2503 -91 2169 -91 
Q 1331 -91 842 396 
Q 353 884 353 1716 
Q 353 2575 817 3079 
Q 1281 3584 2069 3584 
Q 2775 3584 3186 3129 
Q 3597 2675 3597 1894 
z
M 3022 2063 
Q 3016 2534 2758 2815 
Q 2500 3097 2075 3097 
Q 1594 3097 1305 2825 
Q 1016 2553 972 2059 
L 3022 2063 
z
" transform="scale(0.015625)"/>
       <path id="DejaVuSans-64" d="M 2906 2969 
L 2906 4863 
L 3481 4863 
L 3481 0 
L 2906 0 
L 2906 525 
Q 2725 213 2448 61 
Q 2172 -91 1784 -91 
Q 1150 -91 751 415 
Q 353 922 353 1747 
Q 353 2572 751 3078 
Q 1150 3584 1784 3584 
Q 2172 3584 2448 3432 
Q 2725 3281 2906 2969 
z
M 947 1747 
Q 947 1113 1208 752 
Q 1469 391 1925 391 
Q 2381 391 2643 752 
Q 2906 1113 2906 1747 
Q 2906 2381 2643 2742 
Q 2381 3103 1925 3103 
Q 1469 3103 1208 2742 
Q 947 2381 947 1747 
z
" transform="scale(0.015625)"/>
       <path id="DejaVuSans-75" d="M 544 1381 
L 544 3500 
L 1119 3500 
L 1119 1403 
Q 1119 906 1312 657 
Q 1506 409 1894 409 
Q 2359 409 2629 706 
Q 2900 1003 2900 1516 
L 2900 3500 
L 3475 3500 
L 3475 0 
L 2900 0 
L 2900 538 
Q 2691 219 2414 64 
Q 2138 -91 1772 -91 
Q 1169 -91 856 284 
Q 544 659 544 1381 
z
M 1991 3584 
L 1991 3584 
z
" transform="scale(0.015625)"/>
       <path id="DejaVuSans-63" d="M 3122 3366 
L 3122 2828 
Q 2878 2963 2633 3030 
Q 2388 3097 2138 3097 
Q 1578 3097 1268 2742 
Q 959 2388 959 1747 
Q 959 1106 1268 751 
Q 1578 397 2138 397 
Q 2388 397 2633 464 
Q 2878 531 3122 666 
L 3122 134 
Q 2881 22 2623 -34 
Q 2366 -91 2075 -91 
Q 1284 -91 818 406 
Q 353 903 353 1747 
Q 353 2603 823 3093 
Q 1294 3584 2113 3584 
Q 2378 3584 2631 3529 
Q 2884 3475 3122 3366 
z
" transform="scale(0.015625)"/>
       <path id="DejaVuSans-20" transform="scale(0.015625)"/>
       <path id="DejaVuSans-45" d="M 628 4666 
L 3578 4666 
L 3578 4134 
L 1259 4134 
L 1259 2753 
L 3481 2753 
L 3481 2222 
L 1259 2222 
L 1259 531 
L 3634 531 
L 3634 0 
L 628 0 
L 628 4666 
z
" transform="scale(0.015625)"/>
       <path id="DejaVuSans-6e" d="M 3513 2113 
L 3513 0 
L 2938 0 
L 2938 2094 
Q 2938 2591 2744 2837 
Q 2550 3084 2163 3084 
Q 1697 3084 1428 2787 
Q 1159 2491 1159 1978 
L 1159 0 
L 581 0 
L 581 3500 
L 1159 3500 
L 1159 2956 
Q 1366 3272 1645 3428 
Q 1925 3584 2291 3584 
Q 2894 3584 3203 3211 
Q 3513 2838 3513 2113 
z
" transform="scale(0.015625)"/>
       <path id="DejaVuSans-72" d="M 2631 2963 
Q 2534 3019 2420 3045 
Q 2306 3072 2169 3072 
Q 1681 3072 1420 2755 
Q 1159 2438 1159 1844 
L 1159 0 
L 581 0 
L 581 3500 
L 1159 3500 
L 1159 2956 
Q 1341 3275 1631 3429 
Q 1922 3584 2338 3584 
Q 2397 3584 2469 3576 
Q 2541 3569 2628 3553 
L 2631 2963 
z
" transform="scale(0.015625)"/>
       <path id="DejaVuSans-67" d="M 2906 1791 
Q 2906 2416 2648 2759 
Q 2391 3103 1925 3103 
Q 1463 3103 1205 2759 
Q 947 2416 947 1791 
Q 947 1169 1205 825 
Q 1463 481 1925 481 
Q 2391 481 2648 825 
Q 2906 1169 2906 1791 
z
M 3481 434 
Q 3481 -459 3084 -895 
Q 2688 -1331 1869 -1331 
Q 1566 -1331 1297 -1286 
Q 1028 -1241 775 -1147 
L 775 -588 
Q 1028 -725 1275 -790 
Q 1522 -856 1778 -856 
Q 2344 -856 2625 -561 
Q 2906 -266 2906 331 
L 2906 616 
Q 2728 306 2450 153 
Q 2172 0 1784 0 
Q 1141 0 747 490 
Q 353 981 353 1791 
Q 353 2603 747 3093 
Q 1141 3584 1784 3584 
Q 2172 3584 2450 3431 
Q 2728 3278 2906 2969 
L 2906 3500 
L 3481 3500 
L 3481 434 
z
" transform="scale(0.015625)"/>
       <path id="DejaVuSans-79" d="M 2059 -325 
Q 1816 -950 1584 -1140 
Q 1353 -1331 966 -1331 
L 506 -1331 
L 506 -850 
L 844 -850 
Q 1081 -850 1212 -737 
Q 1344 -625 1503 -206 
L 1606 56 
L 191 3500 
L 800 3500 
L 1894 763 
L 2988 3500 
L 3597 3500 
L 2059 -325 
z
" transform="scale(0.015625)"/>
       <path id="DejaVuSans-55" d="M 556 4666 
L 1191 4666 
L 1191 1831 
Q 1191 1081 1462 751 
Q 1734 422 2344 422 
Q 2950 422 3222 751 
Q 3494 1081 3494 1831 
L 3494 4666 
L 4128 4666 
L 4128 1753 
Q 4128 841 3676 375 
Q 3225 -91 2344 -91 
Q 1459 -91 1007 375 
Q 556 841 556 1753 
L 556 4666 
z
" transform="scale(0.015625)"/>
       <path id="DejaVuSans-2f" d="M 1625 4666 
L 2156 4666 
L 531 -594 
L 0 -594 
L 1625 4666 
z
" transform="scale(0.015625)"/>
       <path id="DejaVuSans-28" d="M 1984 4856 
Q 1566 4138 1362 3434 
Q 1159 2731 1159 2009 
Q 1159 1288 1364 580 
Q 1569 -128 1984 -844 
L 1484 -844 
Q 1016 -109 783 600 
Q 550 1309 550 2009 
Q 550 2706 781 3412 
Q 1013 4119 1484 4856 
L 1984 4856 
z
" transform="scale(0.015625)"/>
       <path id="DejaVuSans-Oblique-3b5" d="M 1263 1888 
Q 925 1963 778 2166 
Q 669 2309 669 2503 
Q 669 3034 1175 3344 
Q 1575 3588 2188 3588 
Q 2425 3588 2684 3550 
Q 2944 3513 3234 3438 
L 3134 2916 
Q 2847 3006 2606 3047 
Q 2359 3088 2138 3088 
Q 1766 3088 1522 2944 
Q 1228 2772 1228 2522 
Q 1228 2356 1381 2241 
Q 1563 2103 1925 2103 
L 2409 2103 
L 2319 1628 
L 1856 1628 
Q 1425 1628 1172 1469 
Q 828 1253 828 916 
Q 828 703 1013 563 
Q 1244 388 1716 388 
Q 2006 388 2284 444 
Q 2563 503 2806 619 
L 2700 84 
Q 2403 -3 2131 -47 
Q 1859 -91 1609 -91 
Q 866 -91 516 194 
Q 250 413 250 781 
Q 250 1278 600 1584 
Q 859 1813 1263 1888 
z
" transform="scale(0.015625)"/>
       <path id="DejaVuSans-29" d="M 513 4856 
L 1013 4856 
Q 1481 4119 1714 3412 
Q 1947 2706 1947 2009 
Q 1947 1309 1714 600 
Q 1481 -109 1013 -844 
L 513 -844 
Q 928 -128 1133 580 
Q 1338 1288 1338 2009 
Q 1338 2731 1133 3434 
Q 928 4138 513 4856 
z
" transform="scale(0.015625)"/>
      </defs>
      <use xlink:href="#DejaVuSans-52" transform="translate(0 0.015625)"/>
      <use xlink:href="#DejaVuSans-65" transform="translate(69.482422 0.015625)"/>
      <use xlink:href="#DejaVuSans-64" transform="translate(131.005859 0.015625)"/>
      <use xlink:href="#DejaVuSans-75" transform="translate(194.482422 0.015625)"/>
      <use xlink:href="#DejaVuSans-63" transform="translate(257.861328 0.015625)"/>
      <use xlink:href="#DejaVuSans-65" transform="translate(312.841797 0.015625)"/>
      <use xlink:href="#DejaVuSans-64" transform="translate(374.365234 0.015625)"/>
      <use xlink:href="#DejaVuSans-20" transform="translate(437.841797 0.015625)"/>
      <use xlink:href="#DejaVuSans-45" transform="translate(469.628906 0.015625)"/>
      <use xlink:href="#DejaVuSans-6e" transform="translate(532.8125 0.015625)"/>
      <use xlink:href="#DejaVuSans-65" transform="translate(596.191406 0.015625)"/>
      <use xlink:href="#DejaVuSans-72" transform="translate(657.714844 0.015625)"/>
      <use xlink:href="#DejaVuSans-67" transform="translate(698.828125 0.015625)"/>
      <use xlink:href="#DejaVuSans-79" transform="translate(762.304688 0.015625)"/>
      <use xlink:href="#DejaVuSans-20" transform="translate(821.484375 0.015625)"/>
      <use xlink:href="#DejaVuSans-55" transform="translate(853.271484 0.015625)"/>
      <use xlink:href="#DejaVuSans-2f" transform="translate(926.464844 0.015625)"/>
      <use xlink:href="#DejaVuSans-28" transform="translate(960.15625 0.015625)"/>
      <use xlink:href="#DejaVuSans-Oblique-3b5" transform="translate(999.169922 0.015625)"/>
      <use xlink:href="#DejaVuSans-29" transform="translate(1053.222656 0.015625)"/>
     </g>
    </g>
   </g>
   <g id="line2d_13">
    <path d="M 73.832727 53.568 
L 74.157382 112.267892 
L 74.482036 142.429838 
L 75.456 188.941785 
L 75.780655 188.873019 
L 76.105309 201.436855 
L 76.429964 202.027393 
L 77.079273 212.650274 
L 77.403927 213.459986 
L 77.728582 218.3038 
L 78.053236 226.303867 
L 78.377891 228.670723 
L 78.702545 225.322427 
L 79.0272 229.801061 
L 79.676509 242.85084 
L 80.001164 245.02799 
L 80.325818 244.627711 
L 80.650473 239.08763 
L 80.975127 242.128174 
L 81.299782 248.55063 
L 81.624436 250.852943 
L 81.949091 254.797511 
L 82.273745 256.848593 
L 82.5984 256.96649 
L 82.923055 253.100947 
L 83.247709 250.96131 
L 83.572364 244.714756 
L 84.221673 249.715791 
L 84.546327 253.68256 
L 84.870982 252.955821 
L 85.195636 257.273011 
L 85.520291 255.571142 
L 85.844945 256.828529 
L 86.1696 253.328368 
L 86.494255 253.827536 
L 86.818909 257.01044 
L 87.143564 253.84662 
L 87.468218 248.200259 
L 87.792873 250.94366 
L 88.117527 246.406065 
L 88.442182 253.911891 
L 89.091491 251.368304 
L 89.416145 255.919325 
L 89.7408 262.985774 
L 90.065455 267.335726 
L 90.390109 260.965718 
L 90.714764 260.760575 
L 91.039418 263.997638 
L 91.364073 260.169182 
L 91.688727 261.163746 
L 92.013382 262.942478 
L 92.338036 268.803787 
L 92.662691 268.939184 
L 92.987345 269.438628 
L 93.312 266.851241 
L 93.636655 266.011634 
L 93.961309 254.451163 
L 94.285964 256.611216 
L 94.935273 261.566063 
L 95.259927 255.908036 
L 95.584582 252.791233 
L 95.909236 254.392479 
L 96.233891 256.88402 
L 96.558545 253.634713 
L 96.8832 252.764808 
L 97.207855 255.428228 
L 97.532509 255.837107 
L 97.857164 252.201499 
L 98.181818 251.596981 
L 98.506473 250.368132 
L 98.831127 252.983554 
L 99.155782 252.26926 
L 99.480436 259.294676 
L 100.129745 265.32887 
L 100.4544 263.697905 
L 100.779055 271.718941 
L 101.103709 264.763223 
L 101.428364 266.998756 
L 101.753018 273.458173 
L 102.077673 275.234641 
L 102.402327 270.989462 
L 102.726982 264.671802 
L 103.051636 267.114315 
L 103.376291 271.558478 
L 103.700945 274.336501 
L 104.350255 271.921168 
L 104.674909 272.930065 
L 104.999564 271.891474 
L 105.324218 275.001262 
L 105.648873 271.553399 
L 105.973527 276.48016 
L 106.298182 275.519815 
L 106.622836 266.396199 
L 106.947491 270.203434 
L 107.272145 275.737606 
L 107.5968 273.584367 
L 107.921455 274.903907 
L 108.246109 272.898032 
L 108.570764 272.931473 
L 108.895418 270.476967 
L 109.544727 273.583361 
L 109.869382 273.538656 
L 110.194036 269.140078 
L 110.518691 260.662843 
L 111.168 274.167739 
L 111.492655 270.379638 
L 111.817309 271.90221 
L 112.141964 267.58223 
L 112.466618 267.137094 
L 112.791273 267.769823 
L 113.115927 275.57322 
L 113.440582 268.653004 
L 113.765236 272.723966 
L 114.089891 271.269155 
L 114.414545 272.395797 
L 114.7392 282.552673 
L 115.388509 286.561305 
L 116.037818 281.094618 
L 116.687127 280.366446 
L 117.011782 282.705619 
L 117.661091 274.093215 
L 117.985745 276.462208 
L 118.635055 273.247724 
L 118.959709 276.568916 
L 119.284364 282.850696 
L 119.609018 277.237474 
L 119.933673 277.355119 
L 120.258327 283.774608 
L 120.582982 270.634892 
L 120.907636 273.075217 
L 121.232291 271.019508 
L 121.556945 271.392834 
L 121.8816 270.361686 
L 122.206255 261.498729 
L 122.530909 257.143573 
L 123.180218 275.659209 
L 123.504873 275.868049 
L 123.829527 273.568727 
L 124.154182 273.793407 
L 124.478836 273.346964 
L 124.803491 269.589965 
L 125.128145 267.239301 
L 125.4528 266.674635 
L 125.777455 262.44336 
L 126.102109 265.765985 
L 126.426764 266.010528 
L 126.751418 261.480777 
L 127.076073 268.695269 
L 127.400727 267.436826 
L 127.725382 263.356662 
L 128.050036 265.073289 
L 128.374691 269.634594 
L 128.699345 265.397209 
L 129.024 267.099379 
L 129.348655 265.110551 
L 129.673309 260.735884 
L 129.997964 260.561893 
L 130.322618 263.842001 
L 130.647273 264.154808 
L 130.971927 257.234064 
L 131.296582 261.056988 
L 131.621236 263.345724 
L 131.945891 267.494379 
L 132.270545 268.618155 
L 132.5952 267.629247 
L 132.919855 267.673776 
L 133.244509 266.312749 
L 133.569164 266.219518 
L 133.893818 267.285741 
L 134.218473 267.662311 
L 134.543127 266.961067 
L 135.192436 262.254559 
L 135.517091 258.54146 
L 135.841745 260.546631 
L 136.1664 259.903669 
L 136.491055 268.556303 
L 136.815709 267.173099 
L 137.465018 261.133952 
L 137.789673 264.940407 
L 138.114327 271.178262 
L 138.438982 264.862765 
L 138.763636 267.741084 
L 139.088291 272.960061 
L 139.412945 273.684386 
L 139.7376 273.051783 
L 140.062255 268.412861 
L 140.386909 267.700026 
L 140.711564 273.079969 
L 141.036218 263.558713 
L 141.360873 266.80196 
L 141.685527 265.897232 
L 142.010182 265.379936 
L 142.334836 266.060613 
L 142.659491 272.140895 
L 142.984145 274.624818 
L 143.3088 270.508246 
L 143.958109 278.074366 
L 144.282764 277.790122 
L 144.607418 273.462397 
L 144.932073 271.055437 
L 145.256727 276.977116 
L 145.581382 277.154602 
L 145.906036 276.545508 
L 146.230691 281.173065 
L 146.555345 278.077207 
L 146.88 278.47447 
L 147.204655 276.314894 
L 147.529309 275.499022 
L 147.853964 276.150533 
L 148.503273 280.220137 
L 148.827927 278.626888 
L 149.152582 276.323166 
L 149.477236 286.086099 
L 149.801891 280.193938 
L 150.126545 278.75288 
L 150.4512 280.708569 
L 150.775855 279.295722 
L 151.100509 272.160205 
L 151.425164 271.996347 
L 151.749818 265.755726 
L 152.074473 264.941941 
L 152.723782 273.161131 
L 153.048436 273.259391 
L 153.373091 272.482516 
L 153.697745 270.150583 
L 154.0224 274.38289 
L 154.347055 274.584438 
L 154.671709 272.006706 
L 154.996364 263.665898 
L 155.321018 263.368404 
L 155.645673 274.232232 
L 155.970327 273.090378 
L 156.294982 271.264629 
L 156.619636 271.004673 
L 156.944291 269.915017 
L 157.268945 262.718502 
L 157.5936 272.60451 
L 157.918255 277.084025 
L 158.242909 278.957295 
L 158.567564 276.714193 
L 158.892218 276.023861 
L 159.216873 279.746037 
L 159.866182 264.984081 
L 160.190836 268.31616 
L 161.1648 281.37934 
L 161.489455 276.251583 
L 161.814109 276.917074 
L 162.138764 279.71403 
L 162.463418 275.11775 
L 163.112727 274.567366 
L 163.762036 268.416532 
L 164.411345 274.275126 
L 164.736 277.805459 
L 165.060655 275.618779 
L 165.385309 275.409764 
L 166.034618 264.287287 
L 166.359273 262.782592 
L 167.333236 270.785299 
L 167.982545 265.915486 
L 168.3072 264.629285 
L 168.631855 274.289508 
L 168.956509 270.599264 
L 169.281164 271.545856 
L 169.605818 270.397188 
L 169.930473 276.552673 
L 170.255127 275.836067 
L 170.579782 274.680787 
L 170.904436 277.691661 
L 171.553745 270.63982 
L 171.8784 274.619915 
L 172.203055 274.949215 
L 172.527709 272.772367 
L 172.852364 273.640511 
L 173.177018 265.688795 
L 173.501673 271.556114 
L 173.826327 268.240303 
L 174.150982 259.599285 
L 174.475636 258.959843 
L 174.800291 262.327198 
L 175.124945 256.180865 
L 175.774255 265.820847 
L 176.098909 263.325057 
L 176.423564 263.769689 
L 176.748218 269.036438 
L 177.072873 263.006241 
L 177.397527 266.627819 
L 177.722182 261.662085 
L 178.046836 259.680272 
L 178.371491 267.048213 
L 178.696145 269.288926 
L 179.0208 275.011344 
L 179.345455 278.164403 
L 179.670109 276.08853 
L 179.994764 270.637959 
L 180.319418 278.003059 
L 180.644073 272.190326 
L 180.968727 274.146443 
L 181.618036 257.638216 
L 181.942691 257.982024 
L 182.267345 260.67979 
L 182.592 266.526919 
L 182.916655 261.048037 
L 183.241309 259.486292 
L 183.565964 255.481104 
L 183.890618 264.799228 
L 184.215273 264.545458 
L 184.539927 266.320619 
L 184.864582 270.096752 
L 185.189236 266.05038 
L 185.513891 269.720735 
L 185.838545 271.402916 
L 186.1632 272.077383 
L 186.487855 273.175739 
L 186.812509 269.718699 
L 187.461818 278.990886 
L 188.111127 270.436009 
L 188.435782 268.192581 
L 188.760436 272.943818 
L 189.085091 272.19616 
L 189.409745 271.880663 
L 189.7344 274.544887 
L 190.383709 282.46618 
L 190.708364 281.302603 
L 191.033018 278.319286 
L 191.357673 276.541309 
L 191.682327 274.055978 
L 192.331636 275.85236 
L 192.656291 280.264993 
L 192.980945 280.215913 
L 193.3056 282.368172 
L 193.630255 286.637791 
L 193.954909 285.304799 
L 194.279564 285.859232 
L 194.604218 285.839167 
L 194.928873 287.502944 
L 195.253527 279.886613 
L 195.578182 284.770656 
L 196.227491 280.760666 
L 196.552145 276.105904 
L 197.201455 271.397108 
L 197.526109 274.517632 
L 197.850764 278.790771 
L 198.175418 280.144909 
L 198.500073 273.72811 
L 198.824727 271.044123 
L 199.149382 275.290585 
L 199.474036 274.189916 
L 199.798691 275.617271 
L 200.123345 273.527543 
L 200.772655 264.629336 
L 201.097309 267.690496 
L 201.421964 273.639933 
L 201.746618 275.031006 
L 202.071273 264.961955 
L 202.395927 266.523072 
L 202.720582 274.316788 
L 203.045236 275.31691 
L 203.369891 269.561503 
L 204.0192 269.10274 
L 204.343855 265.844985 
L 204.668509 269.829002 
L 204.993164 272.073335 
L 205.317818 270.245273 
L 205.642473 266.177981 
L 205.967127 258.40966 
L 206.291782 261.866273 
L 206.616436 263.181715 
L 206.941091 263.481146 
L 207.265745 265.743934 
L 207.5904 264.868498 
L 207.915055 266.548643 
L 208.239709 271.331133 
L 208.889018 269.778062 
L 209.213673 272.662843 
L 209.538327 273.852267 
L 210.187636 270.096224 
L 210.512291 275.095926 
L 210.836945 278.050178 
L 211.1616 284.794643 
L 211.486255 279.441352 
L 211.810909 281.196775 
L 212.135564 281.463117 
L 212.784873 271.875383 
L 213.109527 270.750299 
L 213.434182 272.253411 
L 213.758836 270.817633 
L 214.083491 270.25533 
L 214.7328 277.451065 
L 215.057455 278.623694 
L 215.382109 284.25253 
L 215.706764 280.488969 
L 216.031418 283.338147 
L 216.356073 279.974916 
L 216.680727 281.876849 
L 217.005382 286.916428 
L 217.330036 288.629687 
L 217.654691 284.456115 
L 217.979345 282.962231 
L 218.304 283.81705 
L 218.628655 286.154488 
L 218.953309 287.117348 
L 219.277964 283.012744 
L 219.602618 284.255799 
L 219.927273 278.180168 
L 220.251927 274.253377 
L 220.901236 282.743686 
L 221.225891 281.978452 
L 221.550545 284.825745 
L 221.8752 275.781204 
L 222.199855 278.541627 
L 222.524509 278.287027 
L 222.849164 277.062301 
L 223.173818 277.613641 
L 223.498473 275.434857 
L 223.823127 278.836381 
L 224.147782 273.319659 
L 224.472436 277.092171 
L 224.797091 275.202131 
L 225.121745 276.863016 
L 225.4464 274.661049 
L 225.771055 273.314882 
L 226.095709 269.832798 
L 226.420364 264.235291 
L 227.069673 268.557359 
L 227.394327 268.516199 
L 227.718982 275.774541 
L 228.043636 270.663254 
L 228.368291 274.937876 
L 228.692945 274.205982 
L 229.0176 270.699183 
L 229.342255 276.728776 
L 229.666909 277.549401 
L 229.991564 279.026489 
L 230.316218 275.758651 
L 230.640873 274.305021 
L 230.965527 271.703478 
L 231.290182 272.713129 
L 231.614836 268.708193 
L 231.939491 271.613893 
L 232.264145 266.724293 
L 232.5888 275.754376 
L 232.913455 281.3153 
L 233.238109 274.967168 
L 233.562764 277.962177 
L 233.887418 274.529072 
L 234.212073 276.002615 
L 234.536727 270.945411 
L 234.861382 282.091798 
L 235.186036 276.449461 
L 235.510691 278.815864 
L 235.835345 275.115588 
L 236.16 272.88277 
L 236.484655 274.629293 
L 236.809309 274.438683 
L 237.133964 275.549887 
L 237.458618 279.861344 
L 237.783273 277.673432 
L 238.107927 269.921655 
L 238.432582 267.493474 
L 238.757236 266.057143 
L 239.081891 259.758543 
L 239.406545 265.378151 
L 239.7312 259.028132 
L 240.055855 267.903686 
L 240.380509 268.193461 
L 241.029818 276.493813 
L 241.354473 277.434949 
L 241.679127 280.430611 
L 242.003782 284.975674 
L 242.653091 283.001957 
L 242.977745 279.456563 
L 243.3024 277.377698 
L 243.627055 278.149443 
L 243.951709 277.595262 
L 244.276364 279.919902 
L 244.601018 277.976005 
L 244.925673 274.291218 
L 245.250327 272.358585 
L 245.574982 273.603098 
L 245.899636 268.107622 
L 246.224291 269.558511 
L 246.548945 276.736546 
L 246.8736 271.203782 
L 247.198255 269.544205 
L 247.522909 270.048955 
L 247.847564 277.441058 
L 248.172218 266.481711 
L 248.496873 274.017333 
L 249.470836 267.773997 
L 249.795491 268.929654 
L 250.120145 270.822536 
L 250.4448 268.320208 
L 250.769455 271.832161 
L 251.094109 278.181526 
L 251.418764 278.198095 
L 251.743418 276.599565 
L 252.068073 272.622337 
L 252.392727 271.937285 
L 252.717382 272.467128 
L 253.042036 269.205551 
L 253.366691 269.135275 
L 253.691345 272.16546 
L 254.016 277.149925 
L 254.340655 271.514703 
L 254.665309 271.443246 
L 254.989964 279.383045 
L 255.314618 273.613885 
L 255.963927 282.287764 
L 256.288582 282.303152 
L 256.613236 275.644199 
L 256.937891 274.812864 
L 257.262545 272.065214 
L 257.5872 280.640054 
L 257.911855 272.272997 
L 258.561164 276.195489 
L 258.885818 276.453257 
L 259.210473 276.065725 
L 259.535127 273.005846 
L 259.859782 273.173929 
L 260.184436 268.313671 
L 260.509091 275.847281 
L 260.833745 277.458508 
L 261.1584 282.268454 
L 261.483055 276.847075 
L 261.807709 283.946361 
L 262.132364 285.926364 
L 262.457018 287.024645 
L 262.781673 280.721217 
L 263.106327 277.473795 
L 263.430982 279.723333 
L 263.755636 279.397075 
L 264.080291 279.540341 
L 264.404945 283.964464 
L 264.7296 283.887928 
L 265.054255 285.417038 
L 265.378909 287.773937 
L 265.703564 287.696697 
L 266.028218 276.802094 
L 266.352873 275.39777 
L 267.002182 280.38392 
L 267.326836 280.443837 
L 267.651491 274.285711 
L 267.976145 276.07372 
L 268.3008 277.147185 
L 268.625455 274.41623 
L 268.950109 270.631774 
L 269.274764 274.367703 
L 269.599418 276.039224 
L 269.924073 274.517004 
L 270.248727 277.339153 
L 270.573382 275.532739 
L 270.898036 271.376717 
L 271.222691 270.867416 
L 271.547345 278.158746 
L 271.872 278.136796 
L 273.170618 263.134396 
L 273.495273 268.028371 
L 274.144582 266.470372 
L 274.469236 275.708339 
L 274.793891 274.693308 
L 275.118545 275.058588 
L 275.767855 280.453492 
L 276.092509 277.258644 
L 276.417164 275.386406 
L 276.741818 277.477742 
L 277.066473 275.272582 
L 277.391127 274.262278 
L 277.715782 270.944204 
L 278.040436 270.400507 
L 279.0144 279.216773 
L 279.339055 275.04745 
L 279.663709 275.661799 
L 279.988364 277.243031 
L 280.313018 282.309488 
L 280.637673 279.321921 
L 280.962327 277.514552 
L 281.286982 278.791173 
L 281.611636 281.153353 
L 281.936291 282.236673 
L 282.260945 279.170308 
L 282.5856 282.596322 
L 282.910255 282.611559 
L 283.234909 285.553264 
L 283.559564 285.874921 
L 283.884218 278.557568 
L 284.533527 283.828264 
L 284.858182 285.847138 
L 285.182836 284.405501 
L 285.507491 279.125528 
L 285.832145 275.870463 
L 286.1568 277.161944 
L 286.481455 272.418928 
L 286.806109 275.593661 
L 287.130764 274.833984 
L 287.455418 273.539234 
L 287.780073 274.451204 
L 288.104727 275.968999 
L 288.429382 274.083862 
L 288.754036 281.881048 
L 289.078691 280.572067 
L 289.403345 277.063709 
L 289.728 276.999016 
L 290.052655 272.737795 
L 290.377309 270.956549 
L 290.701964 274.781812 
L 291.026618 269.599369 
L 291.351273 270.345368 
L 291.675927 271.94347 
L 292.000582 279.479544 
L 292.325236 281.623933 
L 292.649891 280.220615 
L 292.974545 275.011445 
L 293.2992 271.923431 
L 293.948509 274.706508 
L 294.273164 278.142604 
L 294.597818 276.409106 
L 294.922473 277.891952 
L 295.247127 281.160996 
L 295.896436 279.860238 
L 296.221091 282.561272 
L 296.8704 279.076876 
L 297.195055 284.437282 
L 297.519709 282.853738 
L 297.844364 280.655568 
L 298.169018 280.300797 
L 298.493673 281.318619 
L 299.142982 273.503154 
L 299.467636 281.135325 
L 299.792291 275.806549 
L 300.116945 276.708486 
L 300.4416 276.215855 
L 300.766255 273.16704 
L 301.090909 277.182611 
L 301.415564 273.544464 
L 301.740218 274.430058 
L 302.064873 276.272477 
L 302.389527 279.075568 
L 302.714182 277.57912 
L 303.038836 274.642292 
L 303.363491 281.008453 
L 303.688145 275.500304 
L 304.0128 278.412944 
L 304.337455 276.764203 
L 304.662109 282.640096 
L 305.311418 265.186937 
L 305.636073 267.168448 
L 305.960727 276.743837 
L 306.285382 279.428755 
L 306.610036 276.069421 
L 306.934691 266.876334 
L 307.259345 270.071709 
L 307.584 275.90252 
L 307.908655 277.275717 
L 308.233309 277.37722 
L 308.557964 279.782319 
L 308.882618 278.227136 
L 309.207273 271.391099 
L 309.531927 273.711968 
L 309.856582 277.937964 
L 310.181236 275.104098 
L 310.505891 276.112039 
L 310.830545 280.214681 
L 311.1552 279.113233 
L 311.479855 274.744273 
L 311.804509 274.570483 
L 312.129164 278.344379 
L 312.453818 271.830577 
L 313.103127 282.646055 
L 313.427782 275.65755 
L 313.752436 276.936258 
L 314.077091 275.449641 
L 314.401745 280.927743 
L 314.7264 281.322667 
L 315.051055 280.116749 
L 315.375709 285.512507 
L 315.700364 285.30241 
L 316.025018 285.707341 
L 316.349673 283.439801 
L 316.674327 279.835597 
L 316.998982 273.077982 
L 317.323636 277.029087 
L 317.648291 270.101152 
L 317.972945 274.087558 
L 318.2976 275.624487 
L 318.622255 272.192288 
L 318.946909 275.455524 
L 319.596218 279.288883 
L 319.920873 283.583897 
L 320.245527 284.646826 
L 320.570182 283.740162 
L 320.894836 280.617903 
L 321.219491 280.096383 
L 321.544145 282.023308 
L 321.8688 286.253201 
L 322.193455 282.443526 
L 322.518109 280.430863 
L 322.842764 281.802299 
L 323.167418 284.772693 
L 323.492073 279.944392 
L 323.816727 280.292927 
L 324.466036 286.241157 
L 324.790691 295.488 
L 325.115345 293.232176 
L 325.44 285.103301 
L 326.089309 279.539787 
L 326.413964 274.142496 
L 326.738618 283.406235 
L 327.063273 276.726488 
L 327.712582 280.037246 
L 328.037236 276.502186 
L 328.361891 277.139969 
L 328.686545 279.455507 
L 329.0112 279.234725 
L 329.335855 275.100226 
L 329.660509 274.42938 
L 330.309818 283.710744 
L 330.634473 285.133649 
L 330.959127 283.244665 
L 331.283782 280.359381 
L 331.608436 279.938131 
L 331.933091 284.846388 
L 332.257745 283.168531 
L 332.5824 288.206903 
L 332.907055 287.675401 
L 333.231709 280.20739 
L 333.556364 277.057876 
L 334.205673 280.653682 
L 334.530327 280.708016 
L 334.854982 283.946914 
L 335.504291 280.526432 
L 335.828945 280.494978 
L 336.1536 279.868535 
L 336.478255 274.15557 
L 336.802909 274.96234 
L 337.127564 276.424896 
L 337.452218 276.258171 
L 337.776873 275.725512 
L 338.426182 272.36208 
L 338.750836 274.857216 
L 339.400145 270.332293 
L 339.7248 273.073834 
L 340.049455 277.299024 
L 340.374109 277.168959 
L 340.698764 280.502244 
L 341.023418 274.887061 
L 341.997382 283.629859 
L 342.322036 284.148337 
L 342.971345 274.292777 
L 343.296 278.598551 
L 343.620655 274.993467 
L 343.945309 279.939112 
L 344.269964 282.073921 
L 344.594618 282.754322 
L 344.919273 282.130217 
L 345.243927 280.553511 
L 345.568582 284.177251 
L 345.893236 285.763738 
L 346.217891 288.976663 
L 346.8672 282.856127 
L 347.191855 276.032938 
L 347.841164 289.651331 
L 348.165818 286.097438 
L 348.490473 279.030134 
L 348.815127 276.129035 
L 349.789091 279.033705 
L 350.113745 279.332331 
L 350.4384 279.350132 
L 351.087709 291.451534 
L 351.412364 288.842197 
L 351.737018 281.281282 
L 352.061673 278.059959 
L 352.386327 279.718279 
L 353.360291 287.478354 
L 353.684945 286.233916 
L 354.0096 283.964992 
L 354.334255 280.10028 
L 354.658909 280.062464 
L 354.983564 281.158004 
L 355.957527 265.36744 
L 356.282182 264.507743 
L 356.606836 269.912653 
L 357.256145 262.832275 
L 358.230109 273.131034 
L 358.554764 275.145408 
L 358.879418 276.322387 
L 359.204073 276.13414 
L 359.528727 277.245293 
L 359.853382 277.226813 
L 360.178036 279.853876 
L 360.502691 279.164626 
L 360.827345 281.804637 
L 361.476655 275.106386 
L 361.801309 279.052386 
L 362.125964 273.047433 
L 362.450618 272.340054 
L 362.775273 270.533716 
L 363.099927 269.387487 
L 363.424582 270.783438 
L 363.749236 268.229768 
L 364.073891 264.102887 
L 364.398545 266.425994 
L 364.7232 266.321775 
L 365.047855 266.62548 
L 365.697164 271.885113 
L 366.021818 271.682534 
L 366.346473 273.921084 
L 366.671127 272.475752 
L 366.995782 272.024356 
L 367.320436 278.761655 
L 367.645091 278.112432 
L 367.969745 282.553201 
L 368.2944 281.967993 
L 368.619055 275.00448 
L 368.943709 270.95489 
L 369.268364 270.954186 
L 369.593018 278.693995 
L 369.917673 279.977229 
L 370.242327 282.811874 
L 370.566982 279.75881 
L 370.891636 272.037984 
L 371.216291 267.825666 
L 371.8656 276.050563 
L 372.190255 284.095913 
L 373.164218 272.660404 
L 373.488873 274.857342 
L 374.138182 269.722872 
L 374.462836 270.15438 
L 374.787491 273.788353 
L 375.112145 266.38046 
L 375.4368 270.126044 
L 375.761455 270.392285 
L 376.086109 278.357503 
L 376.410764 276.688095 
L 376.735418 272.687634 
L 377.060073 272.823835 
L 377.384727 271.052873 
L 377.709382 265.169663 
L 378.034036 266.135263 
L 378.358691 266.576476 
L 378.683345 270.544502 
L 379.008 270.246706 
L 379.332655 265.341391 
L 379.657309 268.432648 
L 379.981964 270.389444 
L 380.306618 271.550658 
L 380.631273 276.563058 
L 381.280582 267.390412 
L 381.605236 267.814754 
L 381.929891 269.614782 
L 382.254545 275.398097 
L 382.5792 277.586914 
L 383.228509 273.531415 
L 383.553164 275.61287 
L 383.877818 276.48456 
L 384.202473 277.030897 
L 384.527127 278.328966 
L 385.176436 271.695785 
L 385.501091 271.472186 
L 386.1504 286.474159 
L 386.475055 285.388727 
L 386.799709 281.362746 
L 387.124364 280.279928 
L 387.449018 276.624231 
L 387.773673 281.717315 
L 388.098327 277.590359 
L 388.422982 282.196872 
L 388.747636 281.698156 
L 389.396945 282.738155 
L 389.7216 285.077755 
L 390.046255 281.65149 
L 390.370909 281.711457 
L 390.695564 277.553499 
L 391.020218 279.761249 
L 391.344873 278.244887 
L 391.669527 275.893846 
L 391.994182 275.555393 
L 392.318836 278.55186 
L 392.968145 272.204633 
L 393.2928 277.137957 
L 393.617455 276.744114 
L 393.942109 274.948889 
L 394.591418 282.542012 
L 395.240727 275.136029 
L 395.565382 273.185897 
L 395.890036 275.87793 
L 396.214691 277.33596 
L 396.539345 279.885481 
L 396.864 279.611546 
L 397.188655 281.974756 
L 397.513309 279.55872 
L 397.837964 279.4235 
L 398.162618 279.009366 
L 398.487273 278.346239 
L 398.487273 278.346239 
" clip-path="url(#p29942628dd)" style="fill: none; stroke: #1f77b4; stroke-width: 1.5; stroke-linecap: square"/>
   </g>
   <g id="patch_3">
    <path d="M 57.6 307.584 
L 57.6 41.472 
" style="fill: none; stroke: #000000; stroke-width: 0.8; stroke-linejoin: miter; stroke-linecap: square"/>
   </g>
   <g id="patch_4">
    <path d="M 414.72 307.584 
L 414.72 41.472 
" style="fill: none; stroke: #000000; stroke-width: 0.8; stroke-linejoin: miter; stroke-linecap: square"/>
   </g>
   <g id="patch_5">
    <path d="M 57.6 307.584 
L 414.72 307.584 
" style="fill: none; stroke: #000000; stroke-width: 0.8; stroke-linejoin: miter; stroke-linecap: square"/>
   </g>
   <g id="patch_6">
    <path d="M 57.6 41.472 
L 414.72 41.472 
" style="fill: none; stroke: #000000; stroke-width: 0.8; stroke-linejoin: miter; stroke-linecap: square"/>
   </g>
   <g id="text_15">
    <!-- Reduced Temperature,T$^*$=0.65 -->
    <g transform="translate(140.88 35.472) scale(0.12 -0.12)">
     <defs>
      <path id="DejaVuSans-54" d="M -19 4666 
L 3928 4666 
L 3928 4134 
L 2272 4134 
L 2272 0 
L 1638 0 
L 1638 4134 
L -19 4134 
L -19 4666 
z
" transform="scale(0.015625)"/>
      <path id="DejaVuSans-6d" d="M 3328 2828 
Q 3544 3216 3844 3400 
Q 4144 3584 4550 3584 
Q 5097 3584 5394 3201 
Q 5691 2819 5691 2113 
L 5691 0 
L 5113 0 
L 5113 2094 
Q 5113 2597 4934 2840 
Q 4756 3084 4391 3084 
Q 3944 3084 3684 2787 
Q 3425 2491 3425 1978 
L 3425 0 
L 2847 0 
L 2847 2094 
Q 2847 2600 2669 2842 
Q 2491 3084 2119 3084 
Q 1678 3084 1418 2786 
Q 1159 2488 1159 1978 
L 1159 0 
L 581 0 
L 581 3500 
L 1159 3500 
L 1159 2956 
Q 1356 3278 1631 3431 
Q 1906 3584 2284 3584 
Q 2666 3584 2933 3390 
Q 3200 3197 3328 2828 
z
" transform="scale(0.015625)"/>
      <path id="DejaVuSans-70" d="M 1159 525 
L 1159 -1331 
L 581 -1331 
L 581 3500 
L 1159 3500 
L 1159 2969 
Q 1341 3281 1617 3432 
Q 1894 3584 2278 3584 
Q 2916 3584 3314 3078 
Q 3713 2572 3713 1747 
Q 3713 922 3314 415 
Q 2916 -91 2278 -91 
Q 1894 -91 1617 61 
Q 1341 213 1159 525 
z
M 3116 1747 
Q 3116 2381 2855 2742 
Q 2594 3103 2138 3103 
Q 1681 3103 1420 2742 
Q 1159 2381 1159 1747 
Q 1159 1113 1420 752 
Q 1681 391 2138 391 
Q 2594 391 2855 752 
Q 3116 1113 3116 1747 
z
" transform="scale(0.015625)"/>
      <path id="DejaVuSans-61" d="M 2194 1759 
Q 1497 1759 1228 1600 
Q 959 1441 959 1056 
Q 959 750 1161 570 
Q 1363 391 1709 391 
Q 2188 391 2477 730 
Q 2766 1069 2766 1631 
L 2766 1759 
L 2194 1759 
z
M 3341 1997 
L 3341 0 
L 2766 0 
L 2766 531 
Q 2569 213 2275 61 
Q 1981 -91 1556 -91 
Q 1019 -91 701 211 
Q 384 513 384 1019 
Q 384 1609 779 1909 
Q 1175 2209 1959 2209 
L 2766 2209 
L 2766 2266 
Q 2766 2663 2505 2880 
Q 2244 3097 1772 3097 
Q 1472 3097 1187 3025 
Q 903 2953 641 2809 
L 641 3341 
Q 956 3463 1253 3523 
Q 1550 3584 1831 3584 
Q 2591 3584 2966 3190 
Q 3341 2797 3341 1997 
z
" transform="scale(0.015625)"/>
      <path id="DejaVuSans-74" d="M 1172 4494 
L 1172 3500 
L 2356 3500 
L 2356 3053 
L 1172 3053 
L 1172 1153 
Q 1172 725 1289 603 
Q 1406 481 1766 481 
L 2356 481 
L 2356 0 
L 1766 0 
Q 1100 0 847 248 
Q 594 497 594 1153 
L 594 3053 
L 172 3053 
L 172 3500 
L 594 3500 
L 594 4494 
L 1172 4494 
z
" transform="scale(0.015625)"/>
      <path id="DejaVuSans-2c" d="M 750 794 
L 1409 794 
L 1409 256 
L 897 -744 
L 494 -744 
L 750 256 
L 750 794 
z
" transform="scale(0.015625)"/>
      <path id="DejaVuSans-2a" d="M 3009 3897 
L 1888 3291 
L 3009 2681 
L 2828 2375 
L 1778 3009 
L 1778 1831 
L 1422 1831 
L 1422 3009 
L 372 2375 
L 191 2681 
L 1313 3291 
L 191 3897 
L 372 4206 
L 1422 3572 
L 1422 4750 
L 1778 4750 
L 1778 3572 
L 2828 4206 
L 3009 3897 
z
" transform="scale(0.015625)"/>
      <path id="DejaVuSans-3d" d="M 678 2906 
L 4684 2906 
L 4684 2381 
L 678 2381 
L 678 2906 
z
M 678 1631 
L 4684 1631 
L 4684 1100 
L 678 1100 
L 678 1631 
z
" transform="scale(0.015625)"/>
      <path id="DejaVuSans-2e" d="M 684 794 
L 1344 794 
L 1344 0 
L 684 0 
L 684 794 
z
" transform="scale(0.015625)"/>
      <path id="DejaVuSans-35" d="M 691 4666 
L 3169 4666 
L 3169 4134 
L 1269 4134 
L 1269 2991 
Q 1406 3038 1543 3061 
Q 1681 3084 1819 3084 
Q 2600 3084 3056 2656 
Q 3513 2228 3513 1497 
Q 3513 744 3044 326 
Q 2575 -91 1722 -91 
Q 1428 -91 1123 -41 
Q 819 9 494 109 
L 494 744 
Q 775 591 1075 516 
Q 1375 441 1709 441 
Q 2250 441 2565 725 
Q 2881 1009 2881 1497 
Q 2881 1984 2565 2268 
Q 2250 2553 1709 2553 
Q 1456 2553 1204 2497 
Q 953 2441 691 2322 
L 691 4666 
z
" transform="scale(0.015625)"/>
     </defs>
     <use xlink:href="#DejaVuSans-52" transform="translate(0 0.765625)"/>
     <use xlink:href="#DejaVuSans-65" transform="translate(69.482422 0.765625)"/>
     <use xlink:href="#DejaVuSans-64" transform="translate(131.005859 0.765625)"/>
     <use xlink:href="#DejaVuSans-75" transform="translate(194.482422 0.765625)"/>
     <use xlink:href="#DejaVuSans-63" transform="translate(257.861328 0.765625)"/>
     <use xlink:href="#DejaVuSans-65" transform="translate(312.841797 0.765625)"/>
     <use xlink:href="#DejaVuSans-64" transform="translate(374.365234 0.765625)"/>
     <use xlink:href="#DejaVuSans-20" transform="translate(437.841797 0.765625)"/>
     <use xlink:href="#DejaVuSans-54" transform="translate(469.628906 0.765625)"/>
     <use xlink:href="#DejaVuSans-65" transform="translate(530.712891 0.765625)"/>
     <use xlink:href="#DejaVuSans-6d" transform="translate(592.236328 0.765625)"/>
     <use xlink:href="#DejaVuSans-70" transform="translate(689.648438 0.765625)"/>
     <use xlink:href="#DejaVuSans-65" transform="translate(753.125 0.765625)"/>
     <use xlink:href="#DejaVuSans-72" transform="translate(814.648438 0.765625)"/>
     <use xlink:href="#DejaVuSans-61" transform="translate(855.761719 0.765625)"/>
     <use xlink:href="#DejaVuSans-74" transform="translate(917.041016 0.765625)"/>
     <use xlink:href="#DejaVuSans-75" transform="translate(956.25 0.765625)"/>
     <use xlink:href="#DejaVuSans-72" transform="translate(1019.628906 0.765625)"/>
     <use xlink:href="#DejaVuSans-65" transform="translate(1060.742188 0.765625)"/>
     <use xlink:href="#DejaVuSans-2c" transform="translate(1122.265625 0.765625)"/>
     <use xlink:href="#DejaVuSans-54" transform="translate(1154.052734 0.765625)"/>
     <use xlink:href="#DejaVuSans-2a" transform="translate(1229.731445 39.046875) scale(0.7)"/>
     <use xlink:href="#DejaVuSans-3d" transform="translate(1281.103516 0.765625)"/>
     <use xlink:href="#DejaVuSans-30" transform="translate(1364.892578 0.765625)"/>
     <use xlink:href="#DejaVuSans-2e" transform="translate(1428.515625 0.765625)"/>
     <use xlink:href="#DejaVuSans-36" transform="translate(1460.302734 0.765625)"/>
     <use xlink:href="#DejaVuSans-35" transform="translate(1523.925781 0.765625)"/>
    </g>
   </g>
  </g>
 </g>
 <defs>
  <clipPath id="p29942628dd">
   <rect x="57.6" y="41.472" width="357.12" height="266.112"/>
  </clipPath>
 </defs>
</svg>
