<?xml version="1.0" encoding="utf-8" standalone="no"?>
<!DOCTYPE svg PUBLIC "-//W3C//DTD SVG 1.1//EN"
  "http://www.w3.org/Graphics/SVG/1.1/DTD/svg11.dtd">
<svg xmlns:xlink="http://www.w3.org/1999/xlink" width="460.8pt" height="345.6pt" viewBox="0 0 460.8 345.6" xmlns="http://www.w3.org/2000/svg" version="1.1">
 <metadata>
  <rdf:RDF xmlns:dc="http://purl.org/dc/elements/1.1/" xmlns:cc="http://creativecommons.org/ns#" xmlns:rdf="http://www.w3.org/1999/02/22-rdf-syntax-ns#">
   <cc:Work>
    <dc:type rdf:resource="http://purl.org/dc/dcmitype/StillImage"/>
    <dc:date>2024-03-10T15:58:45.926805</dc:date>
    <dc:format>image/svg+xml</dc:format>
    <dc:creator>
     <cc:Agent>
      <dc:title>Matplotlib v3.8.3, https://matplotlib.org/</dc:title>
     </cc:Agent>
    </dc:creator>
   </cc:Work>
  </rdf:RDF>
 </metadata>
 <defs>
  <style type="text/css">*{stroke-linejoin: round; stroke-linecap: butt}</style>
 </defs>
 <g id="figure_1">
  <g id="patch_1">
   <path d="M 0 345.6 
L 460.8 345.6 
L 460.8 0 
L 0 0 
z
" style="fill: #ffffff"/>
  </g>
  <g id="axes_1">
   <g id="patch_2">
    <path d="M 57.6 307.584 
L 414.72 307.584 
L 414.72 41.472 
L 57.6 41.472 
z
" style="fill: #ffffff"/>
   </g>
   <g id="matplotlib.axis_1">
    <g id="xtick_1">
     <g id="line2d_1">
      <defs>
       <path id="me01a01c1a4" d="M 0 0 
L 0 3.5 
" style="stroke: #000000; stroke-width: 0.8"/>
      </defs>
      <g>
       <use xlink:href="#me01a01c1a4" x="73.832727" y="307.584" style="stroke: #000000; stroke-width: 0.8"/>
      </g>
     </g>
     <g id="text_1">
      <!-- 0 -->
      <g transform="translate(70.651477 322.182437) scale(0.1 -0.1)">
       <defs>
        <path id="DejaVuSans-30" d="M 2034 4250 
Q 1547 4250 1301 3770 
Q 1056 3291 1056 2328 
Q 1056 1369 1301 889 
Q 1547 409 2034 409 
Q 2525 409 2770 889 
Q 3016 1369 3016 2328 
Q 3016 3291 2770 3770 
Q 2525 4250 2034 4250 
z
M 2034 4750 
Q 2819 4750 3233 4129 
Q 3647 3509 3647 2328 
Q 3647 1150 3233 529 
Q 2819 -91 2034 -91 
Q 1250 -91 836 529 
Q 422 1150 422 2328 
Q 422 3509 836 4129 
Q 1250 4750 2034 4750 
z
" transform="scale(0.015625)"/>
       </defs>
       <use xlink:href="#DejaVuSans-30"/>
      </g>
     </g>
    </g>
    <g id="xtick_2">
     <g id="line2d_2">
      <g>
       <use xlink:href="#me01a01c1a4" x="138.763636" y="307.584" style="stroke: #000000; stroke-width: 0.8"/>
      </g>
     </g>
     <g id="text_2">
      <!-- 200 -->
      <g transform="translate(129.219886 322.182437) scale(0.1 -0.1)">
       <defs>
        <path id="DejaVuSans-32" d="M 1228 531 
L 3431 531 
L 3431 0 
L 469 0 
L 469 531 
Q 828 903 1448 1529 
Q 2069 2156 2228 2338 
Q 2531 2678 2651 2914 
Q 2772 3150 2772 3378 
Q 2772 3750 2511 3984 
Q 2250 4219 1831 4219 
Q 1534 4219 1204 4116 
Q 875 4013 500 3803 
L 500 4441 
Q 881 4594 1212 4672 
Q 1544 4750 1819 4750 
Q 2544 4750 2975 4387 
Q 3406 4025 3406 3419 
Q 3406 3131 3298 2873 
Q 3191 2616 2906 2266 
Q 2828 2175 2409 1742 
Q 1991 1309 1228 531 
z
" transform="scale(0.015625)"/>
       </defs>
       <use xlink:href="#DejaVuSans-32"/>
       <use xlink:href="#DejaVuSans-30" x="63.623047"/>
       <use xlink:href="#DejaVuSans-30" x="127.246094"/>
      </g>
     </g>
    </g>
    <g id="xtick_3">
     <g id="line2d_3">
      <g>
       <use xlink:href="#me01a01c1a4" x="203.694545" y="307.584" style="stroke: #000000; stroke-width: 0.8"/>
      </g>
     </g>
     <g id="text_3">
      <!-- 400 -->
      <g transform="translate(194.150795 322.182437) scale(0.1 -0.1)">
       <defs>
        <path id="DejaVuSans-34" d="M 2419 4116 
L 825 1625 
L 2419 1625 
L 2419 4116 
z
M 2253 4666 
L 3047 4666 
L 3047 1625 
L 3713 1625 
L 3713 1100 
L 3047 1100 
L 3047 0 
L 2419 0 
L 2419 1100 
L 313 1100 
L 313 1709 
L 2253 4666 
z
" transform="scale(0.015625)"/>
       </defs>
       <use xlink:href="#DejaVuSans-34"/>
       <use xlink:href="#DejaVuSans-30" x="63.623047"/>
       <use xlink:href="#DejaVuSans-30" x="127.246094"/>
      </g>
     </g>
    </g>
    <g id="xtick_4">
     <g id="line2d_4">
      <g>
       <use xlink:href="#me01a01c1a4" x="268.625455" y="307.584" style="stroke: #000000; stroke-width: 0.8"/>
      </g>
     </g>
     <g id="text_4">
      <!-- 600 -->
      <g transform="translate(259.081705 322.182437) scale(0.1 -0.1)">
       <defs>
        <path id="DejaVuSans-36" d="M 2113 2584 
Q 1688 2584 1439 2293 
Q 1191 2003 1191 1497 
Q 1191 994 1439 701 
Q 1688 409 2113 409 
Q 2538 409 2786 701 
Q 3034 994 3034 1497 
Q 3034 2003 2786 2293 
Q 2538 2584 2113 2584 
z
M 3366 4563 
L 3366 3988 
Q 3128 4100 2886 4159 
Q 2644 4219 2406 4219 
Q 1781 4219 1451 3797 
Q 1122 3375 1075 2522 
Q 1259 2794 1537 2939 
Q 1816 3084 2150 3084 
Q 2853 3084 3261 2657 
Q 3669 2231 3669 1497 
Q 3669 778 3244 343 
Q 2819 -91 2113 -91 
Q 1303 -91 875 529 
Q 447 1150 447 2328 
Q 447 3434 972 4092 
Q 1497 4750 2381 4750 
Q 2619 4750 2861 4703 
Q 3103 4656 3366 4563 
z
" transform="scale(0.015625)"/>
       </defs>
       <use xlink:href="#DejaVuSans-36"/>
       <use xlink:href="#DejaVuSans-30" x="63.623047"/>
       <use xlink:href="#DejaVuSans-30" x="127.246094"/>
      </g>
     </g>
    </g>
    <g id="xtick_5">
     <g id="line2d_5">
      <g>
       <use xlink:href="#me01a01c1a4" x="333.556364" y="307.584" style="stroke: #000000; stroke-width: 0.8"/>
      </g>
     </g>
     <g id="text_5">
      <!-- 800 -->
      <g transform="translate(324.012614 322.182437) scale(0.1 -0.1)">
       <defs>
        <path id="DejaVuSans-38" d="M 2034 2216 
Q 1584 2216 1326 1975 
Q 1069 1734 1069 1313 
Q 1069 891 1326 650 
Q 1584 409 2034 409 
Q 2484 409 2743 651 
Q 3003 894 3003 1313 
Q 3003 1734 2745 1975 
Q 2488 2216 2034 2216 
z
M 1403 2484 
Q 997 2584 770 2862 
Q 544 3141 544 3541 
Q 544 4100 942 4425 
Q 1341 4750 2034 4750 
Q 2731 4750 3128 4425 
Q 3525 4100 3525 3541 
Q 3525 3141 3298 2862 
Q 3072 2584 2669 2484 
Q 3125 2378 3379 2068 
Q 3634 1759 3634 1313 
Q 3634 634 3220 271 
Q 2806 -91 2034 -91 
Q 1263 -91 848 271 
Q 434 634 434 1313 
Q 434 1759 690 2068 
Q 947 2378 1403 2484 
z
M 1172 3481 
Q 1172 3119 1398 2916 
Q 1625 2713 2034 2713 
Q 2441 2713 2670 2916 
Q 2900 3119 2900 3481 
Q 2900 3844 2670 4047 
Q 2441 4250 2034 4250 
Q 1625 4250 1398 4047 
Q 1172 3844 1172 3481 
z
" transform="scale(0.015625)"/>
       </defs>
       <use xlink:href="#DejaVuSans-38"/>
       <use xlink:href="#DejaVuSans-30" x="63.623047"/>
       <use xlink:href="#DejaVuSans-30" x="127.246094"/>
      </g>
     </g>
    </g>
    <g id="xtick_6">
     <g id="line2d_6">
      <g>
       <use xlink:href="#me01a01c1a4" x="398.487273" y="307.584" style="stroke: #000000; stroke-width: 0.8"/>
      </g>
     </g>
     <g id="text_6">
      <!-- 1000 -->
      <g transform="translate(385.762273 322.182437) scale(0.1 -0.1)">
       <defs>
        <path id="DejaVuSans-31" d="M 794 531 
L 1825 531 
L 1825 4091 
L 703 3866 
L 703 4441 
L 1819 4666 
L 2450 4666 
L 2450 531 
L 3481 531 
L 3481 0 
L 794 0 
L 794 531 
z
" transform="scale(0.015625)"/>
       </defs>
       <use xlink:href="#DejaVuSans-31"/>
       <use xlink:href="#DejaVuSans-30" x="63.623047"/>
       <use xlink:href="#DejaVuSans-30" x="127.246094"/>
       <use xlink:href="#DejaVuSans-30" x="190.869141"/>
      </g>
     </g>
    </g>
    <g id="text_7">
     <!-- MCS -->
     <g transform="translate(225.180312 335.860562) scale(0.1 -0.1)">
      <defs>
       <path id="DejaVuSans-4d" d="M 628 4666 
L 1569 4666 
L 2759 1491 
L 3956 4666 
L 4897 4666 
L 4897 0 
L 4281 0 
L 4281 4097 
L 3078 897 
L 2444 897 
L 1241 4097 
L 1241 0 
L 628 0 
L 628 4666 
z
" transform="scale(0.015625)"/>
       <path id="DejaVuSans-43" d="M 4122 4306 
L 4122 3641 
Q 3803 3938 3442 4084 
Q 3081 4231 2675 4231 
Q 1875 4231 1450 3742 
Q 1025 3253 1025 2328 
Q 1025 1406 1450 917 
Q 1875 428 2675 428 
Q 3081 428 3442 575 
Q 3803 722 4122 1019 
L 4122 359 
Q 3791 134 3420 21 
Q 3050 -91 2638 -91 
Q 1578 -91 968 557 
Q 359 1206 359 2328 
Q 359 3453 968 4101 
Q 1578 4750 2638 4750 
Q 3056 4750 3426 4639 
Q 3797 4528 4122 4306 
z
" transform="scale(0.015625)"/>
       <path id="DejaVuSans-53" d="M 3425 4513 
L 3425 3897 
Q 3066 4069 2747 4153 
Q 2428 4238 2131 4238 
Q 1616 4238 1336 4038 
Q 1056 3838 1056 3469 
Q 1056 3159 1242 3001 
Q 1428 2844 1947 2747 
L 2328 2669 
Q 3034 2534 3370 2195 
Q 3706 1856 3706 1288 
Q 3706 609 3251 259 
Q 2797 -91 1919 -91 
Q 1588 -91 1214 -16 
Q 841 59 441 206 
L 441 856 
Q 825 641 1194 531 
Q 1563 422 1919 422 
Q 2459 422 2753 634 
Q 3047 847 3047 1241 
Q 3047 1584 2836 1778 
Q 2625 1972 2144 2069 
L 1759 2144 
Q 1053 2284 737 2584 
Q 422 2884 422 3419 
Q 422 4038 858 4394 
Q 1294 4750 2059 4750 
Q 2388 4750 2728 4690 
Q 3069 4631 3425 4513 
z
" transform="scale(0.015625)"/>
      </defs>
      <use xlink:href="#DejaVuSans-4d"/>
      <use xlink:href="#DejaVuSans-43" x="86.279297"/>
      <use xlink:href="#DejaVuSans-53" x="156.103516"/>
     </g>
    </g>
   </g>
   <g id="matplotlib.axis_2">
    <g id="ytick_1">
     <g id="line2d_7">
      <defs>
       <path id="m3f690a2ba9" d="M 0 0 
L -3.5 0 
" style="stroke: #000000; stroke-width: 0.8"/>
      </defs>
      <g>
       <use xlink:href="#m3f690a2ba9" x="57.6" y="272.148565" style="stroke: #000000; stroke-width: 0.8"/>
      </g>
     </g>
     <g id="text_8">
      <!-- 0.4 -->
      <g transform="translate(34.696875 275.947783) scale(0.1 -0.1)">
       <defs>
        <path id="DejaVuSans-2e" d="M 684 794 
L 1344 794 
L 1344 0 
L 684 0 
L 684 794 
z
" transform="scale(0.015625)"/>
       </defs>
       <use xlink:href="#DejaVuSans-30"/>
       <use xlink:href="#DejaVuSans-2e" x="63.623047"/>
       <use xlink:href="#DejaVuSans-34" x="95.410156"/>
      </g>
     </g>
    </g>
    <g id="ytick_2">
     <g id="line2d_8">
      <g>
       <use xlink:href="#m3f690a2ba9" x="57.6" y="233.570985" style="stroke: #000000; stroke-width: 0.8"/>
      </g>
     </g>
     <g id="text_9">
      <!-- 0.5 -->
      <g transform="translate(34.696875 237.370204) scale(0.1 -0.1)">
       <defs>
        <path id="DejaVuSans-35" d="M 691 4666 
L 3169 4666 
L 3169 4134 
L 1269 4134 
L 1269 2991 
Q 1406 3038 1543 3061 
Q 1681 3084 1819 3084 
Q 2600 3084 3056 2656 
Q 3513 2228 3513 1497 
Q 3513 744 3044 326 
Q 2575 -91 1722 -91 
Q 1428 -91 1123 -41 
Q 819 9 494 109 
L 494 744 
Q 775 591 1075 516 
Q 1375 441 1709 441 
Q 2250 441 2565 725 
Q 2881 1009 2881 1497 
Q 2881 1984 2565 2268 
Q 2250 2553 1709 2553 
Q 1456 2553 1204 2497 
Q 953 2441 691 2322 
L 691 4666 
z
" transform="scale(0.015625)"/>
       </defs>
       <use xlink:href="#DejaVuSans-30"/>
       <use xlink:href="#DejaVuSans-2e" x="63.623047"/>
       <use xlink:href="#DejaVuSans-35" x="95.410156"/>
      </g>
     </g>
    </g>
    <g id="ytick_3">
     <g id="line2d_9">
      <g>
       <use xlink:href="#m3f690a2ba9" x="57.6" y="194.993406" style="stroke: #000000; stroke-width: 0.8"/>
      </g>
     </g>
     <g id="text_10">
      <!-- 0.6 -->
      <g transform="translate(34.696875 198.792625) scale(0.1 -0.1)">
       <use xlink:href="#DejaVuSans-30"/>
       <use xlink:href="#DejaVuSans-2e" x="63.623047"/>
       <use xlink:href="#DejaVuSans-36" x="95.410156"/>
      </g>
     </g>
    </g>
    <g id="ytick_4">
     <g id="line2d_10">
      <g>
       <use xlink:href="#m3f690a2ba9" x="57.6" y="156.415827" style="stroke: #000000; stroke-width: 0.8"/>
      </g>
     </g>
     <g id="text_11">
      <!-- 0.7 -->
      <g transform="translate(34.696875 160.215045) scale(0.1 -0.1)">
       <defs>
        <path id="DejaVuSans-37" d="M 525 4666 
L 3525 4666 
L 3525 4397 
L 1831 0 
L 1172 0 
L 2766 4134 
L 525 4134 
L 525 4666 
z
" transform="scale(0.015625)"/>
       </defs>
       <use xlink:href="#DejaVuSans-30"/>
       <use xlink:href="#DejaVuSans-2e" x="63.623047"/>
       <use xlink:href="#DejaVuSans-37" x="95.410156"/>
      </g>
     </g>
    </g>
    <g id="ytick_5">
     <g id="line2d_11">
      <g>
       <use xlink:href="#m3f690a2ba9" x="57.6" y="117.838247" style="stroke: #000000; stroke-width: 0.8"/>
      </g>
     </g>
     <g id="text_12">
      <!-- 0.8 -->
      <g transform="translate(34.696875 121.637466) scale(0.1 -0.1)">
       <use xlink:href="#DejaVuSans-30"/>
       <use xlink:href="#DejaVuSans-2e" x="63.623047"/>
       <use xlink:href="#DejaVuSans-38" x="95.410156"/>
      </g>
     </g>
    </g>
    <g id="ytick_6">
     <g id="line2d_12">
      <g>
       <use xlink:href="#m3f690a2ba9" x="57.6" y="79.260668" style="stroke: #000000; stroke-width: 0.8"/>
      </g>
     </g>
     <g id="text_13">
      <!-- 0.9 -->
      <g transform="translate(34.696875 83.059887) scale(0.1 -0.1)">
       <defs>
        <path id="DejaVuSans-39" d="M 703 97 
L 703 672 
Q 941 559 1184 500 
Q 1428 441 1663 441 
Q 2288 441 2617 861 
Q 2947 1281 2994 2138 
Q 2813 1869 2534 1725 
Q 2256 1581 1919 1581 
Q 1219 1581 811 2004 
Q 403 2428 403 3163 
Q 403 3881 828 4315 
Q 1253 4750 1959 4750 
Q 2769 4750 3195 4129 
Q 3622 3509 3622 2328 
Q 3622 1225 3098 567 
Q 2575 -91 1691 -91 
Q 1453 -91 1209 -44 
Q 966 3 703 97 
z
M 1959 2075 
Q 2384 2075 2632 2365 
Q 2881 2656 2881 3163 
Q 2881 3666 2632 3958 
Q 2384 4250 1959 4250 
Q 1534 4250 1286 3958 
Q 1038 3666 1038 3163 
Q 1038 2656 1286 2365 
Q 1534 2075 1959 2075 
z
" transform="scale(0.015625)"/>
       </defs>
       <use xlink:href="#DejaVuSans-30"/>
       <use xlink:href="#DejaVuSans-2e" x="63.623047"/>
       <use xlink:href="#DejaVuSans-39" x="95.410156"/>
      </g>
     </g>
    </g>
    <g id="text_14">
     <!-- Order Parameter,S -->
     <g transform="translate(28.617187 221.103) rotate(-90) scale(0.1 -0.1)">
      <defs>
       <path id="DejaVuSans-4f" d="M 2522 4238 
Q 1834 4238 1429 3725 
Q 1025 3213 1025 2328 
Q 1025 1447 1429 934 
Q 1834 422 2522 422 
Q 3209 422 3611 934 
Q 4013 1447 4013 2328 
Q 4013 3213 3611 3725 
Q 3209 4238 2522 4238 
z
M 2522 4750 
Q 3503 4750 4090 4092 
Q 4678 3434 4678 2328 
Q 4678 1225 4090 567 
Q 3503 -91 2522 -91 
Q 1538 -91 948 565 
Q 359 1222 359 2328 
Q 359 3434 948 4092 
Q 1538 4750 2522 4750 
z
" transform="scale(0.015625)"/>
       <path id="DejaVuSans-72" d="M 2631 2963 
Q 2534 3019 2420 3045 
Q 2306 3072 2169 3072 
Q 1681 3072 1420 2755 
Q 1159 2438 1159 1844 
L 1159 0 
L 581 0 
L 581 3500 
L 1159 3500 
L 1159 2956 
Q 1341 3275 1631 3429 
Q 1922 3584 2338 3584 
Q 2397 3584 2469 3576 
Q 2541 3569 2628 3553 
L 2631 2963 
z
" transform="scale(0.015625)"/>
       <path id="DejaVuSans-64" d="M 2906 2969 
L 2906 4863 
L 3481 4863 
L 3481 0 
L 2906 0 
L 2906 525 
Q 2725 213 2448 61 
Q 2172 -91 1784 -91 
Q 1150 -91 751 415 
Q 353 922 353 1747 
Q 353 2572 751 3078 
Q 1150 3584 1784 3584 
Q 2172 3584 2448 3432 
Q 2725 3281 2906 2969 
z
M 947 1747 
Q 947 1113 1208 752 
Q 1469 391 1925 391 
Q 2381 391 2643 752 
Q 2906 1113 2906 1747 
Q 2906 2381 2643 2742 
Q 2381 3103 1925 3103 
Q 1469 3103 1208 2742 
Q 947 2381 947 1747 
z
" transform="scale(0.015625)"/>
       <path id="DejaVuSans-65" d="M 3597 1894 
L 3597 1613 
L 953 1613 
Q 991 1019 1311 708 
Q 1631 397 2203 397 
Q 2534 397 2845 478 
Q 3156 559 3463 722 
L 3463 178 
Q 3153 47 2828 -22 
Q 2503 -91 2169 -91 
Q 1331 -91 842 396 
Q 353 884 353 1716 
Q 353 2575 817 3079 
Q 1281 3584 2069 3584 
Q 2775 3584 3186 3129 
Q 3597 2675 3597 1894 
z
M 3022 2063 
Q 3016 2534 2758 2815 
Q 2500 3097 2075 3097 
Q 1594 3097 1305 2825 
Q 1016 2553 972 2059 
L 3022 2063 
z
" transform="scale(0.015625)"/>
       <path id="DejaVuSans-20" transform="scale(0.015625)"/>
       <path id="DejaVuSans-50" d="M 1259 4147 
L 1259 2394 
L 2053 2394 
Q 2494 2394 2734 2622 
Q 2975 2850 2975 3272 
Q 2975 3691 2734 3919 
Q 2494 4147 2053 4147 
L 1259 4147 
z
M 628 4666 
L 2053 4666 
Q 2838 4666 3239 4311 
Q 3641 3956 3641 3272 
Q 3641 2581 3239 2228 
Q 2838 1875 2053 1875 
L 1259 1875 
L 1259 0 
L 628 0 
L 628 4666 
z
" transform="scale(0.015625)"/>
       <path id="DejaVuSans-61" d="M 2194 1759 
Q 1497 1759 1228 1600 
Q 959 1441 959 1056 
Q 959 750 1161 570 
Q 1363 391 1709 391 
Q 2188 391 2477 730 
Q 2766 1069 2766 1631 
L 2766 1759 
L 2194 1759 
z
M 3341 1997 
L 3341 0 
L 2766 0 
L 2766 531 
Q 2569 213 2275 61 
Q 1981 -91 1556 -91 
Q 1019 -91 701 211 
Q 384 513 384 1019 
Q 384 1609 779 1909 
Q 1175 2209 1959 2209 
L 2766 2209 
L 2766 2266 
Q 2766 2663 2505 2880 
Q 2244 3097 1772 3097 
Q 1472 3097 1187 3025 
Q 903 2953 641 2809 
L 641 3341 
Q 956 3463 1253 3523 
Q 1550 3584 1831 3584 
Q 2591 3584 2966 3190 
Q 3341 2797 3341 1997 
z
" transform="scale(0.015625)"/>
       <path id="DejaVuSans-6d" d="M 3328 2828 
Q 3544 3216 3844 3400 
Q 4144 3584 4550 3584 
Q 5097 3584 5394 3201 
Q 5691 2819 5691 2113 
L 5691 0 
L 5113 0 
L 5113 2094 
Q 5113 2597 4934 2840 
Q 4756 3084 4391 3084 
Q 3944 3084 3684 2787 
Q 3425 2491 3425 1978 
L 3425 0 
L 2847 0 
L 2847 2094 
Q 2847 2600 2669 2842 
Q 2491 3084 2119 3084 
Q 1678 3084 1418 2786 
Q 1159 2488 1159 1978 
L 1159 0 
L 581 0 
L 581 3500 
L 1159 3500 
L 1159 2956 
Q 1356 3278 1631 3431 
Q 1906 3584 2284 3584 
Q 2666 3584 2933 3390 
Q 3200 3197 3328 2828 
z
" transform="scale(0.015625)"/>
       <path id="DejaVuSans-74" d="M 1172 4494 
L 1172 3500 
L 2356 3500 
L 2356 3053 
L 1172 3053 
L 1172 1153 
Q 1172 725 1289 603 
Q 1406 481 1766 481 
L 2356 481 
L 2356 0 
L 1766 0 
Q 1100 0 847 248 
Q 594 497 594 1153 
L 594 3053 
L 172 3053 
L 172 3500 
L 594 3500 
L 594 4494 
L 1172 4494 
z
" transform="scale(0.015625)"/>
       <path id="DejaVuSans-2c" d="M 750 794 
L 1409 794 
L 1409 256 
L 897 -744 
L 494 -744 
L 750 256 
L 750 794 
z
" transform="scale(0.015625)"/>
      </defs>
      <use xlink:href="#DejaVuSans-4f"/>
      <use xlink:href="#DejaVuSans-72" x="78.710938"/>
      <use xlink:href="#DejaVuSans-64" x="118.074219"/>
      <use xlink:href="#DejaVuSans-65" x="181.550781"/>
      <use xlink:href="#DejaVuSans-72" x="243.074219"/>
      <use xlink:href="#DejaVuSans-20" x="284.1875"/>
      <use xlink:href="#DejaVuSans-50" x="315.974609"/>
      <use xlink:href="#DejaVuSans-61" x="371.777344"/>
      <use xlink:href="#DejaVuSans-72" x="433.056641"/>
      <use xlink:href="#DejaVuSans-61" x="474.169922"/>
      <use xlink:href="#DejaVuSans-6d" x="535.449219"/>
      <use xlink:href="#DejaVuSans-65" x="632.861328"/>
      <use xlink:href="#DejaVuSans-74" x="694.384766"/>
      <use xlink:href="#DejaVuSans-65" x="733.59375"/>
      <use xlink:href="#DejaVuSans-72" x="795.117188"/>
      <use xlink:href="#DejaVuSans-2c" x="836.230469"/>
      <use xlink:href="#DejaVuSans-53" x="868.017578"/>
     </g>
    </g>
   </g>
   <g id="line2d_13">
    <path d="M 73.832727 269.255246 
L 74.157382 295.488 
L 74.482036 252.165378 
L 74.806691 180.719701 
L 75.131345 193.643191 
L 75.456 193.951811 
L 75.780655 154.44837 
L 76.105309 175.434573 
L 76.429964 164.555696 
L 76.754618 167.487592 
L 77.079273 184.230261 
L 77.403927 173.968625 
L 78.053236 202.863232 
L 79.0272 132.497727 
L 79.351855 140.714752 
L 80.001164 105.99493 
L 80.325818 108.541051 
L 80.650473 81.498167 
L 80.975127 75.132867 
L 81.299782 84.00571 
L 81.624436 80.070797 
L 81.949091 84.815839 
L 82.273745 84.777262 
L 82.923055 75.094289 
L 83.247709 104.683293 
L 83.897018 72.741057 
L 84.221673 75.2486 
L 84.546327 75.325755 
L 84.870982 80.919504 
L 85.195636 98.858078 
L 85.520291 98.51088 
L 85.844945 91.528338 
L 86.1696 80.996659 
L 86.818909 86.320365 
L 87.143564 98.433725 
L 87.468218 81.845366 
L 87.792873 81.382435 
L 88.442182 103.680276 
L 88.766836 91.875536 
L 89.091491 68.883299 
L 89.416145 68.536101 
L 89.7408 68.767566 
L 90.065455 62.595154 
L 90.390109 68.497523 
L 90.714764 62.440843 
L 91.039418 62.402266 
L 91.364073 61.669292 
L 91.688727 67.031575 
L 92.013382 68.497523 
L 92.662691 62.903774 
L 92.987345 80.147952 
L 93.312 77.408944 
L 94.285964 65.334162 
L 94.610618 79.183513 
L 94.935273 83.388469 
L 95.259927 101.751397 
L 95.584582 132.034796 
L 95.909236 132.266262 
L 96.558545 99.93825 
L 96.8832 106.95937 
L 97.207855 106.457861 
L 97.532509 92.107002 
L 97.857164 101.635664 
L 98.181818 90.332433 
L 98.506473 85.548813 
L 98.831127 89.252261 
L 99.155782 85.471658 
L 99.480436 77.64041 
L 99.805091 79.685021 
L 100.129745 72.586747 
L 100.4544 71.853773 
L 100.779055 65.951403 
L 101.103709 71.159376 
L 101.428364 81.883943 
L 101.753018 78.952047 
L 102.077673 90.023812 
L 102.402327 87.284804 
L 102.726982 86.55183 
L 103.051636 83.195581 
L 103.376291 83.272736 
L 104.0256 89.715192 
L 104.350255 89.290838 
L 104.674909 84.275753 
L 104.999564 98.66519 
L 105.648873 107.26799 
L 105.973527 116.102256 
L 106.298182 128.254194 
L 106.622836 122.969065 
L 106.947491 101.828552 
L 107.272145 95.154631 
L 107.5968 112.900317 
L 107.921455 101.365621 
L 108.246109 105.570577 
L 108.570764 81.112392 
L 108.895418 78.141918 
L 109.220073 68.883299 
L 109.544727 69.114764 
L 109.869382 81.6139 
L 110.194036 75.634375 
L 110.518691 83.427046 
L 110.843345 76.598815 
L 111.168 75.904418 
L 111.492655 69.114764 
L 111.817309 68.266058 
L 112.141964 74.862824 
L 112.466618 73.705496 
L 112.791273 73.088255 
L 113.115927 81.999676 
L 113.440582 81.343857 
L 113.765236 85.471658 
L 114.089891 96.929199 
L 114.7392 139.711735 
L 115.388509 95.96476 
L 115.713164 101.751397 
L 116.037818 134.233718 
L 116.362473 115.214972 
L 116.687127 145.691259 
L 117.011782 145.228328 
L 117.336436 143.839536 
L 117.661091 177.131987 
L 117.985745 134.04083 
L 118.3104 134.773804 
L 118.635055 118.841264 
L 119.284364 124.743634 
L 119.933673 92.60851 
L 120.258327 91.875536 
L 120.582982 74.168427 
L 120.907636 85.317348 
L 121.556945 95.386096 
L 122.206255 115.137817 
L 122.530909 108.541051 
L 122.855564 104.644715 
L 123.180218 103.564543 
L 123.504873 92.29989 
L 123.829527 99.321009 
L 124.154182 91.258295 
L 124.478836 77.293211 
L 124.803491 84.507219 
L 125.128145 80.996659 
L 125.777455 100.632647 
L 126.102109 94.498812 
L 126.426764 96.697734 
L 126.751418 92.724243 
L 127.076073 99.822518 
L 127.400727 99.128121 
L 127.725382 90.525321 
L 128.050036 93.72726 
L 128.699345 131.031779 
L 129.348655 104.066051 
L 129.673309 104.027474 
L 129.997964 72.393859 
L 130.322618 66.645799 
L 130.647273 68.574678 
L 130.971927 74.399893 
L 131.296582 76.020151 
L 131.945891 123.85635 
L 132.270545 115.40786 
L 132.919855 141.794924 
L 133.244509 121.46454 
L 133.569164 113.208938 
L 134.218473 120.847298 
L 134.543127 111.588679 
L 135.192436 85.047305 
L 135.517091 75.171444 
L 135.841745 75.55722 
L 136.1664 75.364332 
L 136.491055 81.845366 
L 136.815709 80.842349 
L 137.140364 72.316704 
L 137.465018 77.524677 
L 137.789673 76.868858 
L 138.438982 90.100968 
L 138.763636 80.379418 
L 139.088291 74.785669 
L 139.412945 58.737396 
L 139.7376 64.138257 
L 140.062255 66.144291 
L 140.386909 76.753125 
L 140.711564 73.821229 
L 141.360873 78.682004 
L 142.334836 107.345146 
L 142.659491 92.801398 
L 142.984145 98.896656 
L 143.3088 86.436098 
L 143.958109 114.790618 
L 144.282764 103.024457 
L 144.607418 104.760448 
L 144.932073 102.638681 
L 145.256727 84.121443 
L 145.581382 78.990625 
L 145.906036 91.798381 
L 146.555345 69.384808 
L 146.88 71.89235 
L 147.204655 65.874248 
L 147.529309 65.719937 
L 147.853964 64.331145 
L 148.178618 69.153342 
L 148.503273 75.981574 
L 148.827927 78.334806 
L 149.152582 55.381146 
L 149.801891 66.260024 
L 150.126545 62.325111 
L 150.4512 80.225107 
L 150.775855 74.245583 
L 151.100509 80.880926 
L 151.425164 84.507219 
L 151.749818 76.791703 
L 152.074473 93.032864 
L 152.399127 78.489116 
L 153.048436 91.258295 
L 153.373091 103.2945 
L 153.697745 84.16002 
L 154.0224 78.450539 
L 154.347055 78.219073 
L 155.321018 115.71648 
L 155.645673 103.255922 
L 155.970327 120.114324 
L 156.294982 117.568204 
L 157.268945 83.195581 
L 157.5936 92.145579 
L 157.918255 70.966488 
L 158.242909 71.622307 
L 158.567564 73.936962 
L 158.892218 86.976184 
L 159.216873 72.278126 
L 159.541527 96.890622 
L 159.866182 94.498812 
L 160.190836 96.157648 
L 160.515491 85.510236 
L 160.840145 67.571661 
L 161.1648 75.865841 
L 161.489455 87.323382 
L 161.814109 86.320365 
L 162.138764 75.827263 
L 162.463418 77.94903 
L 163.112727 113.440403 
L 163.437382 100.439759 
L 163.762036 103.680276 
L 164.411345 69.307652 
L 165.060655 76.290194 
L 165.385309 77.64041 
L 165.709964 81.266702 
L 166.034618 79.723599 
L 166.359273 93.071441 
L 166.683927 78.604849 
L 167.008582 78.450539 
L 167.333236 68.728989 
L 167.657891 91.644071 
L 168.3072 96.890622 
L 168.631855 95.463251 
L 168.956509 105.223379 
L 169.281164 107.075103 
L 169.605818 97.932216 
L 169.930473 92.261312 
L 170.255127 112.013033 
L 170.579782 103.680276 
L 170.904436 100.864112 
L 171.553745 85.896011 
L 171.8784 84.00571 
L 172.203055 91.258295 
L 172.527709 81.498167 
L 172.852364 84.661529 
L 173.177018 76.367349 
L 173.501673 75.750108 
L 173.826327 93.418639 
L 174.150982 91.875536 
L 174.475636 94.614544 
L 174.800291 89.483726 
L 175.124945 64.678343 
L 175.4496 58.853128 
L 176.098909 78.411961 
L 176.423564 70.966488 
L 176.748218 67.803127 
L 177.072873 66.491489 
L 177.397527 81.76821 
L 177.722182 89.638037 
L 178.046836 80.18653 
L 178.371491 75.904418 
L 178.696145 76.984591 
L 179.0208 63.829636 
L 179.345455 76.328772 
L 179.670109 79.106358 
L 179.994764 73.628341 
L 180.319418 74.245583 
L 180.644073 77.987608 
L 180.968727 94.653122 
L 181.293382 90.833942 
L 181.618036 94.305924 
L 181.942691 100.864112 
L 182.267345 94.653122 
L 182.592 75.325755 
L 182.916655 74.747091 
L 183.241309 86.088899 
L 183.565964 101.905707 
L 183.890618 103.217345 
L 184.215273 98.202259 
L 184.539927 104.644715 
L 184.864582 105.377689 
L 185.189236 98.51088 
L 185.513891 94.537389 
L 186.1632 106.110663 
L 186.487855 101.404198 
L 186.812509 115.793635 
L 187.137164 96.11907 
L 187.461818 114.790618 
L 187.786473 112.167343 
L 188.111127 102.561526 
L 188.435782 87.902046 
L 188.760436 99.128121 
L 189.085091 80.996659 
L 189.409745 87.51627 
L 189.7344 84.777262 
L 190.383709 109.582645 
L 190.708364 101.674241 
L 191.033018 100.709802 
L 191.357673 89.792347 
L 191.682327 119.265618 
L 192.006982 105.724887 
L 192.331636 109.6598 
L 192.656291 106.843637 
L 192.980945 92.492778 
L 193.3056 94.6917 
L 193.630255 77.79472 
L 193.954909 75.210022 
L 194.279564 74.515626 
L 194.604218 76.753125 
L 194.928873 68.497523 
L 195.253527 66.838687 
L 195.902836 72.625324 
L 196.227491 84.352908 
L 196.552145 74.052695 
L 196.8768 73.319721 
L 197.201455 70.040626 
L 197.526109 75.171444 
L 197.850764 74.978557 
L 198.175418 78.874892 
L 198.824727 72.239548 
L 199.474036 62.633731 
L 199.798691 67.764549 
L 200.123345 62.865197 
L 200.448 62.363688 
L 200.772655 58.853128 
L 201.097309 66.028558 
L 201.746618 67.533084 
L 202.071273 69.886316 
L 202.395927 76.444505 
L 203.045236 135.352468 
L 203.694545 103.834586 
L 204.0192 108.926826 
L 204.343855 116.603765 
L 205.642473 78.527694 
L 206.291782 73.666919 
L 206.616436 82.308297 
L 207.265745 69.924894 
L 207.5904 72.432436 
L 207.915055 89.90808 
L 208.239709 87.246227 
L 208.564364 87.169072 
L 208.889018 91.644071 
L 209.213673 91.48976 
L 209.538327 94.421657 
L 209.862982 105.531999 
L 210.187636 98.009371 
L 210.512291 106.882215 
L 211.1616 98.395147 
L 211.486255 100.516914 
L 212.135564 79.106358 
L 212.460218 78.334806 
L 212.784873 84.314331 
L 213.109527 99.668207 
L 213.758836 90.023812 
L 214.083491 85.973167 
L 214.408145 75.518643 
L 214.7328 78.682004 
L 215.057455 86.281787 
L 215.382109 101.404198 
L 215.706764 104.143207 
L 216.031418 102.098595 
L 216.356073 90.525321 
L 216.680727 100.246871 
L 217.005382 100.324026 
L 217.330036 95.424674 
L 217.979345 113.247515 
L 218.304 137.204192 
L 218.628655 119.767126 
L 218.953309 111.74299 
L 219.277964 131.456133 
L 219.927273 112.244498 
L 220.251927 105.261956 
L 220.576582 108.541051 
L 220.901236 105.609155 
L 221.225891 98.51088 
L 221.550545 102.870146 
L 221.8752 76.367349 
L 222.199855 76.598815 
L 222.524509 85.664546 
L 222.849164 72.239548 
L 223.173818 75.942996 
L 223.498473 74.515626 
L 223.823127 62.633731 
L 224.147782 75.287177 
L 224.472436 78.141918 
L 224.797091 83.272736 
L 225.4464 78.759159 
L 225.771055 67.147308 
L 226.095709 61.630714 
L 226.420364 69.230497 
L 227.069673 63.212395 
L 227.394327 53.568 
L 227.718982 58.891706 
L 228.368291 85.355925 
L 228.692945 103.140189 
L 229.0176 102.638681 
L 229.342255 87.169072 
L 229.666909 88.596442 
L 229.991564 81.266702 
L 230.316218 64.832653 
L 230.965527 77.601832 
L 231.614836 68.150325 
L 231.939491 76.791703 
L 232.264145 75.711531 
L 232.5888 80.919504 
L 232.913455 77.601832 
L 233.238109 70.040626 
L 233.562764 71.159376 
L 233.887418 73.898384 
L 234.212073 75.595798 
L 234.536727 87.284804 
L 234.861382 82.771228 
L 235.186036 83.388469 
L 235.510691 87.709158 
L 235.835345 88.94364 
L 236.16 90.911097 
L 236.484655 75.904418 
L 236.809309 80.649461 
L 237.133964 83.234159 
L 237.458618 82.616917 
L 237.783273 88.596442 
L 238.107927 88.750752 
L 238.432582 79.337823 
L 238.757236 81.575323 
L 239.081891 98.51088 
L 239.406545 103.641698 
L 239.7312 101.558509 
L 240.055855 83.542779 
L 240.705164 95.116053 
L 241.354473 80.379418 
L 241.679127 62.942352 
L 242.328436 72.702479 
L 242.653091 85.27877 
L 242.977745 81.035236 
L 243.3024 96.774889 
L 243.627055 120.075747 
L 243.951709 120.963031 
L 244.276364 128.562814 
L 244.601018 106.496439 
L 244.925673 105.107646 
L 245.250327 88.673597 
L 245.574982 86.55183 
L 246.224291 79.607866 
L 246.548945 87.246227 
L 246.8736 84.545796 
L 247.198255 101.905707 
L 247.847564 65.488472 
L 248.172218 75.518643 
L 248.496873 79.06778 
L 248.821527 78.952047 
L 249.146182 76.984591 
L 249.795491 69.384808 
L 250.120145 68.690411 
L 250.4448 73.474031 
L 250.769455 68.07317 
L 251.094109 83.079848 
L 251.418764 82.346874 
L 251.743418 79.06778 
L 252.068073 80.572306 
L 252.392727 94.84601 
L 252.717382 93.688683 
L 253.042036 79.993642 
L 253.366691 76.83028 
L 253.691345 82.308297 
L 254.016 96.466268 
L 254.340655 95.849027 
L 254.665309 84.121443 
L 254.989964 79.685021 
L 255.963927 99.243854 
L 256.288582 99.976828 
L 256.613236 89.753769 
L 256.937891 69.114764 
L 257.262545 63.212395 
L 258.236509 71.159376 
L 258.561164 82.88696 
L 259.210473 130.06734 
L 259.535127 117.452471 
L 259.859782 114.674886 
L 260.184436 115.369282 
L 260.509091 134.272296 
L 260.833745 116.449454 
L 261.1584 111.318636 
L 261.483055 108.000964 
L 262.132364 113.671869 
L 262.457018 119.535661 
L 262.781673 105.184801 
L 263.106327 76.67597 
L 263.430982 76.791703 
L 263.755636 78.064763 
L 264.080291 69.577695 
L 264.404945 72.972522 
L 264.7296 68.690411 
L 265.054255 71.352264 
L 265.703564 78.91347 
L 266.028218 73.782652 
L 266.352873 83.195581 
L 266.677527 79.993642 
L 267.326836 78.411961 
L 267.651491 76.444505 
L 267.976145 83.157003 
L 268.3008 85.394503 
L 268.625455 77.100323 
L 269.274764 78.682004 
L 269.924073 114.713463 
L 270.248727 108.695361 
L 270.573382 122.197514 
L 271.872 76.405927 
L 272.196655 90.872519 
L 272.521309 88.63502 
L 272.845964 85.548813 
L 273.170618 88.63502 
L 273.495273 93.804415 
L 273.819927 89.946657 
L 274.144582 84.584374 
L 274.469236 93.842993 
L 274.793891 76.637392 
L 275.118545 88.326399 
L 275.4432 86.55183 
L 275.767855 73.551186 
L 276.092509 72.779635 
L 276.417164 71.236531 
L 276.741818 76.174461 
L 277.066473 85.780279 
L 277.391127 101.249888 
L 277.715782 92.60851 
L 278.040436 91.219717 
L 278.365091 87.747735 
L 278.689745 87.439115 
L 279.0144 94.923165 
L 279.339055 90.100968 
L 279.663709 98.279414 
L 279.988364 110.084154 
L 280.313018 98.163682 
L 280.637673 112.360231 
L 281.286982 96.697734 
L 281.936291 84.198598 
L 282.5856 75.2486 
L 282.910255 79.492133 
L 283.234909 77.216056 
L 283.559564 87.169072 
L 283.884218 76.058729 
L 284.858182 67.841704 
L 285.182836 84.584374 
L 285.507491 89.213683 
L 285.832145 115.485015 
L 286.481455 91.258295 
L 287.130764 75.017134 
L 287.455418 94.6917 
L 287.780073 91.065407 
L 288.104727 101.867129 
L 288.429382 122.776177 
L 288.754036 106.187818 
L 289.078691 109.428335 
L 289.403345 110.701395 
L 289.728 118.609799 
L 290.052655 104.837603 
L 290.377309 97.855061 
L 290.701964 100.092561 
L 291.026618 88.287821 
L 291.351273 90.833942 
L 291.675927 86.706141 
L 292.000582 79.723599 
L 292.325236 79.299245 
L 292.649891 75.788686 
L 292.974545 65.064119 
L 293.2992 67.147308 
L 293.948509 88.326399 
L 294.273164 80.880926 
L 294.597818 66.722955 
L 294.922473 74.245583 
L 295.247127 71.853773 
L 295.571782 72.818212 
L 296.221091 72.548169 
L 296.545745 67.764549 
L 296.8704 69.809161 
L 297.195055 68.188903 
L 298.169018 74.862824 
L 298.493673 68.536101 
L 299.142982 85.703124 
L 299.467636 74.554203 
L 299.792291 91.258295 
L 300.116945 101.288466 
L 300.4416 89.445149 
L 300.766255 94.460234 
L 301.090909 110.431352 
L 301.415564 108.695361 
L 301.740218 121.271652 
L 302.064873 108.579628 
L 302.714182 120.692988 
L 303.038836 168.066255 
L 303.363491 162.974015 
L 303.688145 140.136088 
L 304.0128 138.438675 
L 304.337455 114.906351 
L 304.662109 108.965404 
L 304.986764 93.457217 
L 305.311418 85.201615 
L 305.636073 93.57295 
L 305.960727 125.669496 
L 306.285382 125.052255 
L 306.610036 137.937166 
L 306.934691 156.955913 
L 307.584 102.792991 
L 307.908655 106.226396 
L 308.233309 108.38674 
L 308.557964 111.74299 
L 308.882618 102.870146 
L 309.207273 115.909368 
L 309.531927 114.1348 
L 309.856582 93.302907 
L 310.830545 109.235447 
L 311.1552 88.596442 
L 311.479855 102.368638 
L 311.804509 100.632647 
L 312.129164 96.234803 
L 312.453818 85.240193 
L 312.778473 88.480709 
L 313.103127 90.486743 
L 313.427782 120.731566 
L 313.752436 115.176394 
L 314.077091 103.796008 
L 314.401745 97.276397 
L 314.7264 97.083509 
L 315.051055 99.62963 
L 315.375709 104.220362 
L 315.700364 99.976828 
L 316.025018 98.66519 
L 316.349673 102.098595 
L 316.674327 100.053983 
L 316.998982 102.600103 
L 317.323636 102.137172 
L 317.648291 96.003337 
L 317.972945 96.234803 
L 318.2976 100.324026 
L 318.622255 92.415622 
L 319.271564 96.890622 
L 319.596218 87.709158 
L 319.920873 92.762821 
L 320.245527 86.088899 
L 320.570182 82.501185 
L 320.894836 85.394503 
L 321.219491 82.73265 
L 321.544145 86.050322 
L 321.8688 83.118426 
L 322.193455 77.100323 
L 322.518109 96.041915 
L 323.167418 107.962387 
L 323.492073 99.475319 
L 323.816727 100.786957 
L 324.141382 123.123376 
L 324.466036 129.951607 
L 324.790691 114.481998 
L 325.115345 117.915402 
L 325.44 112.977472 
L 325.764655 100.053983 
L 326.089309 109.119714 
L 326.413964 122.776177 
L 326.738618 125.206565 
L 327.063273 119.304195 
L 327.387927 145.768415 
L 328.037236 111.74299 
L 328.361891 87.554847 
L 328.686545 113.363248 
L 329.0112 83.388469 
L 329.335855 78.797737 
L 329.660509 78.952047 
L 329.985164 78.682004 
L 330.309818 80.688038 
L 330.959127 86.088899 
L 331.283782 86.937606 
L 331.608436 81.498167 
L 331.933091 83.581357 
L 332.257745 88.249244 
L 332.5824 81.76821 
L 332.907055 88.866485 
L 333.231709 87.747735 
L 333.556364 87.67058 
L 333.881018 112.128765 
L 334.205673 106.072085 
L 334.530327 91.721226 
L 334.854982 93.534372 
L 335.179636 88.287821 
L 335.504291 78.450539 
L 335.828945 80.572306 
L 336.1536 94.267346 
L 336.478255 84.931572 
L 336.802909 92.415622 
L 337.127564 87.863468 
L 337.776873 72.779635 
L 338.101527 76.946013 
L 338.426182 66.761532 
L 338.750836 72.85679 
L 339.075491 91.875536 
L 339.400145 75.711531 
L 339.7248 81.691055 
L 340.049455 91.219717 
L 340.374109 80.302262 
L 340.698764 65.334162 
L 341.023418 70.426402 
L 341.348073 72.741057 
L 341.672727 84.275753 
L 341.997382 74.052695 
L 342.322036 73.281143 
L 342.646691 73.0111 
L 342.971345 82.964115 
L 343.296 86.667563 
L 343.620655 82.308297 
L 343.945309 70.310669 
L 344.594618 71.622307 
L 344.919273 83.774245 
L 345.243927 74.322738 
L 345.568582 95.038898 
L 345.893236 92.917131 
L 346.217891 124.782211 
L 346.8672 99.513897 
L 347.191855 68.960454 
L 347.516509 71.58373 
L 347.841164 77.447522 
L 348.165818 80.572306 
L 348.490473 74.631358 
L 348.815127 74.747091 
L 349.139782 71.815195 
L 349.464436 77.216056 
L 349.789091 73.705496 
L 350.113745 80.649461 
L 350.4384 92.222734 
L 350.763055 83.774245 
L 351.087709 93.148596 
L 351.412364 88.172089 
L 351.737018 88.017778 
L 352.061673 74.43847 
L 352.386327 75.981574 
L 352.710982 75.364332 
L 353.035636 77.833297 
L 353.360291 72.316704 
L 354.0096 92.839976 
L 354.658909 73.049678 
L 354.983564 67.455929 
L 355.632873 76.174461 
L 355.957527 65.218429 
L 356.282182 60.319076 
L 356.606836 70.079204 
L 356.931491 75.055712 
L 357.256145 82.269719 
L 357.5808 83.581357 
L 357.905455 76.020151 
L 358.230109 78.450539 
L 358.554764 68.883299 
L 358.879418 72.933945 
L 359.204073 80.726616 
L 359.528727 73.666919 
L 359.853382 73.435453 
L 360.178036 81.845366 
L 360.502691 94.807432 
L 360.827345 100.941267 
L 361.152 93.920148 
L 361.476655 78.566271 
L 361.801309 79.183513 
L 362.125964 72.200971 
L 362.450618 75.480065 
L 362.775273 75.132867 
L 363.099927 81.112392 
L 363.424582 81.45959 
L 363.749236 102.137172 
L 364.073891 91.759804 
L 364.398545 96.890622 
L 364.7232 115.870791 
L 365.047855 125.900961 
L 365.372509 113.710446 
L 365.697164 93.534372 
L 366.021818 84.661529 
L 366.346473 82.539762 
L 366.671127 78.026185 
L 366.995782 96.427691 
L 367.320436 122.236091 
L 367.645091 108.425318 
L 367.969745 127.328332 
L 368.2944 125.978116 
L 368.619055 148.700311 
L 368.943709 152.365181 
L 369.268364 184.577459 
L 369.593018 183.497287 
L 370.242327 121.425962 
L 370.566982 126.71109 
L 370.891636 113.247515 
L 371.216291 107.692344 
L 371.540945 108.07812 
L 372.190255 74.631358 
L 372.514909 73.203988 
L 372.839564 73.666919 
L 373.164218 77.987608 
L 373.488873 84.314331 
L 373.813527 112.090188 
L 374.138182 118.956997 
L 374.462836 110.971438 
L 374.787491 114.559153 
L 375.112145 159.926386 
L 375.4368 147.967337 
L 375.761455 169.917979 
L 376.086109 158.769059 
L 376.410764 152.095138 
L 376.735418 132.536305 
L 377.060073 144.495354 
L 377.384727 145.729837 
L 377.709382 105.99493 
L 378.034036 98.819501 
L 378.358691 83.272736 
L 378.683345 75.171444 
L 379.332655 88.866485 
L 379.657309 76.405927 
L 379.981964 77.254634 
L 380.306618 87.709158 
L 380.631273 84.00571 
L 380.955927 96.389113 
L 381.280582 81.652478 
L 381.605236 91.296873 
L 381.929891 82.308297 
L 382.254545 86.706141 
L 382.5792 72.355281 
L 382.903855 68.22748 
L 383.877818 72.586747 
L 384.202473 70.696445 
L 384.527127 70.542135 
L 384.851782 68.806144 
L 385.176436 58.968861 
L 385.501091 73.898384 
L 385.825745 62.595154 
L 386.1504 70.542135 
L 386.475055 85.780279 
L 386.799709 72.972522 
L 387.124364 74.399893 
L 387.449018 80.109375 
L 387.773673 71.815195 
L 388.098327 77.100323 
L 388.422982 63.983946 
L 388.747636 68.22748 
L 389.072291 85.163037 
L 389.396945 90.332433 
L 389.7216 86.436098 
L 390.046255 72.663902 
L 390.370909 72.895367 
L 390.695564 70.580712 
L 391.020218 76.868858 
L 391.344873 78.026185 
L 391.669527 80.842349 
L 391.994182 72.818212 
L 392.318836 72.779635 
L 392.643491 75.325755 
L 392.968145 75.287177 
L 393.2928 86.24321 
L 393.617455 81.382435 
L 393.942109 79.685021 
L 394.266764 77.023168 
L 394.591418 80.958081 
L 394.916073 72.586747 
L 395.240727 76.367349 
L 395.565382 82.269719 
L 395.890036 75.441487 
L 396.214691 72.046661 
L 396.539345 71.352264 
L 397.188655 56.11412 
L 397.513309 53.606578 
L 397.837964 59.933301 
L 398.162618 62.710886 
L 398.487273 80.456573 
L 398.487273 80.456573 
" clip-path="url(#p24943f6ab3)" style="fill: none; stroke: #1f77b4; stroke-width: 1.5; stroke-linecap: square"/>
   </g>
   <g id="patch_3">
    <path d="M 57.6 307.584 
L 57.6 41.472 
" style="fill: none; stroke: #000000; stroke-width: 0.8; stroke-linejoin: miter; stroke-linecap: square"/>
   </g>
   <g id="patch_4">
    <path d="M 414.72 307.584 
L 414.72 41.472 
" style="fill: none; stroke: #000000; stroke-width: 0.8; stroke-linejoin: miter; stroke-linecap: square"/>
   </g>
   <g id="patch_5">
    <path d="M 57.6 307.584 
L 414.72 307.584 
" style="fill: none; stroke: #000000; stroke-width: 0.8; stroke-linejoin: miter; stroke-linecap: square"/>
   </g>
   <g id="patch_6">
    <path d="M 57.6 41.472 
L 414.72 41.472 
" style="fill: none; stroke: #000000; stroke-width: 0.8; stroke-linejoin: miter; stroke-linecap: square"/>
   </g>
   <g id="text_15">
    <!-- Reduced Temperature,T$^*$=0.65 -->
    <g transform="translate(140.88 35.472) scale(0.12 -0.12)">
     <defs>
      <path id="DejaVuSans-52" d="M 2841 2188 
Q 3044 2119 3236 1894 
Q 3428 1669 3622 1275 
L 4263 0 
L 3584 0 
L 2988 1197 
Q 2756 1666 2539 1819 
Q 2322 1972 1947 1972 
L 1259 1972 
L 1259 0 
L 628 0 
L 628 4666 
L 2053 4666 
Q 2853 4666 3247 4331 
Q 3641 3997 3641 3322 
Q 3641 2881 3436 2590 
Q 3231 2300 2841 2188 
z
M 1259 4147 
L 1259 2491 
L 2053 2491 
Q 2509 2491 2742 2702 
Q 2975 2913 2975 3322 
Q 2975 3731 2742 3939 
Q 2509 4147 2053 4147 
L 1259 4147 
z
" transform="scale(0.015625)"/>
      <path id="DejaVuSans-75" d="M 544 1381 
L 544 3500 
L 1119 3500 
L 1119 1403 
Q 1119 906 1312 657 
Q 1506 409 1894 409 
Q 2359 409 2629 706 
Q 2900 1003 2900 1516 
L 2900 3500 
L 3475 3500 
L 3475 0 
L 2900 0 
L 2900 538 
Q 2691 219 2414 64 
Q 2138 -91 1772 -91 
Q 1169 -91 856 284 
Q 544 659 544 1381 
z
M 1991 3584 
L 1991 3584 
z
" transform="scale(0.015625)"/>
      <path id="DejaVuSans-63" d="M 3122 3366 
L 3122 2828 
Q 2878 2963 2633 3030 
Q 2388 3097 2138 3097 
Q 1578 3097 1268 2742 
Q 959 2388 959 1747 
Q 959 1106 1268 751 
Q 1578 397 2138 397 
Q 2388 397 2633 464 
Q 2878 531 3122 666 
L 3122 134 
Q 2881 22 2623 -34 
Q 2366 -91 2075 -91 
Q 1284 -91 818 406 
Q 353 903 353 1747 
Q 353 2603 823 3093 
Q 1294 3584 2113 3584 
Q 2378 3584 2631 3529 
Q 2884 3475 3122 3366 
z
" transform="scale(0.015625)"/>
      <path id="DejaVuSans-54" d="M -19 4666 
L 3928 4666 
L 3928 4134 
L 2272 4134 
L 2272 0 
L 1638 0 
L 1638 4134 
L -19 4134 
L -19 4666 
z
" transform="scale(0.015625)"/>
      <path id="DejaVuSans-70" d="M 1159 525 
L 1159 -1331 
L 581 -1331 
L 581 3500 
L 1159 3500 
L 1159 2969 
Q 1341 3281 1617 3432 
Q 1894 3584 2278 3584 
Q 2916 3584 3314 3078 
Q 3713 2572 3713 1747 
Q 3713 922 3314 415 
Q 2916 -91 2278 -91 
Q 1894 -91 1617 61 
Q 1341 213 1159 525 
z
M 3116 1747 
Q 3116 2381 2855 2742 
Q 2594 3103 2138 3103 
Q 1681 3103 1420 2742 
Q 1159 2381 1159 1747 
Q 1159 1113 1420 752 
Q 1681 391 2138 391 
Q 2594 391 2855 752 
Q 3116 1113 3116 1747 
z
" transform="scale(0.015625)"/>
      <path id="DejaVuSans-2a" d="M 3009 3897 
L 1888 3291 
L 3009 2681 
L 2828 2375 
L 1778 3009 
L 1778 1831 
L 1422 1831 
L 1422 3009 
L 372 2375 
L 191 2681 
L 1313 3291 
L 191 3897 
L 372 4206 
L 1422 3572 
L 1422 4750 
L 1778 4750 
L 1778 3572 
L 2828 4206 
L 3009 3897 
z
" transform="scale(0.015625)"/>
      <path id="DejaVuSans-3d" d="M 678 2906 
L 4684 2906 
L 4684 2381 
L 678 2381 
L 678 2906 
z
M 678 1631 
L 4684 1631 
L 4684 1100 
L 678 1100 
L 678 1631 
z
" transform="scale(0.015625)"/>
     </defs>
     <use xlink:href="#DejaVuSans-52" transform="translate(0 0.765625)"/>
     <use xlink:href="#DejaVuSans-65" transform="translate(69.482422 0.765625)"/>
     <use xlink:href="#DejaVuSans-64" transform="translate(131.005859 0.765625)"/>
     <use xlink:href="#DejaVuSans-75" transform="translate(194.482422 0.765625)"/>
     <use xlink:href="#DejaVuSans-63" transform="translate(257.861328 0.765625)"/>
     <use xlink:href="#DejaVuSans-65" transform="translate(312.841797 0.765625)"/>
     <use xlink:href="#DejaVuSans-64" transform="translate(374.365234 0.765625)"/>
     <use xlink:href="#DejaVuSans-20" transform="translate(437.841797 0.765625)"/>
     <use xlink:href="#DejaVuSans-54" transform="translate(469.628906 0.765625)"/>
     <use xlink:href="#DejaVuSans-65" transform="translate(530.712891 0.765625)"/>
     <use xlink:href="#DejaVuSans-6d" transform="translate(592.236328 0.765625)"/>
     <use xlink:href="#DejaVuSans-70" transform="translate(689.648438 0.765625)"/>
     <use xlink:href="#DejaVuSans-65" transform="translate(753.125 0.765625)"/>
     <use xlink:href="#DejaVuSans-72" transform="translate(814.648438 0.765625)"/>
     <use xlink:href="#DejaVuSans-61" transform="translate(855.761719 0.765625)"/>
     <use xlink:href="#DejaVuSans-74" transform="translate(917.041016 0.765625)"/>
     <use xlink:href="#DejaVuSans-75" transform="translate(956.25 0.765625)"/>
     <use xlink:href="#DejaVuSans-72" transform="translate(1019.628906 0.765625)"/>
     <use xlink:href="#DejaVuSans-65" transform="translate(1060.742188 0.765625)"/>
     <use xlink:href="#DejaVuSans-2c" transform="translate(1122.265625 0.765625)"/>
     <use xlink:href="#DejaVuSans-54" transform="translate(1154.052734 0.765625)"/>
     <use xlink:href="#DejaVuSans-2a" transform="translate(1229.731445 39.046875) scale(0.7)"/>
     <use xlink:href="#DejaVuSans-3d" transform="translate(1281.103516 0.765625)"/>
     <use xlink:href="#DejaVuSans-30" transform="translate(1364.892578 0.765625)"/>
     <use xlink:href="#DejaVuSans-2e" transform="translate(1428.515625 0.765625)"/>
     <use xlink:href="#DejaVuSans-36" transform="translate(1460.302734 0.765625)"/>
     <use xlink:href="#DejaVuSans-35" transform="translate(1523.925781 0.765625)"/>
    </g>
   </g>
  </g>
 </g>
 <defs>
  <clipPath id="p24943f6ab3">
   <rect x="57.6" y="41.472" width="357.12" height="266.112"/>
  </clipPath>
 </defs>
</svg>
