<?xml version="1.0" encoding="utf-8" standalone="no"?>
<!DOCTYPE svg PUBLIC "-//W3C//DTD SVG 1.1//EN"
  "http://www.w3.org/Graphics/SVG/1.1/DTD/svg11.dtd">
<svg xmlns:xlink="http://www.w3.org/1999/xlink" width="460.8pt" height="345.6pt" viewBox="0 0 460.8 345.6" xmlns="http://www.w3.org/2000/svg" version="1.1">
 <metadata>
  <rdf:RDF xmlns:dc="http://purl.org/dc/elements/1.1/" xmlns:cc="http://creativecommons.org/ns#" xmlns:rdf="http://www.w3.org/1999/02/22-rdf-syntax-ns#">
   <cc:Work>
    <dc:type rdf:resource="http://purl.org/dc/dcmitype/StillImage"/>
    <dc:date>2024-03-10T00:30:46.195350</dc:date>
    <dc:format>image/svg+xml</dc:format>
    <dc:creator>
     <cc:Agent>
      <dc:title>Matplotlib v3.8.3, https://matplotlib.org/</dc:title>
     </cc:Agent>
    </dc:creator>
   </cc:Work>
  </rdf:RDF>
 </metadata>
 <defs>
  <style type="text/css">*{stroke-linejoin: round; stroke-linecap: butt}</style>
 </defs>
 <g id="figure_1">
  <g id="patch_1">
   <path d="M 0 345.6 
L 460.8 345.6 
L 460.8 0 
L 0 0 
z
" style="fill: #ffffff"/>
  </g>
  <g id="axes_1">
   <g id="patch_2">
    <path d="M 57.6 307.584 
L 414.72 307.584 
L 414.72 41.472 
L 57.6 41.472 
z
" style="fill: #ffffff"/>
   </g>
   <g id="matplotlib.axis_1">
    <g id="xtick_1">
     <g id="line2d_1">
      <defs>
       <path id="m104db9eedf" d="M 0 0 
L 0 3.5 
" style="stroke: #000000; stroke-width: 0.8"/>
      </defs>
      <g>
       <use xlink:href="#m104db9eedf" x="73.832727" y="307.584" style="stroke: #000000; stroke-width: 0.8"/>
      </g>
     </g>
     <g id="text_1">
      <!-- 0 -->
      <g transform="translate(70.651477 322.182437) scale(0.1 -0.1)">
       <defs>
        <path id="DejaVuSans-30" d="M 2034 4250 
Q 1547 4250 1301 3770 
Q 1056 3291 1056 2328 
Q 1056 1369 1301 889 
Q 1547 409 2034 409 
Q 2525 409 2770 889 
Q 3016 1369 3016 2328 
Q 3016 3291 2770 3770 
Q 2525 4250 2034 4250 
z
M 2034 4750 
Q 2819 4750 3233 4129 
Q 3647 3509 3647 2328 
Q 3647 1150 3233 529 
Q 2819 -91 2034 -91 
Q 1250 -91 836 529 
Q 422 1150 422 2328 
Q 422 3509 836 4129 
Q 1250 4750 2034 4750 
z
" transform="scale(0.015625)"/>
       </defs>
       <use xlink:href="#DejaVuSans-30"/>
      </g>
     </g>
    </g>
    <g id="xtick_2">
     <g id="line2d_2">
      <g>
       <use xlink:href="#m104db9eedf" x="138.763636" y="307.584" style="stroke: #000000; stroke-width: 0.8"/>
      </g>
     </g>
     <g id="text_2">
      <!-- 200 -->
      <g transform="translate(129.219886 322.182437) scale(0.1 -0.1)">
       <defs>
        <path id="DejaVuSans-32" d="M 1228 531 
L 3431 531 
L 3431 0 
L 469 0 
L 469 531 
Q 828 903 1448 1529 
Q 2069 2156 2228 2338 
Q 2531 2678 2651 2914 
Q 2772 3150 2772 3378 
Q 2772 3750 2511 3984 
Q 2250 4219 1831 4219 
Q 1534 4219 1204 4116 
Q 875 4013 500 3803 
L 500 4441 
Q 881 4594 1212 4672 
Q 1544 4750 1819 4750 
Q 2544 4750 2975 4387 
Q 3406 4025 3406 3419 
Q 3406 3131 3298 2873 
Q 3191 2616 2906 2266 
Q 2828 2175 2409 1742 
Q 1991 1309 1228 531 
z
" transform="scale(0.015625)"/>
       </defs>
       <use xlink:href="#DejaVuSans-32"/>
       <use xlink:href="#DejaVuSans-30" x="63.623047"/>
       <use xlink:href="#DejaVuSans-30" x="127.246094"/>
      </g>
     </g>
    </g>
    <g id="xtick_3">
     <g id="line2d_3">
      <g>
       <use xlink:href="#m104db9eedf" x="203.694545" y="307.584" style="stroke: #000000; stroke-width: 0.8"/>
      </g>
     </g>
     <g id="text_3">
      <!-- 400 -->
      <g transform="translate(194.150795 322.182437) scale(0.1 -0.1)">
       <defs>
        <path id="DejaVuSans-34" d="M 2419 4116 
L 825 1625 
L 2419 1625 
L 2419 4116 
z
M 2253 4666 
L 3047 4666 
L 3047 1625 
L 3713 1625 
L 3713 1100 
L 3047 1100 
L 3047 0 
L 2419 0 
L 2419 1100 
L 313 1100 
L 313 1709 
L 2253 4666 
z
" transform="scale(0.015625)"/>
       </defs>
       <use xlink:href="#DejaVuSans-34"/>
       <use xlink:href="#DejaVuSans-30" x="63.623047"/>
       <use xlink:href="#DejaVuSans-30" x="127.246094"/>
      </g>
     </g>
    </g>
    <g id="xtick_4">
     <g id="line2d_4">
      <g>
       <use xlink:href="#m104db9eedf" x="268.625455" y="307.584" style="stroke: #000000; stroke-width: 0.8"/>
      </g>
     </g>
     <g id="text_4">
      <!-- 600 -->
      <g transform="translate(259.081705 322.182437) scale(0.1 -0.1)">
       <defs>
        <path id="DejaVuSans-36" d="M 2113 2584 
Q 1688 2584 1439 2293 
Q 1191 2003 1191 1497 
Q 1191 994 1439 701 
Q 1688 409 2113 409 
Q 2538 409 2786 701 
Q 3034 994 3034 1497 
Q 3034 2003 2786 2293 
Q 2538 2584 2113 2584 
z
M 3366 4563 
L 3366 3988 
Q 3128 4100 2886 4159 
Q 2644 4219 2406 4219 
Q 1781 4219 1451 3797 
Q 1122 3375 1075 2522 
Q 1259 2794 1537 2939 
Q 1816 3084 2150 3084 
Q 2853 3084 3261 2657 
Q 3669 2231 3669 1497 
Q 3669 778 3244 343 
Q 2819 -91 2113 -91 
Q 1303 -91 875 529 
Q 447 1150 447 2328 
Q 447 3434 972 4092 
Q 1497 4750 2381 4750 
Q 2619 4750 2861 4703 
Q 3103 4656 3366 4563 
z
" transform="scale(0.015625)"/>
       </defs>
       <use xlink:href="#DejaVuSans-36"/>
       <use xlink:href="#DejaVuSans-30" x="63.623047"/>
       <use xlink:href="#DejaVuSans-30" x="127.246094"/>
      </g>
     </g>
    </g>
    <g id="xtick_5">
     <g id="line2d_5">
      <g>
       <use xlink:href="#m104db9eedf" x="333.556364" y="307.584" style="stroke: #000000; stroke-width: 0.8"/>
      </g>
     </g>
     <g id="text_5">
      <!-- 800 -->
      <g transform="translate(324.012614 322.182437) scale(0.1 -0.1)">
       <defs>
        <path id="DejaVuSans-38" d="M 2034 2216 
Q 1584 2216 1326 1975 
Q 1069 1734 1069 1313 
Q 1069 891 1326 650 
Q 1584 409 2034 409 
Q 2484 409 2743 651 
Q 3003 894 3003 1313 
Q 3003 1734 2745 1975 
Q 2488 2216 2034 2216 
z
M 1403 2484 
Q 997 2584 770 2862 
Q 544 3141 544 3541 
Q 544 4100 942 4425 
Q 1341 4750 2034 4750 
Q 2731 4750 3128 4425 
Q 3525 4100 3525 3541 
Q 3525 3141 3298 2862 
Q 3072 2584 2669 2484 
Q 3125 2378 3379 2068 
Q 3634 1759 3634 1313 
Q 3634 634 3220 271 
Q 2806 -91 2034 -91 
Q 1263 -91 848 271 
Q 434 634 434 1313 
Q 434 1759 690 2068 
Q 947 2378 1403 2484 
z
M 1172 3481 
Q 1172 3119 1398 2916 
Q 1625 2713 2034 2713 
Q 2441 2713 2670 2916 
Q 2900 3119 2900 3481 
Q 2900 3844 2670 4047 
Q 2441 4250 2034 4250 
Q 1625 4250 1398 4047 
Q 1172 3844 1172 3481 
z
" transform="scale(0.015625)"/>
       </defs>
       <use xlink:href="#DejaVuSans-38"/>
       <use xlink:href="#DejaVuSans-30" x="63.623047"/>
       <use xlink:href="#DejaVuSans-30" x="127.246094"/>
      </g>
     </g>
    </g>
    <g id="xtick_6">
     <g id="line2d_6">
      <g>
       <use xlink:href="#m104db9eedf" x="398.487273" y="307.584" style="stroke: #000000; stroke-width: 0.8"/>
      </g>
     </g>
     <g id="text_6">
      <!-- 1000 -->
      <g transform="translate(385.762273 322.182437) scale(0.1 -0.1)">
       <defs>
        <path id="DejaVuSans-31" d="M 794 531 
L 1825 531 
L 1825 4091 
L 703 3866 
L 703 4441 
L 1819 4666 
L 2450 4666 
L 2450 531 
L 3481 531 
L 3481 0 
L 794 0 
L 794 531 
z
" transform="scale(0.015625)"/>
       </defs>
       <use xlink:href="#DejaVuSans-31"/>
       <use xlink:href="#DejaVuSans-30" x="63.623047"/>
       <use xlink:href="#DejaVuSans-30" x="127.246094"/>
       <use xlink:href="#DejaVuSans-30" x="190.869141"/>
      </g>
     </g>
    </g>
    <g id="text_7">
     <!-- MCS -->
     <g transform="translate(225.180312 335.860562) scale(0.1 -0.1)">
      <defs>
       <path id="DejaVuSans-4d" d="M 628 4666 
L 1569 4666 
L 2759 1491 
L 3956 4666 
L 4897 4666 
L 4897 0 
L 4281 0 
L 4281 4097 
L 3078 897 
L 2444 897 
L 1241 4097 
L 1241 0 
L 628 0 
L 628 4666 
z
" transform="scale(0.015625)"/>
       <path id="DejaVuSans-43" d="M 4122 4306 
L 4122 3641 
Q 3803 3938 3442 4084 
Q 3081 4231 2675 4231 
Q 1875 4231 1450 3742 
Q 1025 3253 1025 2328 
Q 1025 1406 1450 917 
Q 1875 428 2675 428 
Q 3081 428 3442 575 
Q 3803 722 4122 1019 
L 4122 359 
Q 3791 134 3420 21 
Q 3050 -91 2638 -91 
Q 1578 -91 968 557 
Q 359 1206 359 2328 
Q 359 3453 968 4101 
Q 1578 4750 2638 4750 
Q 3056 4750 3426 4639 
Q 3797 4528 4122 4306 
z
" transform="scale(0.015625)"/>
       <path id="DejaVuSans-53" d="M 3425 4513 
L 3425 3897 
Q 3066 4069 2747 4153 
Q 2428 4238 2131 4238 
Q 1616 4238 1336 4038 
Q 1056 3838 1056 3469 
Q 1056 3159 1242 3001 
Q 1428 2844 1947 2747 
L 2328 2669 
Q 3034 2534 3370 2195 
Q 3706 1856 3706 1288 
Q 3706 609 3251 259 
Q 2797 -91 1919 -91 
Q 1588 -91 1214 -16 
Q 841 59 441 206 
L 441 856 
Q 825 641 1194 531 
Q 1563 422 1919 422 
Q 2459 422 2753 634 
Q 3047 847 3047 1241 
Q 3047 1584 2836 1778 
Q 2625 1972 2144 2069 
L 1759 2144 
Q 1053 2284 737 2584 
Q 422 2884 422 3419 
Q 422 4038 858 4394 
Q 1294 4750 2059 4750 
Q 2388 4750 2728 4690 
Q 3069 4631 3425 4513 
z
" transform="scale(0.015625)"/>
      </defs>
      <use xlink:href="#DejaVuSans-4d"/>
      <use xlink:href="#DejaVuSans-43" x="86.279297"/>
      <use xlink:href="#DejaVuSans-53" x="156.103516"/>
     </g>
    </g>
   </g>
   <g id="matplotlib.axis_2">
    <g id="ytick_1">
     <g id="line2d_7">
      <defs>
       <path id="m9f926636b3" d="M 0 0 
L -3.5 0 
" style="stroke: #000000; stroke-width: 0.8"/>
      </defs>
      <g>
       <use xlink:href="#m9f926636b3" x="57.6" y="259.077389" style="stroke: #000000; stroke-width: 0.8"/>
      </g>
     </g>
     <g id="text_8">
      <!-- −1200 -->
      <g transform="translate(16.770313 262.876608) scale(0.1 -0.1)">
       <defs>
        <path id="DejaVuSans-2212" d="M 678 2272 
L 4684 2272 
L 4684 1741 
L 678 1741 
L 678 2272 
z
" transform="scale(0.015625)"/>
       </defs>
       <use xlink:href="#DejaVuSans-2212"/>
       <use xlink:href="#DejaVuSans-31" x="83.789062"/>
       <use xlink:href="#DejaVuSans-32" x="147.412109"/>
       <use xlink:href="#DejaVuSans-30" x="211.035156"/>
       <use xlink:href="#DejaVuSans-30" x="274.658203"/>
      </g>
     </g>
    </g>
    <g id="ytick_2">
     <g id="line2d_8">
      <g>
       <use xlink:href="#m9f926636b3" x="57.6" y="207.19771" style="stroke: #000000; stroke-width: 0.8"/>
      </g>
     </g>
     <g id="text_9">
      <!-- −1000 -->
      <g transform="translate(16.770313 210.996929) scale(0.1 -0.1)">
       <use xlink:href="#DejaVuSans-2212"/>
       <use xlink:href="#DejaVuSans-31" x="83.789062"/>
       <use xlink:href="#DejaVuSans-30" x="147.412109"/>
       <use xlink:href="#DejaVuSans-30" x="211.035156"/>
       <use xlink:href="#DejaVuSans-30" x="274.658203"/>
      </g>
     </g>
    </g>
    <g id="ytick_3">
     <g id="line2d_9">
      <g>
       <use xlink:href="#m9f926636b3" x="57.6" y="155.318031" style="stroke: #000000; stroke-width: 0.8"/>
      </g>
     </g>
     <g id="text_10">
      <!-- −800 -->
      <g transform="translate(23.132812 159.11725) scale(0.1 -0.1)">
       <use xlink:href="#DejaVuSans-2212"/>
       <use xlink:href="#DejaVuSans-38" x="83.789062"/>
       <use xlink:href="#DejaVuSans-30" x="147.412109"/>
       <use xlink:href="#DejaVuSans-30" x="211.035156"/>
      </g>
     </g>
    </g>
    <g id="ytick_4">
     <g id="line2d_10">
      <g>
       <use xlink:href="#m9f926636b3" x="57.6" y="103.438353" style="stroke: #000000; stroke-width: 0.8"/>
      </g>
     </g>
     <g id="text_11">
      <!-- −600 -->
      <g transform="translate(23.132812 107.237572) scale(0.1 -0.1)">
       <use xlink:href="#DejaVuSans-2212"/>
       <use xlink:href="#DejaVuSans-36" x="83.789062"/>
       <use xlink:href="#DejaVuSans-30" x="147.412109"/>
       <use xlink:href="#DejaVuSans-30" x="211.035156"/>
      </g>
     </g>
    </g>
    <g id="ytick_5">
     <g id="line2d_11">
      <g>
       <use xlink:href="#m9f926636b3" x="57.6" y="51.558674" style="stroke: #000000; stroke-width: 0.8"/>
      </g>
     </g>
     <g id="text_12">
      <!-- −400 -->
      <g transform="translate(23.132812 55.357893) scale(0.1 -0.1)">
       <use xlink:href="#DejaVuSans-2212"/>
       <use xlink:href="#DejaVuSans-34" x="83.789062"/>
       <use xlink:href="#DejaVuSans-30" x="147.412109"/>
       <use xlink:href="#DejaVuSans-30" x="211.035156"/>
      </g>
     </g>
    </g>
    <g id="text_13">
     <!-- Reduced Energy U/($\epsilon$) -->
     <g transform="translate(10.670312 229.178) rotate(-90) scale(0.1 -0.1)">
      <defs>
       <path id="DejaVuSans-52" d="M 2841 2188 
Q 3044 2119 3236 1894 
Q 3428 1669 3622 1275 
L 4263 0 
L 3584 0 
L 2988 1197 
Q 2756 1666 2539 1819 
Q 2322 1972 1947 1972 
L 1259 1972 
L 1259 0 
L 628 0 
L 628 4666 
L 2053 4666 
Q 2853 4666 3247 4331 
Q 3641 3997 3641 3322 
Q 3641 2881 3436 2590 
Q 3231 2300 2841 2188 
z
M 1259 4147 
L 1259 2491 
L 2053 2491 
Q 2509 2491 2742 2702 
Q 2975 2913 2975 3322 
Q 2975 3731 2742 3939 
Q 2509 4147 2053 4147 
L 1259 4147 
z
" transform="scale(0.015625)"/>
       <path id="DejaVuSans-65" d="M 3597 1894 
L 3597 1613 
L 953 1613 
Q 991 1019 1311 708 
Q 1631 397 2203 397 
Q 2534 397 2845 478 
Q 3156 559 3463 722 
L 3463 178 
Q 3153 47 2828 -22 
Q 2503 -91 2169 -91 
Q 1331 -91 842 396 
Q 353 884 353 1716 
Q 353 2575 817 3079 
Q 1281 3584 2069 3584 
Q 2775 3584 3186 3129 
Q 3597 2675 3597 1894 
z
M 3022 2063 
Q 3016 2534 2758 2815 
Q 2500 3097 2075 3097 
Q 1594 3097 1305 2825 
Q 1016 2553 972 2059 
L 3022 2063 
z
" transform="scale(0.015625)"/>
       <path id="DejaVuSans-64" d="M 2906 2969 
L 2906 4863 
L 3481 4863 
L 3481 0 
L 2906 0 
L 2906 525 
Q 2725 213 2448 61 
Q 2172 -91 1784 -91 
Q 1150 -91 751 415 
Q 353 922 353 1747 
Q 353 2572 751 3078 
Q 1150 3584 1784 3584 
Q 2172 3584 2448 3432 
Q 2725 3281 2906 2969 
z
M 947 1747 
Q 947 1113 1208 752 
Q 1469 391 1925 391 
Q 2381 391 2643 752 
Q 2906 1113 2906 1747 
Q 2906 2381 2643 2742 
Q 2381 3103 1925 3103 
Q 1469 3103 1208 2742 
Q 947 2381 947 1747 
z
" transform="scale(0.015625)"/>
       <path id="DejaVuSans-75" d="M 544 1381 
L 544 3500 
L 1119 3500 
L 1119 1403 
Q 1119 906 1312 657 
Q 1506 409 1894 409 
Q 2359 409 2629 706 
Q 2900 1003 2900 1516 
L 2900 3500 
L 3475 3500 
L 3475 0 
L 2900 0 
L 2900 538 
Q 2691 219 2414 64 
Q 2138 -91 1772 -91 
Q 1169 -91 856 284 
Q 544 659 544 1381 
z
M 1991 3584 
L 1991 3584 
z
" transform="scale(0.015625)"/>
       <path id="DejaVuSans-63" d="M 3122 3366 
L 3122 2828 
Q 2878 2963 2633 3030 
Q 2388 3097 2138 3097 
Q 1578 3097 1268 2742 
Q 959 2388 959 1747 
Q 959 1106 1268 751 
Q 1578 397 2138 397 
Q 2388 397 2633 464 
Q 2878 531 3122 666 
L 3122 134 
Q 2881 22 2623 -34 
Q 2366 -91 2075 -91 
Q 1284 -91 818 406 
Q 353 903 353 1747 
Q 353 2603 823 3093 
Q 1294 3584 2113 3584 
Q 2378 3584 2631 3529 
Q 2884 3475 3122 3366 
z
" transform="scale(0.015625)"/>
       <path id="DejaVuSans-20" transform="scale(0.015625)"/>
       <path id="DejaVuSans-45" d="M 628 4666 
L 3578 4666 
L 3578 4134 
L 1259 4134 
L 1259 2753 
L 3481 2753 
L 3481 2222 
L 1259 2222 
L 1259 531 
L 3634 531 
L 3634 0 
L 628 0 
L 628 4666 
z
" transform="scale(0.015625)"/>
       <path id="DejaVuSans-6e" d="M 3513 2113 
L 3513 0 
L 2938 0 
L 2938 2094 
Q 2938 2591 2744 2837 
Q 2550 3084 2163 3084 
Q 1697 3084 1428 2787 
Q 1159 2491 1159 1978 
L 1159 0 
L 581 0 
L 581 3500 
L 1159 3500 
L 1159 2956 
Q 1366 3272 1645 3428 
Q 1925 3584 2291 3584 
Q 2894 3584 3203 3211 
Q 3513 2838 3513 2113 
z
" transform="scale(0.015625)"/>
       <path id="DejaVuSans-72" d="M 2631 2963 
Q 2534 3019 2420 3045 
Q 2306 3072 2169 3072 
Q 1681 3072 1420 2755 
Q 1159 2438 1159 1844 
L 1159 0 
L 581 0 
L 581 3500 
L 1159 3500 
L 1159 2956 
Q 1341 3275 1631 3429 
Q 1922 3584 2338 3584 
Q 2397 3584 2469 3576 
Q 2541 3569 2628 3553 
L 2631 2963 
z
" transform="scale(0.015625)"/>
       <path id="DejaVuSans-67" d="M 2906 1791 
Q 2906 2416 2648 2759 
Q 2391 3103 1925 3103 
Q 1463 3103 1205 2759 
Q 947 2416 947 1791 
Q 947 1169 1205 825 
Q 1463 481 1925 481 
Q 2391 481 2648 825 
Q 2906 1169 2906 1791 
z
M 3481 434 
Q 3481 -459 3084 -895 
Q 2688 -1331 1869 -1331 
Q 1566 -1331 1297 -1286 
Q 1028 -1241 775 -1147 
L 775 -588 
Q 1028 -725 1275 -790 
Q 1522 -856 1778 -856 
Q 2344 -856 2625 -561 
Q 2906 -266 2906 331 
L 2906 616 
Q 2728 306 2450 153 
Q 2172 0 1784 0 
Q 1141 0 747 490 
Q 353 981 353 1791 
Q 353 2603 747 3093 
Q 1141 3584 1784 3584 
Q 2172 3584 2450 3431 
Q 2728 3278 2906 2969 
L 2906 3500 
L 3481 3500 
L 3481 434 
z
" transform="scale(0.015625)"/>
       <path id="DejaVuSans-79" d="M 2059 -325 
Q 1816 -950 1584 -1140 
Q 1353 -1331 966 -1331 
L 506 -1331 
L 506 -850 
L 844 -850 
Q 1081 -850 1212 -737 
Q 1344 -625 1503 -206 
L 1606 56 
L 191 3500 
L 800 3500 
L 1894 763 
L 2988 3500 
L 3597 3500 
L 2059 -325 
z
" transform="scale(0.015625)"/>
       <path id="DejaVuSans-55" d="M 556 4666 
L 1191 4666 
L 1191 1831 
Q 1191 1081 1462 751 
Q 1734 422 2344 422 
Q 2950 422 3222 751 
Q 3494 1081 3494 1831 
L 3494 4666 
L 4128 4666 
L 4128 1753 
Q 4128 841 3676 375 
Q 3225 -91 2344 -91 
Q 1459 -91 1007 375 
Q 556 841 556 1753 
L 556 4666 
z
" transform="scale(0.015625)"/>
       <path id="DejaVuSans-2f" d="M 1625 4666 
L 2156 4666 
L 531 -594 
L 0 -594 
L 1625 4666 
z
" transform="scale(0.015625)"/>
       <path id="DejaVuSans-28" d="M 1984 4856 
Q 1566 4138 1362 3434 
Q 1159 2731 1159 2009 
Q 1159 1288 1364 580 
Q 1569 -128 1984 -844 
L 1484 -844 
Q 1016 -109 783 600 
Q 550 1309 550 2009 
Q 550 2706 781 3412 
Q 1013 4119 1484 4856 
L 1984 4856 
z
" transform="scale(0.015625)"/>
       <path id="DejaVuSans-Oblique-3b5" d="M 1263 1888 
Q 925 1963 778 2166 
Q 669 2309 669 2503 
Q 669 3034 1175 3344 
Q 1575 3588 2188 3588 
Q 2425 3588 2684 3550 
Q 2944 3513 3234 3438 
L 3134 2916 
Q 2847 3006 2606 3047 
Q 2359 3088 2138 3088 
Q 1766 3088 1522 2944 
Q 1228 2772 1228 2522 
Q 1228 2356 1381 2241 
Q 1563 2103 1925 2103 
L 2409 2103 
L 2319 1628 
L 1856 1628 
Q 1425 1628 1172 1469 
Q 828 1253 828 916 
Q 828 703 1013 563 
Q 1244 388 1716 388 
Q 2006 388 2284 444 
Q 2563 503 2806 619 
L 2700 84 
Q 2403 -3 2131 -47 
Q 1859 -91 1609 -91 
Q 866 -91 516 194 
Q 250 413 250 781 
Q 250 1278 600 1584 
Q 859 1813 1263 1888 
z
" transform="scale(0.015625)"/>
       <path id="DejaVuSans-29" d="M 513 4856 
L 1013 4856 
Q 1481 4119 1714 3412 
Q 1947 2706 1947 2009 
Q 1947 1309 1714 600 
Q 1481 -109 1013 -844 
L 513 -844 
Q 928 -128 1133 580 
Q 1338 1288 1338 2009 
Q 1338 2731 1133 3434 
Q 928 4138 513 4856 
z
" transform="scale(0.015625)"/>
      </defs>
      <use xlink:href="#DejaVuSans-52" transform="translate(0 0.015625)"/>
      <use xlink:href="#DejaVuSans-65" transform="translate(69.482422 0.015625)"/>
      <use xlink:href="#DejaVuSans-64" transform="translate(131.005859 0.015625)"/>
      <use xlink:href="#DejaVuSans-75" transform="translate(194.482422 0.015625)"/>
      <use xlink:href="#DejaVuSans-63" transform="translate(257.861328 0.015625)"/>
      <use xlink:href="#DejaVuSans-65" transform="translate(312.841797 0.015625)"/>
      <use xlink:href="#DejaVuSans-64" transform="translate(374.365234 0.015625)"/>
      <use xlink:href="#DejaVuSans-20" transform="translate(437.841797 0.015625)"/>
      <use xlink:href="#DejaVuSans-45" transform="translate(469.628906 0.015625)"/>
      <use xlink:href="#DejaVuSans-6e" transform="translate(532.8125 0.015625)"/>
      <use xlink:href="#DejaVuSans-65" transform="translate(596.191406 0.015625)"/>
      <use xlink:href="#DejaVuSans-72" transform="translate(657.714844 0.015625)"/>
      <use xlink:href="#DejaVuSans-67" transform="translate(698.828125 0.015625)"/>
      <use xlink:href="#DejaVuSans-79" transform="translate(762.304688 0.015625)"/>
      <use xlink:href="#DejaVuSans-20" transform="translate(821.484375 0.015625)"/>
      <use xlink:href="#DejaVuSans-55" transform="translate(853.271484 0.015625)"/>
      <use xlink:href="#DejaVuSans-2f" transform="translate(926.464844 0.015625)"/>
      <use xlink:href="#DejaVuSans-28" transform="translate(960.15625 0.015625)"/>
      <use xlink:href="#DejaVuSans-Oblique-3b5" transform="translate(999.169922 0.015625)"/>
      <use xlink:href="#DejaVuSans-29" transform="translate(1053.222656 0.015625)"/>
     </g>
    </g>
   </g>
   <g id="line2d_12">
    <path d="M 73.832727 53.568 
L 74.482036 128.300106 
L 74.806691 155.395721 
L 75.456 182.153055 
L 76.105309 201.484175 
L 76.429964 207.228786 
L 76.754618 209.898125 
L 77.079273 210.610822 
L 77.403927 214.090989 
L 78.053236 218.176202 
L 78.377891 224.771951 
L 78.702545 229.040741 
L 79.0272 231.456933 
L 79.351855 232.849176 
L 79.676509 233.117991 
L 80.001164 226.50909 
L 80.975127 241.103 
L 81.299782 240.763577 
L 81.624436 253.023809 
L 81.949091 248.826016 
L 82.273745 251.957941 
L 82.5984 258.050872 
L 82.923055 253.828151 
L 83.247709 256.33049 
L 83.572364 257.096208 
L 83.897018 265.014499 
L 84.221673 265.430963 
L 84.870982 259.6773 
L 85.195636 264.341724 
L 85.520291 264.431813 
L 85.844945 266.557427 
L 86.1696 269.696978 
L 86.494255 266.766269 
L 86.818909 268.304138 
L 87.143564 260.652326 
L 87.468218 260.709939 
L 88.117527 254.953369 
L 88.766836 271.346699 
L 89.091491 273.68873 
L 89.416145 272.250002 
L 89.7408 269.298282 
L 90.065455 269.46562 
L 90.390109 263.960149 
L 90.714764 264.063934 
L 91.039418 257.112446 
L 91.364073 259.147478 
L 91.688727 253.007881 
L 92.013382 254.48583 
L 92.338036 249.941481 
L 92.662691 247.932493 
L 92.987345 254.872048 
L 93.312 257.367149 
L 93.636655 255.164234 
L 93.961309 249.984178 
L 94.285964 257.616172 
L 94.610618 258.170532 
L 94.935273 258.25424 
L 95.259927 259.900616 
L 95.584582 258.417505 
L 95.909236 257.810124 
L 96.233891 256.582599 
L 96.558545 260.880726 
L 96.8832 258.532159 
L 97.207855 258.711041 
L 97.532509 260.477544 
L 97.857164 260.030029 
L 98.506473 253.075195 
L 98.831127 250.395558 
L 99.155782 250.823047 
L 99.805091 258.872853 
L 100.129745 259.089243 
L 100.4544 262.408453 
L 100.779055 259.777401 
L 101.103709 258.299272 
L 101.428364 258.865901 
L 101.753018 257.749503 
L 102.077673 253.636767 
L 102.402327 254.496932 
L 102.726982 255.899318 
L 103.051636 258.618513 
L 103.376291 260.248184 
L 103.700945 258.078679 
L 104.0256 259.224105 
L 104.674909 262.948158 
L 104.999564 261.494645 
L 105.324218 263.705445 
L 105.648873 263.760178 
L 105.973527 260.85074 
L 106.298182 259.762564 
L 106.622836 261.981017 
L 106.947491 258.25341 
L 107.272145 263.934546 
L 107.5968 263.549443 
L 107.921455 257.567431 
L 108.246109 259.777064 
L 108.570764 266.170768 
L 108.895418 267.07516 
L 109.220073 263.700283 
L 109.869382 275.788171 
L 110.194036 269.042801 
L 110.518691 275.660132 
L 110.843345 272.519855 
L 111.168 273.877442 
L 111.492655 276.638504 
L 111.817309 271.298711 
L 112.141964 270.656129 
L 112.466618 270.620773 
L 112.791273 271.652712 
L 113.115927 271.410408 
L 113.765236 260.431137 
L 114.089891 259.370405 
L 114.414545 259.678259 
L 115.388509 265.389667 
L 115.713164 265.228425 
L 116.037818 268.489374 
L 116.362473 275.909413 
L 116.687127 266.531617 
L 117.011782 267.608976 
L 117.336436 267.111346 
L 117.661091 271.215677 
L 117.985745 271.120037 
L 118.3104 270.322154 
L 118.635055 276.993336 
L 118.959709 275.46828 
L 119.284364 275.195705 
L 119.933673 261.326062 
L 120.258327 260.802907 
L 120.582982 262.195332 
L 120.907636 266.470295 
L 121.232291 264.946978 
L 121.556945 270.352088 
L 121.8816 273.015331 
L 122.206255 262.671328 
L 122.530909 264.52971 
L 122.855564 263.813173 
L 123.180218 272.288705 
L 123.504873 275.052076 
L 123.829527 269.361705 
L 124.154182 271.364209 
L 124.478836 274.08618 
L 125.128145 269.724967 
L 125.4528 271.586176 
L 125.777455 272.721252 
L 126.102109 273.286221 
L 126.426764 278.920276 
L 126.751418 279.184578 
L 127.076073 277.033776 
L 127.400727 276.638504 
L 127.725382 269.089622 
L 128.050036 269.473428 
L 128.374691 269.65965 
L 128.699345 269.498953 
L 129.024 271.276428 
L 129.348655 264.725063 
L 129.673309 268.446911 
L 130.322618 279.522107 
L 130.647273 275.798598 
L 130.971927 273.733528 
L 131.296582 274.21881 
L 131.621236 275.498319 
L 131.945891 268.053585 
L 132.270545 265.200851 
L 132.5952 277.004334 
L 132.919855 274.937707 
L 133.244509 274.22776 
L 133.893818 268.338378 
L 134.218473 261.373817 
L 134.543127 258.763958 
L 134.867782 260.034906 
L 135.192436 262.901414 
L 135.517091 261.542556 
L 136.1664 268.500243 
L 136.491055 269.999981 
L 136.815709 268.691601 
L 137.140364 269.27945 
L 137.465018 266.570708 
L 137.789673 269.831657 
L 138.114327 265.83687 
L 138.438982 260.0092 
L 138.763636 258.266354 
L 139.088291 258.291282 
L 139.412945 261.372079 
L 139.7376 258.312656 
L 140.062255 259.500208 
L 140.386909 256.699847 
L 140.711564 256.373861 
L 141.036218 257.182873 
L 141.360873 254.216574 
L 141.685527 266.21458 
L 142.010182 273.187313 
L 142.334836 272.554484 
L 142.659491 275.149817 
L 142.984145 273.924782 
L 143.3088 270.821184 
L 143.633455 277.59693 
L 143.958109 272.794532 
L 144.282764 275.345196 
L 144.607418 272.360351 
L 144.932073 271.206702 
L 145.256727 275.522002 
L 145.581382 275.157651 
L 145.906036 275.147197 
L 146.230691 278.696104 
L 146.555345 277.527281 
L 146.88 272.9365 
L 147.204655 271.280968 
L 147.529309 272.256799 
L 147.853964 264.584209 
L 148.178618 270.607725 
L 148.827927 276.708309 
L 149.152582 274.951507 
L 149.477236 279.722596 
L 149.801891 277.75205 
L 150.126545 277.94844 
L 150.4512 273.053256 
L 150.775855 265.862525 
L 151.100509 271.61624 
L 151.425164 274.910366 
L 151.749818 276.51791 
L 152.074473 279.731182 
L 152.399127 279.124267 
L 152.723782 277.541833 
L 153.048436 273.117042 
L 153.697745 266.725673 
L 154.0224 266.628243 
L 154.347055 274.552267 
L 154.671709 270.500723 
L 154.996364 270.203764 
L 155.321018 270.458493 
L 155.645673 266.595844 
L 155.970327 264.378895 
L 156.294982 264.600707 
L 156.619636 259.837063 
L 156.944291 259.501687 
L 157.268945 261.97627 
L 157.5936 258.157796 
L 158.242909 265.822629 
L 158.567564 264.893568 
L 158.892218 260.547711 
L 159.216873 261.912484 
L 159.541527 260.049407 
L 159.866182 255.349108 
L 160.190836 260.525195 
L 160.515491 255.516575 
L 160.840145 261.112836 
L 161.1648 257.666754 
L 161.489455 256.959038 
L 161.814109 261.699543 
L 162.138764 261.917749 
L 162.463418 259.083173 
L 162.788073 264.026814 
L 163.112727 264.577491 
L 163.437382 260.939039 
L 163.762036 253.414488 
L 164.086691 254.374263 
L 164.411345 264.501695 
L 165.060655 273.294626 
L 165.385309 273.701466 
L 165.709964 270.862921 
L 166.034618 274.755973 
L 166.359273 281.401863 
L 166.683927 275.190543 
L 167.008582 272.114156 
L 167.333236 265.4713 
L 167.657891 266.163608 
L 167.982545 261.911472 
L 168.3072 266.891558 
L 168.631855 275.877015 
L 168.956509 272.163078 
L 169.281164 262.615687 
L 169.605818 265.666393 
L 169.930473 259.142991 
L 170.579782 263.874184 
L 170.904436 261.762292 
L 171.229091 266.828213 
L 171.8784 269.545307 
L 172.203055 271.126392 
L 172.527709 266.728993 
L 172.852364 258.907509 
L 173.177018 263.251187 
L 173.501673 269.938996 
L 173.826327 263.503581 
L 174.150982 261.317994 
L 174.475636 256.386961 
L 174.800291 259.253391 
L 175.124945 255.62848 
L 175.4496 262.632937 
L 175.774255 261.318435 
L 176.098909 263.049297 
L 176.423564 265.895364 
L 176.748218 259.231472 
L 177.072873 263.027196 
L 177.397527 257.481726 
L 177.722182 257.66512 
L 178.046836 261.577471 
L 178.371491 258.250712 
L 178.696145 262.106747 
L 179.0208 263.597536 
L 179.345455 262.815398 
L 179.670109 265.095717 
L 179.994764 264.842181 
L 180.319418 258.118938 
L 180.644073 253.830797 
L 180.968727 261.740684 
L 181.293382 258.327805 
L 181.618036 257.670179 
L 182.267345 264.81484 
L 182.592 260.097966 
L 182.916655 269.356906 
L 183.241309 270.368404 
L 183.890618 265.039402 
L 184.215273 265.776015 
L 184.539927 272.212597 
L 184.864582 273.174005 
L 185.513891 263.718337 
L 185.838545 262.922659 
L 186.1632 263.706042 
L 186.812509 266.11191 
L 187.137164 262.155592 
L 187.461818 269.467825 
L 187.786473 268.795957 
L 188.111127 262.080963 
L 188.435782 269.445776 
L 188.760436 265.84032 
L 189.085091 266.01723 
L 189.409745 261.140436 
L 189.7344 258.777006 
L 190.059055 262.416054 
L 190.383709 262.095697 
L 190.708364 263.95963 
L 191.033018 261.97352 
L 191.357673 268.290701 
L 191.682327 271.323172 
L 192.331636 259.184261 
L 192.656291 257.265284 
L 192.980945 260.252023 
L 193.3056 259.461013 
L 193.630255 260.004323 
L 193.954909 270.326382 
L 194.279564 273.53073 
L 194.604218 279.017291 
L 195.253527 274.114247 
L 195.578182 274.949276 
L 195.902836 279.457465 
L 196.227491 274.808942 
L 196.552145 274.737633 
L 196.8768 276.664211 
L 197.201455 276.87339 
L 197.526109 271.902876 
L 197.850764 271.388514 
L 198.175418 266.373436 
L 198.500073 265.627328 
L 199.149382 274.732523 
L 199.474036 272.721018 
L 200.123345 257.344971 
L 200.448 257.491635 
L 200.772655 253.562008 
L 201.097309 256.773023 
L 201.421964 265.58668 
L 201.746618 260.820935 
L 202.071273 259.214066 
L 202.395927 260.766695 
L 202.720582 267.421639 
L 203.045236 266.858199 
L 203.369891 268.310986 
L 204.0192 262.796384 
L 204.343855 263.818647 
L 204.668509 260.789029 
L 204.993164 259.847854 
L 205.317818 261.423933 
L 205.642473 268.40053 
L 205.967127 269.532337 
L 206.291782 269.66821 
L 206.616436 269.041063 
L 206.941091 266.345732 
L 207.265745 265.683747 
L 207.5904 272.237785 
L 207.915055 273.934925 
L 208.239709 283.182374 
L 208.889018 281.030431 
L 209.538327 276.147982 
L 209.862982 277.990359 
L 210.187636 280.473528 
L 210.512291 279.777199 
L 210.836945 277.191672 
L 211.1616 278.313777 
L 211.810909 273.607512 
L 212.135564 280.222379 
L 212.460218 283.008992 
L 212.784873 286.852057 
L 213.109527 283.046397 
L 213.434182 285.12519 
L 213.758836 283.63863 
L 214.083491 279.977662 
L 214.408145 281.805954 
L 214.7328 280.193741 
L 215.057455 276.680968 
L 215.382109 274.513954 
L 215.706764 274.196061 
L 216.031418 269.840191 
L 216.356073 269.925041 
L 216.680727 276.514097 
L 217.005382 272.53049 
L 217.330036 270.532111 
L 217.654691 272.021057 
L 217.979345 271.363042 
L 218.304 269.032684 
L 218.628655 269.1173 
L 218.953309 269.68821 
L 219.277964 272.887085 
L 219.602618 277.32949 
L 219.927273 274.29676 
L 220.251927 265.405075 
L 220.576582 265.250811 
L 220.901236 263.931407 
L 221.550545 274.817554 
L 221.8752 276.866438 
L 222.199855 275.45391 
L 222.524509 275.77795 
L 222.849164 273.771011 
L 223.173818 278.189914 
L 223.498473 277.512418 
L 223.823127 266.840119 
L 224.147782 271.693645 
L 224.472436 280.139423 
L 224.797091 276.697466 
L 225.121745 275.992447 
L 225.4464 266.597789 
L 225.771055 273.567746 
L 226.420364 277.175355 
L 226.745018 269.114654 
L 227.069673 271.422003 
L 227.394327 272.100978 
L 227.718982 270.738177 
L 228.043636 281.007137 
L 228.368291 280.521698 
L 229.342255 272.440375 
L 229.666909 275.460317 
L 229.991564 276.547508 
L 230.316218 274.331778 
L 230.640873 278.541659 
L 230.965527 280.130033 
L 231.290182 276.601488 
L 231.614836 274.333931 
L 231.939491 275.711207 
L 232.264145 275.295366 
L 232.5888 279.264654 
L 232.913455 280.929499 
L 233.238109 280.113976 
L 233.562764 277.69506 
L 233.887418 284.338642 
L 234.212073 283.05558 
L 234.536727 279.551548 
L 234.861382 279.848041 
L 235.186036 278.568532 
L 235.835345 281.235174 
L 236.16 285.214293 
L 236.484655 287.402863 
L 236.809309 281.048926 
L 237.133964 281.732103 
L 237.458618 277.710416 
L 237.783273 275.188908 
L 238.107927 273.680429 
L 238.432582 273.817469 
L 238.757236 279.282993 
L 239.081891 282.033654 
L 239.406545 277.871814 
L 239.7312 277.304847 
L 240.055855 277.05004 
L 240.380509 277.625412 
L 240.705164 279.930737 
L 241.354473 275.915976 
L 241.679127 278.30545 
L 242.003782 277.356727 
L 242.328436 282.409678 
L 242.653091 281.505026 
L 242.977745 283.289531 
L 243.3024 274.779033 
L 243.627055 271.97836 
L 243.951709 277.147107 
L 244.276364 277.418074 
L 244.601018 275.504518 
L 244.925673 269.125678 
L 245.250327 270.692704 
L 245.574982 263.537018 
L 245.899636 266.117487 
L 246.224291 271.344832 
L 246.548945 271.235314 
L 246.8736 272.726932 
L 247.198255 266.297899 
L 247.522909 266.671251 
L 247.847564 268.092365 
L 248.172218 266.606323 
L 248.496873 267.343715 
L 249.146182 273.853863 
L 249.470836 275.806951 
L 249.795491 279.706331 
L 250.120145 275.17612 
L 250.4448 276.222326 
L 250.769455 273.745123 
L 251.094109 267.732735 
L 251.418764 267.7994 
L 251.743418 270.23593 
L 252.068073 270.328379 
L 252.392727 272.219445 
L 252.717382 274.841859 
L 253.042036 272.107463 
L 253.691345 281.411176 
L 254.016 280.587274 
L 254.340655 276.994762 
L 254.665309 274.921391 
L 254.989964 284.711838 
L 255.314618 286.597094 
L 255.639273 280.249849 
L 255.963927 286.796727 
L 256.288582 283.53391 
L 256.613236 278.172457 
L 256.937891 282.802096 
L 257.262545 285.33883 
L 257.5872 281.229389 
L 257.911855 284.377189 
L 258.236509 289.080471 
L 258.561164 282.355438 
L 258.885818 281.153204 
L 259.210473 283.862257 
L 259.859782 292.309721 
L 260.184436 282.579428 
L 260.509091 283.107408 
L 260.833745 282.696054 
L 261.1584 287.375108 
L 261.807709 279.639822 
L 262.132364 279.361721 
L 262.457018 282.597067 
L 262.781673 277.934122 
L 263.106327 278.987513 
L 263.430982 283.852244 
L 263.755636 284.151538 
L 264.080291 289.989299 
L 264.404945 287.321283 
L 264.7296 287.830144 
L 265.054255 280.384606 
L 265.378909 278.847282 
L 265.703564 282.790578 
L 266.028218 284.246789 
L 266.352873 284.353324 
L 266.677527 282.668376 
L 267.002182 279.677383 
L 267.326836 282.302442 
L 267.976145 275.805472 
L 268.950109 282.149553 
L 269.274764 277.532054 
L 269.599418 276.426783 
L 269.924073 273.655397 
L 270.248727 272.294308 
L 270.573382 276.409067 
L 270.898036 272.588751 
L 271.547345 279.183514 
L 272.196655 272.836373 
L 272.521309 277.919673 
L 272.845964 281.125759 
L 273.170618 274.489052 
L 273.495273 272.851781 
L 273.819927 276.950275 
L 274.144582 276.348938 
L 274.469236 274.093339 
L 274.793891 267.50187 
L 275.118545 268.061963 
L 275.4432 263.494632 
L 276.092509 264.645375 
L 276.417164 262.963177 
L 276.741818 274.823442 
L 277.066473 275.96591 
L 277.391127 271.332225 
L 277.715782 274.341687 
L 278.040436 271.87857 
L 278.365091 271.353081 
L 278.689745 270.473564 
L 279.0144 269.177403 
L 279.339055 269.323133 
L 279.663709 272.521281 
L 279.988364 273.481418 
L 280.313018 270.489751 
L 280.637673 272.498299 
L 280.962327 278.075935 
L 281.286982 279.97346 
L 281.611636 272.026479 
L 281.936291 275.340708 
L 282.260945 282.102291 
L 282.5856 286.373545 
L 282.910255 283.650795 
L 283.234909 286.950161 
L 283.559564 286.703473 
L 283.884218 289.232763 
L 284.208873 284.457109 
L 284.533527 288.789581 
L 284.858182 286.390976 
L 285.507491 285.574105 
L 285.832145 285.358 
L 286.1568 287.069614 
L 286.806109 292.341938 
L 287.130764 284.947165 
L 287.455418 287.612276 
L 287.780073 278.699062 
L 288.104727 275.930814 
L 288.429382 276.497547 
L 288.754036 278.133443 
L 289.078691 274.191003 
L 289.403345 281.516751 
L 289.728 282.986113 
L 290.052655 282.88308 
L 290.701964 276.417834 
L 291.026618 277.069469 
L 291.351273 280.262663 
L 291.675927 281.622378 
L 292.000582 283.533962 
L 292.325236 281.264148 
L 293.2992 262.935707 
L 293.623855 273.40928 
L 293.948509 267.77704 
L 294.273164 270.28052 
L 294.597818 269.235793 
L 294.922473 269.417631 
L 295.571782 273.151282 
L 295.896436 283.998052 
L 296.221091 279.441641 
L 296.545745 278.433489 
L 297.195055 287.897614 
L 297.519709 290.644513 
L 297.844364 290.477409 
L 298.169018 289.244125 
L 298.493673 287.4225 
L 298.818327 284.174157 
L 299.142982 282.62778 
L 299.467636 282.347137 
L 299.792291 284.918294 
L 300.116945 284.448783 
L 300.4416 281.949116 
L 300.766255 289.385393 
L 301.090909 293.66596 
L 301.415564 290.124264 
L 301.740218 288.369148 
L 302.064873 285.90297 
L 302.389527 282.175908 
L 302.714182 276.510647 
L 303.038836 282.437797 
L 303.363491 280.178437 
L 303.688145 284.172964 
L 304.0128 281.628733 
L 304.337455 291.169043 
L 304.662109 283.667578 
L 304.986764 291.760834 
L 305.311418 290.553724 
L 305.636073 286.799606 
L 305.960727 286.338578 
L 306.934691 291.642834 
L 307.584 286.414504 
L 307.908655 287.745425 
L 308.233309 287.997794 
L 308.557964 286.249734 
L 308.882618 290.107169 
L 309.207273 284.350367 
L 309.531927 281.363783 
L 309.856582 283.824722 
L 310.181236 287.201907 
L 310.505891 283.889701 
L 310.830545 279.056253 
L 311.479855 289.705465 
L 311.804509 291.450308 
L 312.129164 287.241881 
L 312.453818 287.377157 
L 312.778473 283.428154 
L 313.103127 282.565965 
L 313.427782 275.788352 
L 313.752436 279.437102 
L 314.077091 279.166523 
L 314.401745 281.711196 
L 314.7264 282.022007 
L 315.051055 282.124002 
L 315.375709 283.207795 
L 315.700364 283.37189 
L 316.025018 284.668104 
L 316.349673 281.839831 
L 316.674327 282.706585 
L 316.998982 277.229492 
L 317.323636 278.039697 
L 317.648291 281.821933 
L 317.972945 281.156031 
L 318.622255 276.70862 
L 318.946909 275.277078 
L 319.271564 275.48151 
L 319.596218 279.971748 
L 319.920873 286.210435 
L 320.245527 281.964135 
L 320.570182 281.755631 
L 320.894836 276.262221 
L 321.219491 278.092718 
L 321.544145 281.37652 
L 321.8688 281.029082 
L 322.193455 283.928741 
L 322.518109 277.05432 
L 322.842764 278.180213 
L 323.167418 277.5133 
L 323.492073 278.179435 
L 323.816727 286.120164 
L 324.141382 290.664305 
L 324.466036 291.13488 
L 324.790691 290.43562 
L 325.115345 283.791597 
L 325.44 285.784114 
L 325.764655 285.468348 
L 326.089309 290.760464 
L 326.413964 285.457324 
L 326.738618 284.639492 
L 327.063273 284.826052 
L 327.387927 285.284305 
L 327.712582 283.318272 
L 328.037236 280.405721 
L 328.361891 283.050677 
L 328.686545 284.209591 
L 329.0112 280.45908 
L 329.335855 284.785585 
L 329.660509 286.232121 
L 329.985164 286.627807 
L 330.634473 280.074262 
L 330.959127 283.924097 
L 331.283782 278.816854 
L 331.608436 277.385883 
L 331.933091 278.956073 
L 332.257745 273.027212 
L 332.5824 275.274484 
L 332.907055 279.339153 
L 333.231709 277.541029 
L 333.556364 276.915879 
L 333.881018 277.768963 
L 334.205673 276.50258 
L 334.530327 276.77085 
L 335.179636 278.258603 
L 335.504291 277.858351 
L 335.828945 278.349756 
L 336.478255 269.837701 
L 337.127564 283.291503 
L 337.776873 271.105692 
L 338.101527 273.53335 
L 338.426182 274.569232 
L 338.750836 279.236327 
L 339.075491 273.130504 
L 339.400145 280.728854 
L 339.7248 281.948441 
L 340.049455 282.704095 
L 340.374109 284.345672 
L 340.698764 289.652444 
L 341.023418 283.378219 
L 341.348073 287.141623 
L 341.997382 285.759082 
L 342.322036 286.76949 
L 342.646691 289.511253 
L 342.971345 290.41811 
L 343.296 288.052916 
L 343.620655 287.195474 
L 343.945309 285.35704 
L 344.269964 287.203775 
L 344.919273 284.01691 
L 345.568582 292.440095 
L 345.893236 284.927969 
L 346.217891 282.476499 
L 346.542545 289.379687 
L 346.8672 293.23292 
L 347.191855 286.598573 
L 347.516509 285.917029 
L 347.841164 283.608954 
L 348.165818 285.544896 
L 348.490473 284.839488 
L 348.815127 282.252949 
L 349.464436 280.093717 
L 349.789091 281.625283 
L 350.113745 281.981982 
L 350.4384 276.973777 
L 350.763055 282.39471 
L 351.087709 282.846064 
L 351.412364 278.225193 
L 351.737018 279.221101 
L 352.061673 274.911819 
L 352.386327 277.101868 
L 352.710982 277.659497 
L 353.035636 276.628803 
L 353.360291 274.529155 
L 354.0096 281.797316 
L 354.334255 281.065216 
L 354.658909 281.244097 
L 354.983564 287.002534 
L 355.308218 285.378155 
L 355.632873 281.666527 
L 355.957527 280.321339 
L 356.282182 279.462782 
L 356.931491 284.468004 
L 357.256145 279.22053 
L 357.5808 279.502003 
L 357.905455 280.134079 
L 358.230109 279.85603 
L 358.554764 277.917053 
L 358.879418 281.164462 
L 359.204073 277.430396 
L 359.528727 281.846316 
L 359.853382 281.150143 
L 360.178036 284.562529 
L 360.502691 289.206279 
L 360.827345 289.20052 
L 361.152 287.595778 
L 361.476655 290.120606 
L 361.801309 286.464256 
L 362.125964 287.340997 
L 362.450618 288.573554 
L 362.775273 287.363435 
L 363.099927 279.113788 
L 363.424582 281.717447 
L 364.073891 291.906979 
L 364.398545 287.349531 
L 364.7232 287.663222 
L 365.047855 283.673 
L 365.372509 285.885175 
L 365.697164 294.203459 
L 366.021818 286.982742 
L 366.346473 287.241051 
L 366.671127 284.407694 
L 366.995782 283.669991 
L 367.320436 284.233586 
L 367.645091 281.69475 
L 367.969745 277.939906 
L 368.2944 284.8812 
L 368.619055 284.29221 
L 368.943709 286.77154 
L 369.268364 288.326711 
L 369.593018 284.48445 
L 370.242327 291.340194 
L 370.891636 284.578897 
L 371.216291 289.574313 
L 371.540945 286.886297 
L 371.8656 286.715639 
L 372.190255 281.847639 
L 372.514909 280.118541 
L 372.839564 282.642073 
L 373.164218 280.999484 
L 373.488873 282.293104 
L 373.813527 277.082439 
L 374.138182 276.4376 
L 374.462836 274.627285 
L 374.787491 278.432608 
L 375.4368 271.867831 
L 375.761455 279.667422 
L 376.086109 281.939648 
L 376.410764 279.215238 
L 376.735418 274.187631 
L 377.060073 277.569407 
L 377.384727 276.127178 
L 377.709382 278.043899 
L 378.034036 284.91033 
L 378.358691 282.654939 
L 378.683345 281.575634 
L 379.008 283.542834 
L 379.332655 281.228326 
L 379.657309 282.616522 
L 379.981964 284.742629 
L 380.306618 280.258617 
L 380.631273 282.23186 
L 380.955927 282.487549 
L 381.280582 277.247468 
L 381.605236 277.457295 
L 382.254545 284.980134 
L 382.5792 286.523166 
L 382.903855 284.527147 
L 383.228509 289.210585 
L 383.553164 288.401729 
L 383.877818 286.170617 
L 384.202473 282.82513 
L 384.527127 282.087738 
L 384.851782 280.156154 
L 385.176436 277.403808 
L 385.501091 279.811284 
L 386.1504 278.353906 
L 386.799709 284.062642 
L 387.124364 283.71606 
L 387.449018 284.87142 
L 387.773673 284.120462 
L 388.422982 281.093776 
L 388.747636 282.686793 
L 389.072291 283.359387 
L 389.396945 289.102312 
L 389.7216 292.358151 
L 390.046255 293.024545 
L 390.370909 288.677262 
L 390.695564 291.494951 
L 391.020218 289.894904 
L 391.344873 286.214741 
L 391.669527 287.109769 
L 392.318836 293.891896 
L 392.643491 289.657087 
L 392.968145 291.669422 
L 393.2928 295.488 
L 393.942109 291.992633 
L 394.266764 285.959493 
L 394.591418 285.498308 
L 394.916073 283.721948 
L 395.240727 284.320484 
L 395.565382 287.538036 
L 395.890036 282.021877 
L 396.214691 281.603208 
L 396.864 284.521544 
L 397.188655 278.682045 
L 397.513309 281.938143 
L 397.837964 280.332545 
L 398.162618 280.569531 
L 398.487273 281.6851 
L 398.487273 281.6851 
" clip-path="url(#pe04dfe56ee)" style="fill: none; stroke: #1f77b4; stroke-width: 1.5; stroke-linecap: square"/>
   </g>
   <g id="patch_3">
    <path d="M 57.6 307.584 
L 57.6 41.472 
" style="fill: none; stroke: #000000; stroke-width: 0.8; stroke-linejoin: miter; stroke-linecap: square"/>
   </g>
   <g id="patch_4">
    <path d="M 414.72 307.584 
L 414.72 41.472 
" style="fill: none; stroke: #000000; stroke-width: 0.8; stroke-linejoin: miter; stroke-linecap: square"/>
   </g>
   <g id="patch_5">
    <path d="M 57.6 307.584 
L 414.72 307.584 
" style="fill: none; stroke: #000000; stroke-width: 0.8; stroke-linejoin: miter; stroke-linecap: square"/>
   </g>
   <g id="patch_6">
    <path d="M 57.6 41.472 
L 414.72 41.472 
" style="fill: none; stroke: #000000; stroke-width: 0.8; stroke-linejoin: miter; stroke-linecap: square"/>
   </g>
   <g id="text_14">
    <!-- Reduced Temperature,T$^*$=0.65 -->
    <g transform="translate(140.88 35.472) scale(0.12 -0.12)">
     <defs>
      <path id="DejaVuSans-54" d="M -19 4666 
L 3928 4666 
L 3928 4134 
L 2272 4134 
L 2272 0 
L 1638 0 
L 1638 4134 
L -19 4134 
L -19 4666 
z
" transform="scale(0.015625)"/>
      <path id="DejaVuSans-6d" d="M 3328 2828 
Q 3544 3216 3844 3400 
Q 4144 3584 4550 3584 
Q 5097 3584 5394 3201 
Q 5691 2819 5691 2113 
L 5691 0 
L 5113 0 
L 5113 2094 
Q 5113 2597 4934 2840 
Q 4756 3084 4391 3084 
Q 3944 3084 3684 2787 
Q 3425 2491 3425 1978 
L 3425 0 
L 2847 0 
L 2847 2094 
Q 2847 2600 2669 2842 
Q 2491 3084 2119 3084 
Q 1678 3084 1418 2786 
Q 1159 2488 1159 1978 
L 1159 0 
L 581 0 
L 581 3500 
L 1159 3500 
L 1159 2956 
Q 1356 3278 1631 3431 
Q 1906 3584 2284 3584 
Q 2666 3584 2933 3390 
Q 3200 3197 3328 2828 
z
" transform="scale(0.015625)"/>
      <path id="DejaVuSans-70" d="M 1159 525 
L 1159 -1331 
L 581 -1331 
L 581 3500 
L 1159 3500 
L 1159 2969 
Q 1341 3281 1617 3432 
Q 1894 3584 2278 3584 
Q 2916 3584 3314 3078 
Q 3713 2572 3713 1747 
Q 3713 922 3314 415 
Q 2916 -91 2278 -91 
Q 1894 -91 1617 61 
Q 1341 213 1159 525 
z
M 3116 1747 
Q 3116 2381 2855 2742 
Q 2594 3103 2138 3103 
Q 1681 3103 1420 2742 
Q 1159 2381 1159 1747 
Q 1159 1113 1420 752 
Q 1681 391 2138 391 
Q 2594 391 2855 752 
Q 3116 1113 3116 1747 
z
" transform="scale(0.015625)"/>
      <path id="DejaVuSans-61" d="M 2194 1759 
Q 1497 1759 1228 1600 
Q 959 1441 959 1056 
Q 959 750 1161 570 
Q 1363 391 1709 391 
Q 2188 391 2477 730 
Q 2766 1069 2766 1631 
L 2766 1759 
L 2194 1759 
z
M 3341 1997 
L 3341 0 
L 2766 0 
L 2766 531 
Q 2569 213 2275 61 
Q 1981 -91 1556 -91 
Q 1019 -91 701 211 
Q 384 513 384 1019 
Q 384 1609 779 1909 
Q 1175 2209 1959 2209 
L 2766 2209 
L 2766 2266 
Q 2766 2663 2505 2880 
Q 2244 3097 1772 3097 
Q 1472 3097 1187 3025 
Q 903 2953 641 2809 
L 641 3341 
Q 956 3463 1253 3523 
Q 1550 3584 1831 3584 
Q 2591 3584 2966 3190 
Q 3341 2797 3341 1997 
z
" transform="scale(0.015625)"/>
      <path id="DejaVuSans-74" d="M 1172 4494 
L 1172 3500 
L 2356 3500 
L 2356 3053 
L 1172 3053 
L 1172 1153 
Q 1172 725 1289 603 
Q 1406 481 1766 481 
L 2356 481 
L 2356 0 
L 1766 0 
Q 1100 0 847 248 
Q 594 497 594 1153 
L 594 3053 
L 172 3053 
L 172 3500 
L 594 3500 
L 594 4494 
L 1172 4494 
z
" transform="scale(0.015625)"/>
      <path id="DejaVuSans-2c" d="M 750 794 
L 1409 794 
L 1409 256 
L 897 -744 
L 494 -744 
L 750 256 
L 750 794 
z
" transform="scale(0.015625)"/>
      <path id="DejaVuSans-2a" d="M 3009 3897 
L 1888 3291 
L 3009 2681 
L 2828 2375 
L 1778 3009 
L 1778 1831 
L 1422 1831 
L 1422 3009 
L 372 2375 
L 191 2681 
L 1313 3291 
L 191 3897 
L 372 4206 
L 1422 3572 
L 1422 4750 
L 1778 4750 
L 1778 3572 
L 2828 4206 
L 3009 3897 
z
" transform="scale(0.015625)"/>
      <path id="DejaVuSans-3d" d="M 678 2906 
L 4684 2906 
L 4684 2381 
L 678 2381 
L 678 2906 
z
M 678 1631 
L 4684 1631 
L 4684 1100 
L 678 1100 
L 678 1631 
z
" transform="scale(0.015625)"/>
      <path id="DejaVuSans-2e" d="M 684 794 
L 1344 794 
L 1344 0 
L 684 0 
L 684 794 
z
" transform="scale(0.015625)"/>
      <path id="DejaVuSans-35" d="M 691 4666 
L 3169 4666 
L 3169 4134 
L 1269 4134 
L 1269 2991 
Q 1406 3038 1543 3061 
Q 1681 3084 1819 3084 
Q 2600 3084 3056 2656 
Q 3513 2228 3513 1497 
Q 3513 744 3044 326 
Q 2575 -91 1722 -91 
Q 1428 -91 1123 -41 
Q 819 9 494 109 
L 494 744 
Q 775 591 1075 516 
Q 1375 441 1709 441 
Q 2250 441 2565 725 
Q 2881 1009 2881 1497 
Q 2881 1984 2565 2268 
Q 2250 2553 1709 2553 
Q 1456 2553 1204 2497 
Q 953 2441 691 2322 
L 691 4666 
z
" transform="scale(0.015625)"/>
     </defs>
     <use xlink:href="#DejaVuSans-52" transform="translate(0 0.765625)"/>
     <use xlink:href="#DejaVuSans-65" transform="translate(69.482422 0.765625)"/>
     <use xlink:href="#DejaVuSans-64" transform="translate(131.005859 0.765625)"/>
     <use xlink:href="#DejaVuSans-75" transform="translate(194.482422 0.765625)"/>
     <use xlink:href="#DejaVuSans-63" transform="translate(257.861328 0.765625)"/>
     <use xlink:href="#DejaVuSans-65" transform="translate(312.841797 0.765625)"/>
     <use xlink:href="#DejaVuSans-64" transform="translate(374.365234 0.765625)"/>
     <use xlink:href="#DejaVuSans-20" transform="translate(437.841797 0.765625)"/>
     <use xlink:href="#DejaVuSans-54" transform="translate(469.628906 0.765625)"/>
     <use xlink:href="#DejaVuSans-65" transform="translate(530.712891 0.765625)"/>
     <use xlink:href="#DejaVuSans-6d" transform="translate(592.236328 0.765625)"/>
     <use xlink:href="#DejaVuSans-70" transform="translate(689.648438 0.765625)"/>
     <use xlink:href="#DejaVuSans-65" transform="translate(753.125 0.765625)"/>
     <use xlink:href="#DejaVuSans-72" transform="translate(814.648438 0.765625)"/>
     <use xlink:href="#DejaVuSans-61" transform="translate(855.761719 0.765625)"/>
     <use xlink:href="#DejaVuSans-74" transform="translate(917.041016 0.765625)"/>
     <use xlink:href="#DejaVuSans-75" transform="translate(956.25 0.765625)"/>
     <use xlink:href="#DejaVuSans-72" transform="translate(1019.628906 0.765625)"/>
     <use xlink:href="#DejaVuSans-65" transform="translate(1060.742188 0.765625)"/>
     <use xlink:href="#DejaVuSans-2c" transform="translate(1122.265625 0.765625)"/>
     <use xlink:href="#DejaVuSans-54" transform="translate(1154.052734 0.765625)"/>
     <use xlink:href="#DejaVuSans-2a" transform="translate(1229.731445 39.046875) scale(0.7)"/>
     <use xlink:href="#DejaVuSans-3d" transform="translate(1281.103516 0.765625)"/>
     <use xlink:href="#DejaVuSans-30" transform="translate(1364.892578 0.765625)"/>
     <use xlink:href="#DejaVuSans-2e" transform="translate(1428.515625 0.765625)"/>
     <use xlink:href="#DejaVuSans-36" transform="translate(1460.302734 0.765625)"/>
     <use xlink:href="#DejaVuSans-35" transform="translate(1523.925781 0.765625)"/>
    </g>
   </g>
  </g>
 </g>
 <defs>
  <clipPath id="pe04dfe56ee">
   <rect x="57.6" y="41.472" width="357.12" height="266.112"/>
  </clipPath>
 </defs>
</svg>
